<svg viewBox="0 0 64 64" xmlns="http://www.w3.org/2000/svg"><path fill="#e5e6eb" d="M32 7h-4V3H14v6H7v8H3v30h4v8h7v6h14v-4h4V7z" class="fill-e5e6eb"></path><path fill="#d9dae2" d="M32 7h4V3h14v6h7v8h4v30h-4v8h-7v6H36v-4h-4V7z" class="fill-d9dae2"></path><path d="M25 13h-2V7a1 1 0 0 1 1-1h4v2h-3zM29 57h-2v-5h-4a1 1 0 0 1-1-1v-4h2v3h4a1 1 0 0 1 1 1z" fill="#ffffff" class="fill-ffffff"></path><path d="M18 56h-4v-2h3V43a1 1 0 0 1 1-1h6v2h-5v11a1 1 0 0 1-1 1zM12 48H7v-2h4v-7H9v2H7v-3a1 1 0 0 1 1-1h4a1 1 0 0 1 1 1v9a1 1 0 0 1-1 1zM24 24h-6a1 1 0 0 1-1-1v-5h-3a1 1 0 0 1-1-1V9h2v7h3a1 1 0 0 1 1 1v5h5zM12 28H7a1 1 0 0 1-1-1V17h2v9h4zM41 13h-2V8h-3V6h4a1 1 0 0 1 1 1zM37 57h-2v-6a1 1 0 0 1 1-1h4v-3h2v4a1 1 0 0 1-1 1h-4z" fill="#ffffff" class="fill-ffffff"></path><path d="M50 56h-4a1 1 0 0 1-1-1V44h-5v-2h6a1 1 0 0 1 1 1v11h3zM57 48h-5a1 1 0 0 1-1-1v-9a1 1 0 0 1 1-1h4a1 1 0 0 1 1 1v3h-2v-2h-2v7h4zM46 24h-6v-2h5v-5a1 1 0 0 1 1-1h3V9h2v8a1 1 0 0 1-1 1h-3v5a1 1 0 0 1-1 1zM57 28h-5v-2h4v-9h2v10a1 1 0 0 1-1 1z" fill="#ffffff" class="fill-ffffff"></path><path d="M61 16h-3V9a1 1 0 0 0-1-1h-6V3a1 1 0 0 0-1-1H36a1 1 0 0 0-1 1v3h-6V3a1 1 0 0 0-1-1H14a1 1 0 0 0-1 1v5H7a1 1 0 0 0-1 1v7H3a1 1 0 0 0-1 1v30a1 1 0 0 0 1 1h3v7a1 1 0 0 0 1 1h6v5a1 1 0 0 0 1 1h14a1 1 0 0 0 1-1v-3h6v3a1 1 0 0 0 1 1h14a1 1 0 0 0 1-1v-5h6a1 1 0 0 0 1-1v-7h3a1 1 0 0 0 1-1V17a1 1 0 0 0-1-1zm-1 30h-7v-7h2v2h2v-3a1 1 0 0 0-1-1h-4a1 1 0 0 0-1 1v9a1 1 0 0 0 1 1h4v6h-9V43a1 1 0 0 0-1-1h-6v2h5v11a1 1 0 0 0 1 1h3v4H37v-8h4a1 1 0 0 0 1-1v-4h-2v3h-4a1 1 0 0 0-1 1v5h-2V40.212h-2V56h-2v-5a1 1 0 0 0-1-1h-4v-3h-2v4a1 1 0 0 0 1 1h4v8H15v-4h3a1 1 0 0 0 1-1V44h5v-2h-6a1 1 0 0 0-1 1v11H8v-6h4a1 1 0 0 0 1-1v-9a1 1 0 0 0-1-1H8a1 1 0 0 0-1 1v3h2v-2h2v7H4V18h2v9a1 1 0 0 0 1 1h5v-2H8V10h5v7a1 1 0 0 0 1 1h3v5a1 1 0 0 0 1 1h6v-2h-5v-5a1 1 0 0 0-1-1h-3V4h12v2h-3a1 1 0 0 0-1 1v6h2V8h6v16h2V8h6v5h2V7a1 1 0 0 0-1-1h-3V4h12v12h-3a1 1 0 0 0-1 1v5h-5v2h6a1 1 0 0 0 1-1v-5h3a1 1 0 0 0 1-1v-7h5v16h-4v2h5a1 1 0 0 0 1-1v-9h2z" fill="#000000" class="fill-000000"></path><path d="m38.8 33.848 2-.711v-2.274l-2-.711-.681-1.652.912-1.921-1.607-1.607-1.921.912-1.655-.684-.711-2h-2.274l-.711 2-1.655.686-1.921-.912-1.607 1.607.912 1.921-.681 1.65-2 .711v2.274l2 .711.686 1.655-.912 1.921 1.607 1.607 1.921-.912 1.655.685.711 2h2.274l.711-2 1.655-.685 1.921.912 1.607-1.607-.917-1.924zM32 35a3 3 0 1 1 3-3 3 3 0 0 1-3 3z" fill="#3239fa" class="fill-027de5"></path></svg>