<svg viewBox="0 0 64 64" xmlns="http://www.w3.org/2000/svg"><path d="M35 21h6a3 3 0 0 1 0-6h14a3 3 0 0 1 0 6h-6a3 3 0 0 1 0 6H35a3 3 0 0 1 0-6z" fill="#24d9e3" class="fill-cfcfd9"></path><path d="M49 28h-9v-2h9a2 2 0 0 0 0-4 1 1 0 0 1 0-2h6a2 2 0 0 0 0-4H41a2 2 0 0 0-.779.157l-.778-1.842A3.975 3.975 0 0 1 41 14h14a4 4 0 0 1 0 8h-2.537A4 4 0 0 1 49 28zM31.315 25.557A4 4 0 0 1 35 20h1v2h-1a2 2 0 0 0-1.843 2.779z" fill="#000000" class="fill-000000"></path><path d="M28 55h-7a3 3 0 0 0 0-6H9a3 3 0 0 0 0 6h7a3 3 0 0 0 0 6h12a3 3 0 0 0 0-6z" fill="#24d9e3" class="fill-cfcfd9"></path><path d="M36 9v6H26V9h-4v52h4v-2h10v2h4V9zm0 46H26v-6h10zm0-10H26V29h10zm0-20H26v-6h10z" fill="#ada421" class="fill-027de5"></path><path d="M39 40h-6a3 3 0 0 0 0-6H19a3 3 0 0 0 0 6h6a3 3 0 0 0 0 6h14a3 3 0 0 0 0-6zM24 7h-3a2 2 0 0 0 0-4h-8a2 2 0 0 0 0 4h3a2 2 0 0 0 0 4h8a2 2 0 0 0 0-4z" fill="#aeb4e3" class="fill-d9dae2"></path><path d="M22.035 61H16a4 4 0 0 1-3.463-6H9a4 4 0 0 1 0-8h13v2H9a2 2 0 0 0 0 4h7a1 1 0 0 1 0 2 2 2 0 0 0 0 4h6.035zM39 47H25a4 4 0 0 1-3.463-6H19a4 4 0 0 1 0-8h14a4 4 0 0 1 3.463 6H39a4 4 0 0 1 0 8zm-14-6a2 2 0 0 0 0 4h14a2 2 0 0 0 0-4h-6a1 1 0 0 1 0-2 2 2 0 0 0 0-4H19a2 2 0 0 0 0 4h6a1 1 0 0 1 0 2zM24 12h-8a3 3 0 0 1-2.829-4H13a3 3 0 0 1 0-6h8a3 3 0 0 1 2.829 4H24a3 3 0 0 1 0 6zm-8-4a1 1 0 0 0 0 2h8a1 1 0 0 0 0-2h-3a1 1 0 0 1 0-2 1 1 0 0 0 0-2h-8a1 1 0 0 0 0 2h3a1 1 0 0 1 0 2z" fill="#000000" class="fill-000000"></path></svg>