<svg viewBox="0 0 64 64" xmlns="http://www.w3.org/2000/svg"><path d="M36 56v-7h-8v7h-4.926A3.074 3.074 0 0 0 20 59.074V61h24v-1.926A3.074 3.074 0 0 0 40.926 56z" fill="#e5e6eb" class="fill-e5e6eb"></path><path fill="#cfcfd9" d="M34 49h2v7h-2zM40.927 56h-2A3.073 3.073 0 0 1 42 59.073V61h2v-1.927A3.073 3.073 0 0 0 40.927 56z" class="fill-cfcfd9"></path><rect height="40" rx="3.92" ry="3.92" width="58" x="3" y="11" fill="#d9dae2" class="fill-d9dae2"></rect><path d="M58.662 11.338A3.905 3.905 0 0 1 59 12.92v32.16A3.92 3.92 0 0 1 55.08 49H4.92a3.905 3.905 0 0 1-1.582-.338A3.918 3.918 0 0 0 6.92 51h50.16A3.92 3.92 0 0 0 61 47.08V14.92a3.918 3.918 0 0 0-2.338-3.582z" fill="#cfcfd9" class="fill-cfcfd9"></path><path d="M8.183 15h47.634A1.183 1.183 0 0 1 57 16.183V43H7V16.183A1.183 1.183 0 0 1 8.183 15z" fill="#000000" class="fill-000000"></path><path d="M8.183 15h47.634A1.183 1.183 0 0 1 57 16.183 26.817 26.817 0 0 1 30.183 43H7V16.183A1.183 1.183 0 0 1 8.183 15z" fill="#444444" class="fill-444444"></path><path d="M13 3h11.757A10.43 10.43 0 0 1 32 5.9 10.43 10.43 0 0 1 39.243 3H51v26H13z" fill="#3239fa" class="fill-027de5"></path><path d="M39.243 3A10.43 10.43 0 0 0 32 5.9 10.43 10.43 0 0 0 24.757 3H17v20h30V3z" fill="#cceaff" class="fill-cceaff"></path><path d="M34 22V4.407A10.171 10.171 0 0 0 32 5.9V22H17v4h30v-4z" fill="#53f292" class="fill-85b4e0"></path><path fill="#0aa399" d="M19 9V5h4l-4 4z" class="fill-ffffff"></path><path d="m37 34.586-1.489 1.489A1.96 1.96 0 0 0 35 36a2 2 0 1 0 2 2 1.96 1.96 0 0 0-.075-.511l1.782-1.782A1 1 0 0 0 39 35v-7h-2zM44 36.278V28h-2v8.278a2 2 0 1 0 2 0zM49 33.278V28h-2v5.278a2 2 0 1 0 2 0zM29 34.278V28h-2v6.278a2 2 0 1 0 2 0z" fill="#3239fa" class="fill-027de5"></path><path d="M26 38a1.96 1.96 0 0 0-.511.075L23 35.586V28h-2v8a1 1 0 0 0 .293.707l2.782 2.782A1.96 1.96 0 0 0 24 40a2 2 0 1 0 2-2zM18 33.278V28h-2v5.278a2 2 0 1 0 2 0z" fill="#3239fa" class="fill-027de5"></path><path d="M57.08 10H51v2h6.08A2.923 2.923 0 0 1 60 14.92v32.16A2.923 2.923 0 0 1 57.08 50H6.92A2.923 2.923 0 0 1 4 47.08V14.92A2.923 2.923 0 0 1 6.92 12H13v-2H6.92A4.925 4.925 0 0 0 2 14.92v32.16A4.925 4.925 0 0 0 6.92 52H27v3h-3.926A4.079 4.079 0 0 0 19 59.074V61a1 1 0 0 0 1 1h24a1 1 0 0 0 1-1v-1.926A4.079 4.079 0 0 0 40.926 55H37v-3h20.08A4.925 4.925 0 0 0 62 47.08V14.92A4.925 4.925 0 0 0 57.08 10zM36 57h4.926A2.076 2.076 0 0 1 43 59.074V60H21v-.926A2.076 2.076 0 0 1 23.074 57H28a1 1 0 0 0 1-1v-4h6v4a1 1 0 0 0 1 1z" fill="#000000" class="fill-000000"></path><path d="M56 16.184V42H8V16.184A.185.185 0 0 1 8.184 16H13v-2H8.184A2.186 2.186 0 0 0 6 16.184V43a1 1 0 0 0 1 1h50a1 1 0 0 0 1-1V16.184A2.186 2.186 0 0 0 55.816 14H51v2h4.816a.185.185 0 0 1 .184.184z" fill="#000000" class="fill-000000"></path></svg>