<svg viewBox="0 0 64 64" xmlns="http://www.w3.org/2000/svg"><path fill="#e5e6eb" d="M49 7h-6L33 3 18 13l3 3 11-5 8 4h9V7z" style="--darkreader-inline-fill: #ccc9c5;" data-darkreader-inline-fill="" class="fill-e5e6eb"></path><path fill="#53f292" d="m32 9-11 5-1.8-1.8-1.2.8 3 3 11-5 8 4h9v-2h-9l-8-4z" style="--darkreader-inline-fill: #50d886;" data-darkreader-inline-fill="" class="fill-d9dae2"></path><path fill="#e5e6eb" d="M15 57h6l10 4 15-10-3-3-11 5-8-4h-9v8z" style="--darkreader-inline-fill: #ccc9c5;" data-darkreader-inline-fill="" class="fill-e5e6eb"></path><path fill="#53f292" d="m31 59-10-4h-6v2h6l10 4 15-10-1.2-1.2L31 59z" style="--darkreader-inline-fill: #50d886;" data-darkreader-inline-fill="" class="fill-d9dae2"></path><circle cx="32" cy="32" r="15" fill="#027de5" style="--darkreader-inline-fill: #3e75a3;" data-darkreader-inline-fill="" class="fill-027de5"></circle><path d="M41.559 20.441a15 15 0 0 1-21.118 21.118 15 15 0 1 0 21.118-21.118z" fill="#0468ad" style="--darkreader-inline-fill: #3c627c;" data-darkreader-inline-fill="" class="fill-0468ad"></path><path d="m20 34 3 2 2 1 1 2h2l1-6 3-2 1-2h3l3-2-3-4 7.14-1.02A14.972 14.972 0 0 0 17.05 31H20zM40 35l-3 1-4 1-1 4 2 3 2-2h2l2.986 1.99a15.036 15.036 0 0 0 4.785-6.047L42 37z" fill="#53f292" style="--darkreader-inline-fill: #50d886;" data-darkreader-inline-fill="" class="fill-d9dae2"></path><path fill="#3239fa" d="M48 6h6v10h-6z" style="--darkreader-inline-fill: #464bcf;" data-darkreader-inline-fill="" class="fill-94c7f2"></path><path fill="#cceaff" d="M54 6v6l-6-6" style="--darkreader-inline-fill: #cac7c3;" data-darkreader-inline-fill="" class="fill-cceaff"></path><path fill="#0aa399" d="M48 14h6v2h-6z" style="--darkreader-inline-fill: #3c7975;" data-darkreader-inline-fill="" class="fill-85b4e0"></path><path fill="#3239fa" d="M16 58h-6V48h6z" style="--darkreader-inline-fill: #464bcf;" data-darkreader-inline-fill="" class="fill-94c7f2"></path><path fill="#cceaff" d="M10 48h6l-6 6v-6z" style="--darkreader-inline-fill: #cac7c3;" data-darkreader-inline-fill="" class="fill-cceaff"></path><path fill="#0aa399" d="M16 58h-6v-2h6z" style="--darkreader-inline-fill: #3c7975;" data-darkreader-inline-fill="" class="fill-85b4e0"></path><path fill="#ffffff" d="M15 54h-2l2-2v2zM51 12h-2v-2l2 2z" style="--darkreader-inline-fill: #dcdad7;" data-darkreader-inline-fill="" class="fill-ffffff"></path><path d="M32 16a16 16 0 1 0 16 16 16.019 16.019 0 0 0-16-16zm0 2a13.932 13.932 0 0 1 8.985 3.278l-5.127.732a1 1 0 0 0-.658 1.59l2.365 3.154L35.7 28H33a1 1 0 0 0-.9.553l-.88 1.762-2.78 1.853a1 1 0 0 0-.431.667L27.153 38h-.535l-.718-1.447a1 1 0 0 0-.448-.448l-1.952-.972-2.5-1.668V31a1 1 0 0 0-1-1h-1.84A14.009 14.009 0 0 1 32 18zM18 32h1v2a1 1 0 0 0 .445.832l3 2a1.05 1.05 0 0 0 .108.063l1.7.85.85 1.7A1 1 0 0 0 26 40h2a1 1 0 0 0 .986-.835l.929-5.573 2.64-1.76a1.018 1.018 0 0 0 .34-.385L33.618 30H36a1.006 1.006 0 0 0 .555-.168l3-2A1 1 0 0 0 39.8 26.4l-1.987-2.649 4.937-.705a13.886 13.886 0 0 1 2.4 13.711l-2.638-.66-1.8-1.8a1 1 0 0 0-1.023-.242l-2.926.979-4 1a1 1 0 0 0-.728.727l-1 4a1 1 0 0 0 .138.8l2 3A1 1 0 0 0 33.9 45a.842.842 0 0 0 .1 0 1 1 0 0 0 .707-.293L36.414 43H37.7l1.489.993A13.971 13.971 0 0 1 18 32zm22.943 10.76-2.388-1.592A1.006 1.006 0 0 0 38 41h-2a1 1 0 0 0-.707.293l-1.138 1.137-1.078-1.617.748-2.989 3.491-.875 2.413-.8 1.564 1.563a1 1 0 0 0 .465.263l2.576.644a14.1 14.1 0 0 1-3.391 4.141z" fill="#000000" style="--darkreader-inline-fill: #181a1b;" data-darkreader-inline-fill="" class="fill-000000"></path></svg>