<svg viewBox="0 0 64 64" xmlns="http://www.w3.org/2000/svg"><path fill="#e5e6eb" d="m26 53 4-4h14l11-15-4-3-8 8H24l-6 6 8 8z" style="--darkreader-inline-fill: #ccc9c5;" data-darkreader-inline-fill="" class="fill-e5e6eb"></path><path fill="#3239fa" d="m10 50 7-7 10.999 11-7 7z" style="--darkreader-inline-fill: #464bcf;" data-darkreader-inline-fill="" class="fill-cceaff"></path><path fill="#0aa399" d="m18.5 58.5 7-7L28 54l-7 7z" style="--darkreader-inline-fill: #3c7975;" data-darkreader-inline-fill="" class="fill-85b4e0"></path><path fill="#d9dae2" d="M36 43v-4h2v6h-8v-2h6z" style="--darkreader-inline-fill: #c4c1bc;" data-darkreader-inline-fill="" class="fill-d9dae2"></path><path fill="#ffffff" d="m16 53 3-3 3 3h-6z" style="--darkreader-inline-fill: #dcdad7;" data-darkreader-inline-fill="" class="fill-ffffff"></path><circle cx="32" cy="27" r="8" fill="#53f292" style="--darkreader-inline-fill: #50d886;" data-darkreader-inline-fill="" class="fill-027de5"></circle><circle cx="50" cy="17" r="6" fill="#53f292" style="--darkreader-inline-fill: #50d886;" data-darkreader-inline-fill="" class="fill-027de5"></circle><circle cx="15" cy="13" r="4" fill="#53f292" style="--darkreader-inline-fill: #50d886;" data-darkreader-inline-fill="" class="fill-027de5"></circle><path d="M34.14 32.114a3.028 3.028 0 0 0-.2-4.464l-2.593-2.16a1.025 1.025 0 0 1-.069-1.512 1.051 1.051 0 0 1 1.45 0l1.568 1.568 1.414-1.414-1.568-1.569a2.99 2.99 0 0 0-1.139-.7v-2.79a7.281 7.281 0 0 0-2 0v2.789a3 3 0 0 0-1.14.7 3.027 3.027 0 0 0 .2 4.464l2.593 2.161a1.025 1.025 0 0 1 .07 1.511 1.027 1.027 0 0 1-1.451 0l-1.568-1.568-1.414 1.414 1.568 1.569a2.983 2.983 0 0 0 1.139.7v2.113a7.281 7.281 0 0 0 2 0v-2.108a3 3 0 0 0 1.14-.704z" fill="#ffffff" style="--darkreader-inline-fill: #dcdad7;" data-darkreader-inline-fill="" class="fill-ffffff"></path><path fill="none" stroke="#3239fa" stroke-linejoin="round" d="M32 9v7M28 7v7M36 7v7M15 2v4M19 2v6M11 2v2M46 4v5M50 3v5M54 2v3" style="--darkreader-inline-fill: none; --darkreader-inline-stroke: #464bcf;" data-darkreader-inline-fill="" data-darkreader-inline-stroke="" class="stroke-07d2ed"></path><path d="m55.6 33.2-4-3a1 1 0 0 0-1.307.093L42.586 38H24a1 1 0 0 0-.707.293L18.5 43.086l-.793-.793a1 1 0 0 0-1.414 0l-7 7a1 1 0 0 0 0 1.414l11 11a1 1 0 0 0 1.414 0l7-7a1 1 0 0 0 0-1.414l-.793-.793 2.5-2.5H44a1 1 0 0 0 .807-.408l11-15A1 1 0 0 0 55.6 33.2zM21 59.586 11.414 50 17 44.414 26.586 54zM43.493 48H30a1 1 0 0 0-.707.293L26.5 51.086 19.914 44.5l4.5-4.5H37v4h-7v2h8a1 1 0 0 0 1-1v-5h4a1 1 0 0 0 .707-.293l7.387-7.387 2.514 1.886z" fill="#000000" style="--darkreader-inline-fill: #181a1b;" data-darkreader-inline-fill="" class="fill-000000"></path></svg>