<svg viewBox="0 0 64 64" xmlns="http://www.w3.org/2000/svg"><path d="M12 11h40v32.946A17.054 17.054 0 0 1 34.946 61h-5.892A17.054 17.054 0 0 1 12 43.946V11z" fill="#e5e6eb" class="fill-e5e6eb"></path><path d="M50 11v31.946A17.054 17.054 0 0 1 32.946 60h-5.892a16.981 16.981 0 0 1-6.524-1.3 16.944 16.944 0 0 0 8.524 2.3h5.892A17.054 17.054 0 0 0 52 43.946V11z" fill="#cfcfd9" class="fill-cfcfd9"></path><path fill="#cceaff" d="M12 22h5v7h-5z" class="fill-cceaff"></path><path d="M22.931 3A4.931 4.931 0 0 0 18 7.931V9h-5.931A4.069 4.069 0 0 0 8 13.069v6.862A4.069 4.069 0 0 0 12.069 24H18v-7h34.039A5.961 5.961 0 0 0 58 11.039V3z" fill="#d9dae2" class="fill-d9dae2"></path><path d="M22.931 3A4.931 4.931 0 0 0 18 7.931V9h-5.931A4.069 4.069 0 0 0 8 13.069v6.862A4.069 4.069 0 0 0 12.069 24H18v-7h34.039A5.961 5.961 0 0 0 58 11.039V3z" fill="#3239fa" class="fill-94c7f2"></path><path d="M56 3v6.039A5.961 5.961 0 0 1 50.039 15H16v7h-5.931a4.038 4.038 0 0 1-1.691-.378A4.062 4.062 0 0 0 12.069 24H18v-7h34.039A5.961 5.961 0 0 0 58 11.039V3z" fill="#85b4e0" class="fill-85b4e0"></path><path fill="#ffffff" d="M49 32h2v7h-2zM45 34h2v5h-2zM41 35h2v4h-2zM18.725 32.978l1.568 1.568 1.414-1.414-1.568-1.568a3.005 3.005 0 0 0-1.139-.7V28h-2v2.859a3.015 3.015 0 0 0-.937 5.167l2.593 2.161a1.026 1.026 0 0 1 .069 1.513 1.051 1.051 0 0 1-1.45 0l-1.568-1.568-1.414 1.414 1.568 1.568a2.99 2.99 0 0 0 1.139.7V44h2v-2.182a2.99 2.99 0 0 0 1.139-.7 3.025 3.025 0 0 0-.2-4.463l-2.595-2.165a1.025 1.025 0 0 1-.069-1.512 1.049 1.049 0 0 1 1.45 0z" class="fill-ffffff"></path><path d="M51 43.946A16.072 16.072 0 0 1 34.946 60h-5.892A16.072 16.072 0 0 1 13 43.946V40h-2v3.946A18.074 18.074 0 0 0 29.054 62h5.892A18.074 18.074 0 0 0 53 43.946V40h-2zM58 2H22.931A5.938 5.938 0 0 0 17 7.931V8h-4.931A5.075 5.075 0 0 0 7 13.069v6.862a5.074 5.074 0 0 0 4 4.951V28h2v-3h5a1 1 0 0 0 1-1v-6h32v10h2V17.926a6.967 6.967 0 0 0 6-6.887V3a1 1 0 0 0-1-1zM17 17v6h-4.931A3.073 3.073 0 0 1 9 19.931v-6.862A3.073 3.073 0 0 1 12.069 10H17zm40-5.961A4.967 4.967 0 0 1 52.039 16H19V7.931A3.935 3.935 0 0 1 22.931 4H57z" fill="#000000" class="fill-000000"></path><path d="M11.07 28h13.86A3.07 3.07 0 0 1 28 31.07V34a10 10 0 0 1-10 10A10 10 0 0 1 8 34v-2.93A3.07 3.07 0 0 1 11.07 28zM39.07 28h13.86A3.07 3.07 0 0 1 56 31.07V34a10 10 0 0 1-10 10 10 10 0 0 1-10-10v-2.93A3.07 3.07 0 0 1 39.07 28z" fill="#53f292" class="fill-027de5"></path><path d="m36.293 34.707-1-1a4.664 4.664 0 0 0-6.586 0l-1 1-1.414-1.414 1-1a6.663 6.663 0 0 1 9.414 0l1 1z" fill="#53f292" class="fill-027de5"></path><path d="M10 34v-1.986A2.014 2.014 0 0 1 12.014 30H14z" fill="#ffffff" class="fill-ffffff"></path><path d="M53.561 28.066a10 10 0 0 1-16.754 9.871A10 10 0 0 0 56 34v-2.93a3.071 3.071 0 0 0-2.439-3.004zM25.561 28.066a10 10 0 0 1-16.754 9.871A10 10 0 0 0 28 34v-2.93a3.071 3.071 0 0 0-2.439-3.004z" fill="#0aa399" class="fill-0468ad"></path><path d="M49 32h2v7h-2zM45 34h2v5h-2zM41 35h2v4h-2zM17.344 34.49a1.025 1.025 0 0 1-.069-1.512 1.049 1.049 0 0 1 1.45 0l1.568 1.568 1.414-1.414-1.568-1.568a3.005 3.005 0 0 0-1.139-.7V28h-2v2.859a3.015 3.015 0 0 0-.937 5.167l2.593 2.161a1.026 1.026 0 0 1 .069 1.513 1.051 1.051 0 0 1-1.45 0l-1.568-1.568-1.414 1.414 1.568 1.568a2.99 2.99 0 0 0 1.139.7V44h2v-2.182a2.99 2.99 0 0 0 1.139-.7 3.025 3.025 0 0 0-.2-4.463z" fill="#000000" class="fill-000000"></path></svg>