<svg viewBox="0 0 64 64" xmlns="http://www.w3.org/2000/svg"><path d="M24 49h16a2 2 0 0 1 2 2v6H22v-6a2 2 0 0 1 2-2zM4 11v13.977A4.023 4.023 0 0 0 8.023 29h47.954A4.023 4.023 0 0 0 60 24.977V11zm52 14H8V15h48z" fill="#e5e6eb" class="fill-e5e6eb"></path><path fill="#f0f04d" d="M6 25h2V15h48v-2H6v12z" class="fill-d9dae2"></path><path d="M58 11v11.977A4.023 4.023 0 0 1 53.977 27H6.023a3.989 3.989 0 0 1-1.657-.366A4.016 4.016 0 0 0 8.023 29h47.954A4.023 4.023 0 0 0 60 24.977V11z" fill="#f0f04d" class="fill-d9dae2"></path><path fill="#e5e6eb" d="M30 37h4v13h-4z" class="fill-e5e6eb"></path><path fill="#f0f04d" d="M32 37h2v13h-2z" class="fill-d9dae2"></path><path d="M18 6h28v19a14 14 0 0 1-14 14 14 14 0 0 1-14-14V6z" fill="#e5e6eb" class="fill-e5e6eb"></path><path d="M44 6v17a14 14 0 0 1-22.847 10.847A14 14 0 0 0 46 25V6z" fill="#f0f04d" class="fill-d9dae2"></path><path fill="#3239fa" d="m56 45-3-3-3 3V25h6v20zM8 45l3-3 3 3V25H8v20z" class="fill-cceaff"></path><path fill="#f0f04d" d="M16 3h32v4H16z" class="fill-d9dae2"></path><path fill="#1a1ac7" d="M44 3h4v4h-4z" class="fill-cfcfd9"></path><path fill="#53f292" d="m32.09 14 1.882 3.813 4.207.611-3.044 2.968.718 4.191-3.763-1.978-3.764 1.978.719-4.191L26 18.424l4.208-.611L32.09 14z" class="fill-027de5"></path><path fill="#f0f04d" d="M20 57h24v4H20z" class="fill-444444"></path><path d="M40 57h4v4h-4z" fill="#000000" class="fill-000000"></path><path fill="#ffffff" d="M20 15V9h6l-6 6z" class="fill-ffffff"></path><path d="M60 10H47V8h1a1 1 0 0 0 1-1V3a1 1 0 0 0-1-1H16a1 1 0 0 0-1 1v4a1 1 0 0 0 1 1h1v2H4a1 1 0 0 0-1 1v13.978a5.029 5.029 0 0 0 4 4.916V45a1 1 0 0 0 1.707.707L11 43.414l2.293 2.293A1 1 0 0 0 15 45V30h2.875A15.043 15.043 0 0 0 29 39.7V48h-4.988A3.015 3.015 0 0 0 21 51.012V56h-1a1 1 0 0 0-1 1v4a1 1 0 0 0 1 1h24a1 1 0 0 0 1-1v-4a1 1 0 0 0-1-1h-1v-4.988A3.015 3.015 0 0 0 39.988 48H35v-8.3A15.043 15.043 0 0 0 46.125 30H49v15a1 1 0 0 0 1.707.707L53 43.414l2.293 2.293A1 1 0 0 0 57 45V29.894a5.029 5.029 0 0 0 4-4.916V11a1 1 0 0 0-1-1zm-5 14h-8v-8h8zM17 4h30v2H17zM9 24v-8h8v8zm-4 .978V12h12v2H8a1 1 0 0 0-1 1v12.81a3.019 3.019 0 0 1-2-2.832zm6.707 16.315a1 1 0 0 0-1.414 0L9 42.586V26h4v16.586zM15 28v-2h2.051a15.117 15.117 0 0 0 .251 2zm28 32H21v-2h22zm-2-8.988V56H23v-4.988A1.013 1.013 0 0 1 24.012 50h15.976A1.013 1.013 0 0 1 41 51.012zM33 48h-2v-8.051c.332.022.662.051 1 .051s.668-.029 1-.051zm-1-10a13.015 13.015 0 0 1-13-13V8h26v17a13.015 13.015 0 0 1-13 13zm14.7-10a15.117 15.117 0 0 0 .251-2H49v2zm7.009 13.293a1 1 0 0 0-1.414 0L51 42.586V26h4v16.586zM59 24.978a3.019 3.019 0 0 1-2 2.832V15a1 1 0 0 0-1-1h-9v-2h12z" fill="#000000" class="fill-000000"></path></svg>