<svg viewBox="0 0 64 64" xmlns="http://www.w3.org/2000/svg"><path d="M25.5 25 24 28.01a25.232 25.232 0 0 1-8.567 9.705L15 38l.5.215A25.224 25.224 0 0 0 29 40l3-1h4.838A19.5 19.5 0 0 1 43 40v-3.6a19.487 19.487 0 0 0-2.777-10.026L39.4 25z" fill="#3239fa" class="fill-027de5"></path><path d="M40.223 26.371 39.4 25h-1.314A19.48 19.48 0 0 1 40 33.4a2.836 2.836 0 0 1-3.234 2.823A19.5 19.5 0 0 0 33.838 36H29l-3 1a25.2 25.2 0 0 1-9.078-.369c-.485.377-.981.741-1.494 1.084L15 38l.5.215A25.224 25.224 0 0 0 29 40l3-1h4.838A19.5 19.5 0 0 1 43 40v-3.6a19.493 19.493 0 0 0-2.777-10.029z" fill="#3239fa" class="fill-0468ad"></path><path fill="#ff0303" d="M35 45h-6v-6l-3-3v-9h12v9l-3 3v6z" class="fill-444444"></path><path fill="#d9dae2" d="m47 12-9 9H26l-9-9-3 3 12 12v5h12v-5l12-12-3-3z" class="fill-d9dae2"></path><path fill="#53f292" d="m47 12-1 1 2 2-12 12v5h2v-5l12-12-3-3z" class="fill-cfcfd9"></path><path d="M32 17a3 3 0 0 1-3-3V8h6v6a3 3 0 0 1-3 3z" fill="#e5e6eb" class="fill-e5e6eb"></path><path d="M33 8v6a2.99 2.99 0 0 1-2 2.816A2.962 2.962 0 0 0 32 17a3 3 0 0 0 3-3V8z" fill="#d9dae2" class="fill-d9dae2"></path><path fill="#ada421" d="M37 9H27V3l3 2 2-2 2 2 3-2v6z" class="fill-85b4e0"></path><path d="M31 9h-4V3l3 2 2-2 2 2 3-2a6 6 0 0 1-6 6z" fill="#f0f04d" class="fill-94c7f2"></path><path fill="#cceaff" d="M54 25h2v2h-2zM56 23h2v2h-2zM58 25h2v2h-2zM56 27h2v2h-2zM4 21h2v2H4zM6 19h2v2H6zM8 21h2v2H8zM6 23h2v2H6zM7 5h2v2H7zM9 3h2v2H9zM11 5h2v2h-2zM9 7h2v2H9zM53 6h2v2h-2zM55 4h2v2h-2zM57 6h2v2h-2zM55 8h2v2h-2z" class="fill-cceaff"></path><path fill="#e5e6eb" d="M38 53v-8H26v8H16v8h32v-8H38z" class="fill-e5e6eb"></path><path fill="#53f292" d="M36 45h2v8h-2zM46 53v6H16v2h32v-8h-2z" class="fill-cfcfd9"></path><path fill="#ff0303" d="M31 49h2v6h-2z" class="fill-444444"></path><path fill="#db253a" d="M26 49v-4h4l-4 4z" class="fill-ffffff"></path><circle cx="32" cy="28" r="1" fill="#db253a" class="fill-ffffff"></circle><path fill="#3239fa" d="m36 21-4 4-4-4h8z" class="fill-027de5"></path><path d="M31 49h2v6h-2zM32 18a4 4 0 0 0 4-4V9h-2v5a2 2 0 0 1-4 0V9h-2v5a4 4 0 0 0 4 4zM54 25h2v2h-2zM56 23h2v2h-2zM58 25h2v2h-2zM56 27h2v2h-2zM4 21h2v2H4zM6 19h2v2H6zM8 21h2v2H8zM6 23h2v2H6zM7 5h2v2H7zM9 3h2v2H9zM11 5h2v2h-2zM9 7h2v2H9zM53 6h2v2h-2zM55 4h2v2h-2zM57 6h2v2h-2zM55 8h2v2h-2z" fill="#000000" class="fill-000000"></path><path d="M47.707 11.293a1 1 0 0 0-1.414 0l-9 9A1 1 0 0 0 37 21v10H27V21a1 1 0 0 0-.293-.707l-9-9a1 1 0 0 0-1.414 0l-3 3a1 1 0 0 0 0 1.414L25 27.414V36a1 1 0 0 0 .293.707L28 39.414V44h-2a1 1 0 0 0-1 1v7h-9a1 1 0 0 0-1 1v8a1 1 0 0 0 1 1h32a1 1 0 0 0 1-1v-8a1 1 0 0 0-1-1h-9v-7a1 1 0 0 0-1-1h-2v-4.586l2.707-2.707A1 1 0 0 0 39 36v-8.586l11.707-11.707a1 1 0 0 0 0-1.414zM15.414 15 17 13.414l8 8v3.172zM38 54h9v6H17v-6h9a1 1 0 0 0 1-1v-7h10v7a1 1 0 0 0 1 1zm-3.707-15.707A1 1 0 0 0 34 39v5h-4v-5a1 1 0 0 0-.293-.707L27 35.586V33h10v2.586zM39 24.586v-3.172l8-8L48.586 15z" fill="#000000" class="fill-000000"></path></svg>