<svg viewBox="0 0 1000 1000" xmlns="http://www.w3.org/2000/svg"><path d="M549.9 344.56c-1.36 8.58-2.46 17.34-.57 25.93a29.5 29.5 0 0 0 10.74 17.38 19.67 19.67 0 0 0 10.31 4c1.22.07 1.53-2 .29-2.18a20.12 20.12 0 0 1-8.57-3.23 24.45 24.45 0 0 1-6.55-6.82c-4.1-6.25-5.2-13.72-5.07-21.07a128.07 128.07 0 0 1 1.13-13.82c.12-1-1.55-1.2-1.71-.23z" fill="#d6275e" class="fill-18c4ff"></path><path d="M658.32 220.32c-15.24 4.09-27.42 14.64-37.43 26.44-11.14 13.16-20.38 28.1-28.56 43.23-4.86 9-9.32 18.15-13.49 27.45l2.12.89c3.37-19.2 7-38.48 7.74-58 .08-2.15.24-4.58-1.15-6.39a4.14 4.14 0 0 0-5-1.37l1.6 2.07a7.87 7.87 0 0 0 .89-8.37 10.54 10.54 0 0 0-7.39-5.91c-3.81-.91-7.82-.26-11.56.64a42.27 42.27 0 0 0-11.67 4.23c-3.44 2-5.72 6.38-2.9 9.91l.29-2.26c-7.38 4.48-10.82 12.61-12.87 20.64-1.11 4.36-1.86 8.79-2.77 13.19-1.14 5.49-2.49 10.93-3.91 16.35-2.82 10.77-5.91 21.47-8.11 32.38s-3.77 22.17-2.62 33.2a47.12 47.12 0 0 0 12.17 27.13c6.6 7.22 15.49 12.84 25.3 14.18 10.22 1.4 20.59-1.85 29.19-7.28 8.82-5.57 16-13.31 22.61-21.27a319.17 319.17 0 0 0 36-53.56c1.28-2.4 2.52-4.81 3.74-7.24.86-1.73-1.73-3.25-2.59-1.52a315.78 315.78 0 0 1-33.33 52.8c-11.87 15.2-26.35 33-46.94 35.17-19.41 2.07-37.39-13.7-42-31.95-2.63-10.42-1.56-21.75.14-32.24s4.49-21 7.26-31.32c2.67-10 5.14-20 7.15-30.17 1.53-7.69 3.24-16.3 8.63-22.33a19.84 19.84 0 0 1 4.4-3.67 1.46 1.46 0 0 0 .29-2.26c-1.12-1.4-.14-3.42 1-4.46a15 15 0 0 1 4.83-2.6 48.87 48.87 0 0 1 11.74-3.2c3.4-.42 7.49-.25 10 2.36 1.82 1.89 3 5.29 1.16 7.57a1.32 1.32 0 0 0 1.59 2.06c.65-.29 1.42.3 1.76.8a4.7 4.7 0 0 1 .61 2.53c.06 2.1-.08 4.22-.18 6.32q-.3 6.46-1 12.92c-.88 8.67-2.17 17.29-3.68 25.88-.85 4.82-1.75 9.63-2.67 14.45-.23 1.19 1.54 2.17 2.12.89a332.27 332.27 0 0 1 26-46.2c8.81-13.25 18.1-26.63 30.15-37.16a64.61 64.61 0 0 1 21.86-12.9 1.05 1.05 0 0 0-.56-2z" fill="#050505" class="fill-000000"></path><path d="M566.93 248.45c3.64-1.06 6.27-4.43 7.35-8.07s.83-7.52.33-11.28a85.76 85.76 0 0 0-2.73-12.9c-1.1-3.75-2.58-7.61-5.63-10-3.42-2.72-8.25-3.11-12.48-2s-8 3.51-11.59 6c-3.36 2.29-6.76 4.77-8.81 8.28-1.12 1.9-1.4 5 .66 5.73a4.14 4.14 0 0 0 2 .07 33.06 33.06 0 0 0 11.86-4" fill="#ffffff" class="fill-ffffff"></path><path d="M567.17 249.31c7.88-2.13 9.86-11.08 9.33-18.17a73.54 73.54 0 0 0-2.18-12.93c-1-3.71-2.05-7.63-4.35-10.76-4.86-6.61-13.38-6.71-20.32-3.58a59.1 59.1 0 0 0-10.2 6.42c-2.93 2.13-6.1 4.69-7.64 8.06-1.36 3-.73 7.46 3.4 7.35 4.57-.13 9.42-2.09 13.36-4.29a1.39 1.39 0 0 0-1.4-2.39 32.57 32.57 0 0 1-10.2 3.63c-1 .18-2.7.73-3-.63a4.58 4.58 0 0 1 .84-3.24 23.63 23.63 0 0 1 6.76-6.49 53 53 0 0 1 8.55-5.07c5.38-2.44 12.72-3.06 16.72 2.17 1.83 2.38 2.75 5.35 3.56 8.19a103.54 103.54 0 0 1 2.36 10.58c1.14 6.58 1.77 16.6-6.06 19.43a.89.89 0 0 0 .48 1.72z" fill="#050505" class="fill-000000"></path><path d="M544.21 245.82a228.19 228.19 0 0 1-7.72-28.63c-.67-3.33-1.46-7-4.18-9s-6.28-1.76-9.56-1.37a197.52 197.52 0 0 0-22.41 4c-3.79.9-8.13 2.43-9.27 6.15-.61 2-.09 4.18.44 6.22q7.19 27.63 16.18 54.77c.86 2.59 2 5.45 4.45 6.58a10 10 0 0 0 5 .45l19.27-1.47" fill="#050505" class="fill-000000"></path><path d="M545.21 245.54c-2-6.22-3.8-12.51-5.29-18.88-.75-3.19-1.42-6.39-2-9.61a22.51 22.51 0 0 0-2.25-7.21c-3.06-5.27-9-5-14.34-4.31-6.53.82-13 1.94-19.46 3.39-4.36 1-9.92 2.23-11.88 6.81-1.21 2.85-.36 5.88.38 8.73q1.23 4.72 2.52 9.44 5.26 19.31 11.42 38.36a70.21 70.21 0 0 0 3.31 9.43 8 8 0 0 0 6.56 4.79 32.52 32.52 0 0 0 4.93-.18l5.93-.43 11.37-.8c2.06-.15 2.06-3.39 0-3.22l-18.78 1.54c-2.48.21-5 .44-6.63-1.81-1.43-2-2-4.57-2.76-6.86q-5.71-17.4-10.68-35c-1.67-5.93-3.39-11.86-4.83-17.84-.6-2.5-.74-5 1.31-6.82a13.49 13.49 0 0 1 5.57-2.58 154.4 154.4 0 0 1 17.28-3.48 76.52 76.52 0 0 1 8.67-1c2.4-.09 4.93.18 6.67 2s2.27 4.61 2.79 7c.7 3.22 1.43 6.42 2.25 9.61q2.54 9.86 5.94 19.46c.44 1.25 2.42.73 2-.56z" fill="#050505" class="fill-000000"></path><path d="M571.94 282.51a81.2 81.2 0 0 0-5.15-28.89 42.8 42.8 0 0 0-3.37-7.23c-2.13-3.56-5.35-6.86-9.45-7.48s-8.84 2.61-8.46 6.75a47.49 47.49 0 0 0-24.57 4.34c-1.83.87-3.76 2-4.37 3.95a5 5 0 0 0 1.64 5.08 8.45 8.45 0 0 0 5.23 1.84c-3.08-1.53-7.32 1.34-7 4.77s4.94 5.56 7.72 3.54a10.44 10.44 0 0 0-5.47 2.16 5.63 5.63 0 0 0-2 5.3 5.78 5.78 0 0 0 4.64 4.09 11.83 11.83 0 0 0 6.41-.9 7 7 0 0 0-6 2.59 5.65 5.65 0 0 0-.26 6.42c1.38 2 3.94 2.71 6.3 3.25s5.47.75 6.63-1.39l-2.69-1.7a17.9 17.9 0 0 0 14.63 4.9" fill="#ffffff" class="fill-ffffff"></path><path d="M573 282.51a77.77 77.77 0 0 0-4.76-29.29c-2.6-6.95-7.87-17.3-17-15.73-3.9.67-7.51 4-7.27 8.17l1.51-1.51a49.16 49.16 0 0 0-24.93 4.34c-3.13 1.44-6.27 3.82-5.63 7.7.68 4.1 4.72 6 8.49 6.19 1.45.09 2.16-2.21.77-2.84-4.23-1.9-9.87 1.48-9.3 6.38.53 4.48 6.27 7.07 10 4.57a1.54 1.54 0 0 0-1.18-2.8 11.14 11.14 0 0 0-6.68 3.07 6.92 6.92 0 0 0-1.76 6.77A7.32 7.32 0 0 0 520 282c2.63.88 5.53.27 8.06-.67a1.55 1.55 0 0 0-.41-3 8.47 8.47 0 0 0-7.59 3.64 7.12 7.12 0 0 0 .52 8.43c1.87 2.16 5 3 7.77 3.45s5.71.24 7.27-2.32a1.6 1.6 0 0 0-.56-2.15l-2.56-1.67a1.57 1.57 0 0 0-1.9 2.46 19.56 19.56 0 0 0 15.73 5.37c2-.23 2-3.4 0-3.16a16.59 16.59 0 0 1-13.52-4.43l-1.9 2.46 2.59 1.59-.56-2.14c-.81 1.33-2.92 1.05-4.23.81-1.83-.34-4-.79-5.42-2a3.92 3.92 0 0 1-.63-5 5.39 5.39 0 0 1 5-2.28l-.41-3c-2.73 1-7.69 2-9-1.66s3.55-5.63 6.31-6l-1.18-2.8c-1.84 1.23-4.91.23-5.39-2.05s2.58-4.58 4.7-3.63l.77-2.84c-2.44-.13-6.68-1.89-5.35-5.13a5.88 5.88 0 0 1 3-2.58 36.08 36.08 0 0 1 4.44-1.89 46.93 46.93 0 0 1 20-2.57 1.5 1.5 0 0 0 1.5-1.5c-.17-3 2.7-5.11 5.48-5.31 3.36-.23 6.32 2.25 8.25 4.74a37.21 37.21 0 0 1 5.22 10.61 87.09 87.09 0 0 1 3.33 12.22 85.75 85.75 0 0 1 1.55 14.55 1.06 1.06 0 0 0 2.11 0zM659.09 407.39c-28.23 46.69-52.91 96-68.78 148.31-15 49.57-26.18 102.91 12.58 144.93 21.64 23.45 51.46 37.44 79.77 51 40.24 19.27 81.32 38.87 124.17 51.52 16.24 4.8 34.41 10 42.93 24.66 3 5.08 6 12 11.83 11.73 4.71-.2 7.6-5.15 9.32-9.54a121.65 121.65 0 0 0 6.67-64.36c-.67-4-1.66-8.2-4.43-11.18-3.37-3.64-8.6-4.69-13.4-5.91-29.49-7.51-53.87-27.65-77.16-47.23l-62.87-52.82c-14.84-12.5-31.36-25.61-50.72-25.88-4.48-.07-10.7-.87-10.8-5.35a8.09 8.09 0 0 1 1.5-4.13c28.1-47.77 44-101.56 59.57-154.73 7.88-26.86 15.48-57.05 2.23-81.7" fill="#050505" class="fill-000000"></path><path d="M658.25 406.9c-22.37 36.71-42.46 74.89-57.82 115.1a507.15 507.15 0 0 0-18.36 57.88c-4.34 17.35-7.46 35.25-7.05 53.19.39 17.46 4.43 34.76 13.13 50 9.58 16.74 24.11 30 39.93 40.78 16.27 11.06 34.07 19.58 51.77 28.06 20 9.58 40 19.17 60.34 28a587.21 587.21 0 0 0 62.47 23.53c16 4.88 35.79 9 45.3 24.26 3.37 5.42 7.07 15 15.22 13.11 3.61-.84 6.1-4 7.72-7.18a75.24 75.24 0 0 0 5-13.57 123.92 123.92 0 0 0 4.83-31 119.34 119.34 0 0 0-.61-15.93c-.49-4.71-1-9.73-2.62-14.2a15.49 15.49 0 0 0-8.1-8.93c-4.11-1.93-8.68-2.64-13-3.92A125.89 125.89 0 0 1 828.92 734c-17.66-10.25-33.24-23.6-48.82-36.69l-53.68-45.11c-14.69-12.35-30.31-26.9-49.91-30.33-4.15-.73-8.48-.3-12.57-1.24-1.5-.34-3.46-.9-4.09-2.48-.91-2.27 1.94-5.65 3-7.53 5.31-9.25 10.18-18.75 14.69-28.41A572.26 572.26 0 0 0 701 522.65c6.85-20.31 12.93-40.86 19-61.41 5.58-19 11.34-38.84 10-58.87a65.45 65.45 0 0 0-7.26-26.37c-.89-1.68-3.43-.19-2.55 1.49 9.51 18 7.81 38.95 3.53 58.16-2.16 9.74-5 19.31-7.84 28.88-3 10.14-6 20.27-9.1 30.38-12.36 40.12-26.54 80-47.76 116.42-1.74 3-3.68 6.64-.89 9.67 2.25 2.43 6 2.91 9.17 3.09a61.67 61.67 0 0 1 13.51 1.86 63.07 63.07 0 0 1 13.16 5.6c8.6 4.78 16.3 11 23.82 17.29q13.17 11 26.31 22.11c16.72 14 33.28 28.3 50.22 42.06 15.14 12.29 31.08 24 49.14 31.6a113.08 113.08 0 0 0 13.24 4.68c4.33 1.23 9.14 1.85 13 4.28 4.37 2.75 5.63 7.71 6.44 12.49a114.46 114.46 0 0 1 1.56 15.89 120.36 120.36 0 0 1-7.61 46.05c-1.37 3.63-3.39 9-7.7 9.91s-6.94-3.28-8.76-6.34c-2-3.32-3.71-6.7-6.23-9.67-5.27-6.21-12.52-10.35-19.94-13.45-8.2-3.43-16.8-5.68-25.27-8.29-10.35-3.2-20.57-6.77-30.7-10.63-20.74-7.91-41-17-61.12-26.39-18.34-8.59-36.79-17.1-54.73-26.48-17.25-9-34.07-19.38-47.94-33.18-13.18-13.09-22.71-29.13-27-47.27-8.22-35 2-72 12.53-105.45 12.77-40.54 30.77-79.3 51.41-116.42q7.43-13.35 15.29-26.46a1 1 0 0 0-1.68-1z" fill="#050505" class="fill-000000"></path><path d="M699.64 415.91c-8.64 17.48-11.75 37.09-14.78 56.33-9.16 58.21-11.73 99.43-13.86 158.26-2.12 57-2.77 101.49 6.13 158.11 6 38 10.43 106.83 16 145 2.2 15-1.87 23.69-11.49 32.37a4.55 4.55 0 0 0 2.3 7.9c11.34 1.78 25.69 1 38.51.88 6.78-.07 15.23.93 20.88-2.8 11.44-7.53 5.6-23.76 5.37-37.45-1.4-81 30.24-161.3 19-241.51-2.73-19.49-8-38.94-6.19-58.53 3-32.21 24.39-59.5 34.49-90.23 16.88-51.35 4.29-134.27-22.83-181" fill="#050505" class="fill-000000"></path><path d="M698.76 415.4c-10.08 20.49-13.17 43.51-16.62 65.84q-5 32.53-8 65.32c-4 45-5.87 90.48-6.21 135.68-.16 22.33.49 44.65 2.52 66.89 1.84 20.14 5.32 40 7.73 60.1 4.42 36.76 7 73.73 11.43 110.49 1 8.12 3.08 16.65 2.27 24.84a27.1 27.1 0 0 1-4 11.76 33.55 33.55 0 0 1-3.79 4.94c-1.37 1.5-3.17 2.79-4.37 4.43a6.18 6.18 0 0 0 .84 8.22c2.9 2.57 8.73 2.16 12.33 2.35 11.06.61 22.11-.21 33.17-.08 8.33.11 17.75 0 22.73-7.91 4.33-6.84 2.87-15.88 2-23.45-2.54-22.11-.09-45 2.61-67 5.7-46.44 16.5-92.36 17.85-139.29a285.83 285.83 0 0 0-1-34.87c-1.11-11.77-3.36-23.35-5.26-35-2-12.22-3.42-24.69-1.83-37 1.33-10.32 4.59-20.28 8.57-29.85 8.12-19.51 19.35-37.68 25.85-57.86 5.24-16.27 7.17-33.57 7.46-50.61.63-37.06-6.07-75.37-20.26-109.67a180.53 180.53 0 0 0-10.33-21.21 1.54 1.54 0 0 0-2.66 1.56c17.8 30.88 26.42 67.56 29.37 102.83 1.49 17.86 1.46 36-1.22 53.77-2.82 18.72-9.66 35.74-17.91 52.68-8.86 18.17-18.56 36.53-21.44 56.8-3.27 23.1 3.78 45.78 6.43 68.56 5.33 45.71-2.72 91.47-9.93 136.5-3.6 22.44-7 44.95-8.72 67.63a280.82 280.82 0 0 0-.91 33.45c.39 8.48 3 17.57.94 26a13.57 13.57 0 0 1-8 9.7c-4.62 1.9-9.9 1.55-14.79 1.46-10.73-.19-21.46.54-32.19-.06-2.72-.15-5.46-.34-8.16-.76-3-.46-4.83-2.85-2.56-5.44 2.62-3 5.56-5.42 7.75-8.79 4.39-6.77 5.44-14.79 4.55-22.69-1.83-16.44-4-32.82-5.65-49.3-1.85-18.77-3.54-37.56-5.48-56.33-1.77-17.15-4.12-34.17-6.54-51.24a616.14 616.14 0 0 1-5.65-66.87c-1.38-44.78.75-89.83 3.37-134.53 1.2-20.6 2.91-41.17 5.29-61.67 2.62-22.56 5.34-45.35 10-67.59a138.48 138.48 0 0 1 10.18-31.62c.56-1.17-1.17-2.2-1.75-1z" fill="#050505" class="fill-000000"></path><path d="M794.37 249.9a423.91 423.91 0 0 0-97.09-26.41c-15.31-2.27-34-4.49-48.07 3.33-21.05 11.73-18.82 39.83-19.7 59.45-.78 17.18.71 34.56 6 51.09 2.15 6.75 4.91 13.37 5.87 20.35 1.63 12-2.14 24.37 1.1 36 3.43 12.35 14.36 21.86 26.59 27.4s25.83 7.71 39.17 10.06c14.55 2.57 29.23 5.44 44 4.61s29.95-5.86 39.39-16.57c8.68-9.84 11.49-23.25 11.09-36-.26-8.08-1.68-16.11-1.85-24.2-.47-22.59 8.78-44.3 11.76-66.72 1-7.55 1.28-15.34-1-22.64s-7.41-14.1-14.83-17.15" fill="#ffffff" class="fill-ffffff"></path><path d="M602.54 306.51a194.19 194.19 0 0 1 18.72-31q5.44-7.35 11.57-14.14a137 137 0 0 1 12.89-13c2.43-2.07 5.32-4 8.57-4.41a8.36 8.36 0 0 1 7.55 2.68c.69.84 1.84.24 2.17-.57 2.25-5.62 10.4-7.42 15-3.6 1.33 1.11 3.25-.73 1.94-1.94-6-5.49-16.63-2.63-19.4 4.85l2.16-.57c-3.7-4.22-10.06-3.92-14.68-1.51a33.21 33.21 0 0 0-7.4 5.75q-3.5 3.36-6.82 6.89a194.63 194.63 0 0 0-33.92 49.5c-.53 1.13 1.14 2.12 1.69 1z" fill="#d6275e" class="fill-18c4ff"></path><path d="M628.47 286.27c-1 16.16.09 32.45 4.49 48.08 2.15 7.64 5.46 15 6.68 22.89s-.14 16-.24 23.94c-.1 7.21 1 14.28 4.58 20.63A46 46 0 0 0 656.92 416c12 8.93 26.93 12.48 41.37 15.15 8 1.46 15.92 2.9 23.9 4.16a156.58 156.58 0 0 0 24.91 2.31c13.64 0 28-3 39.16-11.3a41.85 41.85 0 0 0 12.81-15.52 55.71 55.71 0 0 0 5-20c.57-7.75-.45-15.42-1.2-23.11a99.24 99.24 0 0 1 .46-24.11c2.27-15.67 7.4-30.75 10-46.36 2.36-14.09 2.92-30.49-8.43-41.05a26.19 26.19 0 0 0-7.8-5c-1.59-.67-2.29 1.93-.71 2.59 5.78 2.44 10.15 7.49 12.63 13.16 3 6.92 3.18 14.69 2.44 22.08-1.46 15.31-6.4 30-9.46 45a119.06 119.06 0 0 0-2.68 22.72c-.05 7.9 1.21 15.72 1.67 23.59.79 13.38-1.53 27.79-10.82 38.07-8.69 9.61-21.78 14.2-34.41 15.49-15.82 1.6-31.61-1.55-47.12-4.3-14.55-2.57-29.74-4.8-42.89-11.94-11-6-20.64-15.58-22.54-28.4-1.14-7.67.11-15.47.2-23.17a53.23 53.23 0 0 0-1-11.48 83.06 83.06 0 0 0-3.04-10.58 162.27 162.27 0 0 1-6.32-22.68 148.85 148.85 0 0 1-2.43-23.64c-.09-3.79-.17-7.58-.07-11.37 0-1.35-2-1.33-2.08 0zM794.9 249c-18.82-8.79-39-14.89-59.16-19.75-10.1-2.43-20.3-4.52-30.56-6.16a234.91 234.91 0 0 0-27.48-3.16c-10.05-.39-20.27.74-29.17 5.73-1.51.85-.17 3.14 1.35 2.33 7.7-4.15 16.74-5.2 25.35-5.12 9 .08 17.91 1.47 26.76 3A446.73 446.73 0 0 1 761.63 240c10.9 3.42 21.67 7.22 32.47 10.95 1.1.37 1.87-1.41.8-1.91z" fill="#050505" class="fill-000000"></path><path d="M650.59 155.94c-5.84 10.26-.56 24.71-7.79 34.05a8.16 8.16 0 0 0-1.75 2.78c-.57 2.16 1 3.86 3.13 5 3.33 1.85 3 6.58 3 9.84 0 6.16 0 12.79 2.44 18.56 2 4.73 6.17 7.23 11.23 7.56s10.41-2.2 15.46-.82c4 1.09 5.9 4.82 7.09 8.49s1.69 5.51 2.81 9.21a7.12 7.12 0 0 0 2 3.67c1.4 1.13 3.4 1 5.17.77a51.3 51.3 0 0 0 33.92-20.47 5.28 5.28 0 0 0 1.32-3.35 5.92 5.92 0 0 0-1.84-3.14c-7.38-8.39-12.33-19-14.9-29.84-4.08-17.23 3.72-39.77-9.53-54.21a23.15 23.15 0 0 0-11.87-6.82 39.87 39.87 0 0 0-23.07 2.14c-6.44 2.55-14.76 7.51-15.83 15.07" fill="#ffffff" class="fill-ffffff"></path><path d="M649.75 155.45c-2.68 4.7-3.21 10.12-3.55 15.42s-.36 11.06-2.91 15.89c-1.23 2.34-3.88 4.3-3.71 7.16A5.32 5.32 0 0 0 641 197c.91 1 2.13 1.52 3.14 2.39 1.7 1.48 1.67 4.24 1.67 6.29 0 3-.1 6 .06 8.94.31 5.65 1.2 12.39 5.44 16.55 4.08 4 9.73 4.39 15.09 3.54 3.11-.49 6.43-1.33 9.55-.45 2.58.72 4.19 2.87 5.26 5.21a62.11 62.11 0 0 1 2.61 7.95c.76 2.56 1.24 6 3.39 7.85s5.4 1.35 8.05.88a49.93 49.93 0 0 0 8.23-2.19 53.4 53.4 0 0 0 14.81-8.15 51 51 0 0 0 6.27-5.76c.92-1 1.8-2 2.63-3.1a14.84 14.84 0 0 0 2.46-3.77c1.13-3.08-1.23-5.18-3-7.35a59.11 59.11 0 0 1-5.4-7.73 71.71 71.71 0 0 1-7.31-17.34 62.05 62.05 0 0 1-2-15.76c-.16-10.46 1-21.5-2.56-31.57a28.11 28.11 0 0 0-9-13c-4.83-3.72-10.82-5.24-16.84-5.36a43.62 43.62 0 0 0-18.15 3.76c-4.53 2-9 4.68-12 8.7a14.58 14.58 0 0 0-2.76 6.6c-.17 1.28 1.75 1.87 2 .55.85-4.83 4.68-8.32 8.66-10.82a41.34 41.34 0 0 1 14.7-5.59c5.88-1.05 12.39-.91 17.95 1.45a23.07 23.07 0 0 1 11.36 10.88c4.59 8.94 4 19.56 3.84 29.3a97.07 97.07 0 0 0 .68 15 65.84 65.84 0 0 0 4.64 15.83 68.15 68.15 0 0 0 8.87 15.36c.86 1.11 1.76 2.17 2.68 3.23 1.15 1.33 1.51 2.28.52 3.86a37.85 37.85 0 0 1-5.14 6.16 49.45 49.45 0 0 1-28.44 14.36c-1.2.15-2.72.32-3.78-.41s-1.48-2.49-1.85-3.74c-.77-2.55-1.51-5.12-2.32-7.66-1.56-4.88-4-9.73-9.61-10.61-5.76-.91-11.42 2.1-17.14.61a11 11 0 0 1-5.66-3.48c-1.79-2.12-2.6-5-3.16-7.64-1.17-5.6-.53-11.23-.89-16.88a9.87 9.87 0 0 0-2-6.05c-1.24-1.42-4.68-2.33-4.11-4.76.3-1.24 1.54-2.3 2.22-3.35a18.68 18.68 0 0 0 1.76-3.45 28.46 28.46 0 0 0 1.64-7.28c.59-5.15.27-10.37 1.13-15.49a22.69 22.69 0 0 1 2.32-7.13 1 1 0 0 0-1.68-1z" fill="#050505" class="fill-000000"></path><path d="m656.62 182.06-.16.2.08-.08-.2.17a.41.41 0 0 1 .11-.07l-.26.11h.11a3.44 3.44 0 0 0 .37-.14l-.28.12a.59.59 0 0 1 .19-.05h-.31a.61.61 0 0 1 .19 0h-.31a.76.76 0 0 1 .2.06l-.29-.13a1.22 1.22 0 0 1 .19.12l-.25-.2a2.28 2.28 0 0 1 .22.22l-.2-.25a1.47 1.47 0 0 1 .21.39l-.13-.32a1 1 0 0 1 .09.33v-.35a1.6 1.6 0 0 1 0 .31l.05-.35a.61.61 0 0 1-.07.24l.14-.31a1.18 1.18 0 0 1-.11.19l.21-.27-.12.12.27-.21-.12.07.32-.14h-.14.36-.2.36-.17l.32.14a1.19 1.19 0 0 1-.15-.09l.27.22-.1-.11.21.28c-.1-.15-.22-.29-.33-.43l.21.27v-.08l.13.31a1.55 1.55 0 0 0-.33-.57l-.26-.2a1 1 0 0 0-.47-.15.65.65 0 0 0-.34 0 .59.59 0 0 0-.32.09.64.64 0 0 0-.29.16 1 1 0 0 0-.33.36 1.37 1.37 0 0 0-.19.47 1.47 1.47 0 0 0 0 .78 1.66 1.66 0 0 0 .39.68 2 2 0 0 0 .94.55 2 2 0 0 0 1.12 0 2 2 0 0 0 1.13-.88 2.42 2.42 0 0 0 .23-.52v-.15c0-.15.05-.32.06-.48a3.83 3.83 0 0 0-.07-.58 2.47 2.47 0 0 0-.22-.59 1 1 0 0 0-.13-.23 2.79 2.79 0 0 0-.42-.49 2.28 2.28 0 0 0-1-.55 2 2 0 0 0-.91 0 1.75 1.75 0 0 0-.53.22 1.59 1.59 0 0 0-.64.85 1.1 1.1 0 0 0-.06.54v.26a.67.67 0 0 0 .18.33.94.94 0 0 0 .5.35 1.14 1.14 0 0 0 .52 0 .74.74 0 0 0 .33-.17.68.68 0 0 0 .25-.28zM653.09 176a1.87 1.87 0 0 0 1 0c.33-.08-.33 0 0 0h.38-.17l-.27-.11a1.81 1.81 0 0 0 .94.25l.61.06-.52-.07a15.92 15.92 0 0 1 1.8.36l-.54-.23h.08a2.29 2.29 0 1 0 1.77-4.19 13.4 13.4 0 0 0-4.89 0 2.36 2.36 0 0 0-1.39 1.07 2.41 2.41 0 0 0-.28 1.49 2.32 2.32 0 0 0 2.29 2 21 21 0 0 1 4.34.07l-.62-.08c.73.11 1.46.3 2.21.36l-1.19-4.36-.41.26a2.11 2.11 0 0 0-1 2.1 2.14 2.14 0 0 0 1.51 1.76l.47.16a2.39 2.39 0 0 0 1.81-.24 2.35 2.35 0 0 0 1.07-1.4 2.4 2.4 0 0 0-1.63-2.88 10.07 10.07 0 0 0-2-.29c-.51-.06-1-.12-1.54-.15a20.57 20.57 0 0 0-3 0l.62 4.58h.13l-.62.08a14.74 14.74 0 0 1 1.76-.14c.6 0 1.18.07 1.77.1l-.61-4.51h-.09l.6-.08a11.78 11.78 0 0 0-2.84.38 2.53 2.53 0 0 0-1.09.65c.27-.3.19-.17 0-.06l-.24.17a2.19 2.19 0 0 0-1.15 1.69 1.24 1.24 0 0 0 .88 1.17zM689.59 178.67a3.24 3.24 0 0 0-2.36 2.43 3 3 0 0 0 0 2.13 1.44 1.44 0 0 0 1.23.75 1.31 1.31 0 0 0 1.3-.91 1.39 1.39 0 0 0-.63-1.59 1.6 1.6 0 0 0-1.89.22 1.07 1.07 0 0 0 .75 1.82 1.85 1.85 0 0 0 .57-.1h-.29a.49.49 0 0 1 .17 0h-.29.1l-.26-.11h.08l-.22-.17.06.06-.17-.22a.2.2 0 0 1 0 .08l-.11-.26v.08-.58a.19.19 0 0 1 0 .08l.1-.26.17-.22h-.05l.21-.17.26-.1h-.1.29a.22.22 0 0 1-.08 0h.29-.11l.25.11h-.06l.22.17-.02.09.17.22a.54.54 0 0 1-.07-.13l.1.26v-.15.29a4.11 4.11 0 0 1 0-1v.28a3.72 3.72 0 0 1 .23-.87l-.1.24a2.82 2.82 0 0 1 .21-.38.35.35 0 0 1 .05-.08c.06-.09-.14.16-.06.08l.15-.16s.13-.14.14-.13-.19.13-.07.06l.08-.05.08-.05s.18-.08 0 0h.11a.9.9 0 1 0-.47-1.73zM656 207.42a1.23 1.23 0 0 0 1.39 1.22 2.71 2.71 0 0 0 1.34-.72 20.89 20.89 0 0 0 1.79-1.73c.57-.6 1.11-1.24 1.62-1.89.11-.15.22-.3.34-.44a.64.64 0 0 1 .1-.13c-.13.15-.15.19-.08.1s.24-.31.37-.46a3.05 3.05 0 0 0 1-2 1.64 1.64 0 0 0-2.46-1.41c-.81.38-1.1 1.51-1.54 2.23s-.75 1.19-1.16 1.77l-.6.83-.16.21c-.15.2.08-.1 0 0s-.2.26-.31.38c-.27.34-.56.66-.82 1l-.12.17c-.2.27.07-.1 0 0s0 0 .09-.07l.14-.06-.26.11c-.26.21-.3.23-.11.06h1l.12.09a1 1 0 0 0-1.64.68z" fill="#050505" class="fill-000000"></path><path d="M675 172.07a47 47 0 0 0 6.61 12.82 9.59 9.59 0 0 1 6.64-11.33 6.62 6.62 0 0 1 5.28.69c2 1.34 2.82 4 2.82 6.38a14 14 0 0 1-5.84 11.3 51 51 0 0 0 23.48 14.31c-.67-.19 0-7.13.11-7.91a70.41 70.41 0 0 1 1.47-8.51c1.27-5.57 3-11 4.08-16.64 2.84-14.17-2.34-30-16.43-35.77-8.78-3.61-18.59-2.72-27.68-1s-18.42 5.1-25 12c-1.14 1.19-2.13 3.26-.83 4.28a2.94 2.94 0 0 0 1.49.49c7.71 1 15.58-.65 23.31.29a13.27 13.27 0 0 0 .46 17.31" fill="#050505" class="fill-000000"></path><path d="M674.1 172.3a49.32 49.32 0 0 0 6.48 13.16 1.14 1.14 0 0 0 2.07-.87 8.38 8.38 0 0 1 2-7.41c1.85-2.06 5.18-3.48 7.81-2s2.78 5.46 2.18 8.08a12 12 0 0 1-4.94 7.4 1.49 1.49 0 0 0-.3 2.3 44.13 44.13 0 0 0 11 9 52.48 52.48 0 0 0 13.09 5.67 1.51 1.51 0 0 0 1.16-2.74c1.72.93.31.87.48.44-.08.21 0 0 0-.16a11.62 11.62 0 0 1 0-1.18c0-.95.07-1.9.13-2.85.13-1.78.29-3.56.56-5.32 1-6.77 3.18-13.31 4.69-20 2.17-9.59 1.7-19.83-3.5-28.42a28.08 28.08 0 0 0-10-9.82 35.42 35.42 0 0 0-17.39-4.25 76 76 0 0 0-18.5 2.43 50.19 50.19 0 0 0-15.87 6.64c-2.45 1.63-5.41 3.7-6.94 6.28a4.39 4.39 0 0 0-.51 4c.72 1.54 2.25 1.84 3.79 2 7.6.88 15.24-.66 22.84.21l-1.06-2.54a14.83 14.83 0 0 0 .47 19.4c1.31 1.39 3.39-.7 2.09-2.08a11.82 11.82 0 0 1-.45-15.22 1.51 1.51 0 0 0-1-2.54c-6.34-.74-12.69.19-19.05 0q-1.18 0-2.37-.12c-.42 0-1.95 0-2.28-.3-.62-.6.62-1.9 1.08-2.38a31.93 31.93 0 0 1 6.49-5.08 50.64 50.64 0 0 1 15-5.69 69.33 69.33 0 0 1 17.44-2 31 31 0 0 1 15.8 4.42 25.46 25.46 0 0 1 8.76 9.69 31.9 31.9 0 0 1 3.44 12.55 47.76 47.76 0 0 1-1.79 14.89c-1.68 6.79-3.72 13.52-4.46 20.51-.16 1.54-.29 3.09-.36 4.63-.06 1.3-.41 3.74 1 4.5l1.16-2.74a50.17 50.17 0 0 1-12.34-5.41 64 64 0 0 1-10.5-8.49V193c4.72-3.75 7.84-10.73 5.32-16.61a7.14 7.14 0 0 0-7.62-4.26 10.14 10.14 0 0 0-7 4.24 10.59 10.59 0 0 0-1.77 8.86l2.08-.87a47.61 47.61 0 0 1-6.74-12.49c-.38-1.05-2-.62-1.7.47zM655.41 173.74a7.74 7.74 0 0 0-7 5.08 8.85 8.85 0 0 0 2 9.16 9.35 9.35 0 0 0 9 2.59c3.44-.95 5.54-4.41 5.82-7.82a8.53 8.53 0 0 0-5.31-8.54 1.52 1.52 0 0 0-1.85 1 1.56 1.56 0 0 0 1 1.85 5.44 5.44 0 0 1 3.15 4.78c.08 2.19-1 4.81-3.18 5.7a6.26 6.26 0 0 1-6-1.14 6.18 6.18 0 0 1-2.13-5.88 6.57 6.57 0 0 1 4.8-5 1 1 0 0 0-.26-1.87z" fill="#050505" class="fill-000000"></path><path d="M680.14 174.92a62.65 62.65 0 0 0-9.19.17c-1.56.15-3.11.33-4.66.58s-3.37.32-4.57 1.31a1.65 1.65 0 0 0 .73 2.75c1.52.28 3.23-.51 4.72-.85s2.78-.6 4.19-.79a57.28 57.28 0 0 1 8.78-.54 1.32 1.32 0 0 0 0-2.63zM644 182.65a8.21 8.21 0 0 1 .94-.64l.23-.12h-.07.14a3.5 3.5 0 0 1 .56-.13h-.34a2.71 2.71 0 0 1 .57 0h-.35a1.56 1.56 0 0 1 .41.11l-.33-.14a2.1 2.1 0 0 1 .41.24l-.28-.22a4.05 4.05 0 0 0 1.46.88 1.48 1.48 0 0 0 1.8-1 1.46 1.46 0 0 0-.14-1.12 1.44 1.44 0 0 0-.88-.67 1.58 1.58 0 0 1-.31-.09l.35.14a8.82 8.82 0 0 0-1.29-.59 3.25 3.25 0 0 0-1.75.08 5.4 5.4 0 0 0-2.29 1.81 1 1 0 0 0-.08 1.26 1 1 0 0 0 1.24.25zM678.44 150.19a99.86 99.86 0 0 1-19 2.89c-4.6.26-9.35.17-13.59-1.6s-7.92-5.55-8.38-10.13a5.85 5.85 0 0 1 .71-3.7c1.9-3 6.44-2.24 9.67-.8-2-1.9-4-4.46-3.33-7.13.84-3.22 5.2-4.18 8.3-3s5.43 3.77 8.19 5.6c-1.4-2.92.87-6.57 3.9-7.74s6.43-.54 9.56.29a82.06 82.06 0 0 1 20 8.21c1.95 1.12 4 2.5 4.61 4.65s-1.22 5-3.37 4.35" fill="#050505" class="fill-000000"></path><path d="M678.2 149.32a103.39 103.39 0 0 1-12.75 1.88 72.2 72.2 0 0 1-12.47.38 17.73 17.73 0 0 1-10.05-3.69c-2.28-1.94-4.4-5.08-3.83-8.23.67-3.7 5.61-2.47 8-1.44 1.53.67 3.3-1.13 1.91-2.49s-3.48-3.42-2.93-5.59c.39-1.5 2-2.17 3.43-2.3 4.25-.38 7.54 3.7 10.74 5.87 1.46 1 2.73-.87 2.17-2.16s.15-3.08 1.13-4.12a6.85 6.85 0 0 1 5.26-1.89c4.24 0 8.66 1.73 12.6 3.18a79.79 79.79 0 0 1 11.9 5.52c1.52.87 3.44 1.88 4.16 3.58.37.85 0 3.05-1.34 2.84-1.85-.28-2.68 2.33-.79 2.87 3.69 1.07 6.33-3.35 5.18-6.55-1.42-4-6.31-6-9.8-7.68a85 85 0 0 0-13-5.14c-4.21-1.27-9.09-2.73-13.39-1-3.93 1.57-6.43 6-4.68 10l2.16-2.16c-4.39-3-8.66-7.88-14.55-5.89a6.15 6.15 0 0 0-4.4 5c-.39 3.13 1.76 5.82 3.88 7.87l1.91-2.48c-3.15-1.37-7.38-2.45-10.4-.19-3.42 2.56-2.69 7.62-.83 10.91 4.76 8.46 15.38 8.9 23.94 8.19a91.83 91.83 0 0 0 17.3-3.35.9.9 0 0 0-.48-1.73z" fill="#050505" class="fill-000000"></path><path d="M684.88 243.48c-3.08.06-5.63 2.69-6.59 5.61s-.7 6.1-.42 9.17c.46 5 1.44 10.82 5.87 13.19 2.1 1.12 4.59 1.2 7 1.17 10.63-.15 21.34-2.1 30.93-6.69s18-11.94 23-21.36c1-1.88 1.86-4 1.58-6.08s-1.69-3.9-3-5.56l-8.27-10.22c-1.46-1.81-3-3.7-5.21-4.52s-5.14-.07-5.9 2.13a13.81 13.81 0 0 0-.31 3c-.39 3.6-3.6 6.15-6.6 8.18a190.62 190.62 0 0 1-26.75 15.09c-1.52.71-3.59 1.28-4.66 0" fill="#d6275e" class="fill-18c4ff"></path><path d="M684.88 242.46a8.25 8.25 0 0 0-7 4.33c-1.8 3-1.79 6.69-1.54 10.08.4 5.36 1 12 5.79 15.33 2.76 1.94 6.26 2 9.49 1.9a89.69 89.69 0 0 0 10.86-.91 68.89 68.89 0 0 0 20.65-6.28 54.73 54.73 0 0 0 15.22-11.09 48.37 48.37 0 0 0 5.82-7.4c1.76-2.76 3.79-6.07 3.61-9.47s-2.69-6.1-4.75-8.65c-2.47-3.06-4.92-6.13-7.4-9.16-1.92-2.34-4.28-4.67-7.47-4.85a5.71 5.71 0 0 0-6 4c-.41 1.68-.05 3.32-.94 4.91a12.67 12.67 0 0 1-3.58 3.75 115.09 115.09 0 0 1-10.19 6.6q-5.4 3.24-11 6.12c-1.79.92-3.6 1.82-5.43 2.68-1 .46-3.42 2.06-4.41 1-1.43-1.48-3.68.77-2.26 2.25 2.11 2.2 5.12 1 7.44-.12q4.65-2.17 9.17-4.59a166 166 0 0 0 17.51-10.64c2.24-1.58 4.54-3.43 5.74-6a10.29 10.29 0 0 0 .93-3.93c.06-1.31.16-2.26 1.5-2.76 2.64-1 4.89 1.46 6.41 3.26 2.24 2.66 4.38 5.4 6.56 8.1 1 1.21 2 2.41 3 3.65a8.53 8.53 0 0 1 2.11 4.28c.26 3-2 6.18-3.59 8.56a47.06 47.06 0 0 1-12 12.3c-10.61 7.54-23.6 10.82-36.49 11.26-3.19.11-7 .41-9.48-1.94-2-1.9-2.82-4.77-3.3-7.42a32.35 32.35 0 0 1-.58-10.47c.49-3 2.37-6.39 5.71-6.73a1 1 0 0 0 0-2z" fill="#d6275e" class="fill-18c4ff"></path><path d="M681.48 238.83c.45 1.45.78 2.91 1.11 4.38.16.72.43 1.43.63 2.14a5.71 5.71 0 0 0 1 2.55 1.51 1.51 0 0 0 2.51-.67 5.23 5.23 0 0 0-.57-2.78 22.67 22.67 0 0 0-.9-2.29c-.67-1.36-1.45-2.68-2.18-4a.9.9 0 0 0-1.64.69zM717.11 214.45c.3.9.58 1.82.92 2.71s.8 1.87 1.22 2.79c.81 1.77 1.71 3.48 2.64 5.19a1.61 1.61 0 0 0 2.17.56 1.59 1.59 0 0 0 .56-2.16c-1-1.63-1.92-3.28-2.89-4.92-.47-.81-.91-1.63-1.41-2.43s-1.05-1.62-1.57-2.43-2-.31-1.64.69z" fill="#050505" class="fill-000000"></path><g fill="#d6275e" class="fill-18c4ff"><path d="M680.22 470.3c-3.89 30-6.9 60.06-9.29 90.2q-1 12.74-1.62 25.51c-.07 1.37 2 1.34 2.11 0 2.61-30.1 4.9-60.23 8-90.29.87-8.48 1.71-17 2.62-25.42.12-1.16-1.65-1.12-1.79 0zM756.83 455.46a46.56 46.56 0 0 0 8.38 13.94 64.73 64.73 0 0 0 14.07 12.82c1.1.72 2.08-1 1-1.76-9-6.32-17.54-15.16-21.75-25.47-.43-1-2.12-.64-1.73.47zM645.82 443.55c-1.46-.86-2.63 1.42-1.36 2.36a2.45 2.45 0 0 0 2.25.11c.93-.3 1.86-.61 2.78-1a78 78 0 0 0 10.5-5 1 1 0 0 0-1-1.77 75.82 75.82 0 0 1-6.89 3.54c-1.14.51-2.3 1-3.47 1.45l-1.74.68c-.32.12-.64.26-1 .35a1.19 1.19 0 0 1-.41.08c.36.46.18.67-.54.62a.87.87 0 0 0 .88-1.5z"></path></g><path d="M795 303.08c-13.23 54.8-49.64 103.61-98.4 131.9-7.24 4.21-14.8 8-22.88 10.23-28.26 7.8-59.15-5.11-79.74-26s-32.64-48.58-42.6-76.15a239.57 239.57 0 0 1-7.64-24.18c-1.62-6.57-2.33-14.63 2.8-19.05-2-4.92.31-10.73 4.13-14.4s8.9-5.68 13.84-7.6c2.51-1 5.59-1.87 7.67-.17s2.64 5.13 5.14 5.06c1.07 0 2-.81 2.89-1.33 3.36-1.85 7.76-.3 10.43 2.46s4.06 6.48 5.62 10c4.34 9.74 10.39 18.61 16.4 27.41l37.1 54.3a8.43 8.43 0 0 0 3 3.11c2.62 1.23 5.61-.46 8-2.14 28.22-20.2 51-61.34 65.77-92.74" fill="#ffffff" class="fill-ffffff"></path><path d="M794.11 302.85a212.22 212.22 0 0 1-86.2 123.27c-11.59 7.83-24.25 15.47-38.07 18.45-12.62 2.71-25.8 1.26-37.93-2.92a95.62 95.62 0 0 1-33.43-20.26c-10.29-9.5-18.6-21-25.49-33.14a271.2 271.2 0 0 1-17.46-38.42c-2.74-7.25-5.38-14.56-7.68-22-1.13-3.66-2.24-7.36-3-11.11a27.43 27.43 0 0 1-.64-8.89 10.76 10.76 0 0 1 3.4-6.95 1.46 1.46 0 0 0 .39-1.47c-1.64-4.3 0-9 3-12.27 3.38-3.66 8.13-5.68 12.68-7.46 1.91-.75 4.23-1.89 6.34-1.45 1.83.38 2.54 2.43 3.55 3.78 1.13 1.51 2.73 2.53 4.68 2a20.89 20.89 0 0 0 3-1.54 5.65 5.65 0 0 1 3-.4c4.87.6 7.47 5.24 9.29 9.26a147 147 0 0 0 7.19 14.3c5.66 9.63 12.25 18.72 18.54 27.94L639.36 363c3.24 4.75 6.32 9.66 9.76 14.26 1.47 2 3.39 3.43 6 3.28s4.63-1.48 6.56-2.86c14.55-10.43 26-24.87 35.86-39.61 10.3-15.32 19.09-31.62 27.2-48.18.91-1.87 1.82-3.74 2.71-5.62.57-1.22-1.25-2.29-1.82-1.06a398.72 398.72 0 0 1-26.46 48.34c-10 15.3-21.64 30-36.09 41.32a36.92 36.92 0 0 1-5.41 3.78 5.78 5.78 0 0 1-3.33.87 4.41 4.41 0 0 1-2.82-2.11c-3.52-4.79-6.73-9.84-10.09-14.75l-20.12-29.43c-6.37-9.31-13.06-18.5-18.7-28.29-2.66-4.61-4.72-9.44-7-14.23-2-4.11-4.9-8-9.52-9.27a9 9 0 0 0-6.29.49c-.78.38-1.84 1.47-2.75 1.26-.72-.16-1.2-1.1-1.56-1.66-1.05-1.63-2.07-3.23-4-3.94s-4.34-.27-6.34.41c-8.55 2.93-19.07 7.72-20.66 17.74a12.56 12.56 0 0 0 .57 6.46l.39-1.47c-4.72 4.19-4.92 10.87-4 16.67 1.18 7.67 3.88 15.23 6.43 22.53a364.81 364.81 0 0 0 16.73 41.18c6.34 12.91 13.95 25.26 23.47 36.09a104.1 104.1 0 0 0 32.42 25c12 5.82 25.25 9.25 38.61 8.73a67 67 0 0 0 20.24-4 118.64 118.64 0 0 0 20.34-10.12 207.3 207.3 0 0 0 31.69-23.52A215.25 215.25 0 0 0 758 382.54a210.43 210.43 0 0 0 21-33.42 207.38 207.38 0 0 0 14.33-36.47q1.33-4.63 2.44-9.33c.26-1.11-1.43-1.58-1.7-.47zM561.16 220.32c-3.65-1-7.26-1.91-11.07-1.29a12.14 12.14 0 0 0-7.52 4.27c-1.7 2.16-2.71 5.58-1 8a4.22 4.22 0 0 0 4.34 1.63 48.24 48.24 0 0 0 5.48-1.48l-1.46-2.5c-3 2.84-1.17 7.37 1.49 9.72 1.21 1.06 3.19-.29 2.3-1.78s-3.46-4.1-1.67-5.82a1.51 1.51 0 0 0-1.46-2.51c-1.5.43-3 .89-4.5 1.29-.83.22-1.82.46-2.25-.5-.8-1.8.54-4 1.78-5.26 3.91-3.89 10.16-3.16 15.06-2.1a.89.89 0 0 0 .47-1.71z" fill="#050505" class="fill-000000"></path><g fill="#d6275e" class="fill-18c4ff"><path d="M550.71 298.58a49.29 49.29 0 0 1 8.55-7.38 60.16 60.16 0 0 1 9.93-5.28c1-.44.29-2.14-.75-1.78a46.78 46.78 0 0 0-19 13.19c-.75.84.47 2.09 1.25 1.25zM558.25 297.27c0 12.61 5.73 24.44 11.15 35.52a286.51 286.51 0 0 0 19.23 33.34c13.21 19.75 29.14 39.5 52 48.25a55.42 55.42 0 0 0 18.67 4c4.51.08 10.32-1.3 11.59-6.31a1.15 1.15 0 0 0-2.09-.88 2.81 2.81 0 0 0 .64 3.62 3.71 3.71 0 0 0 4.28.42c1.67-.83 2.7-2.64 4.44-3.32 1-.4 1.71.11 2.54.68a5.09 5.09 0 0 0 2.47 1c3.73.37 7-3.58 9.38-5.86q4.51-4.24 8.83-8.69a353.57 353.57 0 0 0 31.84-38.32c9.85-13.53 19-27.56 27.95-41.7 8.63-13.64 19.12-28.44 19.47-45.21.07-3.84-.25-8.12-1.91-11.63-1.73-3.68-5.49-5.46-8.91-7.27a194.68 194.68 0 0 0-24-10.63c-2-.75-4.11-1.46-6.18-2.15-1.57-.52-2.23 2-.68 2.47a195.88 195.88 0 0 1 23.04 9.32c3.54 1.7 7.14 3.4 10.5 5.43a9.46 9.46 0 0 1 3.88 3.92 17.65 17.65 0 0 1 1.4 5.54c2 15.81-7.24 30.46-15.26 43.27-8.29 13.24-16.7 26.42-25.64 39.24A398.67 398.67 0 0 1 708 388.43c-5.15 5.78-10.5 11.37-16.11 16.7-1.39 1.32-2.79 2.64-4.22 3.92-1.23 1.1-3.14 2.77-4.92 2-1.58-.66-2.5-1.95-4.4-1.64s-3 1.6-4.32 2.75a4.14 4.14 0 0 1-2 1.21c-.52.06-1.61-.44-1.2-1.08l-2.1-.88c-1.07 4.25-6.69 4.8-10.32 4.59a56.6 56.6 0 0 1-16.14-3.48C631.5 408.66 622 402 613.88 394.08c-8.33-8.08-15.37-17.39-21.89-27a299.7 299.7 0 0 1-18.63-31.27c-3.17-6.13-6.25-12.35-8.79-18.76s-4.37-13-4.42-19.82a1 1 0 0 0-1.9 0z"></path><rect height="946.92" rx="6.88" width="159.54" x="86.28" y="25"></rect><path d="M239 969.39H96.56c-3.61 0-7.29.12-7.75-4.76-.36-3.94 0-8.1 0-12V80.69c0-15.67-.45-31.42 0-47.09.09-2.92.23-5.56 4.38-6.07 4.37-.54 9.14 0 13.53 0h129.14c3.54 0 7 .13 7.44 4.81.12 1.36 0 2.8 0 4.17v921c0 4 1.32 11.35-4.35 11.86-3.22.29-3.25 5.35 0 5.06 9.5-.85 9.41-8.5 9.41-15.48V31.94c-.37-7.4-6.3-9.47-12.5-9.47H105.31c-8.7 0-21.3-1.93-21.56 10.47-.1 4.9 0 9.81 0 14.71v880.89c0 12.1-.62 24.37 0 36.46.4 7.69 6.65 9.45 13 9.45H239c3.2 0 3.21-5.06 0-5.06z"></path></g><path d="M97.36 46.51c3.06.16 6.12.17 9.18.22s6.14.25 9.18.1a1.35 1.35 0 0 0 0-2.69c-3-.14-6.13.06-9.18.11s-6.12 0-9.18.21a1 1 0 0 0 0 2zM97.36 62.52c1.53.15 3.06.16 4.59.21l2.25.07a20.3 20.3 0 0 0 2.34 0 1.35 1.35 0 1 0 0-2.69 20.31 20.31 0 0 0-2.34 0l-2.25.07c-1.53 0-3.06 0-4.59.21a1 1 0 0 0 0 2.06zM97.36 78.52c3.06.16 6.12.16 9.18.21s6.14.25 9.18.1a1.34 1.34 0 0 0 0-2.68c-3-.15-6.13 0-9.18.1s-6.12 0-9.18.21a1 1 0 0 0 0 2.06zM97.36 94.52c1.53.16 3.06.17 4.59.21l2.25.07a18.28 18.28 0 0 0 2.34 0 1.34 1.34 0 1 0 0-2.68 18.28 18.28 0 0 0-2.34 0l-2.25.07c-1.53 0-3.06 0-4.59.21a1 1 0 0 0 0 2.06zM97.36 110.52c3.06.16 6.12.17 9.18.21s6.14.25 9.18.11a1.35 1.35 0 0 0 0-2.69c-3-.15-6.13.06-9.18.1s-6.12 0-9.18.21a1 1 0 0 0 0 2.06zM97.36 126.52c1.53.16 3.06.17 4.59.21l2.25.07a20.31 20.31 0 0 0 2.34 0 1.39 1.39 0 0 0 1.35-1.35 1.38 1.38 0 0 0-1.35-1.34 18.28 18.28 0 0 0-2.34 0l-2.25.06c-1.53 0-3.06.06-4.59.22a1 1 0 0 0 0 2zM97.36 142.52c3.06.16 6.12.17 9.18.22s6.14.24 9.18.1a1.35 1.35 0 0 0 0-2.69c-3-.14-6.13.06-9.18.1s-6.12.06-9.18.22a1 1 0 0 0 0 2.05zM97.36 158.52c1.53.16 3.06.17 4.59.22l2.25.06a18.28 18.28 0 0 0 2.34 0 1.35 1.35 0 1 0 0-2.69 18.28 18.28 0 0 0-2.34 0l-2.25.07c-1.53 0-3.06.05-4.59.21a1 1 0 0 0 0 2.05zM97.36 174.53c3.06.15 6.12.16 9.18.21s6.14.25 9.18.1a1.35 1.35 0 0 0 0-2.69c-3-.14-6.13.06-9.18.11s-6.12.05-9.18.21a1 1 0 0 0 0 2.06zM97.36 190.53c1.53.16 3.06.16 4.59.21l2.25.07a18.28 18.28 0 0 0 2.34 0 1.39 1.39 0 0 0 1.35-1.34 1.36 1.36 0 0 0-1.35-1.34 18.28 18.28 0 0 0-2.34 0l-2.25.07c-1.53 0-3.06.05-4.59.21a1 1 0 0 0 0 2.06zM97.36 206.53c3.06.16 6.12.17 9.18.21s6.14.25 9.18.1a1.34 1.34 0 0 0 0-2.68c-3-.15-6.13.05-9.18.1s-6.12.05-9.18.21a1 1 0 0 0 0 2.06zM97.36 222.53c1.53.16 3.06.17 4.59.21l2.25.07a20.31 20.31 0 0 0 2.34 0 1.39 1.39 0 0 0 1.35-1.35 1.38 1.38 0 0 0-1.35-1.34 18.28 18.28 0 0 0-2.34 0l-2.25.07c-1.53.05-3.06.06-4.59.21a1 1 0 0 0 0 2.06zM97.36 238.53c3.06.16 6.12.17 9.18.21s6.14.25 9.18.11a1.35 1.35 0 0 0 0-2.69c-3-.15-6.13.06-9.18.1s-6.12.06-9.18.22a1 1 0 0 0 0 2.05zM97.36 254.53c1.53.16 3.06.17 4.59.22l2.25.06a18.28 18.28 0 0 0 2.34 0 1.39 1.39 0 0 0 1.35-1.35 1.38 1.38 0 0 0-1.35-1.34 18.28 18.28 0 0 0-2.34 0l-2.25.06c-1.53.05-3.06.06-4.59.22a1 1 0 0 0 0 2.05zM97.36 270.53c3.06.16 6.12.17 9.18.22s6.14.25 9.18.1a1.35 1.35 0 0 0 0-2.69c-3-.14-6.13.06-9.18.11s-6.12.05-9.18.21a1 1 0 0 0 0 2zM97.36 286.54c1.53.15 3.06.16 4.59.21l2.25.07a20.3 20.3 0 0 0 2.34 0 1.35 1.35 0 1 0 0-2.69 20.31 20.31 0 0 0-2.34 0l-2.25.07c-1.53 0-3.06.05-4.59.21a1 1 0 0 0 0 2.06zM97.36 302.54c3.06.16 6.12.16 9.18.21s6.14.25 9.18.1a1.34 1.34 0 0 0 0-2.68c-3-.15-6.13.05-9.18.1s-6.12.05-9.18.21a1 1 0 0 0 0 2.06zM97.36 318.54c1.53.16 3.06.17 4.59.21l2.25.07a18.28 18.28 0 0 0 2.34 0 1.34 1.34 0 1 0 0-2.68 18.28 18.28 0 0 0-2.34 0l-2.25.07c-1.53.05-3.06.05-4.59.21a1 1 0 0 0 0 2.06zM97.36 334.54c3.06.16 6.12.17 9.18.21s6.14.25 9.18.11a1.35 1.35 0 0 0 0-2.69c-3-.15-6.13.06-9.18.1s-6.12.05-9.18.21a1 1 0 0 0 0 2.06zM97.36 350.54c1.53.16 3.06.17 4.59.21l2.25.07a20.31 20.31 0 0 0 2.34 0 1.39 1.39 0 0 0 1.35-1.35 1.38 1.38 0 0 0-1.35-1.34 18.28 18.28 0 0 0-2.34 0l-2.25.06c-1.53.05-3.06.06-4.59.22a1 1 0 0 0 0 2.05zM97.36 366.54c3.06.16 6.12.17 9.18.22s6.14.24 9.18.1a1.35 1.35 0 0 0 0-2.69c-3-.14-6.13.06-9.18.1s-6.12.06-9.18.22a1 1 0 0 0 0 2.05zM97.36 382.54c1.53.16 3.06.17 4.59.22l2.25.06a18.28 18.28 0 0 0 2.34 0 1.35 1.35 0 1 0 0-2.69 18.28 18.28 0 0 0-2.34 0l-2.25.07c-1.53 0-3.06.05-4.59.21a1 1 0 0 0 0 2.05zM97.36 398.55c3.06.15 6.12.16 9.18.21s6.14.25 9.18.1a1.35 1.35 0 0 0 0-2.69c-3-.14-6.13.06-9.18.11s-6.12.05-9.18.21a1 1 0 0 0 0 2.06zM97.36 414.55c1.53.16 3.06.16 4.59.21l2.25.07a18.28 18.28 0 0 0 2.34 0 1.39 1.39 0 0 0 1.35-1.34 1.36 1.36 0 0 0-1.35-1.34 18.28 18.28 0 0 0-2.34 0l-2.25.07c-1.53 0-3.06.05-4.59.21a1 1 0 0 0 0 2.06zM97.36 430.55c3.06.16 6.12.17 9.18.21s6.14.25 9.18.1a1.34 1.34 0 0 0 0-2.68c-3-.15-6.13.05-9.18.1s-6.12.05-9.18.21a1 1 0 0 0 0 2.06zM97.36 446.55c1.53.16 3.06.17 4.59.21l2.25.07a20.31 20.31 0 0 0 2.34 0 1.39 1.39 0 0 0 1.35-1.35 1.38 1.38 0 0 0-1.35-1.34 18.28 18.28 0 0 0-2.34 0l-2.25.07c-1.53.05-3.06.06-4.59.21a1 1 0 0 0 0 2.06zM97.36 462.55c3.06.16 6.12.17 9.18.21s6.14.25 9.18.11a1.35 1.35 0 0 0 0-2.69c-3-.15-6.13.06-9.18.1s-6.12.06-9.18.22a1 1 0 0 0 0 2.05zM97.36 478.55c1.53.16 3.06.17 4.59.22l2.25.06a18.28 18.28 0 0 0 2.34 0 1.39 1.39 0 0 0 1.35-1.35 1.38 1.38 0 0 0-1.35-1.34 18.28 18.28 0 0 0-2.34 0l-2.25.06c-1.53.05-3.06.06-4.59.22a1 1 0 0 0 0 2.05zM97.36 494.55c3.06.16 6.12.17 9.18.22s6.14.25 9.18.1a1.35 1.35 0 0 0 0-2.69c-3-.14-6.13.06-9.18.11s-6.12 0-9.18.21a1 1 0 0 0 0 2.05zM97.36 510.56c1.53.15 3.06.16 4.59.21l2.25.07a18.28 18.28 0 0 0 2.34 0 1.35 1.35 0 1 0 0-2.69 20.31 20.31 0 0 0-2.34 0l-2.25.07c-1.53 0-3.06 0-4.59.21a1 1 0 0 0 0 2.06zM97.36 526.56c3.06.16 6.12.16 9.18.21s6.14.25 9.18.1a1.34 1.34 0 0 0 0-2.68c-3-.15-6.13 0-9.18.1s-6.12.05-9.18.21a1 1 0 0 0 0 2.06zM97.36 542.56c1.53.16 3.06.17 4.59.21l2.25.07a18.28 18.28 0 0 0 2.34 0 1.34 1.34 0 1 0 0-2.68 18.28 18.28 0 0 0-2.34 0l-2.25.07c-1.53.05-3.06.05-4.59.21a1 1 0 0 0 0 2.06zM97.36 558.56c3.06.16 6.12.17 9.18.21s6.14.25 9.18.11a1.35 1.35 0 0 0 0-2.69c-3-.15-6.13.06-9.18.1s-6.12.05-9.18.21a1 1 0 0 0 0 2.06zM97.36 574.56c1.53.16 3.06.17 4.59.21l2.25.07a20.31 20.31 0 0 0 2.34 0 1.39 1.39 0 0 0 1.35-1.35 1.38 1.38 0 0 0-1.35-1.34 18.28 18.28 0 0 0-2.34 0l-2.25.06c-1.53.05-3.06.06-4.59.22a1 1 0 0 0 0 2zM97.36 590.56c3.06.16 6.12.17 9.18.22s6.14.24 9.18.1a1.35 1.35 0 0 0 0-2.69c-3-.14-6.13.06-9.18.1s-6.12.06-9.18.22a1 1 0 0 0 0 2zM97.36 606.56c1.53.16 3.06.17 4.59.22l2.25.06a18.28 18.28 0 0 0 2.34 0 1.35 1.35 0 1 0 0-2.69 18.28 18.28 0 0 0-2.34 0l-2.25.07c-1.53 0-3.06.05-4.59.21a1 1 0 0 0 0 2zM97.36 622.57c3.06.15 6.12.16 9.18.21s6.14.25 9.18.1a1.35 1.35 0 0 0 0-2.69c-3-.14-6.13.06-9.18.11s-6.12.05-9.18.21a1 1 0 0 0 0 2.06zM97.36 638.57c1.53.16 3.06.16 4.59.21l2.25.07a18.28 18.28 0 0 0 2.34 0 1.39 1.39 0 0 0 1.35-1.34 1.36 1.36 0 0 0-1.35-1.34 18.28 18.28 0 0 0-2.34 0l-2.25.07c-1.53 0-3.06.05-4.59.21a1 1 0 0 0 0 2.06zM97.36 654.57c3.06.16 6.12.17 9.18.21s6.14.25 9.18.1a1.34 1.34 0 0 0 0-2.68c-3-.15-6.13 0-9.18.1s-6.12.05-9.18.21a1 1 0 0 0 0 2.06zM97.36 670.57c1.53.16 3.06.17 4.59.21l2.25.07a20.31 20.31 0 0 0 2.34 0 1.39 1.39 0 0 0 1.35-1.35 1.38 1.38 0 0 0-1.35-1.34 18.28 18.28 0 0 0-2.34 0l-2.25.07c-1.53.05-3.06.06-4.59.21a1 1 0 0 0 0 2.06zM97.36 686.57c3.06.16 6.12.17 9.18.21s6.14.25 9.18.11a1.35 1.35 0 0 0 0-2.69c-3-.15-6.13.06-9.18.1s-6.12.06-9.18.22a1 1 0 0 0 0 2.05zM97.36 702.57c1.53.16 3.06.17 4.59.22l2.25.06a18.28 18.28 0 0 0 2.34 0 1.39 1.39 0 0 0 1.35-1.35 1.38 1.38 0 0 0-1.35-1.34 18.28 18.28 0 0 0-2.34 0l-2.25.06c-1.53.05-3.06.06-4.59.22a1 1 0 0 0 0 2.05zM97.36 718.57c3.06.16 6.12.17 9.18.22s6.14.25 9.18.1a1.35 1.35 0 0 0 0-2.69c-3-.14-6.13.06-9.18.11s-6.12.05-9.18.21a1 1 0 0 0 0 2.05zM97.36 734.58c1.53.15 3.06.16 4.59.21l2.25.07a18.28 18.28 0 0 0 2.34 0 1.35 1.35 0 1 0 0-2.69 20.31 20.31 0 0 0-2.34 0l-2.25.07c-1.53 0-3.06.05-4.59.21a1 1 0 0 0 0 2.06zM97.36 750.58c3.06.16 6.12.16 9.18.21s6.14.25 9.18.1a1.34 1.34 0 0 0 0-2.68c-3-.15-6.13 0-9.18.1s-6.12.05-9.18.21a1 1 0 0 0 0 2.06zM97.36 766.58c1.53.16 3.06.17 4.59.21l2.25.07a18.28 18.28 0 0 0 2.34 0 1.34 1.34 0 1 0 0-2.68 18.28 18.28 0 0 0-2.34 0l-2.25.07c-1.53.05-3.06.05-4.59.21a1 1 0 0 0 0 2.06zM97.36 782.58c3.06.16 6.12.17 9.18.21s6.14.25 9.18.11a1.35 1.35 0 0 0 0-2.69c-3-.15-6.13.06-9.18.1s-6.12.05-9.18.21a1 1 0 0 0 0 2.06zM97.36 798.58c1.53.16 3.06.17 4.59.21l2.25.07a20.31 20.31 0 0 0 2.34 0 1.39 1.39 0 0 0 1.35-1.35 1.38 1.38 0 0 0-1.35-1.34 18.28 18.28 0 0 0-2.34 0l-2.25.06c-1.53.05-3.06.06-4.59.22a1 1 0 0 0 0 2.05zM97.36 814.58c3.06.16 6.12.17 9.18.22s6.14.24 9.18.1a1.35 1.35 0 0 0 0-2.69c-3-.14-6.13.06-9.18.1s-6.12.06-9.18.22a1 1 0 0 0 0 2.05zM97.36 830.58c1.53.16 3.06.17 4.59.22l2.25.06a18.28 18.28 0 0 0 2.34 0 1.35 1.35 0 1 0 0-2.69 20.31 20.31 0 0 0-2.34 0l-2.25.07c-1.53 0-3.06 0-4.59.21a1 1 0 0 0 0 2.05zM97.36 846.59c3.06.16 6.12.16 9.18.21s6.14.25 9.18.1a1.35 1.35 0 0 0 0-2.69c-3-.14-6.13.06-9.18.11s-6.12 0-9.18.21a1 1 0 0 0 0 2.06zM97.36 862.59c1.53.16 3.06.16 4.59.21l2.25.07a18.28 18.28 0 0 0 2.34 0 1.39 1.39 0 0 0 1.35-1.34 1.36 1.36 0 0 0-1.35-1.34 18.28 18.28 0 0 0-2.34 0l-2.25.07c-1.53 0-3.06 0-4.59.21a1 1 0 0 0 0 2.06zM97.36 878.59c3.06.16 6.12.17 9.18.21s6.14.25 9.18.1a1.34 1.34 0 0 0 0-2.68c-3-.15-6.13 0-9.18.1s-6.12 0-9.18.21a1 1 0 0 0 0 2.06zM97.36 894.59c1.53.16 3.06.17 4.59.21l2.25.07a20.31 20.31 0 0 0 2.34 0 1.39 1.39 0 0 0 1.35-1.35 1.38 1.38 0 0 0-1.35-1.34 18.28 18.28 0 0 0-2.34 0l-2.25.07c-1.53 0-3.06.06-4.59.21a1 1 0 0 0 0 2.06zM97.36 910.59c3.06.16 6.12.17 9.18.21s6.14.25 9.18.11a1.35 1.35 0 0 0 0-2.69c-3-.15-6.13.06-9.18.1s-6.12.06-9.18.22a1 1 0 0 0 0 2.05zM97.36 926.59c1.53.16 3.06.17 4.59.22l2.25.06a18.28 18.28 0 0 0 2.34 0 1.35 1.35 0 1 0 0-2.69 18.28 18.28 0 0 0-2.34 0l-2.25.06c-1.53 0-3.06.06-4.59.22a1 1 0 0 0 0 2.05zM97.36 942.59c3.06.16 6.12.17 9.18.22s6.14.25 9.18.1a1.35 1.35 0 0 0 0-2.69c-3-.14-6.13.06-9.18.11s-6.12 0-9.18.21a1 1 0 0 0 0 2.05zM97.36 958.6c1.53.15 3.06.16 4.59.21l2.25.07a18.28 18.28 0 0 0 2.34 0 1.35 1.35 0 1 0 0-2.69 20.31 20.31 0 0 0-2.34 0l-2.25.07c-1.53 0-3.06 0-4.59.21a1 1 0 0 0 0 2.06z" fill="#050505" class="fill-000000"></path><path d="M205.2 752.43h281.75v219.49H205.2z" fill="#ffffff" class="fill-ffffff"></path><path d="M487 970.65H216.63c-3.61 0-7.35-.27-10.95 0a3.84 3.84 0 0 1-.48 0l1.26 1.27V761.36a81.47 81.47 0 0 0 0-8.56v-.37l-1.26 1.26h270.31c3.62 0 7.35.27 11 0h.48l-1.27-1.26V963c0 2.85-.07 5.71 0 8.56v.37a1.27 1.27 0 0 0 2.53 0V761.36c0-2.85.08-5.71 0-8.56v-.37a1.28 1.28 0 0 0-1.26-1.27H216.63c-3.65 0-7.3-.07-10.95 0h-.48a1.28 1.28 0 0 0-1.27 1.27V963c0 2.85-.07 5.71 0 8.56v.37a1.28 1.28 0 0 0 1.27 1.26h270.31c3.65 0 7.31.07 11 0h.49a1.27 1.27 0 0 0 0-2.54z" fill="#050505" class="fill-000000"></path><path d="M358.31 845.56H76.56l128.64-93.13h281.75z" fill="#050505" class="fill-000000"></path><path d="M358.31 844.29H80.82a25.24 25.24 0 0 0-3.79 0 2.46 2.46 0 0 1-.47 0l.64 2.36 23.23-16.82 49-35.5L194 762.12l10.83-7.83c.19-.14.83-.45.92-.67s-.53 0-.43.07a7.07 7.07 0 0 0 1.78 0H487l-.64-2.35-12.81 9.27-30.76 22.27-37 26.81L373.54 833c-5.19 3.75-10.67 7.29-15.65 11.33l-.22.16c-1.31.94-.05 3.14 1.28 2.18l12.81-9.27 30.75-22.27 37-26.81L471.72 765c5.19-3.76 10.66-7.3 15.64-11.33l.23-.16a1.28 1.28 0 0 0-.64-2.36H210.64a36.18 36.18 0 0 0-5.41 0 4 4 0 0 0-1.73.94l-4.09 3-38.73 28L110 819.82l-32.5 23.5-1.58 1.15a1.27 1.27 0 0 0 .64 2.35h270.31c3.64 0 7.33.18 11 0h.47a1.27 1.27 0 0 0-.03-2.53z" fill="#050505" class="fill-000000"></path><path d="M486.95 752.43h140.88v219.49H486.95z" fill="#d6275e" class="fill-18c4ff"></path><path d="M627.82 970.65H492.7a42.36 42.36 0 0 0-5.52 0H487l1.26 1.27V761.36c0-2.82.24-5.75 0-8.56v-.37l-1.26 1.26h135.07a40.67 40.67 0 0 0 5.52 0 1.77 1.77 0 0 1 .23 0l-1.26-1.26V963c0 2.85-.07 5.71 0 8.56v.37a1.27 1.27 0 0 0 2.53 0V761.36c0-2.85.06-5.71 0-8.56v-.37a1.28 1.28 0 0 0-1.27-1.27H504.21c-5.66 0-11.37-.2-17 0H487a1.28 1.28 0 0 0-1.27 1.27V963c0 2.85-.06 5.71 0 8.56v.37a1.28 1.28 0 0 0 1.27 1.26h123.56c5.66 0 11.37.21 17 0h.23a1.27 1.27 0 0 0 .03-2.54z" fill="#050505" class="fill-000000"></path><g fill="#d6275e" class="fill-18c4ff"><path d="M236.64 896.64c12.55.34 25.1.54 37.65.24a1.28 1.28 0 0 0 0-2.56c-12.55-.3-25.1-.1-37.65.24a1 1 0 0 0 0 2.08zM236.64 909.78c12.55.34 25.1.54 37.65.24a1.28 1.28 0 0 0 0-2.56c-12.55-.3-25.1-.1-37.65.24a1 1 0 0 0 0 2.08zM236.64 922.92c6.8.33 13.6.53 20.4.23a1.28 1.28 0 0 0 0-2.55c-6.8-.3-13.6-.1-20.4.23a1 1 0 0 0 0 2.09zM501.61 218.74a2 2 0 0 0-.52-.23 1.65 1.65 0 0 0-1 .05 2.41 2.41 0 0 0-.57.25 2.26 2.26 0 0 0-.71.7 2.34 2.34 0 0 0-.41 1.28 2.27 2.27 0 0 0 .35 1.26 2.7 2.7 0 0 0 .94.9 2.25 2.25 0 0 0 .61.23 2.55 2.55 0 0 0 1 0 2.09 2.09 0 0 0 1.11-.6 2.3 2.3 0 0 0 .59-1.08 2.33 2.33 0 0 0-.53-2.19 1.72 1.72 0 0 0-.52-.41 1.55 1.55 0 0 0-1.12-.15 1.52 1.52 0 0 0-.86.67 1.46 1.46 0 0 0-.15 1.12 1.45 1.45 0 0 0 .67.86l.11.07-.29-.22a.68.68 0 0 1 .12.12l-.22-.29a1 1 0 0 1 .1.17l-.15-.35a1.05 1.05 0 0 1 .06.24l-.05-.39a1.31 1.31 0 0 1 0 .28l.05-.39a.9.9 0 0 1-.07.27l.15-.35a1.18 1.18 0 0 1-.11.19l.23-.29-.14.14.29-.22a.51.51 0 0 1-.16.09l.35-.14a1 1 0 0 1-.23.06l.39-.06h-.23.38a1.11 1.11 0 0 1-.3-.08l.35.14a1 1 0 0 1-.25-.14l.29.22a1 1 0 0 1-.21-.2l.22.29a1 1 0 0 1-.13-.23l.14.34a1 1 0 0 1-.06-.23l.05.37a1 1 0 0 1 0-.25l-.05.37a.9.9 0 0 1 .08-.28l-.14.33a1.28 1.28 0 0 1 .16-.27l-.21.28.31-.41-.21.27a1.36 1.36 0 0 1 .24-.24l-.26.2.17-.11a3.37 3.37 0 0 0 .37-.29l-.24.18.15-.09a1.06 1.06 0 0 0 0-1.82zM510.38 221.46a1.94 1.94 0 0 0-.53-.23 1.63 1.63 0 0 0-1 .05 2.24 2.24 0 0 0-.57.25 2.29 2.29 0 0 0-.72.7 2.42 2.42 0 0 0-.4 1.28 2.24 2.24 0 0 0 .35 1.26 2.67 2.67 0 0 0 .93.9 2.34 2.34 0 0 0 .62.24 2.55 2.55 0 0 0 1 0 2.07 2.07 0 0 0 1.1-.6 2.36 2.36 0 0 0 .6-1.08 2.5 2.5 0 0 0 0-1.33 2.56 2.56 0 0 0-.5-.86 1.85 1.85 0 0 0-.52-.41 1.56 1.56 0 0 0-1.12-.15 1.54 1.54 0 0 0-.87.67 1.51 1.51 0 0 0-.14 1.12 1.43 1.43 0 0 0 .66.86.5.5 0 0 1 .12.08l-.29-.23.12.12-.23-.29a1 1 0 0 1 .1.17l-.14-.35a1.05 1.05 0 0 1 .06.24l-.05-.38a1.22 1.22 0 0 1 0 .27l.05-.39a1.34 1.34 0 0 1-.07.27l.15-.35a2 2 0 0 1-.11.2l.22-.3a1 1 0 0 1-.14.15l.29-.23a.6.6 0 0 1-.15.09l.34-.14a.9.9 0 0 1-.22.06l.38-.05h-.23l.39.05a1 1 0 0 1-.3-.08l.34.14a.89.89 0 0 1-.25-.14l.29.22a1 1 0 0 1-.2-.2l.22.29a1.09 1.09 0 0 1-.14-.23l.15.34a2 2 0 0 1-.07-.23l.05.37a.7.7 0 0 1 0-.25l-.05.37a1.28 1.28 0 0 1 .07-.28l-.14.33c.05-.09.1-.18.16-.27l-.21.28.32-.41-.21.27a1.36 1.36 0 0 1 .24-.24l-.26.2.17-.11a3.26 3.26 0 0 0 .36-.29l-.23.18.15-.09a1.07 1.07 0 0 0 .52-.91 1.05 1.05 0 0 0-.52-.91zM504.5 227.93a2.2 2.2 0 0 0-.53-.22 1.66 1.66 0 0 0-1 0 3.14 3.14 0 0 0-.57.24 2.19 2.19 0 0 0-.71.71 2.38 2.38 0 0 0-.4 1.27 2.32 2.32 0 0 0 .34 1.26 2.61 2.61 0 0 0 .94.9 2.34 2.34 0 0 0 .62.24 2.51 2.51 0 0 0 1 0 2.07 2.07 0 0 0 1.11-.61 2.33 2.33 0 0 0 .6-1.07 2.4 2.4 0 0 0 0-1.33 2.23 2.23 0 0 0-.5-.87 1.6 1.6 0 0 0-.52-.41 1.53 1.53 0 0 0-1.11-.14 1.48 1.48 0 0 0-.87.66 1.47 1.47 0 0 0-.14 1.12 1.48 1.48 0 0 0 .66.87l.12.07-.3-.23a.8.8 0 0 1 .13.13l-.23-.3.1.17-.15-.34a1.55 1.55 0 0 1 .07.23l-.05-.38a1.22 1.22 0 0 1 0 .27l.05-.38a2 2 0 0 1-.07.26l.14-.35a.78.78 0 0 1-.11.2l.23-.29-.14.14.29-.23-.16.1.35-.15a.86.86 0 0 1-.23.06l.39-.05a.89.89 0 0 1-.23 0l.38.05-.3-.09.35.15a1.28 1.28 0 0 1-.25-.15l.29.23a1 1 0 0 1-.21-.21l.22.29a1.59 1.59 0 0 1-.13-.22l.14.33a.86.86 0 0 1-.06-.23l.05.38a1.13 1.13 0 0 1 0-.26l-.05.37a1.38 1.38 0 0 1 .08-.27l-.14.33a1.2 1.2 0 0 1 .16-.27l-.21.27c.11-.13.21-.27.31-.41l-.21.27a1.36 1.36 0 0 1 .24-.24l-.25.2.16-.11a2.57 2.57 0 0 0 .37-.28l-.24.18.16-.1a1.05 1.05 0 0 0 .52-.91 1.09 1.09 0 0 0-.52-.91zM466.07 143.86c-20.08 7.08-37.28 21-49.29 38.46A106.33 106.33 0 0 0 398.44 246a119.28 119.28 0 0 0 6.56 35.14c3.85 11.1 9.23 22.07 16.46 31.36 6.61 8.49 16.16 16.8 27.44 17.32 10.72.5 18.9-6.93 23.5-16a66.19 66.19 0 0 0 5.2-14.52c1-4.28 1.53-9.22 0-13.44a9.16 9.16 0 0 0-10.82-6.06 23.7 23.7 0 0 0-7.91 3.75 70.15 70.15 0 0 0-6.46 4.8c-17.11 14.3-26.67 36.87-24.34 59.12s16 45.63 37.72 53.84c10.08 3.82 22.15 3.18 31-3.4 8.15-6.07 12-17.15 8.4-26.85-1.59-4.23-5.37-10-10.52-9.74s-7.39 6.18-8.66 10.35a73.5 73.5 0 0 0-2.59 29.38c2.18 19.74 11.66 39.05 26.89 52a73.82 73.82 0 0 0 11.91 8.23c1.62.9 3.07-1.58 1.45-2.48-16.12-9-28.06-24.81-33.75-42.23a77 77 0 0 1-3.82-27 69.17 69.17 0 0 1 1.9-13.7 46.29 46.29 0 0 1 2-6.61c.76-1.81 2-4.15 4-4.73 2.55-.73 4.9 1.91 6.2 3.77a17.08 17.08 0 0 1 2.67 6.06 20.73 20.73 0 0 1-1.59 13.64c-4.46 9-14.94 13.08-24.52 12.6-10.91-.55-20.77-6.95-28.11-14.68a65.71 65.71 0 0 1-3.4-86.09 67.17 67.17 0 0 1 10.69-10.63 56.88 56.88 0 0 1 6.46-4.44c2.49-1.47 5.55-3 8.5-2.06 4 1.24 4.8 6 4.75 9.65 0 4.46-1.37 8.87-2.8 13.07-2.93 8.6-8.06 17.87-17.31 20.74-10.52 3.26-20.74-3.29-27.8-10.58-7.62-7.88-13.16-18-17.42-28a117.53 117.53 0 0 1-8.59-32.25c-2.47-21.13 1-42.77 11-61.66a102 102 0 0 1 40.65-41.82 91.91 91.91 0 0 1 13.28-6c1.28-.46.73-2.52-.57-2.06zM541.13 105.58a98.73 98.73 0 0 0 17.27 29.63c.86 1 2.3-.45 1.46-1.46A99.36 99.36 0 0 1 543 105.08c-.43-1.13-2.26-.65-1.83.5zM595 78.2l6.28 32.08c.25 1.29 2.24.75 2-.55l-6.59-32c-.22-1.1-1.89-.63-1.67.46zM656.63 63.69a68.42 68.42 0 0 0 .48 30.76c.31 1.28 2.3.74 2-.55a69.86 69.86 0 0 1-.76-29.74c.21-1.1-1.46-1.59-1.7-.47zM715.45 71.11a194.28 194.28 0 0 0-7.53 27.3c-.25 1.31 1.75 1.87 2 .55a205 205 0 0 1 7.32-27.35c.4-1.14-1.4-1.62-1.8-.5zM785.12 166.58a90.26 90.26 0 0 1 78.1 54.4c3.85 9.3 6.13 19.47 5.32 29.58a43.52 43.52 0 0 1-1.32 7.77 21.22 21.22 0 0 1-2.48 6.26 5.77 5.77 0 0 1-4.54 2.93c-1.67 0-3.37-.77-3.58-2.58-.24-2.13.88-4.74 1.69-6.66a30.8 30.8 0 0 1 3.11-5.62 29.9 29.9 0 0 1 9.52-8.8c4.06-2.36 9.08-3.79 13.28-1 3.71 2.51 5.94 7 8.07 10.81 4.81 8.57 9.07 18.47 7.89 28.53-.9 7.66-5.6 15.55-12.85 18.71a15.61 15.61 0 0 1-5.42 1.27l1.5 1.14c-1.32-8.22 5.24-17 13.53-17.93 9.33-1.06 17.41 6.34 21 14.33a47.51 47.51 0 0 1 3.53 15.65c.44 5.58.45 11.21.35 16.8-.19 11.17-1.31 22.48-5.24 33-3.69 9.92-10.11 19.56-19.17 25.31-1.49.95-.11 3.35 1.4 2.39a51.6 51.6 0 0 0 19.61-23.74c4.76-11.14 6.3-23.3 6.6-35.32a176.37 176.37 0 0 0-.32-18.25 52.36 52.36 0 0 0-3.83-17.07c-3.9-8.95-12.86-17-23.16-16.34-10.81.66-19 11.42-17.27 22a1.55 1.55 0 0 0 1.5 1.15c9.14-.52 16.15-7.4 19.45-15.56 4-9.89 1.51-20.82-2.72-30.19a81.72 81.72 0 0 0-7.85-14c-2.88-4-6.77-7.29-11.95-7.17s-9.83 2.9-13.64 6a32.91 32.91 0 0 0-8.72 11.24c-1.68 3.57-4.47 9.82-.76 13 3.36 2.88 8.19 1.31 10.65-1.88 3.11-4 4.09-9.79 4.62-14.7a56.94 56.94 0 0 0-.79-16.63c-3.51-18.88-14.53-36.08-29-48.5A92.42 92.42 0 0 0 792 165.06a83.68 83.68 0 0 0-6.89-.51c-1.31-.05-1.3 2 0 2z"></path></g></svg>