<svg viewBox="0 0 1000 1000" xmlns="http://www.w3.org/2000/svg"><path d="M771.43 530.37H593.32l60.44-142.73h178.11z" fill="#000000" class="fill-000000"></path><path d="M771.43 529.1H600.58a67.32 67.32 0 0 0-7 0 1.5 1.5 0 0 1-.3 0l1.1 1.91 6-14.23 14.47-34.16 17.39-41.08 15.12-35.7 5-11.76 1.53-3.63a13.63 13.63 0 0 0 .82-1.93 2.44 2.44 0 0 1 .1-.24l-1.09.63H824.6a67.52 67.52 0 0 0 7 0 2.81 2.81 0 0 1 .29 0l-1.12-1.91-6 14.23-14.46 34.16-17.4 41.08-15.11 35.71-7.34 17.32-.1.23c-.63 1.49 1.56 2.78 2.19 1.28l6-14.23L793 482.62l17.39-41.08 15.12-35.7q3.66-8.67 7.33-17.32l.1-.24a1.29 1.29 0 0 0-1.1-1.91H661c-2.32 0-4.65-.07-7 0h-.3a1.25 1.25 0 0 0-1.1.63l-6 14.23-14.47 34.16-17.39 41.08-15.12 35.71-7.34 17.32-.09.23a1.28 1.28 0 0 0 1.09 1.91h170.89c2.31 0 4.64.07 7 0h.3a1.27 1.27 0 0 0-.04-2.54z" fill="#000000" class="fill-000000"></path><path d="M761.99 530.37H583.88l60.43-142.73h178.11z" fill="#3239fa" class="fill-18c4ff"></path><path d="M762 529.1H591.14a67.32 67.32 0 0 0-7 0 1.5 1.5 0 0 1-.3 0L585 531l6-14.23 14.46-34.16 17.4-41.08L638 405.84l5-11.76 1.53-3.63a13.63 13.63 0 0 0 .82-1.93 2.44 2.44 0 0 1 .1-.24l-1.1.63h170.81a67.32 67.32 0 0 0 7 0h.3l-1.13-1.91-6 14.23-14.47 34.16-17.39 41.08-15.12 35.71q-3.66 8.66-7.33 17.32l-.1.23c-.63 1.49 1.55 2.78 2.19 1.28l6-14.23 14.46-34.16L801 441.54l15.12-35.7q3.67-8.67 7.34-17.32l.1-.24a1.29 1.29 0 0 0-1.1-1.91H651.58c-2.32 0-4.65-.07-7 0h-.3a1.23 1.23 0 0 0-1.09.63l-6 14.23-14.46 34.16-17.4 41.08-15.11 35.71q-3.68 8.66-7.34 17.32l-.1.23a1.29 1.29 0 0 0 1.1 1.91h170.84c2.32 0 4.65.07 7 0h.28a1.27 1.27 0 0 0 0-2.54z" fill="#3239fa" class="fill-18c4ff"></path><path d="M416.86 676.21a593.11 593.11 0 0 1-44.62 239.55c-6.13 14.84-13 30.37-11 46.29a11.73 11.73 0 0 1 .14 3.34c-1 6.05-9.92 5.45-15.53 3A224.72 224.72 0 0 1 316.77 953c-4.34-2.74-8.74-5.77-11.35-10.19-4.8-8.16.24-16 2.8-25.12 8-28.68 12.71-60.29 14.18-90 .66-13.42.15-26.88 1-40.29a201.38 201.38 0 0 1 22.86-81.22" fill="#000000" class="fill-000000"></path><path d="M415.88 676.21a590.16 590.16 0 0 1-2 60.21q-2.55 30.12-8 59.88-5.49 29.49-13.88 58.34a596.35 596.35 0 0 1-19.75 56.92c-3.74 9.25-7.91 18.39-10.52 28.05a66.8 66.8 0 0 0-2.37 14.52 47.21 47.21 0 0 0 .22 7.13c.2 1.8.8 4-.46 5.57-1.71 2.11-5.42 1.89-7.79 1.49-4.11-.68-7.9-2.74-11.62-4.53a177.39 177.39 0 0 1-25.84-14.65c-3.52-2.49-7-5.7-8.33-9.95s0-8.76 1.42-12.86a257.84 257.84 0 0 0 7.68-28.15 438.16 438.16 0 0 0 8.71-59.88c.8-10.37 1-20.74 1.15-31.14a284.52 284.52 0 0 1 1.5-30.89 199.25 199.25 0 0 1 15.46-56.51c1.91-4.33 3.93-8.67 6.14-12.86.95-1.82-1.81-3.44-2.77-1.62A202.61 202.61 0 0 0 325 761.49a204.79 204.79 0 0 0-3.5 30.13c-.47 10.93-.24 21.88-.62 32.82a406 406 0 0 1-6.88 61.71c-1.92 10.11-4.22 20.15-7 30.06-2.33 8.41-7.73 17.5-3.55 26.19 1.93 4 5.4 7 9 9.56 4.06 2.86 8.4 5.38 12.72 7.82q6.81 3.86 13.89 7.22c3.64 1.74 7.35 3.72 11.37 4.41 3.06.52 6.61.63 9.36-1a6.69 6.69 0 0 0 2.82-3.36c.81-2.13.26-4.35.07-6.55-.92-10.2 1.78-20.23 5.28-29.72s7.72-18.89 11.37-28.42 7.13-19.36 10.3-29.18a582.27 582.27 0 0 0 15.85-59.52 598.54 598.54 0 0 0 9.52-60.75 574.18 574.18 0 0 0 3.06-61.5q0-7.6-.24-15.2a1 1 0 0 0-1.95 0z" fill="#000000" class="fill-000000"></path><path d="M415.88 676.21a590.16 590.16 0 0 1-2 60.21q-2.55 30.12-8 59.88-5.49 29.49-13.88 58.34a596.35 596.35 0 0 1-19.75 56.92c-3.74 9.25-7.91 18.39-10.52 28.05a66.8 66.8 0 0 0-2.37 14.52 47.21 47.21 0 0 0 .22 7.13c.2 1.8.8 4-.46 5.57-1.71 2.11-5.42 1.89-7.79 1.49-4.11-.68-7.9-2.74-11.62-4.53a177.39 177.39 0 0 1-25.84-14.65c-3.52-2.49-7-5.7-8.33-9.95s0-8.76 1.42-12.86a257.84 257.84 0 0 0 7.68-28.15 438.16 438.16 0 0 0 8.71-59.88c.8-10.37 1-20.74 1.15-31.14a284.52 284.52 0 0 1 1.5-30.89 199.25 199.25 0 0 1 15.46-56.51c1.91-4.33 3.93-8.67 6.14-12.86.95-1.82-1.81-3.44-2.77-1.62A202.61 202.61 0 0 0 325 761.49a204.79 204.79 0 0 0-3.5 30.13c-.47 10.93-.24 21.88-.62 32.82a406 406 0 0 1-6.88 61.71c-1.92 10.11-4.22 20.15-7 30.06-2.33 8.41-7.73 17.5-3.55 26.19 1.93 4 5.4 7 9 9.56 4.06 2.86 8.4 5.38 12.72 7.82q6.81 3.86 13.89 7.22c3.64 1.74 7.35 3.72 11.37 4.41 3.06.52 6.61.63 9.36-1a6.69 6.69 0 0 0 2.82-3.36c.81-2.13.26-4.35.07-6.55-.92-10.2 1.78-20.23 5.28-29.72s7.72-18.89 11.37-28.42 7.13-19.36 10.3-29.18a582.27 582.27 0 0 0 15.85-59.52 598.54 598.54 0 0 0 9.52-60.75 574.18 574.18 0 0 0 3.06-61.5q0-7.6-.24-15.2a1 1 0 0 0-1.95 0z" fill="#000000" class="fill-000000"></path><g stroke="#000000" stroke-miterlimit="10" stroke-width="1.69" class="stroke-000000"><path d="M253.29 942.35h-6.09v-243.7h6.09z" fill="#000000" class="fill-000000"></path><path d="M319.65 973.23h-138.8a2.37 2.37 0 0 1-2.36-2.37v-12.92a16.31 16.31 0 0 1 16.31-16.31h110.9a16.31 16.31 0 0 1 16.31 16.31v12.92a2.37 2.37 0 0 1-2.37 2.37zM634.42 975h-6.09V557.63h6.09zM463.56 975h-6.09V557.63h6.09z" fill="#000000" class="fill-000000"></path></g><path d="M431.11 544.18h438.37v15.17H431.11z" fill="#000000" class="fill-000000"></path><path d="M431.11 561.89h420.58c5.68 0 11.37.1 17 0h.74a2.58 2.58 0 0 0 2.54-2.54v-15.17a2.58 2.58 0 0 0-2.54-2.54H448.9c-5.67 0-11.37-.11-17 0h-.75a2.58 2.58 0 0 0-2.54 2.54v15.17c0 3.26 5.08 3.27 5.08 0v-15.17l-2.54 2.54h420.54c5.64 0 11.41.35 17 0h.74l-2.54-2.54v15.17l2.54-2.54H448.9c-5.67 0-11.37-.11-17 0h-.75c-3.31 0-3.31 5.08-.04 5.08z" fill="#000000" class="fill-000000"></path><path d="M539.91 540.3a31.09 31.09 0 0 0 33.55-4.5 31.81 31.81 0 0 0 3.45-3.61c.52-.61 3.26-3.29 3.61-1.11.26 1.64 2.75.94 2.5-.69a3.32 3.32 0 0 0-2.77-2.61 4.71 4.71 0 0 0-4 1.31c-1.24 1.08-2.18 2.49-3.35 3.64a27.53 27.53 0 0 1-3.69 3 30.67 30.67 0 0 1-17.76 5.27 27.35 27.35 0 0 1-10.66-2.25c-1-.44-1.9 1-.88 1.51zM589.27 520.79a20.28 20.28 0 0 0-13.48-7.45 1.07 1.07 0 0 0-1.06 1.06 1.09 1.09 0 0 0 1.06 1.06 19.26 19.26 0 0 1 12.27 6.54c.74.85 1.88-.36 1.21-1.21zM583.88 505.19a57 57 0 0 0-12.92.46 1 1 0 1 0 .52 1.88 64.3 64.3 0 0 1 12.4-.63c1.11.05 1.09-1.63 0-1.71zM576.4 495.91a32 32 0 0 0-9.45 1.72 1 1 0 0 0-.67 1.17 1 1 0 0 0 1.17.66 30.48 30.48 0 0 1 8.95-1.83c1.1-.06 1.11-1.76 0-1.72zM570.49 485.43a44.17 44.17 0 0 0-23.35 12c-1.09 1.06.59 2.74 1.66 1.66a45.7 45.7 0 0 1 22.15-12c1.09-.25.61-1.84-.46-1.66zM545.5 488a27.73 27.73 0 0 0-8.74 9.22c-2.08 3.57-3.84 8-3.87 12.23 0 1.36 2.21 1.75 2.44.33a47.68 47.68 0 0 1 1.11-5.79 27.56 27.56 0 0 1 2.27-5.44 29.37 29.37 0 0 1 7.68-9c.88-.68.08-2.18-.89-1.53z" fill="#000000" class="fill-000000"></path><path d="M326.13 535.79a16.48 16.48 0 0 0 2.47 11.66c33.72 13.72 64.93 31.22 95.81 50.34 32.47 20.1 70.81 40.18 77.72 81.24 13.58 80.8 15.5 165.25 0 245.94-1.2 6.25-2.44 12.89-.13 18.81 1.51 3.89 4.44 7.16 7.34 10.39 6 6.65 2.09 17.41-6.78 18.5-11.29 1.38-21.51-.66-34.44-4.79-9.62-3.08-20.44-7.25-23.95-16.73-1.55-4.19-1.36-8.81-1.18-13.28 2.86-72.37-28.58-159.9-25.2-234.32-9 2 9 2.23 0 0C383.25 695 310.31 678.81 278.44 663c-11-5.45-21.74-11.9-29.8-21.13-14.28-16.36-18.26-39.15-20.08-60.79-2.89-34.24 18.49-49.15 23.5-83.14" fill="#ffffff" class="fill-ffffff"></path><path d="M325.13 535.51a18.25 18.25 0 0 0 .7 8.83 11.08 11.08 0 0 0 1.78 3.69c1 1.11 3.13 1.55 4.49 2.13 7 3 14 6.21 20.87 9.52 13.6 6.52 26.88 13.67 40 21.14 12.52 7.13 24.74 14.71 37 22.23 9.68 5.93 19.41 11.81 28.65 18.4 18.37 13.1 35.08 29.75 40.74 52.27 1.76 7 2.63 14.26 3.69 21.38q1.77 11.9 3.18 23.9 2.77 23.49 4.11 47.13a694.57 694.57 0 0 1-1 94.16q-1.89 23.57-5.59 46.93c-1.21 7.61-2.88 15.16-4 22.78-1 6.78-.59 13.25 3.43 19 3.21 4.63 8.69 8.31 7.36 14.65a9.92 9.92 0 0 1-3.48 5.7c-2.43 1.91-5.46 2.1-8.43 2.27a69.35 69.35 0 0 1-20.63-2.35 112.15 112.15 0 0 1-19.25-6.35c-5.24-2.41-10.41-5.8-12.88-11.23-2.88-6.32-1.44-14.14-1.38-20.88a339.71 339.71 0 0 0-2.24-40.08c-3.06-28.05-8.4-55.78-13.19-83.55s-9.26-55.76-10.05-84q-.27-9.83.15-19.65a1.33 1.33 0 0 0-1.66-1.26c-1 .24-2.8.49-3.37 1.55s.19 2 1.16 2.31c1.4.5 4.36.67 5.66-.19 3.34-2.23-3.23-3.79-4.31-4.05q-6.88-1.7-13.79-3.35c-23.86-5.75-47.73-11.51-71.33-18.26-22.15-6.33-44.93-13-64.66-25.24-13-8.07-23-19-28.65-33.33-5.29-13.34-7.48-28-8.38-42.28-.82-12.94 2.36-25.07 7.56-36.81 4.95-11.17 10.66-22 13.84-33.86a96.71 96.71 0 0 0 2.18-10.52c.25-1.7-2.34-2.43-2.6-.72-1.88 12.41-6.47 23.81-11.75 35.11-4.76 10.15-9.53 20.38-11.24 31.56-2 12.73-.11 26.11 2.3 38.67 2.49 13 6.88 26 15 36.67 14 18.34 37.29 27.67 58.5 34.89 22.45 7.64 45.48 13.6 68.49 19.33 10.54 2.63 21.1 5.16 31.66 7.71 4.35 1 8.71 2.09 13.06 3.17a9.45 9.45 0 0 0 2.41.69c.05 0 .15.1.18.09s.34-1.58.16-1.71c0 0-.13.1-.3 0a10.61 10.61 0 0 0-2.64 0c-.12 0-.43-.15-.52-.1s-.21 1.64.05 1.74a10.59 10.59 0 0 0 2-.59l-1.66-1.27c-1.22 28.07 2.24 56.14 6.61 83.81 4.58 28.9 10.39 57.59 14.44 86.57 2 14 3.49 28 4.1 42.11.29 6.66.37 13.32.15 20s-.74 13.44 3 19.25c6.4 10 20.49 13.53 31.21 16.37a76 76 0 0 0 20.38 2.86c5.31-.06 10.82-.44 14.41-4.83a12.79 12.79 0 0 0 2.06-12.53c-1-2.68-3.05-4.58-4.87-6.74-2.43-2.87-4.58-6-5.36-9.75-1.58-7.6 1.12-15.85 2.45-23.31q2.1-11.83 3.73-23.74a653.88 653.88 0 0 0 5.81-95.66 764.94 764.94 0 0 0-7.27-95.62c-1.87-13.6-3.13-27.79-8.57-40.52a86.61 86.61 0 0 0-19.28-27.36c-16.62-16.37-37.54-27.75-57.27-39.86-26.51-16.26-53.73-31.5-82.36-43.72q-2.38-1-4.77-2c-1.62-.67-3.91-1.16-5.33-2.17-2.77-1.95-3-7.66-2.59-10.62.18-1.3-1.81-1.89-2-.55zM285.74 352.81a96.18 96.18 0 0 0 6.54-15.1 115.52 115.52 0 0 0 4.87-17.9 49.57 49.57 0 0 0 .9-8.75c0-2-3.18-2-3.14 0 .11 7-1.54 14.08-3.4 20.79a100.87 100.87 0 0 1-7.5 19.94c-.6 1.15 1.1 2.15 1.73 1z" fill="#000000" class="fill-000000"></path><path d="m275.32 354.36 4.43-11.79a6.59 6.59 0 0 1 1.67-2.86c1.13-.95 2.74-1 4.22-1a90.1 90.1 0 0 1 49.11 15c2.51 1.68 5.23 4.24 4.49 7.16l11.51 3.62c4.45 1.4 12.5 7.86 15.93 11 3.86 3.55 2.27 3.75 4 8.7 2 5.84 4.06 11.73 4.81 17.86 1.06 8.66-.47 17.42-2.3 25.94a367.54 367.54 0 0 1-14.76 50.59c-2.7 7.26-5.67 14.5-10.05 20.88-3.36 4.89-8.47 25.35-12.71 29.5-6 5.91-6.29 5.39-14.64 6.6-26.91 3.92-31.69.26-36.15 0-14.17-.83-10.6-12.14-23.73-17.56-9.44-3.89-18.58-9-25.44-16.61-5.33-5.87-9.1-13-12.22-20.27a54.78 54.78 0 0 1-4.41-14.47c-.88-6.87.37-13.83 1.87-20.6 3.1-13.91 7.3-27.61 9.1-41.75.74-5.82 1.08-11.74 2.86-17.32 2.84-8.93 9.29-16.48 17.13-21.62s17-8 26.29-9.34" fill="#000000" class="fill-000000"></path><path d="m276.32 354.63 3.13-7.89c.51-1.28 1-2.56 1.52-3.84.44-1.07.9-2.16 2.08-2.56a9.05 9.05 0 0 1 3.24-.2c1.3 0 2.61.1 3.91.19 2.53.16 5.06.43 7.57.83a90.4 90.4 0 0 1 28.45 9.53c2.49 1.32 4.93 2.76 7.28 4.31 1.67 1.11 4.53 3.05 4 5.41a1.82 1.82 0 0 0 1.23 2.17l8.06 2.54a31.79 31.79 0 0 1 5.69 2.09 60.49 60.49 0 0 1 9.73 6.81c2.07 1.71 5.08 3.75 5.62 6.25a43.43 43.43 0 0 0 1.24 4.87c.88 2.55 1.76 5.1 2.53 7.69a53.25 53.25 0 0 1 2.4 16.48 91.67 91.67 0 0 1-2.22 16.58c-2.27 10.88-5.08 21.65-8.35 32.27-3.19 10.37-6.55 20.9-11.14 30.75a74.89 74.89 0 0 1-3.72 7c-.84 1.37-1.82 2.67-2.55 4.1a73.6 73.6 0 0 0-3.35 8.36c-1.21 3.39-2.36 6.8-3.63 10.17a40 40 0 0 1-3.62 7.89 5.19 5.19 0 0 1-.73 1c-.61.64-1.29 1.23-2 1.82a18.83 18.83 0 0 1-3.3 2.52 4.63 4.63 0 0 1-1.24.55 13 13 0 0 1-1.84.44c-1.62.29-3.3.43-5 .63-8 1-16 2-24.12 1.65-1.17 0-2.33-.15-3.49-.28l-.69-.09c.52.07.05 0-.19 0l-1.33-.23-.54-.08-.59-.08-1.07-.17-1.79-.31a7.36 7.36 0 0 0-2.47-.16h1.13c-2.22-.3-4.46-.31-6.56-1.22a12.09 12.09 0 0 1-4.59-3.8c-1.51-2-2.79-4.07-4.4-6a22.14 22.14 0 0 0-6.74-5.39c-3.42-1.76-7.06-3-10.47-4.83a69.68 69.68 0 0 1-9.91-6.24 54.66 54.66 0 0 1-15-18.51c-3.82-7.33-7.5-15.51-7.89-23.88-.42-9 2.17-17.94 4.31-26.57 2.17-8.78 4.48-17.54 6-26.46 1.44-8.37 1.38-17.27 4.49-25.27 2.6-6.67 7.66-12.52 13.29-16.86 6.4-4.93 14.14-8 22-9.71 2-.45 4-.82 6.06-1.12a1.83 1.83 0 0 0 1.27-2.24 1.87 1.87 0 0 0-2.24-1.28c-17.73 2.62-35.89 11.2-43.39 28.46a50.61 50.61 0 0 0-3.45 14c-.64 5.07-1.15 10.12-2.07 15.15-1.88 10.25-4.68 20.29-7 30.43s-4.3 20.43-1.35 30.69a86.37 86.37 0 0 0 5.33 13.4 73.38 73.38 0 0 0 7.15 12.1 60.65 60.65 0 0 0 21 17.36c2 1.08 4.14 2.07 6.27 3a38.71 38.71 0 0 1 5.42 2.63 21.23 21.23 0 0 1 6 6.22 30 30 0 0 0 5 6.31 16.75 16.75 0 0 0 9.27 3.63 7.61 7.61 0 0 0 1.35.11c.61 0-.41 0-.59-.2a1.73 1.73 0 0 0 .81.27c.49.13 1 .24 1.49.36a34.69 34.69 0 0 0 4.25.94l.59.08.62.08 1.44.15c1.09.1 2.19.16 3.29.2a77.4 77.4 0 0 0 8.75-.19c4.36-.33 8.71-.76 13-1.35 2.12-.29 4.24-.67 6.35-1a23.06 23.06 0 0 0 3.68-.83c2.68-.92 4.74-2.8 6.72-4.77a20.61 20.61 0 0 0 4.19-6.17c2.75-5.87 4.64-12.1 6.9-18.16a34.8 34.8 0 0 1 2.86-6.46 96.63 96.63 0 0 0 6.72-12.27 264.78 264.78 0 0 0 10.39-28.83q4.56-14.77 7.87-29.9c2.23-10.23 4-20.68 2.07-31.11a112.59 112.59 0 0 0-4.34-14.81c-.9-2.65-.9-5.47-2.73-7.71-2.11-2.59-5-4.69-7.66-6.71a45.57 45.57 0 0 0-9.08-5.86 51.89 51.89 0 0 0-5.83-2l-7.37-2.32 1.23 2.17c1.19-5.79-5.19-9.23-9.35-11.68a88.22 88.22 0 0 0-15.33-7.13 89.4 89.4 0 0 0-16.81-4.23q-4.17-.65-8.39-.9a30 30 0 0 0-8 .11c-3.14.67-4 3.37-5 6.08q-1.86 5.23-3.71 10.49c-.45 1.26 1.51 1.75 2 .54zM360.61 259.81a26 26 0 0 1 1.39 10.58c-.13 3.74-.45 7.48-.56 11.23a58.06 58.06 0 0 0 .54 11.64 34 34 0 0 0 3.36 9.84 11.48 11.48 0 0 1 1.26 2.33c.17.8-.5 1.39-1.08 1.79a8.29 8.29 0 0 0-3.17 3c-1.19 2.47-.77 5.82-.85 8.5-.17 5.6-.35 11.79-3.07 16.84a10.82 10.82 0 0 1-6.74 5.66c-3.49.92-7.28.25-10.74-.47-1.9-.39-2.71 2.51-.8 2.91 6.29 1.31 13.48 2 18.36-3 4.33-4.49 5.4-11.12 5.82-17.09.21-3 .22-6.08.32-9.12 0-1.52.06-2.95 1.35-4s2.84-1.72 3.4-3.53c.62-2-.38-3.32-1.26-5a32.19 32.19 0 0 1-2.26-5.26 41.7 41.7 0 0 1-1.7-11.7c-.11-4.53.18-9 .17-13.58 0-4.2-.36-8.45-2.12-12.31-.41-.89-2-.25-1.6.67z" fill="#000000" class="fill-000000"></path><path d="M357.18 290.85a.11.11 0 0 0-.08.16.1.1 0 0 0 .12.05c.07 0 .08-.19 0-.21" fill="#000000" class="fill-000000"></path><path d="m356.44 289.81.31-.13-.32.13a2.92 2.92 0 0 0-.28.21l-.21.28-.14.33-.05.38.05.39a1 1 0 0 0 .26.49.65.65 0 0 0 .26.26 1 1 0 0 0 .49.26h.39a1.6 1.6 0 0 0 1.08-.45s.22-.29.23-.3a1.2 1.2 0 0 0 .07-.18 1.78 1.78 0 0 0 .08-.18l.05-.39a1.84 1.84 0 0 0-.05-.41l-.15-.35-.23-.3a1.78 1.78 0 0 0-.32-.24 1.6 1.6 0 0 0-1.14-.15 1 1 0 0 0-.5.26 1.1 1.1 0 0 0-.38.42l-.15.35a1.51 1.51 0 0 0 0 .79l.15.35a1.5 1.5 0 0 0 .53.53l-.3-.23-.23-.3-.15-.36-.05-.39.05-.39.15-.35.23-.3.29-.23.34-.14.38-.05.39.05-.39-.05a1.07 1.07 0 0 0-.56.12.8.8 0 0 0-.32.19 1.15 1.15 0 0 0-.38.41l.23-.29.29-.22.33-.14.37-.05.36.05.32.13.26.2.2.26a1.51 1.51 0 0 0-.77-.6h-.35a1.25 1.25 0 0 0-.65.18zM363.46 283.06a7.65 7.65 0 0 0-4.64-3.42 8.51 8.51 0 0 0-3.22-.08 4.13 4.13 0 0 0-3 1.65 1.33 1.33 0 0 0 1.13 2 2.56 2.56 0 0 0 1-.2c.08 0 .19-.09.05 0l.33-.12c.37-.12.73-.25 1.1-.34l.29-.06c.09 0 .32-.05.1 0a5.67 5.67 0 0 1 .58-.05 5.43 5.43 0 0 1 .57 0H358.15a5.66 5.66 0 0 1 1.91.67 5.23 5.23 0 0 1 1.6 1.38 1.17 1.17 0 0 0 1.83-1.41zM356.29 318a3.07 3.07 0 0 1-.26-.25l-.29-.24c-.16-.11.13.11 0 0l-.55-.47a12.19 12.19 0 0 1-1-1.06c-.08-.08-.14-.18-.22-.26.25.26 0 0-.06-.09s-.27-.4-.39-.6a10.84 10.84 0 0 1-.68-1.31 1.22 1.22 0 0 0-.72-.56 1.29 1.29 0 0 0-.8.06 1.21 1.21 0 0 0-.7 1.44 9.83 9.83 0 0 0 1.86 3 8.3 8.3 0 0 0 1.3 1.14 6.67 6.67 0 0 0 .61.43 4.75 4.75 0 0 0 .89.4 1 1 0 0 0 1-1.64zM339.21 341.06a33.24 33.24 0 0 0-2.17 4.69c-.87 2-1.76 4-2.61 6.05a103 103 0 0 0-4.32 11c-.48 1.66 1.91 2.21 2.53.69 1.47-3.64 2.9-7.3 4.38-10.94.8-2 1.56-4 2.3-5.95a21.45 21.45 0 0 0 1.49-5.06c.09-.9-1.19-1.1-1.6-.44zM326.84 291.59l.23.16-.07-.05.11.09a3.15 3.15 0 0 1 .37.36l.17.19c.1.13 0 0 0 0a1 1 0 0 0 .08.11c.1.15.19.29.28.45l.11.22a.75.75 0 0 1 .06.13s-.09-.22 0-.09.11.33.16.5.07.34.1.51l.06.27v.11c-.09-.38 0 .09 0 .16a1 1 0 0 0 1.86 0 4.12 4.12 0 0 0-.62-2.83 5.4 5.4 0 0 0-1.88-1.92 1 1 0 1 0-1 1.68z" fill="#000000" class="fill-000000"></path><path d="M322.31 628.34c-1-23.2-6.56-46.08-11.12-68.75C302.71 517.43 304 472.07 284 433c-21.6-42.09-66.63-60.55-112.42-58.47-124.71 5.62-97.25 178.23-78.16 257.41 10.65 44.15 34.6 77.08 81 85 70 11.9 142.1 20.55 211.64 6.22 14.34-3 30.32-8.39 36-21.88 5.58-13.18-1.71-29-13.05-37.72s-25.79-12.11-39.73-15.39-36-10.63-47-19.8" fill="#3239fa" class="fill-18c4ff"></path><path d="M323.19 628.34c-1-26.9-8.33-52.77-12.65-79.19-4-24.15-5.56-48.66-10.47-72.66-4.58-22.37-12.25-44.74-26.86-62.63-12.57-15.41-29.58-26.63-48.23-33.28a140.17 140.17 0 0 0-58.46-7.28c-14.06 1.18-28 4.75-40.34 11.76a84 84 0 0 0-27.27 25.24c-7.33 10.56-12.43 22.59-16 34.91a203.92 203.92 0 0 0-7 41.28 333.82 333.82 0 0 0-.07 44.28c.86 14.57 2.49 29.08 4.63 43.51q2.94 19.77 7.14 39.31c3.12 14.66 6.37 29.38 12.11 43.28 6.7 16.23 16.53 31.34 30.34 42.4a89.84 89.84 0 0 0 23 13.31c10 4 20.37 5.72 30.9 7.46 26.75 4.39 53.63 8.17 80.66 10.29 26.84 2.09 53.86 2.53 80.7.18a360.36 360.36 0 0 0 39.8-5.68c9.68-2 19.74-4.62 27.87-10.44s13.09-14.59 12.42-24.6c-.68-10.2-6.38-19.84-14.13-26.33-8.9-7.44-20.16-11.31-31.23-14.2-10.23-2.67-20.46-4.92-30.42-8.5-9.16-3.29-18.76-7.2-26.34-13.44-1.42-1.17-3.47.86-2 2 7.51 6.19 16.77 10.17 25.82 13.54 9.59 3.57 19.41 6 29.32 8.43 11.22 2.79 22.8 6.27 32 13.55 7.87 6.22 13.91 15.93 14.12 26.15.49 23.11-27.12 29-44.79 32.2-26 4.7-52.49 6.27-78.89 5.78a678.82 678.82 0 0 1-79.41-6.64c-13.25-1.8-26.46-3.87-39.65-6.08-9.87-1.65-19.53-3.75-28.72-7.82a88.46 88.46 0 0 1-38.29-33.09c-9.47-14.61-14.94-31.11-18.89-47.94q-4.15-17.72-7.4-35.63c-2.45-13.62-4.46-27.33-5.89-41.09a407.48 407.48 0 0 1-2.32-43.34 256.85 256.85 0 0 1 3.28-42.09c2.18-12.86 5.56-25.64 11-37.53a92.07 92.07 0 0 1 20.82-29.58A80.89 80.89 0 0 1 146.15 380c16.28-4.69 33.81-5.14 50.54-3 19.43 2.43 38.48 9.1 54.53 20.44 17.21 12.15 29.4 29.26 37.08 48.76 8.81 22.4 12.11 46.39 15.13 70.13 1.5 11.79 2.95 23.59 5 35.3 2.24 12.77 5.29 25.39 7.78 38.11a271.67 271.67 0 0 1 5.19 38.62c.06 1.13 1.81 1.14 1.77 0z" fill="#3239fa" class="fill-18c4ff"></path><path d="M854.77 975h-6.09V557.63h6.09zM683.91 975h-6.09V557.63h6.09z" stroke="#000000" stroke-miterlimit="10" stroke-width="1.69" fill="#000000" class="fill-000000 stroke-000000"></path><g fill="#3239fa" class="fill-18c4ff"><path d="M472.54 677.65a27.54 27.54 0 0 1-9.86 14.65c-.95.73 0 2.36.95 1.62a29.54 29.54 0 0 0 10.57-15.82.86.86 0 0 0-1.66-.45zM462.22 673.53a30.38 30.38 0 0 1-10.63 13.8c-.92.66 0 2.2.89 1.53A32.4 32.4 0 0 0 463.87 674c.39-1-1.27-1.48-1.65-.46zM341.51 569.5a20.56 20.56 0 0 1-4 19.3c-.93 1.06.61 2.62 1.55 1.55 5-5.65 6.95-14.2 4.17-21.33-.42-1.07-2.09-.67-1.76.48z"></path></g><path d="M360.69 369.91C381.27 380 394.32 428 398.76 459c.37 2.55.77 5.3 2.56 7.16 1.54 1.59 3.81 2.2 6 2.74L510 494.73c7.12 1.79 15.71 5.2 16.3 12.52 4.92-2.06 10.74 1.59 13 6.45s1.82 10.46 1.37 15.79c-.37 4.41-.93 9.24-4.12 12.32s-9.87 2.43-10.68-1.93c-.74 8.26-11.37 11-19.65 11.33A545.07 545.07 0 0 1 400 545.62c-8.88-1.35-18-3-25.62-7.73-8.58-5.3-14.49-13.93-19.82-22.49a401.39 401.39 0 0 1-45.71-104.27" fill="#000000" class="fill-000000"></path><path d="M360.25 370.66a33.89 33.89 0 0 1 11 10 85.37 85.37 0 0 1 9.3 16.31c5.91 13.11 9.95 27.09 13.08 41.11q2.19 9.84 3.69 19.82c.54 3.64.88 7.69 4.08 10.06a15.64 15.64 0 0 0 5.55 2.24l7.25 1.8q29.64 7.5 59.3 15l29.5 7.44a107.59 107.59 0 0 1 12 3.32c3 1.14 6.24 2.76 8.2 5.41a8.15 8.15 0 0 1 1.6 4.08c.08.81.85 1.72 1.78 1.36 3.22-1.27 6.58 0 9 2.36 2.79 2.74 3.75 6.64 3.92 10.45a57.67 57.67 0 0 1-.78 12.1c-.52 3.06-1.64 7-4.8 8.31-2.36 1-6.13.62-6.77-2.32-.37-1.66-2.61-1.1-2.77.37-.73 7-9.69 9.09-15.41 9.71-4.77.51-9.62.5-14.4.61q-8.13.19-16.26.15a547.45 547.45 0 0 1-64.61-4.25c-5.22-.66-10.45-1.38-15.65-2.21a90.94 90.94 0 0 1-14-3.16 39.49 39.49 0 0 1-12.26-6.41 52.88 52.88 0 0 1-9.28-9.74c-5.76-7.63-10.55-16.07-15.23-24.39q-7.33-13-13.66-26.49a397.92 397.92 0 0 1-21.28-56l-2-7a1.47 1.47 0 0 0-2.83.78 404 404 0 0 0 21.08 58q6.33 14 13.71 27.49a289.84 289.84 0 0 0 15.49 25.78c5.26 7.62 11.61 14.6 20.15 18.52 9.24 4.23 19.6 5.39 29.57 6.75a548.47 548.47 0 0 0 66.41 5c11 .15 22.05.14 33-.54 6.53-.41 15-2 18.74-8a10.84 10.84 0 0 0 1.55-4.75l-2.77.37c.77 3.51 4.43 5.14 7.76 4.84 4.23-.4 7-3.45 8.36-7.3a28.85 28.85 0 0 0 1.31-6.78c.24-2.46.45-4.94.48-7.41.06-4.84-.72-9.91-3.93-13.71-3-3.53-8-5.76-12.54-4l1.78 1.35c-.7-7.22-7.58-10.86-13.8-12.87-4.32-1.4-8.81-2.33-13.21-3.44l-15-3.77q-30-7.55-60.07-15l-15-3.74a33.37 33.37 0 0 1-6.52-1.89 6.55 6.55 0 0 1-3.47-4.74c-.81-3.31-1.09-6.8-1.67-10.16s-1.24-6.78-1.95-10.16c-3-14.25-6.91-28.46-12.65-41.87a101.71 101.71 0 0 0-9.12-17.15c-3-4.4-6.51-8.65-11-11.6a25 25 0 0 0-3-1.7c-1-.47-1.89 1-.88 1.51zM327.64 300a9.46 9.46 0 0 1-5.78-6.72 7.43 7.43 0 0 1 3.55-7.85 6.14 6.14 0 0 1 8 2.26c2.23-7.66 10.82-11.1 17.15-16a35.2 35.2 0 0 0 10.71-13.67 4.69 4.69 0 0 1 1.44 4.28c1.9-3.21 3.1-7.38 1.21-10.59-2.05-3.47-6.58-4.24-10.43-5.42-4.66-1.42-8.95-3.9-13.63-5.27-7.59-2.22-15.7-1.37-23.12 1.12a54.85 54.85 0 0 1-8.07 2.48c-16.6 2.81-27.65 12.4-31 29.3-2.18 11 2.5 20.57 7.75 30l7.47 13.38a4.67 4.67 0 0 0 5.47 2.93l9.93-.24a10.55 10.55 0 0 0 9.92-4.83l8-9.15a9.46 9.46 0 0 0 2.17-3.31c.39-1.28.32-2-.78-2.7" fill="#000000" class="fill-000000"></path><path d="M328.07 299.29c-3.76-1.77-6.52-6.15-4.53-10.24a5.24 5.24 0 0 1 4.31-3.08 4.89 4.89 0 0 1 4.56 2.34 1.2 1.2 0 0 0 2.16-.28c1.94-6.31 8.38-9.61 13.51-13a38.66 38.66 0 0 0 14.32-16.29l-2 .26a3.53 3.53 0 0 1 1.09 3c-.21 1.36 1.57 2.36 2.37 1 1.74-3 3.07-6.72 2-10.17-1-3.15-3.63-5-6.58-6.12-3.37-1.29-6.87-2-10.21-3.45-3.77-1.6-7.48-3.34-11.52-4.14-8.34-1.65-16.37.11-24.24 2.86-3.38 1.18-6.9 1.62-10.33 2.59a43 43 0 0 0-8.1 3.18c-10.56 5.49-17.24 16.12-18.81 27.81-1 7.67 1.19 15.09 4.47 22 1.76 3.68 3.79 7.21 5.78 10.77l3.25 5.83a48.2 48.2 0 0 0 3 5.26c2.37 3.2 7 2.2 10.49 2.12 3.8-.09 8.41.47 11.84-1.5a16.34 16.34 0 0 0 4-3.56c1.44-1.62 2.86-3.25 4.28-4.88s2.87-3.23 4.28-4.87a8.74 8.74 0 0 0 2.42-4.44 3.17 3.17 0 0 0-1.68-3.25c-1.11-.71-2.45 1-1.42 1.84.5.43.57.54.39 1.17a6.31 6.31 0 0 1-1.14 2.12c-1.23 1.59-2.66 3.06-4 4.58l-3.53 4a34.21 34.21 0 0 1-3.81 4.08c-2.86 2.37-6.92 1.84-10.39 1.92l-5.47.13c-1.85.05-3.36.12-4.42-1.61-2-3.28-3.78-6.76-5.67-10.12-1.78-3.19-3.6-6.36-5.24-9.63-3-6.09-5.39-12.68-5-19.59.59-10.51 6.33-20.86 15.28-26.45a41.34 41.34 0 0 1 14.53-5.37c3.64-.67 7-2.12 10.53-3.16a41.8 41.8 0 0 1 11-1.79 32.64 32.64 0 0 1 12.26 2.1c3.82 1.43 7.45 3.32 11.37 4.49 2.89.87 6.46 1.42 8.6 3.76 2.66 2.92 1.24 7.2-.48 10.21l2.37 1a6.29 6.29 0 0 0-1.78-5.54 1.29 1.29 0 0 0-2 .26 34.51 34.51 0 0 1-6.54 9.9 45.65 45.65 0 0 1-8.28 6.55c-5.29 3.47-11.13 7.11-13.08 13.52l2.16-.28c-2.83-4.9-9.95-4.35-12.67.31-3.12 5.35.31 11.33 5.63 13.41.89.34 1.52-1.14.66-1.55z" fill="#000000" class="fill-000000"></path><path d="M352.79 245.77c10.46 2.93 25.22 7.16 32.07 14.82 3.89 4.35 6.15 9.92 7.72 15.54 1.16 4.18 2 8.6 4.62 12.09 3.74 5 10.18 7.08 16.11 9.13s12.29 4.85 15 10.52c1.39 2.95 1.59 6.3 2.2 9.51s1.85 6.56 4.58 8.35c1.67 1.1 3.7 1.47 5.58 2.15a17.64 17.64 0 0 1-5.11 34.21c-6 .3-11.91-2.5-17.95-2.22a48.65 48.65 0 0 0-8.17 1.48 61.78 61.78 0 0 1-13 1.36c-3.68 0-7.54-.41-10.57-2.49-2.1-1.44-3.68-3.6-5.94-4.77-3.18-1.65-7-1-10.55-.44-5.84.94-11.92 1.55-17.61-.06s-11-5.85-12.26-11.63c2.23-1.79 5.44-.36 8.25.17a12.32 12.32 0 0 0 10.24-2.75c4.51-3.9 5.53-10.39 6-16.32s.81-12.33 4.53-17c.52-.65 1.14-1.38 1-2.2a2.78 2.78 0 0 0-.6-1.07c-4.79-6.25-5.65-14.64-5.4-22.5s1.44-15.81.06-23.56c-.15-.82-.57-1.83-1.4-1.78" fill="#000000" class="fill-000000"></path><path d="M352.53 246.72c8 2.51 16.05 5.06 23.35 9.22a28.05 28.05 0 0 1 9 7.58 39.57 39.57 0 0 1 5.88 13.11c1.28 4.62 2.29 9.41 5.34 13.24 2.76 3.48 6.76 5.58 10.79 7.23 7 2.88 17.29 4.74 20 13 1.5 4.54 1.16 9.48 3.64 13.72a10.66 10.66 0 0 0 5 4.5c2.07.89 4.33 1.25 6.32 2.32 6.82 3.66 10.42 12.49 7.32 19.73a16.89 16.89 0 0 1-7.92 8.29c-4.09 2.07-8.49 1.71-12.85.8a77.44 77.44 0 0 0-7.66-1.4 25.49 25.49 0 0 0-7.79.5c-2.63.53-5.23 1.19-7.89 1.57a62 62 0 0 1-8.17.57 23.84 23.84 0 0 1-7-.79 14.22 14.22 0 0 1-5.49-3.58 13.38 13.38 0 0 0-6.12-3.56 21.21 21.21 0 0 0-7.7.09c-9.26 1.39-19.65 2.68-26.85-4.68a11 11 0 0 1-2.84-5.22l-.65 1.61c1.43-1.06 3.09-.67 4.71-.28a20.53 20.53 0 0 0 5.16.84 13.84 13.84 0 0 0 9.59-4c5-5 5.38-12.48 5.93-19.08.29-3.55.66-7.26 2.13-10.54.72-1.62 1.94-2.84 2.76-4.37 1-1.86 0-3.13-1.07-4.66-4.23-6.26-4.73-14.19-4.41-21.52.22-4.9.75-9.79.76-14.71a53.32 53.32 0 0 0-.49-7.36c-.29-2-.85-3.93-3.13-4.15-2.06-.21-2.05 3 0 3.22-.51-.05-.28-.25-.22.28s.17.84.23 1.26c.17 1 .27 2.1.35 3.15.15 2.08.16 4.17.11 6.25-.1 4-.45 8-.59 12.06-.24 6.9.24 14.1 3.38 20.37a22.55 22.55 0 0 0 1.19 2.09c.31.48 1.48 1.6 1.49 2.14s-1 1.4-1.27 1.81a15.42 15.42 0 0 0-1.29 2.18 29.26 29.26 0 0 0-2.5 9.68c-.72 6.19-.37 13.21-4.18 18.52a11.07 11.07 0 0 1-9.55 4.55c-3.5-.2-7.27-2.53-10.53-.2a1.49 1.49 0 0 0-.66 1.62 17.31 17.31 0 0 0 7.42 10.4c4.28 2.84 9.43 3.82 14.5 3.78a61.36 61.36 0 0 0 8.23-.72 35.83 35.83 0 0 1 7.79-.73c2.56.19 4.26 1.6 6.06 3.28a17.13 17.13 0 0 0 6.09 3.9c5 1.75 10.83 1.3 16 .64 5.52-.71 11-2.89 16.59-2.35 5.23.51 10.33 2.58 15.66 2a20 20 0 0 0 11.49-5.24 19.25 19.25 0 0 0 3.68-23.68 19.9 19.9 0 0 0-9.17-8.51c-2.16-.94-4.85-1.23-6.7-2.74a9.88 9.88 0 0 1-2.92-5.41c-.64-2.52-.82-5.12-1.41-7.64a16.94 16.94 0 0 0-3.16-6.71c-2.79-3.54-6.89-5.66-11-7.29s-8.44-2.7-12.39-4.7a16.62 16.62 0 0 1-8.64-9.86c-1.66-4.88-2.62-9.89-4.78-14.61a28.72 28.72 0 0 0-8.5-11.09c-6.87-5.26-15.63-7.9-23.88-10.07-2-.53-4-1-6-1.53a1 1 0 0 0-.53 1.89z" fill="#000000" class="fill-000000"></path><g fill="#3239fa" class="fill-18c4ff"><path d="M318.74 450c7.6 14.29 14.78 28.81 21.75 43.42 2 4.13 3.73 8.41 5.9 12.44.65 1.21 2.78.37 2.27-1-1.45-3.77-3.34-7.41-5.07-11.06s-3.46-7.27-5.27-10.87c-3.63-7.27-7.41-14.46-11.27-21.62q-3.32-6.17-6.74-12.27c-.57-1-2.12-.12-1.57.92zM282.08 355.48q10.94.67 21.88 1.24l10.93.57c1.62.09 3.23.15 4.84.33a22.56 22.56 0 0 1 2.59.43c.87.2 1.72.58 2.6.7a1.07 1.07 0 0 0 .82-1.94 11.21 11.21 0 0 0-4.73-1.33c-1.7-.23-3.41-.33-5.12-.41l-11.19-.51q-11.31-.53-22.62-1c-1.21 0-1.19 1.8 0 1.88zM333.31 358.79l.34-.62a.85.85 0 0 0 .12-.38.78.78 0 0 0 0-.4.73.73 0 0 0-.18-.35.8.8 0 0 0-.29-.26l-.24-.1a1 1 0 0 0-.54 0l-.25.1a1 1 0 0 0-.36.36l-.29.65a.68.68 0 0 0-.12.37.74.74 0 0 0 0 .39.84.84 0 0 0 .17.34.75.75 0 0 0 .28.25l.24.1a1 1 0 0 0 .53 0l.23-.1a1 1 0 0 0 .36-.35zM401.15 469.41a54.25 54.25 0 0 0 .86 15.36c.23 1.18 2.05.68 1.81-.5a52.56 52.56 0 0 1-.87-14.86c.1-1.16-1.7-1.15-1.8 0zM410.56 472.24l-.05 11.33a1 1 0 0 0 1.9 0l-.05-11.33a.9.9 0 0 0-1.8 0zM432.55 550.66c12.86.66 25.76.59 38.63.22q9.66-.28 19.3-.84a167.86 167.86 0 0 0 17.07-1.41c5.13-.82 10.73-2.62 14.06-6.86.84-1.08-.56-2.61-1.55-1.55-3.34 3.56-7.67 5.16-12.4 6a152.56 152.56 0 0 1-16.66 1.41c-12.37.74-24.75 1.11-37.13 1.24-7.1.08-14.2 0-21.3 0a.9.9 0 0 0 0 1.79zM482.24 926.19a104.49 104.49 0 0 0-39.07 3.24c0 2.83-.06 5.65-.17 8.44-.18 4.47-.37 9.09 1.18 13.28 3.51 9.48 14.33 13.65 23.95 16.73 12.93 4.13 23.15 6.17 34.44 4.79 8.87-1.09 12.75-11.85 6.78-18.5-2.9-3.23-5.83-6.51-7.34-10.39-1.6-4.11-1.48-8.57-.86-13a74.49 74.49 0 0 0-18.91-4.59z"></path><path d="M482.24 923.65a107.71 107.71 0 0 0-39.75 3.35 2.59 2.59 0 0 0-1.86 2.45c0 2.82-.06 5.63-.17 8.44a59.09 59.09 0 0 0 .07 8.31 21.8 21.8 0 0 0 5.67 12.88c6.08 6.56 15.3 9.45 23.59 12 9.8 3 20 5.22 30.31 4.39 4.22-.33 8.2-1.26 11.11-4.58a14 14 0 0 0 3.48-10.46 13.57 13.57 0 0 0-2.19-6.3c-1.5-2.21-3.53-4-5.15-6.17a19.27 19.27 0 0 1-3.68-7.43 26.31 26.31 0 0 1-.08-9.07 2.64 2.64 0 0 0-1.77-3.12 78.87 78.87 0 0 0-19.58-4.67 2.55 2.55 0 0 0-2.54 2.54 2.59 2.59 0 0 0 2.54 2.53 73.5 73.5 0 0 1 18.23 4.5l-1.77-3.12c-.73 5.35-.83 10.71 1.44 15.73a29.62 29.62 0 0 0 4 6.2c1.32 1.65 3.05 3.2 4.14 4.9a8.65 8.65 0 0 1-5.47 13.14c-4.22.87-8.95.61-13.21.19a83.13 83.13 0 0 1-14-2.78c-4.46-1.23-8.91-2.6-13.23-4.27a39.15 39.15 0 0 1-10-5.34 17 17 0 0 1-6.7-11 44.88 44.88 0 0 1-.18-8.28q.18-4.54.19-9.11l-1.86 2.45a103.64 103.64 0 0 1 38.4-3.16 2.55 2.55 0 0 0 2.54-2.53 2.59 2.59 0 0 0-2.52-2.61z"></path></g><path d="M498 940c1.3-.1 2.61-.15 3.92-.18s2.65.1 3.94 0a1.07 1.07 0 0 0 0-2.14 21.52 21.52 0 0 0-4 .09c-1.37.1-2.74.25-4.1.44a.91.91 0 0 0-.66 1 .92.92 0 0 0 .91.81zM500.31 946.16a18.23 18.23 0 0 0 3.9.31 13.76 13.76 0 0 0 3.89-.56 1 1 0 0 0-.27-2c-1.23.15-2.39.41-3.62.48a27.93 27.93 0 0 1-3.66 0c-1-.09-1.26 1.61-.24 1.79zM309.16 532.66c.85 25.8 4.79 51.52 10.32 76.7 1.55 7.08 3 14.28 5.19 21.2a1.73 1.73 0 0 0 3.34-.92c-1.42-6.31-3.2-12.53-4.65-18.83q-2.13-9.22-3.92-18.5c-2.42-12.57-4.32-25.22-5.95-37.91-.93-7.23-1.73-14.49-2.51-21.74-.12-1.14-1.86-1.19-1.82 0zM762.93 542.19H563l14.6-10.43h193.07v2.69a7.74 7.74 0 0 1-7.74 7.74z" fill="#000000" class="fill-000000"></path><path d="M762.93 540.92H571.11c-2.57 0-5.27-.24-7.83 0H563l.64 2.37 8.91-6.37 4.92-3.51a4.38 4.38 0 0 0 .53-.41c.45-.45-.14.27-.41 0h.12a10.88 10.88 0 0 0 2.42 0h181.22c2.94 0 6 .23 8.94 0h.38l-1.27-1.27a14.17 14.17 0 0 1-.41 5 6.57 6.57 0 0 1-6.06 4.17 1.27 1.27 0 0 0 0 2.54 9.15 9.15 0 0 0 8-4.84c1.12-2.18 1-4.48 1-6.86a1.29 1.29 0 0 0-1.27-1.27h-192.3a3.41 3.41 0 0 0-2.32.8l-11 7.84-2.75 2a1.28 1.28 0 0 0 .64 2.36h191.84c2.61 0 5.22.07 7.83 0h.33a1.27 1.27 0 0 0 0-2.55z" fill="#000000" class="fill-000000"></path><g fill="#3239fa" class="fill-18c4ff"><rect height="3.22" rx=".95" width="12.28" x="629.6" y="535"></rect><rect height="3.22" rx=".95" width="12.28" x="646.83" y="535"></rect><rect height="3.22" rx=".95" width="12.28" x="664.07" y="535"></rect><path d="M821.26 906.33c-7.58-13.67-15.15-27.48-19.94-42.36s-6.69-31.06-2.73-46.18c1.27-4.86 4.86-10.58 9.75-9.42a9.25 9.25 0 0 1 4.43 3.07 33.38 33.38 0 0 1 8 15.9l-3.84-17.14c-.84-3.74-1.6-8 .54-11.15s8.38-3 8.81.78c-7.31-18.79-11-39.18-9.08-59.24.34-3.49 1.06-7.33 3.87-9.43s8.06-.46 7.77 3c.6-7.16-2.68-14.21-2.32-21.53.79-15.78 1.88-32.53 6.93-47.59 4.27-12.75 15.94-29.61 30.92-30 18.65-.44 29.13 25 32.67 39.67 8.5 35.25 3.37 72.49-6.5 107.39 2.26-3.29 3.51-7.22 6.11-10.24s7.4-4.83 10.55-2.39c2.29 1.79 2.74 5 2.78 7.94.23 17.59-8.23 34-16.47 49.54 1.36-3.42 2.83-7 5.68-9.31s7.53-2.83 10-.1c1.69 1.88 1.87 4.66 1.72 7.18a41.3 41.3 0 0 1-4.8 17c1.21-2.93 6.26-1.4 7 1.69s-1.18 6.12-3 8.73A54.5 54.5 0 0 1 922.9 832a6 6 0 0 1 3.22-2c2.9-.4 4.75 3 5.37 5.89 3.93 18.21-5 36.69-15.5 52.07-6.47 9.45-13.64 18.41-20.8 27.35-2.52 3.15-5.62 6.59-9.66 6.57"></path><path d="M822 905.87c-8.46-15.45-16.95-31.13-21.38-48.29a87.24 87.24 0 0 1-2.89-26.32 64.78 64.78 0 0 1 1.9-12.62c.79-3.06 2.21-6.61 5-8.37 4-2.54 7.58 2.23 9.61 5.17a33 33 0 0 1 5.18 12.26l2.59-.71-2.59-11.62c-.77-3.43-1.87-7-2-10.49-.11-2.56.46-5.66 3.23-6.5 1.68-.51 4-.21 4.28 1.81l2.63-.73a142.59 142.59 0 0 1-8.44-32.11 120.66 120.66 0 0 1-1.08-16.45c0-2.73.13-5.47.34-8.2a27.47 27.47 0 0 1 1.16-7c.69-2 2.1-4 4.4-4.08 1.55 0 3.49.75 3.42 2.54s2.74 1.82 2.87 0c.37-5.07-1-10-1.81-14.93-.85-5.12-.3-10.29 0-15.43.69-10.46 1.76-20.94 4.33-31.12a63.09 63.09 0 0 1 10-22.25c4.42-6.05 10.53-11.71 18.06-13.34 14.47-3.13 24.19 11.18 29.3 22.54 7.14 15.88 9.33 34 9.47 51.22.18 21.38-3.36 42.63-8.73 63.26-.66 2.53-1.35 5-2.06 7.55-.56 2 2.13 3 3.21 1.35 2.66-4 4-9.61 8.48-12 1.75-.94 4.09-1.37 5.73 0s1.89 4 2 6c.32 11.08-3.18 22-7.66 32-2.6 5.82-5.56 11.47-8.55 17.1l3.17 1.34c1.24-3.1 2.63-6.76 5.5-8.72 2.18-1.49 5.82-2 7.54.42a8 8 0 0 1 1 4.71 35.45 35.45 0 0 1-.68 6 40.82 40.82 0 0 1-3.91 11l3 1.74c.69-1.45 2.84-.45 3.53.58 1.65 2.45-1.18 6.17-2.51 8.1l3.14 1.32a53.54 53.54 0 0 1 5.64-11.21 50.46 50.46 0 0 1 4-5.23c1.22-1.42 2.61-3.34 4.28-4.24 3.36-1.82 4.44 5.14 4.72 7a44 44 0 0 1-.14 13c-2.8 17.89-13.91 33.4-24.67 47.43-3.23 4.22-6.54 8.36-9.87 12.5-2.52 3.14-5.59 8.05-10.11 8.17-2.29 0-2.3 3.62 0 3.57 4.52-.12 7.82-3.28 10.51-6.59 3.35-4.12 6.63-8.31 9.88-12.51 6.34-8.2 12.6-16.56 17.73-25.58 4.84-8.51 8.74-17.74 10-27.5a47 47 0 0 0-.26-14.59c-.61-3.46-2.27-8.29-6.44-8.62-2.51-.2-4.36 1.52-6 3.2a57.69 57.69 0 0 0-5.09 6.06 56.8 56.8 0 0 0-7.51 14.22c-.7 1.94 2.1 2.83 3.14 1.33 2.4-3.46 5.36-9 1.67-12.63-2.31-2.3-7-3-8.62.47-1 2 1.92 3.72 3 1.74a43.63 43.63 0 0 0 4.68-14.37c.56-4.1 1.08-9.4-2.4-12.42-2.93-2.55-7.43-2.24-10.6-.31-3.94 2.39-5.79 6.91-7.42 11-.73 1.83 2.26 3.06 3.17 1.34 6-11.22 12-22.68 14.92-35.12 1.38-5.81 2.44-12.32 1.57-18.29a9.37 9.37 0 0 0-3.42-6.45 8 8 0 0 0-7.21-.92c-6.63 2.11-8.37 9-11.84 14.17l3.21 1.35c6-21.34 10.24-43.35 10.74-65.57a171.54 171.54 0 0 0-2.29-32.72 109.1 109.1 0 0 0-6.27-23c-5-12.2-13.91-27.18-28.71-27.8-8.06-.34-15.37 4-20.83 9.65a57.07 57.07 0 0 0-12.52 20.35c-3.56 9.87-5.12 20.46-6.1 30.86-.51 5.4-.83 10.81-1.11 16.22a40.63 40.63 0 0 0 .22 7.64c.37 2.75 1 5.46 1.48 8.19a31.63 31.63 0 0 1 .55 7.77h2.87c.16-4.21-4.83-6.24-8.35-5-4.92 1.66-5.81 7.8-6.21 12.23a122.43 122.43 0 0 0 2.84 38 148 148 0 0 0 6.42 20.8 1.37 1.37 0 0 0 2.63-.73c-.43-2.77-3.21-4.16-5.81-4a7.07 7.07 0 0 0-6.52 5c-1.34 4 0 8.36.85 12.27l3.35 14.93c.38 1.69 2.93 1 2.59-.71a34.53 34.53 0 0 0-4.83-11.9c-2-3.1-4.85-7.19-8.71-8-3.41-.72-6.31 1.34-8.22 4-2.33 3.22-3.24 7.16-3.93 11-3.43 19 1.41 38.24 9 55.61 4.4 10 9.73 19.57 15.07 29.1.57 1 2.14.11 1.57-.92z"></path></g><path d="M794.86 891.53h127.48v55.36A28.11 28.11 0 0 1 894.23 975H823a28.11 28.11 0 0 1-28.11-28.11v-55.36h-.03z" fill="#ffffff" class="fill-ffffff"></path><path d="M794.86 891.53h127.48v55.36A28.11 28.11 0 0 1 894.23 975H823a28.11 28.11 0 0 1-28.11-28.11v-55.36h-.03z" fill="none" stroke="#000000" stroke-miterlimit="10" stroke-width="1.69" class="stroke-000000"></path><g fill="#ffffff" class="fill-ffffff"><path d="M865.57 680.69c-6 10.37-6.34 22.79-4.84 34.38 1.73 13.35 5.66 26.39 5.51 39.94s-3.38 27.17-2.69 40.88c.67 13.44 4.27 26.68 3 40.2-1.29 13.71-6.73 28.5-1.1 41.9.6 1.44 3 .87 2.39-.66-4.48-12-.81-24.61.83-36.78a83 83 0 0 0 .27-19.49c-.67-6.66-1.84-13.27-2.53-19.93a106.81 106.81 0 0 1 0-20.15c.58-6.73 1.5-13.44 1.91-20.19a94.85 94.85 0 0 0-.88-19.85c-1-6.6-2.44-13.11-3.61-19.67-2.34-13.12-3.43-27.59 3.42-39.62a1 1 0 0 0-1.64-1z"></path><path d="M831.83 824.8a56.51 56.51 0 0 1 10.9 3.18 30.82 30.82 0 0 1 9.12 6.75 71.48 71.48 0 0 1 7.09 7.77 23.32 23.32 0 0 1 4.18 9.35c.26 1.24 2.35 1 2.23-.3-.67-7.39-6.71-13.39-11.76-18.25a33.26 33.26 0 0 0-9.84-7 57.5 57.5 0 0 0-11.45-3.16c-1.11-.22-1.59 1.46-.47 1.71zM883.5 796.81a38.15 38.15 0 0 0-17.91 15.09c-.75 1.2 1.15 2.31 1.89 1.11a37.74 37.74 0 0 1 16.72-14.55c.92-.41.25-2-.7-1.65zM855.94 750.7a32.34 32.34 0 0 1 6.29 3.72 39 39 0 0 1 5.24 5 1 1 0 0 0 1.39-1.38 28.44 28.44 0 0 0-5.52-5.16 32.6 32.6 0 0 0-6.52-3.72.91.91 0 0 0-1.19.32.87.87 0 0 0 .31 1.19z"></path></g><path d="M471.82 25a46 46 0 0 1-27.17 41.69c-4.74 2.12-9.87 3.27-14.73 5.1a120.37 120.37 0 0 0-14.82 6.72 101.29 101.29 0 0 0-12.85 8.25c-1.63 1.23-3.66 2.43-4.26 4.51a5.16 5.16 0 0 0 1.22 4.86c1.57 1.67 3.61 1.53 5.66 1.53h152.05a5.16 5.16 0 0 0 4.08-1.73 5.09 5.09 0 0 0 1-4.93c-.71-2-2.85-3.27-4.49-4.5a109.84 109.84 0 0 0-28-15c-4.77-1.77-9.8-2.9-14.44-5A46.28 46.28 0 0 1 504 59.46a46 46 0 0 1-14-21.94A45.66 45.66 0 0 1 488.21 25a1.27 1.27 0 0 0-2.54 0A48.55 48.55 0 0 0 511 67.33c4.18 2.26 8.59 3.55 13.08 5a119.43 119.43 0 0 1 15.15 6.08 104.12 104.12 0 0 1 13.47 7.77 61.13 61.13 0 0 1 6 4.48 2.52 2.52 0 0 1 .08 3.92c-1 .8-2.79.54-4 .54H403.3a2.88 2.88 0 0 1-2.3-.79c-1.3-1.43-.47-3 .8-4 2-1.57 4-3 6.07-4.45a112.71 112.71 0 0 1 28.77-13.71 69.29 69.29 0 0 0 12.89-5.06A48.06 48.06 0 0 0 474.36 25a1.27 1.27 0 0 0-2.54 0z" fill="#000000" class="fill-000000"></path><g fill="#3239fa" class="fill-18c4ff"><path d="M399.23 101c-22.27 5.37-44.55 10.75-66.4 17.64-20.74 6.54-41.14 14.4-60.32 24.68a222.82 222.82 0 0 0-47.88 33.94 173.28 173.28 0 0 0-19.52 21.8c-5.59 7.44-12.58 16.75-10.84 26.65 1.46 8.32 9.68 12.86 17.62 12.68 9.14-.21 16.44-6.49 21.54-13.57a67.12 67.12 0 0 0 3.78-5.95 1.41 1.41 0 0 0-.22-1.67c-11.3-9.84-27.59-3.46-39.24 2.27a289.33 289.33 0 0 0-39.12 23.24A298.81 298.81 0 0 0 93.83 305a290.37 290.37 0 0 0-27.48 43.26c-.82 1.6 1.59 3 2.42 1.41a293.74 293.74 0 0 1 122-123.54c7.17-3.83 14.51-7.75 22.39-9.88 7.34-2 15.8-2.42 21.89 2.88l-.21-1.67c-4.28 7.51-10.33 15.59-19.21 17.69-7.41 1.76-16.68-1.31-18.59-9.4-1.15-4.84.68-9.92 2.92-14.16a89.68 89.68 0 0 1 7.92-11.86 169.56 169.56 0 0 1 18.79-20.84 218.6 218.6 0 0 1 45.67-32.68c18.12-9.9 37.36-17.58 57-24 20.59-6.74 41.58-12.13 62.59-17.37l7.87-2a1 1 0 0 0-.52-1.91zM560.7 102.86a286.87 286.87 0 0 1 54.95 22c16.75 8.83 33.11 19.15 47.42 31.61 13.67 11.9 25.45 26.54 30.21 44.32a71.27 71.27 0 0 1 1.46 30.2c-1.36 8-4.81 17.67-13.94 19.29a9.55 9.55 0 0 1-10.27-4.72 21.46 21.46 0 0 1-2.63-11.13c.17-7.42 3.73-14.52 8.9-19.74a29.57 29.57 0 0 1 20.28-8.9 38.24 38.24 0 0 1 22.76 7.28c15.11 10.58 20.62 29.33 19.06 47.06a72.66 72.66 0 0 1-2.54 13.65 17.62 17.62 0 0 1-6.23 9.26 6.37 6.37 0 0 1-4.16 1.46 4.75 4.75 0 0 1-3.63-3.07 19 19 0 0 1-.74-11.26 28.31 28.31 0 0 1 13.51-18c7.36-4.3 16.24-4.69 24.34-2.47 18.34 5 29.93 21 37.38 37.55 1.91 4.23 3.61 8.56 5.21 12.92.62 1.69 3.36 1 2.73-.75-6.78-18.42-15.8-37.73-33.58-47.85-8.19-4.66-17.72-7.06-27.11-5.57a31.7 31.7 0 0 0-20.76 13.38c-4.56 6.62-6.91 16.11-3.32 23.62a7.1 7.1 0 0 0 9.11 3.75c3.69-1.46 6.53-4.85 8.33-8.29 2.13-4.05 2.95-8.89 3.63-13.37a71.91 71.91 0 0 0 .75-15c-.59-9.68-3.32-19.43-8.82-27.49-9.58-14.07-28.43-23.66-45.34-17.89-14.86 5.07-26.23 22.23-21.27 37.91 1.35 4.27 3.9 8.26 8.29 9.81 3.95 1.39 8.54.49 12.07-1.62 8.39-5 10.46-16.17 11.25-25.1a73.37 73.37 0 0 0-4.3-31.86 84.92 84.92 0 0 0-14.5-24.48c-12.57-15.13-29.12-26.84-45.8-37a286.31 286.31 0 0 0-57.34-26.75q-7.38-2.49-14.87-4.58a.94.94 0 0 0-.5 1.81z"></path></g></svg>