<svg viewBox="0 0 1000 1000" xmlns="http://www.w3.org/2000/svg"><path d="M750.38 441.28a206.54 206.54 0 0 0 58.42-8 214.17 214.17 0 0 0 54-23.89 209.22 209.22 0 0 0 26.68-19.65.91.91 0 0 0 .14-1.11c-9-14.48-21.28-26.49-34.5-37.11-6.66-5.35-13.57-10.38-20.53-15.32s-14.65-9.62-20.69-15.85c-6.52-6.71-11.22-17.17-6.46-26.19a1 1 0 0 0-.35-1.31c-6.71-3.21-10.1-10.6-10-17.82.11-8 4.93-15 11.36-19.56a39 39 0 0 1 11.22-5.4 24.85 24.85 0 0 1 6.6-1.25c2.62 0 4.46 1 6.57 2.36a7.88 7.88 0 0 0 5.48 1.52c2.22-.28 4.21-1.35 6.36-1.89a18.32 18.32 0 0 1 8.89.19c6.77 1.71 12.78 5.92 18.13 10.25 5.53 4.47 10.6 9.47 15.71 14.42 5.58 5.42 11.52 10.44 17.35 15.58 7.29 6.44 14.53 12.94 21.55 19.67s13.81 13.68 20.19 21 12.6 15 17.46 23.34a74.4 74.4 0 0 1 8.57 52.1c-3.56 17.95-12.73 34.32-24 48.57a177.92 177.92 0 0 1-36.63 34.47 235.36 235.36 0 0 1-43.9 24.34 311 311 0 0 1-48 15.87c-3.93 1-7.88 1.93-11.84 2.78-1.25.27-.72 2.19.53 1.92a336.2 336.2 0 0 0 50-14.64 251.09 251.09 0 0 0 46.41-23.25 187.63 187.63 0 0 0 39.16-33.36c12.14-13.8 22.49-29.74 27.89-47.42 5.32-17.45 5.13-36.21-2-53.13-3.83-9.12-9.49-17.14-15.61-24.85a265.32 265.32 0 0 0-19.91-22.21c-7.1-7.15-14.5-14-22-20.71-6.83-6.11-13.91-12-20.6-18.22-5.07-4.74-9.9-9.71-15.11-14.29-5.49-4.82-11.41-9.52-18.16-12.43a27 27 0 0 0-9.26-2.36 18.94 18.94 0 0 0-4.38.27c-2 .37-3.9 1.3-5.89 1.82a5.85 5.85 0 0 1-4-.16 27.81 27.81 0 0 1-3-1.86 10.87 10.87 0 0 0-6.06-1.64c-4.27.08-8.65 1.61-12.51 3.35-7.32 3.3-13.89 8.93-17 16.5a23.61 23.61 0 0 0 1.78 20.93 18.24 18.24 0 0 0 7.52 6.81l-.34-1.32c-3.87 7.33-2.13 16.28 2.28 23 4.83 7.32 12.28 12.31 19.34 17.26 14.57 10.23 29.2 20.56 41.92 33.09a125.64 125.64 0 0 1 18.73 23l.15-1.1a210 210 0 0 1-49 31.65 215.4 215.4 0 0 1-55.73 17.2 213 213 0 0 1-33.07 2.81.61.61 0 0 0 0 1.22zM670.18 312.7c-4.51 8.37-3.63 18.69-4.19 27.88a75.6 75.6 0 0 1-2.3 16 37.57 37.57 0 0 1-2.43 6.41c-1.15 2.37-2.67 4.46-4 6.72a4.8 4.8 0 0 0 .65 5.4c1.35 1.59 3.49 2.3 4.15 4.46.54 1.74.2 3.8.11 5.59-.1 2-.21 3.93-.29 5.9-.29 7.77-.29 16.45 3.76 23.36a16.34 16.34 0 0 0 9.49 7.59c4.67 1.38 9.73.94 14.5.31 1.28-.17 1.3-2.22 0-2.05-7.69 1-16.61 1.37-21.51-5.8-4.37-6.39-4.42-14.91-4.2-22.35.11-3.69.64-7.48.43-11.17a7.06 7.06 0 0 0-2.07-4.81c-1.33-1.3-3.74-2.24-3.55-4.47.1-1.15 1.21-2.27 1.82-3.22s1.32-2.2 1.92-3.34a42.49 42.49 0 0 0 2.54-5.93 57.09 57.09 0 0 0 2.55-14.18c.41-5.41.46-10.84.62-16.26.17-5.25.63-10.68 3-15.44.34-.68-.66-1.27-1-.6zM57.94 177.5h20.68a32.94 32.94 0 0 0-32.94 32.94v477.47a32.94 32.94 0 0 0 32.94 32.94H57.94A32.94 32.94 0 0 1 25 687.91V210.44a32.94 32.94 0 0 1 32.94-32.94z" fill="#000000" class="fill-000000"></path><path d="M57.94 179.22h20.68v-3.45c-17.21.2-32.14 13-34.36 30.2a60 60 0 0 0-.3 7.93v473.29a34.68 34.68 0 0 0 34.66 35.34v-3.45H64.11c-6.12 0-12.06.09-17.87-2.25a31.65 31.65 0 0 1-19.52-29.41V212c0-8.1 2.25-15.87 7.7-22.06a31.65 31.65 0 0 1 23.52-10.68c2.22 0 2.22-3.47 0-3.45a35.06 35.06 0 0 0-34.59 32.41c-.14 2.11-.07 4.25-.07 6.37V685.9c0 6.61 1.11 13 4.38 18.89a35 35 0 0 0 19 15.9c5.78 2 11.69 1.88 17.7 1.88h14.26a1.73 1.73 0 0 0 0-3.45 31.56 31.56 0 0 1-31.22-31.23V211.67c0-8.38 2.6-16.35 8.41-22.55a31.61 31.61 0 0 1 22.81-9.9 1.73 1.73 0 0 0 0-3.45H57.94a1.73 1.73 0 0 0 0 3.45z" fill="#000000" class="fill-000000"></path><rect fill="#d6275e" height="543.35" rx="32.94" width="284.39" x="45.68" y="177.5" class="fill-18c4ff"></rect><path d="M297.13 175.77H93.57c-6.15 0-12.55-.46-18.69.21C57 178 44 193.33 44 211.1v472.64c0 8.3 1 16.31 5.87 23.45a35.09 35.09 0 0 0 28.81 15.38H293.82a58.21 58.21 0 0 0 8.24-.36 34.87 34.87 0 0 0 26.77-20.28c2.76-6.27 3-12.59 3-19.2V210.76a35.1 35.1 0 0 0-34.67-35c-2.22 0-2.22 3.43 0 3.45 17.79.2 31.2 14.67 31.22 32.18v471.4c0 6.7-.21 13.11-3.41 19.32a31.58 31.58 0 0 1-27.84 17H77.11a31.45 31.45 0 0 1-27.95-20.82c-1.87-5.39-1.76-10.71-1.76-16.25V211.12a31.62 31.62 0 0 1 31.27-31.9c5.93-.05 11.85 0 17.78 0h200.68a1.73 1.73 0 0 0 0-3.45z" fill="#d6275e" class="fill-18c4ff"></path><path d="M67.6 500.07h321.82v13.47H67.6z" fill="#000000" class="fill-000000"></path><path d="M67.6 514.4h308.75c4.17 0 8.34.07 12.51 0h.55a.88.88 0 0 0 .86-.87v-13.46a.88.88 0 0 0-.86-.87H80.66c-4.17 0-8.35-.07-12.52 0h-.54a.88.88 0 0 0-.87.87v13.46a.87.87 0 0 0 1.73 0v-13.46l-.86.86h317c1.41 0 2.9.14 4.3 0a5 5 0 0 1 .55 0l-.86-.86v13.46l.86-.86H80.66c-4.17 0-8.35-.07-12.52 0h-.54a.87.87 0 0 0 0 1.73z" fill="#000000" class="fill-000000"></path><path d="M166.71 352.92h222.7v148.85h-222.7z" fill="#ffffff" class="fill-ffffff"></path><path d="M256.81 401.34h132.6v61.24h-132.6z" fill="#d6275e" class="fill-18c4ff"></path><path d="M256.81 463.45H384c1.73 0 3.49.1 5.21 0h.22a.87.87 0 0 0 0-1.73H262.24c-1.72 0-3.49-.1-5.21 0h-.22a.87.87 0 0 0 0 1.73z" fill="#000000" class="fill-000000"></path><path d="M166.71 502.63h213.68c2.88 0 5.77.06 8.64 0h.38a.87.87 0 0 0 .86-.86V359c0-1.94.11-3.92 0-5.85v-.25a.87.87 0 0 0-.86-.86H175.73c-2.88 0-5.77-.06-8.64 0h-.38a.87.87 0 0 0-.86.86v142.77c0 1.94-.11 3.92 0 5.86v.24a.86.86 0 0 0 1.72 0v-146.6a12.14 12.14 0 0 0 0-2 2.09 2.09 0 0 1 0-.25l-.86.86h219.35a26.75 26.75 0 0 0 3 0h.38l-.86-.86v146.6a12.26 12.26 0 0 0 0 2 1.92 1.92 0 0 1 0 .24l.86-.86H175.73c-2.88 0-5.77-.06-8.64 0h-.38a.86.86 0 0 0 0 1.73z" fill="#000000" class="fill-000000"></path><path d="M67.6 352.92h99.11v148.85H67.6z" fill="#000000" class="fill-000000"></path><path d="M67.6 502.63h95.05c1.29 0 2.61.09 3.89 0h.17a.87.87 0 0 0 .86-.86V359c0-1.94.11-3.92 0-5.85v-.25a.87.87 0 0 0-.86-.86H71.65c-1.28 0-2.6-.09-3.88 0h-.17a.88.88 0 0 0-.87.86v142.77c0 1.94-.11 3.92 0 5.86a1.92 1.92 0 0 1 0 .24.87.87 0 0 0 1.73 0v-146.6a12.14 12.14 0 0 0 0-2 1 1 0 0 1 0-.25l-.86.86h97.6a6 6 0 0 0 1.34 0h.17l-.86-.86v146.6a12.26 12.26 0 0 0 0 2 1.92 1.92 0 0 1 0 .24l.86-.86H71.65c-1.28 0-2.6-.09-3.88 0h-.17a.86.86 0 0 0 0 1.73z" fill="#000000" class="fill-000000"></path><path d="M67.6 401.34h75.85v61.24H67.6z" fill="#d6275e" class="fill-18c4ff"></path><path d="M67.6 502.63h95.05c1.29 0 2.61.09 3.89 0h.17a.87.87 0 0 0 .86-.86V359c0-1.94.11-3.92 0-5.85v-.25a.87.87 0 0 0-.86-.86H71.65c-1.28 0-2.6-.09-3.88 0h-.17a.88.88 0 0 0-.87.86v142.77c0 1.94-.11 3.92 0 5.86a1.92 1.92 0 0 1 0 .24.87.87 0 0 0 1.73 0v-146.6a12.14 12.14 0 0 0 0-2 1 1 0 0 1 0-.25l-.86.86h97.6a6 6 0 0 0 1.34 0h.17l-.86-.86v146.6a12.26 12.26 0 0 0 0 2 1.92 1.92 0 0 1 0 .24l.86-.86H71.65c-1.28 0-2.6-.09-3.88 0h-.17a.86.86 0 0 0 0 1.73z" fill="#000000" class="fill-000000"></path><path d="M166.71 332.6h222.7v20.32h-222.7z" fill="#d6275e" class="fill-18c4ff"></path><path d="M390.27 352.92V332.6a.86.86 0 0 0-1.72 0v20.32a.86.86 0 0 0 1.72 0z" fill="#000000" class="fill-000000"></path><path d="M389.41 331.74H175.73c-2.88 0-5.77-.06-8.64 0h-.38a.87.87 0 0 0-.86.86v20.32a.87.87 0 0 0 .86.86h213.68c2.88 0 5.77.07 8.64 0h.38a.86.86 0 0 0 0-1.72H170.06a29.42 29.42 0 0 0-3 0h-.38l.86.86V332.6l-.86.86h213.71c2.88 0 5.77.07 8.64 0h.38a.86.86 0 0 0 0-1.72z" fill="#000000" class="fill-000000"></path><path d="M67.6 332.6h99.11v20.32H67.6z" fill="#ffffff" class="fill-ffffff"></path><path d="M67.6 353.78h95.05c1.29 0 2.61.1 3.89 0h.17a.87.87 0 0 0 .86-.86V332.6a.87.87 0 0 0-.86-.86H71.65c-1.28 0-2.6-.09-3.88 0h-.17a.88.88 0 0 0-.87.86v20.32a.87.87 0 0 0 1.73 0V332.6l-.86.86h97.6a6 6 0 0 0 1.34 0h.17l-.86-.86v20.32l.86-.86H71.65c-1.28 0-2.6-.09-3.88 0h-.17a.86.86 0 0 0 0 1.72z" fill="#000000" class="fill-000000"></path><path d="M394.86 393a7 7 0 0 0 6.69-9.59l-12.14-30.48h-20.28l12.4 31.15a14.32 14.32 0 0 0 13.33 8.92z" fill="#d6275e" class="fill-18c4ff"></path><path d="M389.41 352.06h-20.28a.86.86 0 0 0-.83 1.09l7.89 19.85 4.07 10.22c1.72 4.33 4.49 7.81 8.94 9.59 3.27 1.31 7.4 1.74 10.4-.44a7.89 7.89 0 0 0 2.78-9.16c-.38-1-2.05-.58-1.66.46a6.22 6.22 0 0 1-2.93 7.8c-2.84 1.47-6.7.52-9.36-.91-3.53-1.89-5.39-5-6.8-8.54l-8.88-22.28-2.79-7-.83 1.09h20.28a.86.86 0 0 0 0-1.72z" fill="#000000" class="fill-000000"></path><path d="M374.57 393a7.06 7.06 0 0 0 6.69-9.59l-12.14-30.48h-20.29l12.41 31.15a14.3 14.3 0 0 0 13.33 8.92z" fill="#ffffff" class="fill-ffffff"></path><path d="M369.12 352.06h-20.29a.87.87 0 0 0-.83 1.09l7.89 19.85 4.11 10.18c1.73 4.33 4.5 7.81 8.94 9.59 3.27 1.31 7.41 1.74 10.41-.44a7.92 7.92 0 0 0 2.78-9.16c-.39-1-2-.58-1.67.46a6.21 6.21 0 0 1-2.92 7.8c-2.84 1.47-6.7.52-9.37-.91-3.52-1.89-5.38-5-6.8-8.54l-8.88-22.28-2.79-7-.83 1.09h20.29a.86.86 0 0 0 0-1.72z" fill="#000000" class="fill-000000"></path><path d="M354.38 393a7.06 7.06 0 0 0 6.69-9.59l-12.14-30.48h-20.29l12.41 31.15a14.3 14.3 0 0 0 13.33 8.92z" fill="#d6275e" class="fill-18c4ff"></path><path d="M348.93 352.06h-20.29a.87.87 0 0 0-.83 1.09L335.7 373l4.07 10.22c1.73 4.33 4.5 7.81 8.94 9.59 3.27 1.31 7.41 1.74 10.41-.44a7.89 7.89 0 0 0 2.78-9.16c-.38-1-2-.58-1.66.46a6.22 6.22 0 0 1-2.93 7.8c-2.84 1.47-6.7.52-9.37-.91-3.52-1.89-5.38-5-6.8-8.54l-8.88-22.28-2.79-7-.83 1.09h20.29a.86.86 0 0 0 0-1.72z" fill="#000000" class="fill-000000"></path><path d="M334.08 393a7 7 0 0 0 6.69-9.59l-12.14-30.48h-20.28l12.41 31.15a14.29 14.29 0 0 0 13.32 8.92z" fill="#ffffff" class="fill-ffffff"></path><path d="M328.63 352.06h-20.28a.87.87 0 0 0-.83 1.09l7.89 19.85 4.07 10.22c1.72 4.33 4.49 7.81 8.94 9.59 3.27 1.31 7.4 1.74 10.4-.44a7.89 7.89 0 0 0 2.78-9.16c-.38-1-2.05-.58-1.66.46a6.22 6.22 0 0 1-2.93 7.8c-2.84 1.47-6.69.52-9.36-.91-3.53-1.89-5.39-5-6.8-8.54L312 359.7l-2.79-7-.83 1.09h20.28a.86.86 0 0 0 0-1.72z" fill="#000000" class="fill-000000"></path><path d="M313.9 393a7 7 0 0 0 6.68-9.59l-12.14-30.48h-20.28l12.41 31.15A14.3 14.3 0 0 0 313.9 393z" fill="#d6275e" class="fill-18c4ff"></path><path d="M308.44 352.06h-20.28a.87.87 0 0 0-.83 1.09l7.89 19.85 4.07 10.22c1.73 4.33 4.49 7.81 8.94 9.59 3.27 1.31 7.4 1.74 10.4-.44a7.89 7.89 0 0 0 2.78-9.16c-.38-1-2-.58-1.66.46a6.21 6.21 0 0 1-2.93 7.8c-2.83 1.47-6.69.52-9.36-.91-3.52-1.89-5.38-5-6.8-8.54l-8.88-22.28-2.79-7-.83 1.09h20.28a.86.86 0 0 0 0-1.72z" fill="#000000" class="fill-000000"></path><path d="M293.6 393a7.05 7.05 0 0 0 6.69-9.59l-12.14-30.48h-20.29l12.41 31.15A14.31 14.31 0 0 0 293.6 393z" fill="#ffffff" class="fill-ffffff"></path><path d="M288.15 352.06h-20.29a.87.87 0 0 0-.83 1.09l7.89 19.85 4.08 10.18c1.72 4.33 4.49 7.81 8.94 9.59 3.27 1.31 7.4 1.74 10.4-.44a7.89 7.89 0 0 0 2.78-9.16c-.38-1-2.05-.58-1.66.46a6.22 6.22 0 0 1-2.93 7.8c-2.84 1.47-6.7.52-9.36-.91-3.53-1.89-5.39-5-6.81-8.54l-8.88-22.28-2.78-7-.84 1.09h20.29a.86.86 0 0 0 0-1.72z" fill="#000000" class="fill-000000"></path><path d="M273.41 393a7 7 0 0 0 6.69-9.59L268 352.92h-20.32l12.4 31.15a14.32 14.32 0 0 0 13.33 8.93z" fill="#d6275e" class="fill-18c4ff"></path><path d="M268 352.06h-20.32a.86.86 0 0 0-.83 1.09l7.88 19.85 4.08 10.22c1.72 4.33 4.49 7.81 8.94 9.59 3.27 1.31 7.4 1.74 10.4-.44a7.89 7.89 0 0 0 2.78-9.16c-.38-1-2.05-.58-1.66.46a6.22 6.22 0 0 1-2.93 7.8c-2.84 1.47-6.7.52-9.36-.91-3.53-1.89-5.39-5-6.8-8.54l-8.88-22.32-2.79-7-.83 1.09H268a.86.86 0 0 0 0-1.72z" fill="#000000" class="fill-000000"></path><path d="M253.12 393a7 7 0 0 0 6.68-9.59l-12.14-30.48h-20.28l12.41 31.15a14.3 14.3 0 0 0 13.33 8.92z" fill="#ffffff" class="fill-ffffff"></path><path d="M247.66 352.06h-20.28a.87.87 0 0 0-.83 1.09l7.89 19.85 4.07 10.22c1.73 4.33 4.5 7.81 8.94 9.59 3.27 1.31 7.41 1.74 10.41-.44a7.92 7.92 0 0 0 2.78-9.16c-.39-1-2.05-.58-1.67.46a6.21 6.21 0 0 1-2.92 7.8c-2.84 1.47-6.7.52-9.37-.91-3.52-1.89-5.38-5-6.8-8.54L231 359.7l-2.79-7-.83 1.09h20.28a.86.86 0 0 0 0-1.72z" fill="#000000" class="fill-000000"></path><path d="M232.93 393a7.06 7.06 0 0 0 6.69-9.59l-12.14-30.48h-20.29l12.41 31.15a14.3 14.3 0 0 0 13.33 8.92z" fill="#d6275e" class="fill-18c4ff"></path><path d="M227.48 352.06h-20.29a.87.87 0 0 0-.83 1.09l7.89 19.85 4.07 10.22c1.73 4.33 4.5 7.81 8.94 9.59 3.27 1.31 7.41 1.74 10.41-.44a7.9 7.9 0 0 0 2.78-9.16c-.38-1-2-.58-1.66.46a6.22 6.22 0 0 1-2.93 7.8c-2.84 1.47-6.7.52-9.37-.91-3.52-1.89-5.38-5-6.8-8.54l-8.88-22.28-2.79-7-.83 1.09h20.29a.86.86 0 0 0 0-1.72z" fill="#000000" class="fill-000000"></path><path d="M212.63 393a7 7 0 0 0 6.69-9.59l-12.14-30.48H186.9l12.4 31.15a14.32 14.32 0 0 0 13.33 8.92z" fill="#ffffff" class="fill-ffffff"></path><path d="M207.18 352.06H186.9a.86.86 0 0 0-.83 1.09L194 373l4 10.18c1.72 4.33 4.49 7.81 8.94 9.59 3.27 1.31 7.4 1.74 10.4-.44a7.89 7.89 0 0 0 2.78-9.16c-.38-1-2.05-.58-1.66.46a6.22 6.22 0 0 1-2.93 7.8c-2.84 1.47-6.7.52-9.36-.91-3.53-1.89-5.39-5-6.8-8.54l-8.88-22.28-2.79-7-.83 1.09h20.28a.86.86 0 0 0 0-1.72z" fill="#000000" class="fill-000000"></path><path d="M192.44 393a7 7 0 0 0 6.69-9.59L187 352.92h-20.29l12.41 31.15a14.29 14.29 0 0 0 13.32 8.93z" fill="#d6275e" class="fill-18c4ff"></path><path d="M187 352.06h-20.29a.87.87 0 0 0-.83 1.09l7.89 19.85 4.07 10.22c1.72 4.33 4.49 7.81 8.94 9.59 3.27 1.31 7.4 1.74 10.4-.44a7.89 7.89 0 0 0 2.78-9.16c-.38-1-2.05-.58-1.66.46a6.21 6.21 0 0 1-2.93 7.8c-2.83 1.47-6.69.52-9.36-.91-3.52-1.89-5.39-5-6.8-8.54l-8.88-22.28-2.79-7-.83 1.09H187a.86.86 0 0 0 0-1.72zM183 501.77h59v-85.31a15.12 15.12 0 0 0-15.11-15.12h-28.8A15.12 15.12 0 0 0 183 416.46z" fill="#000000" class="fill-000000"></path><path d="M183 502.63h59a.87.87 0 0 0 .86-.86v-83a22.44 22.44 0 0 0-.83-7.38 16.18 16.18 0 0 0-15.2-10.88H198.13a16 16 0 0 0-16 16.29v85a.86.86 0 0 0 1.72 0v-82.26a34.35 34.35 0 0 1 .16-5.27 14.42 14.42 0 0 1 14.19-12.06h28.57a14.42 14.42 0 0 1 8.71 2.91 14.71 14.71 0 0 1 5.61 12v84.63l.86-.86H183a.86.86 0 0 0 0 1.74z" fill="#000000" class="fill-000000"></path><g fill="#ffffff" class="fill-ffffff"><path d="m383.41 459.37-11.34-14.59c-3.63-4.67-7.1-9.57-11-14a16.73 16.73 0 0 0-5.55-4.45 8.57 8.57 0 0 0-2.62-.71 12.88 12.88 0 0 0-3.49.47c-1.64.27-2.58-1.27-3.54-2.35l-3.13-3.5-6.1-6.83q-6.92-7.75-13.85-15.49c-.64-.71-1.69.34-1 1.06q6.07 6.84 12.18 13.66c4 4.5 7.94 9.17 12.11 13.54a4.15 4.15 0 0 0 2.29 1.42c1.37.23 2.67-.53 4-.51 2.46.05 4.6 1.65 6.28 3.3a59 59 0 0 1 5.17 6.2q2.85 3.63 5.72 7.24l13 16.44c.5.63 1.37-.26.88-.89zM345 441.15l-36-43.55c-.55-.67-1.5.29-.95.95l36 43.45c.49.6 1.34-.26.85-.85zM355.93 451.3l-1.39-1.77a.69.69 0 0 0-.45-.18.65.65 0 0 0-.44.18.64.64 0 0 0-.19.45.73.73 0 0 0 .19.44l1.42 1.75a.6.6 0 0 0 .86 0 .6.6 0 0 0 .18-.43v-.17a.63.63 0 0 0-.16-.27zM310.37 452.91q-18-21.18-36.75-41.63c-3.56-3.86-7.08-7.78-10.77-11.51-.61-.61-1.51.31-.94.94 6.15 6.86 12.56 13.49 18.76 20.31s12.43 13.82 18.54 20.83q5.18 5.92 10.29 11.93c.51.61 1.38-.27.87-.87zM287 445.69l-10.86-12.36c-.57-.64-1.51.3-.94.94l11 12.26c.51.57 1.34-.27.84-.84zM133.36 452.87q-17.36-20-34.87-39.77c-3.33-3.79-6.65-7.6-10-11.34-.64-.7-1.65.33-1 1 11.48 13.37 23.33 26.44 35 39.64 3.34 3.78 6.71 7.53 10.08 11.3.52.58 1.37-.28.86-.87zM116 456.52q-17.47-21-34.33-42.58c-3.19-4.08-6.18-8.42-9.6-12.32-.49-.56-1.46.18-1 .81 2.47 3.67 5.43 7.09 8.15 10.57q4.29 5.49 8.62 10.93 8.59 10.79 17.36 21.43l10 12c.49.59 1.34-.26.85-.85zM95.54 453.74 94 451a.77.77 0 0 0-1-.27.76.76 0 0 0-.27 1l1.48 2.78a.76.76 0 0 0 1.32-.77zM191 454.35c.29-1.37-.66-2.93.09-4.11.59-.94 1.89-1 3-1a45.07 45.07 0 0 1 7.35.44c.42.08.93.26 1 .69a.86.86 0 0 1-.24.55 5.19 5.19 0 0 1-3.4 1.74 36.22 36.22 0 0 1-3.9.15c-.3 0-.65.07-.75.34a1.07 1.07 0 0 0 0 .47 1.72 1.72 0 0 1-1.09 1.79 1.7 1.7 0 0 1-2-.68"></path><path d="M191.61 454.51a8.65 8.65 0 0 0-.05-2.54c-.06-.7 0-1.37.71-1.63a6.57 6.57 0 0 1 2.25-.2c1.09 0 2.17 0 3.26.1s2.07.14 3.09.3c.09 0 .5.16.6.12s.06 0 .08 0l-.06-.2q0-.28-.09-.15c-.05 0-.34.35-.4.4a2.75 2.75 0 0 1-.53.36c-1.74 1-3.79.6-5.69.74a1.78 1.78 0 0 0-1.43.7 1.54 1.54 0 0 0-.23.76 3.35 3.35 0 0 1 0 .63.72.72 0 0 1-1.28.31c-.71-1-2.38-.05-1.66 1a2.73 2.73 0 0 0 2.92 1.16 2.7 2.7 0 0 0 1.94-2.6 1.67 1.67 0 0 0-.05-.42l-.23.41h.05a4.38 4.38 0 0 0 1.08 0c.69 0 1.38 0 2.07-.05a8.06 8.06 0 0 0 3.43-.93c.92-.52 2.21-1.59 1.86-2.79s-2.08-1.32-3.14-1.44a37.78 37.78 0 0 0-4.12-.22 19.6 19.6 0 0 0-3.51.12 2.91 2.91 0 0 0-2.4 2.13c-.28 1.24.43 2.41.27 3.63-.11.78 1 1.14 1.21.33zM400.8 473.16a61 61 0 0 0-14.11-25.5 10.09 10.09 0 0 0-2.44-2.08c-1.71-.95-3.77-.93-5.73-.89a3.7 3.7 0 0 0-2.91.94c-.65.83.09 2.46 1.07 2.07-1.63-4.34-5.52-7.57-9.84-9.25s-9-2-13.68-1.84a8.07 8.07 0 0 0-4.27 1c-1.24.81-2 2.55-1.22 3.82a3.71 3.71 0 0 0 1.83 1.34 50.73 50.73 0 0 0 5.06 1.31 16.14 16.14 0 0 1 9.06 6.66 15.59 15.59 0 0 0-8.67-.06c-1.95.55-4 1.84-4.18 3.85s1.45 3.38 2.91 4.57a5.52 5.52 0 0 0-3.27 10.34c-2.94 1.76-6.24 4.14-6.22 7.57a9.48 9.48 0 0 0 1.47 4.38c1.64 3 3.67 6.16 6.9 7.3a2 2 0 0 0 1 .14c1.26-.22 1.22-2 .86-3.25a23.49 23.49 0 0 0 24.92 14.07"></path></g><path d="M343.5 477a11.15 11.15 0 0 0 2 6.17 17.1 17.1 0 0 0 4 4.88c1.21 1 3.3 2.35 4.87 1.47s1.31-2.83.94-4.2l-1.84.5a24.75 24.75 0 0 0 25.84 14.91 1.09 1.09 0 1 0-.29-2.15 22.24 22.24 0 0 1-23.71-13.26c-.45-1.11-2.16-.71-1.84.5a2.9 2.9 0 0 1 .14 1.62c-.26.74-1 .26-1.58 0a9.81 9.81 0 0 1-3.08-2.65 25.53 25.53 0 0 1-2.27-3.56 12.94 12.94 0 0 1-1.86-4.38c-.11-.8-1.3-.55-1.34.18zM347.4 462.28a1.73 1.73 0 0 0-.74.94 3.38 3.38 0 0 0-.12 1.1 6.7 6.7 0 0 0 .3 2 8.25 8.25 0 0 0 .81 1.76c.16.27.33.53.5.79a1.66 1.66 0 0 0 1.3.9l-.51-.14c-.17-.11.06.05.08.07l.34.26s.23.2.08.06l.19.17a1.1 1.1 0 1 0 1.07-1.83 1 1 0 0 1-.25-.08c.13.06 0 0 0 0l-.18-.13c.14.1 0 0-.07-.08l.27.45a1.28 1.28 0 0 0-.46-.7l-.25-.19a3.73 3.73 0 0 1-.3-.26c0-.05-.12-.16 0-.05l-.11-.15a3.5 3.5 0 0 1-.62-1.36c0-.13-.07-.26-.1-.39v-.24a5.3 5.3 0 0 1 0-.8v-.4c0 .1 0 .09 0 0a2.71 2.71 0 0 0 0-.4 2.25 2.25 0 0 0-.23-1 .7.7 0 0 0-.94-.25zM355.13 450a3.12 3.12 0 0 0-1.86.22 7.56 7.56 0 0 0-1.39.84 4.88 4.88 0 0 0-1.93 2.64 4.77 4.77 0 0 0 .56 3.42 4.62 4.62 0 0 0 1.16 1.57 9.06 9.06 0 0 1 1.23 1.17 1.1 1.1 0 1 0 1.33-1.72 6.66 6.66 0 0 1-1-.82c.08.18.08.19 0 0a.89.89 0 0 0-.23-.32c-.09-.1-.2-.18-.29-.27a4.89 4.89 0 0 1-.44-.47 2.22 2.22 0 0 1-.47-2.09 3.11 3.11 0 0 1 1.31-1.59 8 8 0 0 1 1.11-.59 5.06 5.06 0 0 0 1.22-.83.69.69 0 0 0-.3-1.14zM353.34 436c-2.4-.35-5.17 0-6.44 2.38a3.65 3.65 0 0 0-.24 3.17 4.47 4.47 0 0 0 2.72 2.2 40.82 40.82 0 0 0 4.23 1.05 14.49 14.49 0 0 1 3.59 1.38 32.25 32.25 0 0 1 3 2.18 9.54 9.54 0 0 1 2.44 2.95c.73 1.24 2.72 0 1.89-1.11a16.79 16.79 0 0 0-10.74-7.25 30.21 30.21 0 0 1-3.66-.94c-.85-.3-1.91-.78-1.83-1.84.16-2.28 3.33-2.5 5-2.86.63-.13.67-1.21 0-1.31zM401.46 473c-1.09-6.87-4.73-13.6-8.69-19.25a43.63 43.63 0 0 0-6.7-8c-2.46-2.14-6.12-2.56-9.25-1.86a2.8 2.8 0 0 0-2.47 2.77 2.17 2.17 0 0 0 2.62 2.13c1.37-.28.78-2.49-.59-2.11-.07 0 .17-.5.25-.58a2.15 2.15 0 0 1 1.17-.33 17.6 17.6 0 0 1 2.41 0 7 7 0 0 1 5 1.7 45.18 45.18 0 0 1 6.33 7.73 60 60 0 0 1 4.86 8.59c1.44 3.1 2.52 6.37 3.78 9.55a.69.69 0 0 0 1.32-.37zM297.13 175.77H87.47c-2.83 0-5.66-.06-8.49 0h-.36a1.73 1.73 0 0 0 0 3.45h209.66c2.83 0 5.66.07 8.49 0h.36a1.73 1.73 0 0 0 0-3.45z" fill="#000000" class="fill-000000"></path><path d="M212.48 194.13h-49.21a17.17 17.17 0 0 1-14.12-7.4l-6.38-9.23H233l-6.38 9.23a17.17 17.17 0 0 1-14.14 7.4z" fill="#000000" class="fill-000000"></path><path d="M212.48 192.41h-44c-4.06 0-8.17.31-11.93-1.56-3.44-1.71-5.52-4.49-7.62-7.54l-4.62-6.68-1.49 2.59h86.48a27.72 27.72 0 0 0 3.53 0h.17l-1.49-2.59-5.67 8.21a18.53 18.53 0 0 1-4 4.45 15.73 15.73 0 0 1-9.32 3.12c-2.21 0-2.22 3.47 0 3.45a19.5 19.5 0 0 0 16-8.8l6-8.69a1.74 1.74 0 0 0-1.49-2.6H153.9c-3.64 0-7.33-.16-11 0h-.15a1.74 1.74 0 0 0-1.49 2.6l4.09 5.92c1.7 2.46 3.3 5.07 5.61 7a19.27 19.27 0 0 0 12.33 4.56h49.17a1.73 1.73 0 0 0 .02-3.44z" fill="#000000" class="fill-000000"></path><g fill="#ffffff" class="fill-ffffff"><path d="M138.7 549.63c23.15.27 46.3.28 69.45.37 6.49 0 13 .17 19.49 0a1.06 1.06 0 0 0 0-2.12c-11.56-.35-23.17 0-34.73 0l-34.72.17c-6.5 0-13 .06-19.49.13a.72.72 0 0 0 0 1.44zM138.7 565c23.15.27 46.3.28 69.45.38 6.49 0 13 .16 19.49 0a1.06 1.06 0 0 0 0-2.12c-11.56-.35-23.17 0-34.73 0l-34.72.17c-6.5 0-13 .06-19.49.14a.72.72 0 0 0 0 1.43zM138.7 580.41c23.15.27 46.3.28 69.45.38 6.49 0 13 .16 19.49 0a1.06 1.06 0 0 0 0-2.12c-11.56-.35-23.17 0-34.73 0l-34.72.17c-6.5 0-13 .06-19.49.14a.72.72 0 0 0 0 1.43zM138.7 595.81c9.17.17 18.35.18 27.52.26l13.63.1c4.62 0 9.27.2 13.88 0a1.06 1.06 0 0 0 0-2.12c-4.61-.23-9.26 0-13.88 0l-13.63.1c-9.17.07-18.35.09-27.52.26a.72.72 0 0 0 0 1.44zM138.7 630.85c23.15.26 46.3.27 69.45.37 6.49 0 13 .17 19.49 0a1.06 1.06 0 0 0 0-2.12c-11.56-.35-23.17 0-34.73 0l-34.72.16c-6.5 0-13 .07-19.49.14a.72.72 0 0 0 0 1.44zM138.7 646.24c23.15.27 46.3.28 69.45.37 6.49 0 13 .17 19.49 0a1.06 1.06 0 0 0 0-2.12c-11.56-.35-23.17 0-34.73 0l-34.72.17c-6.5 0-13 .06-19.49.13a.72.72 0 0 0 0 1.44zM138.7 661.63c23.15.27 46.3.28 69.45.38 6.49 0 13 .16 19.49 0a1.06 1.06 0 0 0 0-2.12c-11.56-.35-23.17 0-34.73 0l-34.72.17c-6.5 0-13 .06-19.49.14a.72.72 0 0 0 0 1.43zM138.7 677c9.17.18 18.35.19 27.52.26l13.63.11c4.62 0 9.27.2 13.88 0a1.06 1.06 0 0 0 0-2.12c-4.61-.23-9.26-.06-13.88 0l-13.63.1c-9.17.07-18.35.09-27.52.26a.72.72 0 0 0 0 1.43z"></path></g><path d="M752.26 446.55c-1.15-8.31-3-16.54-4.59-24.77-1.79-9.1-3.65-18.2-4.87-27.39a117.62 117.62 0 0 1-1.1-13.12 1.05 1.05 0 0 0-2.1 0c-.28 8.34 1.27 16.8 2.8 25 1.75 9.29 3.87 18.5 5.89 27.73 1 4.31 1.86 8.62 2.66 13 .16.88 1.43.49 1.31-.36z" fill="#000000" class="fill-000000"></path><path d="M684 451.84V437.6a9.11 9.11 0 0 1 .44-3.45c.9-2.25 3.36-3.38 5.63-4.24a141.57 141.57 0 0 1 40.84-8.86c5.44-.35 11-.38 16.25 1.05a13.83 13.83 0 0 1 6.25 3.23c3.22 3.18 3.58 8.14 4.42 12.58a45.34 45.34 0 0 0 5 13.68" fill="#000000" class="fill-000000"></path><path d="M684.68 451.84q.18-6.13.29-12.27c0-1.85-.27-4.16.88-5.75a8.24 8.24 0 0 1 3.65-2.45 122.9 122.9 0 0 1 22.55-6.58 125.6 125.6 0 0 1 23.74-2.69c6.53-.06 16.13.41 18.82 7.62 1.28 3.43 1.45 7.18 2.3 10.73a37.58 37.58 0 0 0 4.75 11.77 1.26 1.26 0 0 0 2.17-1.27 61.67 61.67 0 0 1-4.24-11.24c-.84-3.49-1.06-7.15-2.34-10.53a12.41 12.41 0 0 0-6.67-7.21 32.33 32.33 0 0 0-11.75-2.33c-8.35-.34-16.91.81-25.11 2.36a134.43 134.43 0 0 0-24.49 7 12.53 12.53 0 0 0-4.52 2.7 7 7 0 0 0-1.8 5.05c0 5 .27 10.09.46 15.12a.66.66 0 0 0 1.31 0z" fill="#000000" class="fill-000000"></path><path d="M709.55 362c-2.71-.91-4.53-3.59-5.2-6.37a25.54 25.54 0 0 1-.12-8.55c-5.83-1-9.53-8.39-6.84-13.66-3 .42-5.67-2.34-6.28-5.3s.3-6 1.2-8.86c-2.19 1.08-4 2.79-6.11 4s-4.74 2-7 1-3.29-4.39-1.44-6c-3.38 3.15-7 6.43-11.53 7.41s-10.11-1.36-10.92-5.92 3.52-8.67 8-10.19a6.21 6.21 0 0 1-6.75-1.09c-3.55-3.37-1.54-9.85 2.61-12.46s9.37-2.48 14.26-2.26c-1.67 1.09-4.17-.25-4.64-2.19a5.17 5.17 0 0 1 2.3-5.18 12.91 12.91 0 0 1 5.64-1.9 56.43 56.43 0 0 1 23 1.24c-1.53-.12-2.05-2.36-1.13-3.58s2.57-1.59 4.09-1.77a32.89 32.89 0 0 1 30.09 13.45c1-.71.62-2.25.67-3.48a4.65 4.65 0 0 1 4.86-4.12 5.89 5.89 0 0 1 5.05 4.32 6.73 6.73 0 0 0 .77 2.22 4.76 4.76 0 0 0 2.88 1.44A39.81 39.81 0 0 1 774.8 321c.77 2.57 1.26 5.38.32 7.89s-3.75 4.49-6.3 3.66c2.12 3.35 4.31 6.92 4.48 10.89s-2.53 8.36-6.5 8.54c1.63 2.39 3.18 5.05 3.12 7.94s-2.38 5.91-5.27 5.69a13.2 13.2 0 0 1-6.76 15.17 37.23 37.23 0 0 0-3.85 1.76c-4 2.52-5.11 8.42-9.44 10.31-3.9 1.72-8.24-.7-12.28-2.07-2.68-.91-5.51-1.36-8.09-2.51s-5-3.19-5.58-5.95c-1.07-5.08 4.12-9.11 6.12-13.89a24 24 0 0 0 1.38-6.94 9.06 9.06 0 0 0-1.07-5.55c-1-1.88-2.72-2.05-4.8-2.45-6-1.17-11.27 1.63-11 7.78" fill="#d6275e" class="fill-18c4ff"></path><path d="M709.73 361.37c-5.63-2.2-5.14-9.41-4.62-14.28a.9.9 0 0 0-.65-.85c-5.22-1.06-8.62-7.46-6.26-12.34.28-.57 0-1.5-.81-1.42-2.48.25-4.47-1.67-5.19-3.92-.94-3 .15-6.2 1-9a1 1 0 0 0-1.4-1.08c-3.1 1.6-5.61 4.55-9.12 5.25a4 4 0 0 1-4.29-1.3 2.58 2.58 0 0 1 .05-3.38c.9-.86-.45-2.2-1.35-1.36-4.53 4.2-10.82 9.7-17.36 6.31-2.59-1.35-4.21-4-3.3-7 1-3.17 4.11-5.37 7.11-6.44l-.74-1.75a5.15 5.15 0 0 1-6.8-2.75 7.67 7.67 0 0 1 1.17-6.72c3.45-5.15 10.79-4.8 16.23-4.56L673 293a2.3 2.3 0 0 1-3.06-1.14c-.67-1.35.06-3 1-4 2.09-2.2 5.82-2.44 8.64-2.73a56.19 56.19 0 0 1 19.92 1.57l.51-1.84a1.14 1.14 0 0 1-.88-1.4c.11-.9 1-1.39 1.74-1.68a14.89 14.89 0 0 1 4.84-.59 31.08 31.08 0 0 1 9.91 1.46 31.58 31.58 0 0 1 16.34 11.72 1 1 0 0 0 1.54.2c1.81-1.52.31-4.1 1.7-5.85 1.74-2.18 4.83-1.56 6.36.5a10.67 10.67 0 0 1 1.23 3.19 4 4 0 0 0 2.42 2.39c2.22.89 4.61 1.31 6.83 2.26a38.94 38.94 0 0 1 20.16 20 22.54 22.54 0 0 1 2.29 8.74c0 2.78-2 6.47-5.32 5.54a1.19 1.19 0 0 0-1.33 1.74c2.06 3.27 4.46 6.94 4.31 11-.1 3-2.08 6.45-5.31 6.7a1.2 1.2 0 0 0-1 1.78c1.51 2.22 3.22 4.87 3 7.68-.2 2.11-1.8 4.27-4.07 4.2a1.16 1.16 0 0 0-1.11 1.46 12.06 12.06 0 0 1-1.92 10.25 11.42 11.42 0 0 1-4 3.47c-1.86.95-3.81 1.46-5.42 2.85-2.56 2.23-3.71 5.59-6.11 7.94-3.41 3.36-8 1.27-11.83-.17-4.07-1.54-9.18-1.86-12.48-4.92a6.22 6.22 0 0 1-2.19-5.05 11.83 11.83 0 0 1 2.26-5.11c1-1.59 2.19-3.12 3.1-4.79a17.4 17.4 0 0 0 1.88-6c.5-3.51 1-8.75-2.67-10.88a13.47 13.47 0 0 0-5.6-1.33 11.75 11.75 0 0 0-5.31.79 8.27 8.27 0 0 0-5 8.28c0 1.37 2.19 1.37 2.14 0a6.31 6.31 0 0 1 5.11-6.76 13.24 13.24 0 0 1 5.39.16 6.49 6.49 0 0 1 2.36.73 4.81 4.81 0 0 1 1.63 2.74c.65 2.22.21 4.82-.23 7.05a16 16 0 0 1-2.42 5.73c-2 3-4.52 5.95-4.78 9.7-.28 3.94 2.67 7 6 8.57a39.78 39.78 0 0 0 6.4 2.06c2.27.63 4.43 1.55 6.66 2.32 3.85 1.32 7.93 1.59 11.07-1.4 2.48-2.35 3.62-5.82 6.22-8.05 1.73-1.48 4.09-1.86 6-3.09a14.18 14.18 0 0 0 4.08-4.12 14.36 14.36 0 0 0 1.88-11.6l-1.12 1.46c3.05.11 5.51-2.36 6.22-5.2.91-3.67-1-7.25-3-10.19l-1 1.79c4.09-.32 6.93-3.86 7.55-7.75.78-4.91-2-9.49-4.51-13.47l-1.34 1.74a6.38 6.38 0 0 0 6.78-2.66c1.91-2.6 1.75-6.05 1-9A38.74 38.74 0 0 0 768.6 307a41.59 41.59 0 0 0-12.89-10.51 39.15 39.15 0 0 0-7.37-3c-1.38-.39-3.21-.48-3.69-2.06a10.1 10.1 0 0 0-1.71-3.81 6.13 6.13 0 0 0-7.75-1.64 5.63 5.63 0 0 0-2.57 3.12 5.75 5.75 0 0 0-.2 1.89c0 .71.25 1.62-.35 2.14l1.55.2a34.26 34.26 0 0 0-15.4-11.85 33.63 33.63 0 0 0-9.55-2.17c-2.91-.23-6.73-.42-9.38 1a3.72 3.72 0 0 0-2.1 3.48 2.91 2.91 0 0 0 2.27 2.83c1.18.19 1.72-1.52.51-1.84a58.42 58.42 0 0 0-13.34-1.9 45.89 45.89 0 0 0-12.53 1.13c-3.16.82-6.5 3.14-6.37 6.79.1 3 3.45 5.3 6.19 3.75a1 1 0 0 0-.49-1.78c-6.84-.3-15.59-.14-18.78 7.19-1.13 2.59-1.3 5.77.38 8.17a7.16 7.16 0 0 0 8.76 2.23c1-.42.29-2.11-.73-1.75-5.12 1.82-10.84 7.14-8.09 13.07 2.45 5.29 9.42 6.06 14.23 4 3.57-1.51 6.47-4.18 9.27-6.78l-1.35-1.36c-2.76 2.64-.5 7.13 2.81 7.91 5.09 1.19 8.79-3.37 12.86-5.47l-1.4-1.08c-1.07 3.47-2.23 7.43-.68 10.94 1.16 2.61 3.71 4.73 6.68 4.42l-.82-1.42c-2.86 5.91.87 13.78 7.42 15l-.65-.85c-.49 5.67-.45 13.33 6 15.57.82.28 1.13-1 .35-1.29z" fill="#d6275e" class="fill-18c4ff"></path><path d="M729.61 286.75c-6.09-1.73-13.17 2.71-14.28 8.94s4 12.83 10.34 13.3a10.61 10.61 0 1 0 12.1 17.35c-4.09 3-5.66 9.34-2.78 13.53s10.14 4.63 13 .39a13.57 13.57 0 0 0-1.38 8.81c.7 2.95 3.19 5.6 6.21 5.76s6-2.88 5.21-5.8c-1 3.91-1.86 8.46.63 11.63 3 3.79 9.1 3.19 13.13.53 6.24-4.12 9.34-11.64 10.85-19a67.43 67.43 0 0 0-12.33-53.78c-3.86-5-8.74-9.69-14.88-11.29" fill="#000000" class="fill-000000"></path><path d="M729.77 286.16c-6.44-1.88-13.91 2.5-15.24 9.14-1.4 7 4.17 14 11.14 14.62l-.47-1.74c-5.52 3.32-7.48 11.35-3.67 16.69s11.91 6.21 17 2.19c.9-.71-.31-2.31-1.23-1.6-4.65 3.56-6.67 11-2.54 15.73 3.6 4.15 10.91 4.18 14.13-.4l-1.89-1.06c-2.29 5-2.9 11.65 2.31 15a6.36 6.36 0 0 0 6.94.13 5.82 5.82 0 0 0 2.73-6.15 1.08 1.08 0 0 0-2.06 0c-1 3.83-2 8.46.39 12 2 3.09 5.73 4.05 9.24 3.55 8.28-1.19 13.36-9.26 15.76-16.58 5.52-16.83 2.73-36.38-5.69-51.75-4.57-8.33-11.3-17.44-20.94-20a1.23 1.23 0 0 0-.65 2.37c7.79 2.16 13.35 9 17.48 15.57a66.73 66.73 0 0 1 8.88 22.41 65 65 0 0 1 .3 24.19c-1.31 7.29-4.05 15.43-10.55 19.7-2.89 1.9-7.25 3-10.37 1-3.95-2.55-2.73-8.1-1.79-11.88H757a3.86 3.86 0 0 1-2.74 4.25 4.71 4.71 0 0 1-4.67-1.32c-3.19-3.06-2.36-7.85-.7-11.46a1 1 0 0 0-1.81-1.06c-2.45 3.51-8.25 3.1-10.86 0-3.13-3.71-1.49-9.75 2.1-12.51l-1.23-1.6c-4.09 3.27-11 2.35-14-2a10.15 10.15 0 0 1 3.06-13.8.94.94 0 0 0-.47-1.73c-5.88-.53-10.7-6.79-9.41-12.63 1.26-5.65 7.63-9.42 13.19-8.09a.61.61 0 0 0 .32-1.18zM672.47 355.13a1.09 1.09 0 0 1 .71 1.63.85.85 0 0 1-1.17.34c-.64-.39-.63-1.84.22-2" fill="#000000" class="fill-000000"></path><path d="m672.31 355.72-.15-.06a.59.59 0 0 1 .17.1l-.14-.11a.71.71 0 0 1 .15.15l-.12-.15.19.23-.12-.15a1.59 1.59 0 0 1 .13.22l-.08-.19a1 1 0 0 1 .08.3v-.23c0 .12 0 .24.05.36v-.23a.81.81 0 0 1 0 .31v-.24a1.29 1.29 0 0 1-.08.28l.1-.22a1.59 1.59 0 0 1-.13.22l.15-.19-.18.18.19-.15-.22.13.23-.1a.66.66 0 0 1-.2.06h.26l-.32.05h.26-.21.26a.6.6 0 0 1-.19-.06l.24.1a.51.51 0 0 1-.16-.09l.2.15a1 1 0 0 1-.15-.14l.16.2a.89.89 0 0 1-.14-.25l.1.24a1.4 1.4 0 0 1-.1-.35v.26a1.41 1.41 0 0 1 0-.41v.27a1.09 1.09 0 0 1 .08-.31l-.1.24a.72.72 0 0 1 .12-.21l-.16.2a1 1 0 0 1 .14-.15l-.2.16c.08-.06.17-.1.25-.17s.13-.12.21-.18a.91.91 0 0 0 .24-.9.94.94 0 0 0-.65-.65l-.36-.06a1.06 1.06 0 0 0-.6.16 2.16 2.16 0 0 0-.29.21.52.52 0 0 0-.11.1 2.07 2.07 0 0 0-.48.9 2.75 2.75 0 0 0 0 1.07 2.86 2.86 0 0 0 .07.28 2 2 0 0 0 .22.47 1.87 1.87 0 0 0 1 .79 1.85 1.85 0 0 0 .41.07 1.15 1.15 0 0 0 .32 0 1.6 1.6 0 0 0 .69-.25 2 2 0 0 0 .83-1.09 2 2 0 0 0 0-1.07 1.88 1.88 0 0 0-.66-1 1.2 1.2 0 0 0-.54-.27 1.63 1.63 0 0 0-.66 0 .62.62 0 0 0-.45.59.68.68 0 0 0 .08.31.65.65 0 0 0 .37.28z" fill="#000000" class="fill-000000"></path><path d="M676.65 357.76a15.4 15.4 0 0 0-6.93-.64c-1 .19-.56 1.73.41 1.48a14 14 0 0 1 6.2.32c.75.15 1.08-1 .32-1.16z" fill="#000000" class="fill-000000"></path><g fill="#d6275e" class="fill-18c4ff"><path d="m683.25 359.79-.17-.05a1.09 1.09 0 0 0-.26 0h-.09a.47.47 0 0 0-.26.05.6.6 0 0 0-.36.36.47.47 0 0 0-.05.26v.18a.75.75 0 0 0 .17.3l.14.1a.67.67 0 0 0 .34.09h.09a.78.78 0 0 0 .22 0l.17-.06.14-.06a.5.5 0 0 0 .17-.15.33.33 0 0 0 .07-.13.37.37 0 0 0 0-.23v-.15l-.06-.14a.4.4 0 0 0-.15-.17.42.42 0 0 0-.2-.1zM679.9 361.12l-.38.35a.41.41 0 0 0-.14.21.58.58 0 0 0-.06.26.54.54 0 0 0 .06.25.4.4 0 0 0 .14.22l.13.1a.66.66 0 0 0 .33.09h.18a.66.66 0 0 0 .29-.17l.33-.42a.46.46 0 0 0 .13-.2.47.47 0 0 0 .05-.24.52.52 0 0 0-.05-.24.5.5 0 0 0-.13-.19l-.13-.1a.56.56 0 0 0-.31-.09h-.16a.61.61 0 0 0-.28.16zM683.05 362.36a4.06 4.06 0 0 0-.52.22l-.37.2a.52.52 0 0 0-.19.17.43.43 0 0 0-.12.22.57.57 0 0 0 0 .26.57.57 0 0 0 .08.25.69.69 0 0 0 .39.3.7.7 0 0 0 .51-.07l.36-.21.16-.11.17-.13a.5.5 0 0 0 .17-.15.43.43 0 0 0 .11-.21v-.16a.46.46 0 0 0 0-.23.26.26 0 0 0-.08-.13.44.44 0 0 0-.17-.16l-.14-.06a.58.58 0 0 0-.32 0zM686.52 361.58h-.19a.58.58 0 0 0-.26.06.48.48 0 0 0-.22.14.46.46 0 0 0-.13.21.4.4 0 0 0-.06.26v.18a.69.69 0 0 0 .17.3l.14.1a.7.7 0 0 0 .34.1h.19a.54.54 0 0 0 .25-.06.52.52 0 0 0 .22-.14.46.46 0 0 0 .13-.21.55.55 0 0 0 .06-.26v-.17a.9.9 0 0 0-.17-.3l-.14-.1a.63.63 0 0 0-.33-.09zM685.36 364.61l-1.1.39a.69.69 0 0 0-.17 1.27l.17.07a.73.73 0 0 0 .36 0l1.09-.45a.51.51 0 0 0 .23-.12.59.59 0 0 0 .17-.18.66.66 0 0 0 .06-.51.65.65 0 0 0-.3-.4.66.66 0 0 0-.51-.07zM680.71 364.44h-.37a.75.75 0 0 0-.36.1l-.14.11a.87.87 0 0 0-.18.31.53.53 0 0 0 0 .28.5.5 0 0 0 .08.26.66.66 0 0 0 .18.19.47.47 0 0 0 .24.13.77.77 0 0 0 .37 0l.36-.07a.57.57 0 0 0 .22-.11.52.52 0 0 0 .17-.19l.06-.15a.46.46 0 0 0 0-.26.29.29 0 0 0 0-.16.57.57 0 0 0-.13-.21l-.14-.1a.62.62 0 0 0-.32-.09z"></path></g><path d="M695.29 442.46a99 99 0 0 0-1.71-11.46c-.37-2.06-.75-4.12-1.1-6.18-.26-1.52-.22-4-1.9-4.62-1.14-.4-2 1.48-.83 2 .27.12.35 1.62.4 1.91.15.81.32 1.62.5 2.43.42 1.94.85 3.87 1.29 5.81.77 3.41 1.62 6.84 2.16 10.3.1.68 1.23.52 1.19-.16zM678.71 346c-.07-.5-.55-.87-.9-1.19a11.3 11.3 0 0 0-1.15-.92 8.65 8.65 0 0 0-2.76-1.26 11.48 11.48 0 0 0-3-.37 4.35 4.35 0 0 0-3.22.92 1.21 1.21 0 0 0 .53 2 7.37 7.37 0 0 0 2.69 0H672.54l.66.13a21.36 21.36 0 0 1 2.38.63 9.47 9.47 0 0 1 1 .4 3 3 0 0 0 1.35.5.75.75 0 0 0 .71-.93z" fill="#000000" class="fill-000000"></path><path d="M789.55 447.58a280.45 280.45 0 0 0-119-2.38c-11.5 2.26-23.75 5.82-30.82 15.17-5.76 7.61-7 17.63-8 27.12l-3.69 34.94c-.71 6.81-1.43 13.68-.77 20.49 2.5 25.49 23.44 45.35 30.61 69.94 4 13.62 3.55 28.19 1.43 42.22-.57 3.77-1.26 7.61-.6 11.36 1.17 6.75 6.45 12 12 16 18.75 13.34 42.74 16.81 65.74 17.37 35.35.85 71.57-4.5 102.72-21.22 5.4-2.91 10.83-6.33 14-11.58 5.81-9.62 2.39-21.93-1.26-32.56-7.55-22-18-30.09-23.06-52.79-5.1-23.07-2.82-60.09-4.82-83.54-1-11.85-3.11-23.87-8.3-34.67-4.69-9.76-16.27-13.59-26.3-15.88" fill="#ffffff" class="fill-ffffff"></path><path d="M789.55 448.21a.63.63 0 0 0 0-1.26.63.63 0 0 0 0 1.26z" fill="#000000" class="fill-000000"></path><path d="M789.71 447a281.73 281.73 0 0 0-84-7.21 250.05 250.05 0 0 0-40.31 5.62c-10.81 2.52-22 7-28.07 16.88-3.06 5.05-4.53 10.86-5.43 16.64-1 6.65-1.58 13.38-2.29 20.06l-2.33 22c-.75 7.12-1.61 14.31-1 21.48 2.06 23.45 19 41.57 27.79 62.55 5.21 12.45 6.56 25.77 5.55 39.15-.26 3.58-.68 7.14-1.22 10.69s-1.18 7.09-.78 10.65c.64 5.73 4.07 10.57 8.26 14.34 8.94 8.07 20.71 13.1 32.23 16.18 12 3.2 24.39 4.43 36.74 4.8 26.08.8 52.58-1.72 77.5-9.73a170.61 170.61 0 0 0 17.78-6.83c5.72-2.58 11.59-5.34 16.68-9.05 4.76-3.47 8.49-8 9.88-13.86s.62-11.7-.74-17.34c-2.82-11.6-7.87-22.35-13.64-32.73-2.49-4.47-5-8.94-7.07-13.62a84.78 84.78 0 0 1-5.51-17.16c-2.23-10.64-2.76-21.63-3.15-32.46-.42-11.74-.41-23.48-.78-35.22-.15-4.89-.37-9.77-.78-14.65-.09-1.11-1.84-1.12-1.74 0 1.85 22 .38 44.08 2.23 66.06.91 10.87 2.7 21.64 6.87 31.78 3.91 9.55 9.65 18.17 14.07 27.47a117.27 117.27 0 0 1 6.55 17.29c1.69 5.78 3 12 2.12 18a21.82 21.82 0 0 1-9 14.38c-4.91 3.67-10.63 6.38-16.19 8.92-23.44 10.71-49.26 15.5-74.9 16.55a241.07 241.07 0 0 1-37.52-1.12c-12.11-1.41-24.25-4.19-35.26-9.53a63.07 63.07 0 0 1-15.09-9.77c-4.42-4-7.67-9.09-7.63-15.25 0-3.61.8-7.18 1.27-10.75.44-3.34.78-6.68 1-10a97.07 97.07 0 0 0-.8-20.3c-1.8-11.73-6.75-22.36-12.53-32.6-5.57-9.89-11.85-19.52-16-30.14a61.4 61.4 0 0 1-4.08-16c-.72-7.07.06-14.16.8-21.19l2.25-21.46c.7-6.73 1.24-13.51 2.22-20.2.84-5.76 2.16-11.6 5.11-16.67A30.05 30.05 0 0 1 651 452.34a65.46 65.46 0 0 1 16-5.48c6.39-1.44 12.87-2.53 19.36-3.44a279.58 279.58 0 0 1 83.25.85q9.95 1.61 19.76 3.92c.79.18 1.12-1 .33-1.21z" fill="#000000" class="fill-000000"></path><path d="M710.4 360.17a9.34 9.34 0 0 1 5.77-5.82 7 7 0 0 1 7.62 2.3 8.45 8.45 0 0 1 1.15 6.38 34.06 34.06 0 0 1-2.06 6.32c-.81 2.12-1.55 4.36-3.15 6s-4.37 2.33-6.14.91" fill="#ffffff" class="fill-ffffff"></path><path d="M711 360.35c1.14-2.79 3.77-5.25 6.92-5.33a5.7 5.7 0 0 1 6 5.72c.13 3.51-1.62 7-3 10.18-1.19 2.78-3.49 6.1-6.89 4.38a1.09 1.09 0 0 0-1.32 1.71c2.28 2.32 6.27.91 8.12-1.23a14.42 14.42 0 0 0 2.49-4.61c.63-1.73 1.31-3.45 1.89-5.2 1.08-3.28 1.46-7.17-.79-10.07a7.94 7.94 0 0 0-7.88-2.66c-3.38.72-5.8 3.6-6.89 6.76-.28.82 1 1.12 1.28.35z" fill="#000000" class="fill-000000"></path><path d="M719.18 360.2a5.28 5.28 0 0 0-3.76 1.56 4.9 4.9 0 0 0-1.42 1.92 4.15 4.15 0 0 0-.25.85 2.69 2.69 0 0 0 0 1c0 .23.2.43.24.65 0-.19 0 0 0 0a2.34 2.34 0 0 0 .09.24 4 4 0 0 0 .25.51 1.61 1.61 0 0 0 1.14.76 1.33 1.33 0 0 0 1.23-2 1.44 1.44 0 0 0-2.41.1 3 3 0 0 0-.16 2.16c.19.88 1.15 2 2.14 1.38s.53-2-.06-2.75a1.07 1.07 0 0 0-1.5 0 1.09 1.09 0 0 0 0 1.5c-.07-.09.06.18 0 .06.07.17 0 .09 0 0l.48-.63-.06.05.53-.15h-.09l.54.15a.24.24 0 0 1 .1.1q-.09-.16 0 0c0-.05-.08-.34-.07-.27s0-.24 0-.29a2.18 2.18 0 0 1 0-.25c-.08.52-.51.27-1.3-.75l.4-.39.11-.06h.58c.4.55.55.67.47.37v-.06c0-.29-.08.12 0-.14a4.8 4.8 0 0 0 .21-.85 2.83 2.83 0 0 1 .09-.37 2.25 2.25 0 0 1 .08-.24c-.07.15-.06.15 0 0l.22-.36c.06-.15.06-.15 0 0 .06-.13.13-.26.2-.39a4.46 4.46 0 0 1 1-1.16 4.22 4.22 0 0 1 1.23-.92.66.66 0 0 0-.17-1.29zM127.96 243.08h10.74v73.12h-10.74z" fill="#000000" class="fill-000000"></path><path d="M138.7 315.34H128l.86.86v-73.12l-.86.92h10.7l-.86-.87v73.07a.87.87 0 0 0 1.73 0v-73.12a.88.88 0 0 0-.87-.86H128a.87.87 0 0 0-.86.86v73.12a.88.88 0 0 0 .86.87h10.7a.87.87 0 0 0 0-1.73z" fill="#000000" class="fill-000000"></path><path d="M139.52 243.08h213.09v73.12H139.52z" fill="#ffffff" class="fill-ffffff"></path><path d="M352.61 315.34H142.73a27.09 27.09 0 0 0-2.85 0h-.36l.86.86v-73.12l-.86.87H349.4a27.09 27.09 0 0 0 2.85 0 2.16 2.16 0 0 1 .36 0l-.86-.87v73.12a.86.86 0 0 0 1.72 0v-73.12a.87.87 0 0 0-.86-.86H148.15c-2.76 0-5.52-.06-8.27 0h-.36a.87.87 0 0 0-.86.86v73.12a.88.88 0 0 0 .86.87H344c2.76 0 5.52.06 8.27 0h.36a.87.87 0 0 0-.02-1.73zM671 394.82c.06-.34.18-.67.27-1a3.12 3.12 0 0 1 .15-.43c.06-.16 0 .1 0-.1l.12-.23a7.9 7.9 0 0 1 .5-.85c.12-.16-.1.13.06-.07a1.63 1.63 0 0 1 .17-.2c.11-.13.23-.24.35-.36l.2-.17s.22-.21 0 0a3.41 3.41 0 0 1 .44-.3l.39-.23.28-.14c.2-.09-.22.08 0 0 .64-.23 1.31-.31 2-.51a1 1 0 0 0 .73-1 1 1 0 0 0-.73-1 3.72 3.72 0 0 0-2.82.38 6.05 6.05 0 0 0-1.94 1.46 6.33 6.33 0 0 0-1.31 2.22 5.48 5.48 0 0 0-.23 1.26 3.15 3.15 0 0 0 .18 1.22.61.61 0 0 0 1.16 0z" fill="#000000" class="fill-000000"></path><path d="M177.6 266.12a12.57 12.57 0 0 1 5.41 1.23 4.93 4.93 0 0 0 1.71.58 5.52 5.52 0 0 0 1.11-.18 3.15 3.15 0 0 1 .56-.05 2.18 2.18 0 0 1 1.74.92 8.36 8.36 0 0 1 1.85 5.53 3.8 3.8 0 0 1-1.6 3.39 3.36 3.36 0 0 1-1.94.58 2.76 2.76 0 0 1-1.59-.42 4.3 4.3 0 0 1-1.19-1.5 17.72 17.72 0 0 0-1.34-2.18 6.34 6.34 0 0 0-1.27-1.2 6.68 6.68 0 0 0-3.89-1.3A3.81 3.81 0 0 0 174 273a5.85 5.85 0 0 0-1.16 3.82 11.34 11.34 0 0 0 1.67 6.05 7.21 7.21 0 0 0 6.48 3.67 9.62 9.62 0 0 0 3.08-.52 6.21 6.21 0 0 0 2.37-1.35 2 2 0 0 1 1.19-.69 1.43 1.43 0 0 1 1.16.63 2.44 2.44 0 0 1 .47 1.5 5.75 5.75 0 0 1-.67 2.5 6.37 6.37 0 0 1-1.61 2.17 4.24 4.24 0 0 1-1.67.57 8.78 8.78 0 0 0-1.94.71 13.47 13.47 0 0 1-5.91 1.37 15.4 15.4 0 0 1-6.39-1.44 13.7 13.7 0 0 1-8-12.15 12.68 12.68 0 0 1 2.64-7.78 14.84 14.84 0 0 1 6-4.66 14.42 14.42 0 0 1 5.89-1.28zM203.6 275.05v8.81a8.76 8.76 0 0 0 .52 3.83q.63 1 2.67 1a5.57 5.57 0 0 0 3.45-1 5.1 5.1 0 0 0 1.77-3c.19-.83.63-1.25 1.3-1.25a2 2 0 0 1 1.66.91 4 4 0 0 1 .65 2.37 9.42 9.42 0 0 1-1.77 5.09 4.78 4.78 0 0 1-1 1.18 1.65 1.65 0 0 1-1 .32l-4.26-.52h-13.41a4 4 0 0 1-1.86-.31 1.42 1.42 0 0 1-.79-1.32 1.1 1.1 0 0 1 .26-.8 5.38 5.38 0 0 1 1.26-.74 2.47 2.47 0 0 0 1.4-1.46 23.32 23.32 0 0 0 .25-4.58c0-1.18 0-2.88-.1-5.09s-.1-3.72-.11-4.8a6.17 6.17 0 0 0-.24-2.1 1.53 1.53 0 0 0-1-.82 6.47 6.47 0 0 1-1.61-.71A1.38 1.38 0 0 1 191 269c0-.93.78-1.64 2.32-2.13a18 18 0 0 1 5.3-.63 29.41 29.41 0 0 1 5.57.38c1.58.35 2.38 1 2.38 2.07a1.24 1.24 0 0 1-.32.94 5.94 5.94 0 0 1-1.54.83 1.58 1.58 0 0 0-.93 1.11 19.55 19.55 0 0 0-.18 3.48z" fill="#000000" class="fill-000000"></path><path d="M230.8 266.12a13.74 13.74 0 0 1 8.61 2.82 14.43 14.43 0 0 1 4.05 5 13.68 13.68 0 0 1 1.52 6.14 12.29 12.29 0 0 1-3 8.1 14.07 14.07 0 0 1-6.62 4.36 16.4 16.4 0 0 1-5.05.81A15 15 0 0 1 224 292a12.74 12.74 0 0 1-5.74-5 13.4 13.4 0 0 1-2-7.2 13.16 13.16 0 0 1 8.74-12.68 16.23 16.23 0 0 1 5.8-1zm-1.8 5.51a2.91 2.91 0 0 0-2.55 1.44 4.49 4.49 0 0 0-.73 2.55 17.23 17.23 0 0 0 .89 5 22.34 22.34 0 0 0 2.22 5.06 4.9 4.9 0 0 0 1.47 1.5 3.25 3.25 0 0 0 1.77.55 2.89 2.89 0 0 0 2.36-1.09 4.44 4.44 0 0 0 .89-2.88 18.69 18.69 0 0 0-.75-5 17.66 17.66 0 0 0-1.94-4.59 6.15 6.15 0 0 0-1.69-1.84 3.61 3.61 0 0 0-1.94-.7z" fill="#d6275e" class="fill-18c4ff"></path><path d="M258.24 266.12a18.75 18.75 0 0 1 5.18 1 2.2 2.2 0 0 0 .62.12 5.94 5.94 0 0 0 1.15-.35 1.74 1.74 0 0 1 .65-.11c.86 0 1.76.67 2.72 2a6.85 6.85 0 0 1 1.43 3.88 2.66 2.66 0 0 1-.65 1.81 2 2 0 0 1-1.56.74 2.25 2.25 0 0 1-1.25-.31 21.36 21.36 0 0 1-2.11-1.82 6.76 6.76 0 0 0-4.53-2.15 2.61 2.61 0 0 0-1.71.52 1.66 1.66 0 0 0-.65 1.36q0 1.67 2.94 2.52a44.68 44.68 0 0 1 5.08 1.7c3.27 1.59 4.9 3.92 4.9 7a8.08 8.08 0 0 1-3.34 6.68 14.2 14.2 0 0 1-8.93 2.65 24.8 24.8 0 0 1-5.18-.59 12.43 12.43 0 0 1-3.93-1.37 5.28 5.28 0 0 1-1.66-2.68 11.9 11.9 0 0 1-.74-4 2.27 2.27 0 0 1 .38-1.42 1.48 1.48 0 0 1 1.21-.61 1.9 1.9 0 0 1 1.4.74 28.11 28.11 0 0 1 1.9 2.71 5.3 5.3 0 0 0 2.26 1.79 7.6 7.6 0 0 0 3.19.71 4.49 4.49 0 0 0 2.31-.53 1.56 1.56 0 0 0 .88-1.36 1.65 1.65 0 0 0-.69-1.32 7 7 0 0 0-2.25-1 29.24 29.24 0 0 1-4.18-1.58 12.57 12.57 0 0 1-2.69-1.81 8 8 0 0 1-3-6.11 7.34 7.34 0 0 1 .79-3.29 8.1 8.1 0 0 1 2.22-2.77 11.87 11.87 0 0 1 7.84-2.75zM276 266.66h9.86c2 0 3.45 0 4.37-.12a15 15 0 0 0 2.67-.51 2.38 2.38 0 0 1 .64-.12 2.17 2.17 0 0 1 1.76 1.08 7 7 0 0 1 1.27 4.22 3.29 3.29 0 0 1-.53 2 1.89 1.89 0 0 1-2.44.46 5.33 5.33 0 0 1-.95-1.16 4.05 4.05 0 0 0-2.14-1.72 14.74 14.74 0 0 0-4.25-.43c-1.47 0-2.36.26-2.68.78a2.5 2.5 0 0 0-.3 1.14c0 .47-.05 1.68-.05 3.62 0 .77.13 1.25.39 1.43a4.18 4.18 0 0 0 2 .28 1.65 1.65 0 0 0 1.17-.34 1.86 1.86 0 0 0 .46-1.19 8 8 0 0 1 .28-1.53 1.54 1.54 0 0 1 .53-.72 1.4 1.4 0 0 1 .94-.35 1.63 1.63 0 0 1 1.34.75 5.22 5.22 0 0 1 .68 2 14.84 14.84 0 0 1 .28 2.95 11.38 11.38 0 0 1-.94 5 1.67 1.67 0 0 1-1.57 1.05 1.08 1.08 0 0 1-.91-.33 3.47 3.47 0 0 1-.38-1.39 2.27 2.27 0 0 0-2.53-2.17 1.24 1.24 0 0 0-1.18.54 4.49 4.49 0 0 0-.32 2c0 .6 0 1.38.13 2.33a12.13 12.13 0 0 0 .25 1.89 1.22 1.22 0 0 0 1 .8 11.63 11.63 0 0 0 2.66.22 10 10 0 0 0 4.34-.74 5.47 5.47 0 0 0 2.38-2.68 5.13 5.13 0 0 1 1-1.5 1.65 1.65 0 0 1 1.12-.38 1.62 1.62 0 0 1 1.34.7 2.85 2.85 0 0 1 .52 1.76 9.17 9.17 0 0 1-.59 2.88 14.31 14.31 0 0 1-1.46 3.07 4 4 0 0 1-.73.87 1.13 1.13 0 0 1-.73.22 7.76 7.76 0 0 1-1.05-.11 21.38 21.38 0 0 0-3.29-.29H274a2.43 2.43 0 0 1-1.52-.43 1.48 1.48 0 0 1-.53-1.22 1.15 1.15 0 0 1 .23-.81 3.47 3.47 0 0 1 1.05-.63 2.08 2.08 0 0 0 .86-.62 2.93 2.93 0 0 0 .43-1.07 38.38 38.38 0 0 0 .63-7.81q0-7.41-.92-9.35a1.54 1.54 0 0 0-.42-.54 4.45 4.45 0 0 0-1-.36 1.4 1.4 0 0 1-1.1-1.46 1.77 1.77 0 0 1 .37-1.09 1.73 1.73 0 0 1 1-.64 16.11 16.11 0 0 1 2.92-.23zM307.2 292.86h-1.38c-.81 0-1.71 0-2.71.11-.62 0-1.06.08-1.3.08a3.39 3.39 0 0 1-2.09-.6 1.83 1.83 0 0 1-.81-1.55 1.45 1.45 0 0 1 .36-1 2.46 2.46 0 0 1 1.16-.6 1.64 1.64 0 0 0 1-.62 4.77 4.77 0 0 0 .43-1.68q.15-1.44.27-5.61t.13-8.27a5.93 5.93 0 0 0-.25-2.15 1.88 1.88 0 0 0-1.17-.86 1.77 1.77 0 0 1-1.33-1.71 1.63 1.63 0 0 1 .92-1.47 5.08 5.08 0 0 1 2.54-.53h1.26c1.08 0 1.86.06 2.35.06 1.83 0 3.89-.06 6.2-.17h1.82a19.52 19.52 0 0 1 6.95 1 10.78 10.78 0 0 1 5.72 5 15.24 15.24 0 0 1 1.7 7.4 15.57 15.57 0 0 1-.63 4.35 13.21 13.21 0 0 1-1.71 3.77 11.73 11.73 0 0 1-6.14 4.53 15.45 15.45 0 0 1-4.91.77l-2.32-.08-2-.06a67.83 67.83 0 0 0-4.06-.11zm4-20.81v14.86a2.34 2.34 0 0 0 .52 1.72 2.47 2.47 0 0 0 1.73.5q5.59 0 5.6-8.52a16.54 16.54 0 0 0-1.3-7.29 5 5 0 0 0-4.88-2.86 1.79 1.79 0 0 0-1.29.37 1.65 1.65 0 0 0-.35 1.22zM180.44 332.44c.18-4.91.65-9.83.27-14.75a.59.59 0 0 0-1.18 0c-.38 4.92.1 9.84.28 14.75a.32.32 0 0 0 .63 0zM308.87 332.44c.18-4.91.66-9.83.28-14.75a.59.59 0 0 0-1.18 0c-.38 4.92.09 9.84.27 14.75a.32.32 0 0 0 .63 0z" fill="#000000" class="fill-000000"></path><path d="M748.1 288a25.18 25.18 0 0 1-11-14.12c-1.64-5.47-1-12.21 3.51-15.75s12.88-1 13 4.71c2.12-5.4 4.35-11 8.47-15.07s10.76-6.34 15.92-3.77 7.38 9.07 7.83 14.93c-.68-6.24 4.72-12.27 11-12.92s12.47 3.63 14.75 9.47.88 12.8-3 17.77c3.68-6.15 12.2-8.58 18.87-5.95s11.13 9.67 11.44 16.83-3.21 14.22-8.61 18.94c3.9-1.82 8.68 1.41 10 5.51s.12 8.55-1.33 12.6c-2.1 5.87-6.23 12.5-12.45 12.08 6.15.78 7.56 9.51 5 15.15a24 24 0 0 1-20.59 13.71c-3.55.11-7.74-1.12-8.82-4.5 3.75 2.09 2.63 8.34-1 10.66s-8.27 1.9-12.54 1.4c-5.6-.66-11.48-1.43-16.05-4.75s-7.15-10.08-4-14.78c2.72 2.84-1.42 7.81-5.3 7.22s-6.5-4.15-8.68-7.42c-4.6-6.87-9.16-16.26-4-22.73-13.47-2.72-23.19-17.55-20.33-31 .61-2.83 3.85-6.1 5.78-3.93 1.17 1.33.11 3.66-1.58 4.22a5.84 5.84 0 0 1-5-1.2 13.5 13.5 0 0 1-3.6-17.45c.92-1.48 2.48-2.91 4.19-2.55s2.08 3.47.34 3.59c-2.59-2.88-.46-7.95 3.14-9.39s7.71-.22 11.13 1.6" fill="#d6275e" class="fill-18c4ff"></path><path d="M748.42 287.43c-6-3.83-10.66-10.54-11.16-17.75a13.46 13.46 0 0 1 2.43-9.31 7.62 7.62 0 0 1 7.37-2.83c2.75.46 5.52 2.27 5.67 5.28a1 1 0 0 0 1.89.26c3.08-7.8 7-17.13 16.24-18.93a10.28 10.28 0 0 1 10.42 3.93c2.3 3.1 3.22 7.08 3.52 10.86h2.13c-.59-6.77 5.78-12.52 12.41-11.81 7 .76 12.08 7.24 12.18 14.07a18.74 18.74 0 0 1-3.92 11.46l2.06 1.21c3.92-6.31 12.83-8.11 19.17-4.54 7.19 4.05 10.19 13 8.16 20.75a24.46 24.46 0 0 1-7.6 12.06c-1.23 1.09.34 2.64 1.61 2.09 2.9-1.24 6.08 1 7.47 3.47 1.95 3.46.93 7.89-.21 11.44-1.69 5.23-5.11 13.09-11.73 12.77-1.5-.08-1.9 2.45-.36 2.68 6.05.9 6 9.37 3.92 13.63a22.73 22.73 0 0 1-17 12.33c-3.13.44-8.36.34-9.65-3.29l-2.06 1.59c2.42 1.44 1.81 4.92.39 6.89-2.12 2.95-6.47 3.08-9.75 2.87a62.16 62.16 0 0 1-11.9-1.76c-3.53-.94-7.11-2.56-9.33-5.6s-3.23-7.11-1.15-10.41l-2.09.26c2.13 2.39-2.17 5.36-4.38 5-3.63-.63-6-4.41-7.88-7.24-3.82-5.81-8.62-14.46-3.72-21a1.25 1.25 0 0 0-.74-1.82c-10.09-2-17.83-10.93-19.62-20.89a22.49 22.49 0 0 1-.09-7.59 7.13 7.13 0 0 1 1.26-3.27c.45-.61 1.64-2 2.52-1.36s-.07 2.16-.84 2.46c-1.47.59-3.22-.4-4.36-1.27a11.83 11.83 0 0 1-4.09-6.34 12.28 12.28 0 0 1 .48-8c.54-1.25 1.58-3.16 3.11-3.35a.81.81 0 0 1 1 .61c.12.35.18.68-.22.74l1.13.3c-1.89-2.24-.22-5.71 2-7.09 3.31-2.1 7.78-.53 10.92 1.11 1.31.68 2.47-1.3 1.16-2-4.24-2.21-10.15-3.87-14.23-.39a8.37 8.37 0 0 0-2.84 5.09 6.44 6.44 0 0 0 .17 2.76c.25.81.84 2.2 1.74 2.45 1.8.5 2.78-1.73 2.55-3.14a3.19 3.19 0 0 0-4-2.7c-4.38 1-5.93 7.12-5.74 10.95a14.57 14.57 0 0 0 5.67 11c1.92 1.42 4.73 2.48 7 1.15a4.12 4.12 0 0 0 1.89-4.81 3.26 3.26 0 0 0-4.68-1.58 7.84 7.84 0 0 0-3.64 4.88 24.65 24.65 0 0 0 .61 13.11c2.91 9.47 10.72 17.36 20.49 19.53l-.55-2.06c-5 6.36-1.9 14.67 1.71 20.91 2.88 5 8.93 14.75 16 10.41 2.9-1.79 4.63-5.6 2.14-8.46a1.34 1.34 0 0 0-2.08.27c-2.31 3.57-1.91 8.08.06 11.7 2.23 4.11 6.22 6.6 10.58 8a57.79 57.79 0 0 0 14.44 2.29c4.31.21 9.29-.55 11.86-4.43 2.2-3.32 2.23-8.38-1.49-10.61a1.42 1.42 0 0 0-2.07 1.59c1.41 3.95 5.62 5.47 9.53 5.52a24.12 24.12 0 0 0 12.44-3.53c6.89-4.09 12.5-11.77 11.14-20.1-.61-3.76-3-7.38-7-8l-.37 2.69c6.41.3 10.6-5.56 12.86-10.83 2.61-6.07 5-14.67-.52-19.9a8.36 8.36 0 0 0-9.21-2l1.61 2.09c7.14-6.35 11.12-16.65 7.78-25.94-3-8.41-11.07-14.27-20.14-12.81a16.23 16.23 0 0 0-11.31 7.38c-.83 1.35 1.16 2.41 2.06 1.21 5-6.6 5.9-16.27.57-22.94-4.91-6.13-13.91-8.21-20.32-3.15a13 13 0 0 0-5.11 11.16c.13 1.35 2.24 1.37 2.13 0-.55-6.51-3-14.05-9.8-16.41-7.15-2.49-14.48 2.2-18.47 7.88-2.6 3.7-4.26 8-5.9 12.15l1.9.26c-.34-6.6-9.17-9.18-14.12-5.75-6.78 4.69-5.86 14.74-2.52 21.18a25.68 25.68 0 0 0 9.76 10.28.64.64 0 0 0 .64-1.1z" fill="#d6275e" class="fill-18c4ff"></path><path d="M631 822.5q18.87-61.2 43.13-120.57a92.85 92.85 0 0 0 5.17-15c.49-2.26.86-4.68 2.35-6.45s4.09-2.64 6.46-3.29c46-12.58 93.9-16.29 141.48-19.6a7 7 0 0 1 4.13.57 6.86 6.86 0 0 1 2 2.33c3.63 5.68 7.27 11.37 10.33 17.37 9.73 19.06 13.39 40.75 13.63 62.15s-2.8 42.68-5.84 63.86c-.86 6-1.73 12.1-3.66 17.89" fill="#000000" class="fill-000000"></path><path d="M631.55 822.67c9.74-30 20-59.85 31.37-89.29q4.2-10.86 8.54-21.67c2.87-7.16 6.24-14.26 8.31-21.7.82-2.93.9-7 3.25-9.17a10.52 10.52 0 0 1 4.25-2.09c1.75-.53 3.53-1 5.3-1.44q11.37-3 22.89-5.28C746 665.86 777 662.8 808 660.44q5.75-.44 11.5-.84c3.73-.27 7.49-.71 11.23-.77 1.95 0 2.9.75 3.92 2.33s2.2 3.44 3.28 5.16c2 3.19 3.94 6.41 5.74 9.72 7 12.85 11.07 27 13.12 41.47 2.14 15.13 2 30.5.75 45.7-.64 8-1.59 16.06-2.64 24.06-1 7.77-2 15.56-3.2 23.3a68.69 68.69 0 0 1-2.44 11c-.38 1.18 1.47 1.68 1.86.51 2.47-7.53 3.59-15.36 4.72-23.18 1.16-8.11 2.29-16.22 3.18-24.35 1.73-15.76 2.64-31.67 1.35-47.5-1.21-14.83-4.3-29.55-10.18-43.26a142.51 142.51 0 0 0-10.85-19.9c-1-1.54-1.91-3.13-3-4.63a6.08 6.08 0 0 0-3.78-2.76 18.72 18.72 0 0 0-5 0l-6.23.44c-31.73 2.26-63.49 4.9-94.84 10.45q-11.8 2.08-23.48 4.77-5.85 1.35-11.64 2.87c-3.12.82-6.7 1.41-9.35 3.36s-3.35 5.13-4 8.24a73 73 0 0 1-3.59 11.07c-3 7.47-6.07 14.87-9 22.36-11.62 30-22.54 60.33-31.81 91.11q-1.68 5.58-3.32 11.16a.61.61 0 0 0 1.18.33z" fill="#000000" class="fill-000000"></path><path d="M660.42 447.64c-16.24 5.19-36 20.13-49.19 31-12.66 10.36-27.1 18.41-41.45 26.36-15.63 8.66-32.41 17.59-50.23 16.28-28.77-2.13-48.44-29.24-73.81-43-6.18-3.34-13.18-6-20.11-4.81-4.61.76-9.37 3.15-13.71 1.42-3.42-1.37-6.12-5.18-9.77-4.66-1.81.26-3.27 1.57-4.52 2.9-6.49 6.87-18.46 19.25-19.55 28.64-.95 8.2 8.17 13.09 9.52 21.24.74 4.48 1.5 9 3.32 13.16 2.16 4.94 5.71 9.11 9.26 13.17 32 36.61 71.68 71.73 120.09 76.42 28 2.72 56.33-5.32 81.24-18.48s46.84-31.25 68-49.87" fill="#ffffff" class="fill-ffffff"></path><path d="M660.25 447c-10.61 3.13-20.24 9.09-29.29 15.3-4.74 3.24-9.34 6.67-13.85 10.21s-8.93 7.3-13.61 10.69c-10.55 7.63-22 14-33.34 20.28-11.16 6.22-22.55 12.52-35.1 15.41a51.83 51.83 0 0 1-32.83-3.22c-9.45-4.18-17.82-10.43-25.91-16.79s-16.32-13.22-25.25-18.74c-5-3.09-10.33-6-16.09-7.3a24.74 24.74 0 0 0-9.11-.48c-3.1.45-6.05 1.68-9.17 2s-5.3-.76-7.71-2.49c-1.86-1.33-3.86-2.79-6.26-2.75-2.65.05-4.59 1.92-6.29 3.73-1.54 1.62-3.07 3.25-4.57 4.9a102.38 102.38 0 0 0-9.71 12.07c-2.43 3.65-4.8 7.85-5.15 12.32s2.24 8.25 4.74 11.7a38.31 38.31 0 0 1 3.75 5.91c1.2 2.56 1.38 5.43 1.92 8.18a38.78 38.78 0 0 0 7.32 16.48c3.57 4.67 7.61 9 11.57 13.34 15.4 16.88 32.18 32.78 51.28 45.42 18.5 12.24 39.34 21.15 61.52 23.53 25.31 2.72 50.83-3.4 73.75-14 23.17-10.67 43.84-26 63.3-42.36q7.14-6 14.13-12.18c1.1-1-.51-2.56-1.6-1.6-18.89 16.64-38.32 32.86-60.16 45.54s-46 21.66-71.28 22.92c-23 1.15-45.38-4.93-65.51-15.84-19.77-10.7-37.14-25.37-52.9-41.29q-6-6-11.7-12.35a164.48 164.48 0 0 1-11.37-13.23 33.27 33.27 0 0 1-4.53-8.16 53.05 53.05 0 0 1-2.25-9.14 23.29 23.29 0 0 0-2-6.85 43.67 43.67 0 0 0-3.72-5.71c-2.62-3.64-5-7.4-3.94-12.06s3.91-8.79 6.71-12.54a135.9 135.9 0 0 1 9.79-11.38c1.59-1.68 3.24-4 5.4-4.93 2.55-1.1 4.86.83 6.82 2.24a12.38 12.38 0 0 0 6.67 2.72c2.95.16 5.85-.83 8.67-1.52 6.58-1.63 12.93-.14 18.94 2.73 9.49 4.54 17.9 11.17 26.11 17.66 15.46 12.26 31.93 26.19 52.62 27 12.2.5 24-3.68 34.82-8.91 5.7-2.75 11.23-5.83 16.76-8.9s11.23-6.26 16.73-9.58 10.87-6.82 16-10.63c4.44-3.28 8.63-6.87 13-10.29a211 211 0 0 1 28.16-19.35 93.13 93.13 0 0 1 14-6.56c.74-.26.45-1.42-.33-1.2z" fill="#000000" class="fill-000000"></path><g fill="#d6275e" class="fill-18c4ff"><path d="M388 513.18c7.05-12.12 14-24.46 24.38-34.09l-1.28-1.28-1.1 1.38c-.64.82.43 2 1.18 1.18l1.18-1.28a.91.91 0 0 0-1.28-1.28c-10.38 9.72-17.49 22.35-24.12 34.78a.59.59 0 0 0 1 .59z"></path><path d="M380.46 503a46.69 46.69 0 0 0 3.76 3.55c.66.55 1.33 1.09 2 1.61.33.26.68.51 1 .76a6.41 6.41 0 0 0 1.13.73.66.66 0 0 0 .79-1 20.87 20.87 0 0 0-2.09-1.5c-.69-.49-1.35-1-2-1.54a47.31 47.31 0 0 1-3.77-3.44c-.55-.56-1.41.29-.86.86zM382.75 493.81a5.52 5.52 0 0 0 1.91 2.38c.84.77 1.69 1.53 2.57 2.27a31.08 31.08 0 0 0 5.67 3.91c.81.41 1.52-.81.71-1.21a29.55 29.55 0 0 1-5.32-3.52c-.82-.66-1.62-1.35-2.42-2.05-.65-.57-1.7-1.22-2-2.1a.6.6 0 0 0-1.16.32zM387.89 487.2a31.93 31.93 0 0 1 4.78 3.29c.73.6 1.42 1.24 2.09 1.91s1.32 1.49 2 2.18c.52.51 1.46-.16 1-.79a14.92 14.92 0 0 0-2.05-2.3c-.71-.7-1.45-1.36-2.22-2a31.32 31.32 0 0 0-5.07-3.31c-.67-.34-1.25.64-.59 1zM393.28 480.14l5.28 4.13 2.6 2a1.64 1.64 0 0 0 1.1.49.86.86 0 0 0 .84-.84c.07-.73-1.14-.89-1.29-.17.49-.23.64-.34.44-.32l-.21-.16-.55-.42-1.11-.84-2.07-1.59-4.31-3.24c-.55-.41-1.29.53-.74 1zM400.55 474.64a24.52 24.52 0 0 1 8.38 5c.62.57 1.54-.35.92-.91a26.15 26.15 0 0 0-9-5.26c-.73-.24-1 .9-.32 1.15zM663.78 456.33c8.52 7 12 17.91 13.44 28.44a144.77 144.77 0 0 1-.23 38.51 190.85 190.85 0 0 1-4.69 22.48.72.72 0 0 0 1.38.38 128 128 0 0 0 4.43-20.32 155.6 155.6 0 0 0 1.64-20.46c.17-11.78-.47-24.39-4.92-35.45a34.87 34.87 0 0 0-10.21-14.41c-.59-.48-1.43.35-.84.83zM670.54 550.31c1.7 0 3.42.06 5.13 0a.68.68 0 0 0 0-1.35c-1.71-.05-3.43 0-5.13 0a.67.67 0 0 0 0 1.33zM679.47 543.42c3.69 2.71 7.88-1.6 10.67-3.7a23 23 0 0 1 13.5-4.55c5.15 0 9.75 2 14.49 3.76s9.39 2.53 14.23 1c4.64-1.45 8.64-4.31 12.85-6.62a33.73 33.73 0 0 1 14.79-4.22 34.63 34.63 0 0 1 15.31 3 21.81 21.81 0 0 0 7.12 2.15 12.76 12.76 0 0 0 6.46-1.48c2.34-1.14 4.43-2.72 6.68-4a19 19 0 0 1 21.79 1.82c.69.62 1.7-.39 1-1a22 22 0 0 0-11.77-5.38 19.53 19.53 0 0 0-12.66 3c-4.14 2.49-8.17 5.89-13.33 4.59-2.53-.64-4.83-1.91-7.27-2.81a33.9 33.9 0 0 0-7.36-1.77 35.27 35.27 0 0 0-15.14 1.31c-4.76 1.51-8.86 4.25-13.18 6.66s-9.05 4.18-14.16 3.16-9.64-3.71-14.73-4.66a24.87 24.87 0 0 0-15.15 2 27.94 27.94 0 0 0-6.27 4.28c-1.87 1.61-4.77 4.17-7.3 2.46-.66-.44-1.24.6-.62 1.06zM656.92 588.46c13.48 2.65 20.79-12.4 32-16.35s23.09 1.55 34.41 2a30.84 30.84 0 0 0 16.18-4c4.81-2.62 9.4-6.08 14.83-7.3 5.9-1.32 11.21 1.37 16.43 3.75s10.3 4 15.86 2.41c6.31-1.86 11-6.69 16.79-9.55 5-2.48 11.81-3.68 16.1.8.82.85 1.94-.38 1.26-1.26-3.14-4-8.74-4.26-13.33-3.1-5.64 1.43-10 5.14-14.87 8.14a23.79 23.79 0 0 1-8.15 3.5 16.77 16.77 0 0 1-8.53-.92c-5.33-1.84-10.16-5.14-15.83-5.92-11.81-1.61-20.1 9.68-31.26 11.24-11.75 1.66-23.2-4.06-35-2.61a24.16 24.16 0 0 0-8.86 2.83 48.65 48.65 0 0 0-8.09 6.06c-5.42 4.72-11.92 10.53-19.71 9.14-.74-.13-1.07 1-.31 1.14zM667.77 616.28c4.5 2.77 10 2 14.68 0 5.32-2.28 9.69-6.26 14.92-8.7 9.92-4.64 21.34-2.14 31.83-1.8 5 .16 10.2-.09 15-1.8 5.26-1.88 9.1-5.84 13.93-8.46 9.42-5.1 20.46-.18 30.28.76a29.25 29.25 0 0 0 8.46-.3 31 31 0 0 0 8.07-3.19c2.87-1.48 5.82-3 9.1-3.27a15.17 15.17 0 0 1 9.17 2.45c1 .66 1.92-.93.95-1.63a16.15 16.15 0 0 0-15.52-1.51c-2.52 1-4.85 2.4-7.3 3.55a21.34 21.34 0 0 1-7.68 2c-10.24.7-20.11-4.48-30.36-2.73-5.47.93-9.44 4.4-13.89 7.42a28.83 28.83 0 0 1-14.94 4.73c-10.45.59-21-2.06-31.38.14-6.29 1.34-11.21 5-16.54 8.42s-12.26 6.28-18.16 2.81a.6.6 0 0 0-.6 1zM690.61 688.63a54.55 54.55 0 0 0 4.53 16.26 57 57 0 0 0 4.09 7.52c1.5 2.31 3.16 5 5.28 6.78.73.62 2-.18 1.41-1.09-1.52-2.32-3.48-4.34-5-6.67a58.21 58.21 0 0 1-4-7.1 61.43 61.43 0 0 1-5-15.88c-.13-.75-1.43-.58-1.34.18zM740.66 706a22.13 22.13 0 0 0 7.66-1.78 56.85 56.85 0 0 1 8-2.31 51.84 51.84 0 0 1 8.25-1c2.86-.13 5.69.11 8.55.16.93 0 1.18-1.47.23-1.66-5.3-1-11.12-.44-16.37.59a53 53 0 0 0-8 2.23 39.45 39.45 0 0 1-8.28 2.48c-.82.11-.88 1.32 0 1.33zM822.58 695.5a91.26 91.26 0 0 1 12.53-2.76 37.11 37.11 0 0 1 6-.29 25.06 25.06 0 0 1 3.23.32c.45.07 2.63.27 2.84.62l-.09-.69-.06.15.61-.61h.15l.62.83V693a.85.85 0 0 0-1.66-.23v.12a.87.87 0 0 0 .39 1 1.12 1.12 0 0 0 1.63-.54c.28-.8-.4-1.36-1.08-1.61a23.49 23.49 0 0 0-8.43-.89c-5.83.22-11.49 1.84-17.06 3.47a.65.65 0 0 0 .34 1.25zM833.54 255.91a89.35 89.35 0 0 1-4.49 8.28 63.39 63.39 0 0 1-2.52 3.77 8.45 8.45 0 0 1-3.07 2.78c-.94.44-.12 1.88.83 1.41 2.69-1.35 4.31-4.39 5.8-6.86a65 65 0 0 0 4.53-8.92c.25-.62-.8-1.06-1.08-.46z"></path><path d="M821.1 253.29a34.18 34.18 0 0 1 8.51 7.11c.6.69 1.62-.32 1-1a35.23 35.23 0 0 0-8.92-7.15.6.6 0 0 0-.6 1zM814.58 259.24a32.52 32.52 0 0 1 5.34 3.76 34.127 34.127 0 0 1 3.41 3.46 7.47 7.47 0 0 0 1.13 1.25.68.68 0 0 0 .82-.11.72.72 0 0 0 .11-.83 5.76 5.76 0 0 0-1-1.32q-.55-.63-1.14-1.23a31 31 0 0 0-2.46-2.27 33.69 33.69 0 0 0-5.55-3.77.61.61 0 0 0-.61 1.06zM894.71 386.62c1 .79 2.13 1.51 3.2 2.26l3.21 2.23a.7.7 0 0 0 1-.24.71.71 0 0 0-.25-.95l-3.23-2.2c-1.08-.74-2.14-1.5-3.25-2.19a.64.64 0 0 0-.86.23.65.65 0 0 0 .23.86zM899.12 377.79a23.66 23.66 0 0 1 9.52 7.93c.54.77 1.8 0 1.26-.73a25 25 0 0 0-10.1-8.36c-.78-.36-1.47.8-.68 1.16z"></path></g><path d="M822.2 248.3a105.89 105.89 0 0 0-17.29-21.3 29.55 29.55 0 0 0-8.09-5.88c-8.57-3.79-18.43 0-27 3.67-4.82 2.11-9.82 4.38-12.82 8.69a21.35 21.35 0 0 0-2.93 7.42 47.28 47.28 0 0 0-.9 15.55c.27 2.46 1.63 5.59 4.07 5.19 2-.32 2.71-2.78 3-4.79l2.53-17.48-.34 11c-.1 3.16.78 7.43 3.93 7.49 1.87 0 3.36-1.68 3.84-3.49a21.5 21.5 0 0 0 .23-5.56 20.39 20.39 0 0 1 4.33-12.51 25.31 25.31 0 0 0-3.44 17.42c.38 2.28 1.56 4.92 3.85 5.14 1.8.18 3.4-1.34 4-3a17.83 17.83 0 0 0 .6-5.37 26.77 26.77 0 0 1 5-14.42 26 26 0 0 0-2.36 17.31c.29 1.38.88 2.92 2.22 3.35 2.12.67 3.73-1.92 4.46-4l3-8.56a4.67 4.67 0 0 0 3.74.85" fill="#ffffff" class="fill-ffffff"></path><path d="M781.83 253.37a4.24 4.24 0 0 0 2.41 4.23 3.63 3.63 0 0 0 4.09-1.45 16.32 16.32 0 0 0 2.23-5l2.4-6.79-1.3.53a5.76 5.76 0 0 0 4.43 1c1.15-.2.67-2-.49-1.77a3.84 3.84 0 0 1-3.05-.73.9.9 0 0 0-1.3.53l-1.86 5.43a22.54 22.54 0 0 1-1.8 4.6c-.49.8-1.33 2.06-2.43 1.9s-1.74-1.86-2.18-2.77c-.27-.57-1.15-.27-1.15.31zM775 259.49a4.23 4.23 0 0 0 4.52-2.14c1.34-2.1 1.1-4.69 1.13-7.06a24.7 24.7 0 0 1 4.93-13.77c.68-1-.91-1.88-1.59-.92a27.9 27.9 0 0 0-4.76 11.77c-.33 2.19-.27 4.43-.6 6.61s-1.46 4-3.63 4.32c-.62.1-.56 1.05 0 1.19zM766.22 258.49a4.07 4.07 0 0 0 4.19-2.09c1.21-1.9 1.1-4.21.94-6.36a19.09 19.09 0 0 1 4.08-13.04.91.91 0 1 0-1.44-1.11 21.58 21.58 0 0 0-4.3 11c-.32 3.36 1 9.32-3.47 10.45a.63.63 0 0 0 0 1.2zM752.57 256.45c-.1 2.15.69 4.77 2.73 5.83s4.31-.38 5.14-2.4a14.87 14.87 0 0 0 .76-3.68c.27-1.89.57-3.78.85-5.67q.81-5.46 1.63-10.91c.17-1.16-1.61-1.65-1.77-.49-.8 5.75-1.48 11.55-2.44 17.28-.23 1.4-.78 4.44-2.74 4.28-1.75-.15-2.52-3.05-2.94-4.4a.62.62 0 0 0-1.22.16z" fill="#000000" class="fill-000000"></path><path d="M822.74 248a76.67 76.67 0 0 0-9.64-13.79A68 68 0 0 0 801 222.6a21.47 21.47 0 0 0-15.12-3.7c-5.57.65-10.84 2.72-16 4.9s-10.41 4.53-13.71 9.22c-.68 1 .91 1.88 1.58.92 2.75-3.94 7.24-6.07 11.52-7.95 4.79-2.1 9.69-4.16 14.86-5.1s10.71-.4 15.23 2.71c4.24 2.92 7.88 7 11.26 10.82a177.29 177.29 0 0 1 11 14.19.62.62 0 0 0 1.07-.62z" fill="#000000" class="fill-000000"></path><g fill="#d6275e" class="fill-18c4ff"><path d="M587.46 231.37c-13.77 20.37-24.68 44.36-22.53 69.49 1 11.28 4.47 22.48 11 31.8 3.11 4.45 7.12 9.72 12.5 11.42 5.15 1.62 11-.37 14.86-3.92 7.43-6.83 8.59-19.46 2.11-27.26a.92.92 0 0 0-1.29 0c-6.34 6.3-9.27 15.12-9.55 23.92-.33 10 2.87 19.66 7.21 28.55 2.69 5.52 5.83 10.8 9 16.05a.94.94 0 0 0 1.63-.95c-9.54-16.1-20.26-34.62-14.32-53.94a29.51 29.51 0 0 1 7.32-12.35h-1.29c5.56 6.66 4.72 17.35-1 23.65-3.37 3.72-8.85 6.06-13.85 4.69-2.89-.79-5.2-2.84-7.22-5a52.22 52.22 0 0 1-5.11-6.37c-12.6-18.54-13-42.55-6.41-63.34C574.6 255 581.1 243.14 588.57 232c.47-.69-.65-1.34-1.11-.65zM631.51 240a92 92 0 0 0 12 29.81c.48.77 1.7.07 1.23-.71a95.73 95.73 0 0 1-11.92-29.45c-.18-.82-1.43-.47-1.26.35zM671.77 225.13a214.73 214.73 0 0 0 3.3 31.59c.16.86 1.47.5 1.32-.36a218.32 218.32 0 0 1-3.39-31.23.62.62 0 0 0-1.24 0zM702 222.56a120.29 120.29 0 0 1-3.29 29.95c-.21.9 1.17 1.28 1.39.38a121.38 121.38 0 0 0 3.19-30.33.65.65 0 0 0-1.29 0z"></path></g></svg>