<svg viewBox="0 0 1000 1000" xmlns="http://www.w3.org/2000/svg"><path d="M189.13 504.15v.1a.52.52 0 0 0 .45.5.53.53 0 0 0 .56-.37c.18-.47.27-1 .5-1.43s.35-.88.7-1.07h.13c-.04 0 .07 0 0 0s-.05-.13 0 0 0 .16 0 0a2.1 2.1 0 0 1 0 .56c0-.13 0 0 0 0v.16c0 .05-.06.3-.08.45a10.77 10.77 0 0 0-.19 1.8 1.29 1.29 0 0 0 1.13 1.28 3.09 3.09 0 0 0 1.83-.18 2.26 2.26 0 0 0 1-1.05 7.26 7.26 0 0 0 .51-1.51 1.85 1.85 0 0 1 .56-1.1.78.78 0 0 0 .06-1 .79.79 0 0 0-1-.21c-.92.69-1 1.71-1.36 2.72a1.8 1.8 0 0 1-.21.48l-.1.14s.07-.09 0 0-.1.09 0 .05-.1.06-.12.07-.13 0-.15.05a2.41 2.41 0 0 1-.38 0h-.21c-.17 0 .1 0 0 0h-.11a.39.39 0 0 1 .27.26q0 .15 0 0c.05-.25 0-.54.06-.8s.08-.58.13-.87a4.37 4.37 0 0 0 .08-1.53 1.63 1.63 0 0 0-1.05-1.27 1.84 1.84 0 0 0-1.74.4 3.38 3.38 0 0 0-1 1.67 4.76 4.76 0 0 0-.18 2l1-.13v-.1a.5.5 0 0 0-1 0zM310.85 259.35c10.49 6 21.37 11.42 32.17 16.84s21.74 10.67 32.79 15.59c2.77 1.24 5.54 2.46 8.33 3.64a24.78 24.78 0 0 0 6.88 2 9.11 9.11 0 0 0 6.41-1.47c2-1.47 3-3.77 3.9-6 3.58-9.06 4.18-18.92 5.49-28.48a77.47 77.47 0 0 1 3.43-15.57 36.63 36.63 0 0 1 3.41-7.08c1.21-1.94 3.34-5.55 6.09-5.09a1.34 1.34 0 0 0 1.65-1.26c.35-2.67 2.44-4.69 4.76-5.81a12.2 12.2 0 0 1 8.56-.55 34.59 34.59 0 0 1 9.21 4.37c1.26.78 2.85 1.62 3.51 3 .42.87.37 2.34-.75 2.64a1.4 1.4 0 0 0-.33 2.53c5.46 2.66 4.16 11.05 3.9 15.93q-.66 12.14-1.86 24.22c-.81 8.2-1.75 16.39-3 24.53a125.44 125.44 0 0 1-5.11 22.51c-2.2 6.38-5.46 12.69-10.84 16.95-5.68 4.5-13.18 6.63-20.21 7.85-15.12 2.63-30.64 0-45.11-4.61-16.85-5.41-33-13.25-48.76-21.17-1.65-.82-3.11 1.64-1.45 2.49 14.62 7.52 29.7 14.61 45.22 20.06 15 5.27 31 8.58 46.89 6.67 7.56-.9 15.41-2.8 22-6.72 6.24-3.71 10.53-9.57 13.38-16.15 3.1-7.17 4.85-14.89 6.16-22.56 1.43-8.34 2.44-16.76 3.34-25.16.91-8.55 1.57-17.12 2.05-25.69a89.81 89.81 0 0 0 .31-10.88c-.18-2.79-.72-5.77-2.43-8.06a8.34 8.34 0 0 0-3.11-2.6l-.33 2.53c2.69-.74 3.63-4 2.53-6.35-1.35-2.93-5-4.61-7.67-6.07-5.66-3.1-12.59-5.11-18.49-1.44a10.29 10.29 0 0 0-5 7.51l1.65-1.25c-4.95-.81-8.14 4.5-10.15 8.24a49.22 49.22 0 0 0-4.58 13.18c-2 9.44-2.26 19.15-4.39 28.56a55.9 55.9 0 0 1-2 6.82c-.83 2.31-1.77 5.14-4.1 6.33-2.06 1.06-4.57.63-6.7 0a59.39 59.39 0 0 1-7.48-3c-11.1-4.84-22.05-10-32.92-15.34-12.19-6-24.18-12.38-36.5-18-.91-.42-1.69.84-.8 1.35z" fill="#000000" class="fill-000000"></path><path d="M425.79 214.84a77.5 77.5 0 0 1 4.57-18.05c.94-2.41 2.21-5 4.61-6s5.86 1 5.16 3.51c1.34-1.47 3.22-2.68 5.21-2.49s3.79 2.3 3.08 4.17a4.15 4.15 0 0 1 7.32 3.88c1.88-2.11 5.65-1.06 7.21 1.29s1.56 5.37 1.49 8.19a4.82 4.82 0 0 1-.68 2.88c-.62.79-2 1-2.57.17-1.15 6.21-2.87 12.47-6.49 17.65s-9.41 9.17-15.73 9.25c-4.79.07-9.39-2.08-13.13-5.07" fill="#ffffff" class="fill-ffffff"></path><path d="M426.53 215a78.35 78.35 0 0 1 4.47-17.07c.81-2.09 1.75-4.57 3.75-5.8 1.39-.86 4.85-.37 4.34 1.9a1.1 1.1 0 0 0 1.83 1.07c1.09-1.14 2.58-2.32 4.26-2.16a2.3 2.3 0 0 1 2.16 2.76c-.39 1.27 1.39 1.9 2.07.87a3.14 3.14 0 0 1 4.09-1 3.19 3.19 0 0 1 1.14 4c-.47 1.12 1.19 1.91 1.95 1.14 2.15-2.19 5.28.38 6 2.57a14.24 14.24 0 0 1 .56 4.86 19.77 19.77 0 0 1-.08 2.18c0 .33-.42 1.84-1 1.17a1.31 1.31 0 0 0-2.18.57c-1.52 8.12-4.08 16.75-10.84 22.07a16.89 16.89 0 0 1-10.5 3.87c-4.33-.06-8.42-2.06-11.76-4.7-1.34-1-3.24.83-1.89 1.89 5.65 4.46 12.89 7 19.92 4.35 6.62-2.47 11.37-8.07 14.1-14.44a57.43 57.43 0 0 0 3.52-12.34l-2.17.58c1.71 2.06 4.62.41 5.22-1.74a13.83 13.83 0 0 0 .26-4.06 18 18 0 0 0-.49-4.15 7.54 7.54 0 0 0-4.28-5.29 5.36 5.36 0 0 0-6.06 1l1.95 1.14a5.29 5.29 0 0 0-9.43-4.76l2.07.87a4.48 4.48 0 0 0-3.06-5.36c-2.65-.9-5.34.74-7.1 2.61l1.83 1.07c.56-2.55-1.45-4.6-3.86-5.05-2.91-.54-5.24 1.54-6.57 3.92a43.5 43.5 0 0 0-3.56 9.92 80.57 80.57 0 0 0-2.19 11.38c-.1.85 1.4 1.06 1.52.2zM305 382.88c53.27 130.3 84.65 280.68 95 421.12 2.6 35.32 1.68 70.69 28.28 89.31 2.4 1.68.79 5.69-2 6.6-13.93 4.55-23.45 4.18-50.55 2-8.93-.73-12.37-10.06-13.69-17.64-1.24-7.12-2.32-14.09-4.75-20.94-2.74-7.71-5.7-15.33-8.72-22.93-6-15.21-12.31-30.34-17.45-45.88-.63-1.88-1.23-3.77-1.82-5.66-14.1-45.4-28.3-91.54-28.58-139-.05-9.62.46-19.32-1.2-28.8-2.95-16.75-12.41-31.5-20.3-46.58a270.77 270.77 0 0 1-30.53-132.77c.6-20.09 3.69-40.77 14.25-57.87" fill="#000000" class="fill-000000"></path><path d="M304.25 383.09q21.19 52.83 37.48 107.4 16.66 55.59 28.56 112.45t19.6 114.79q3.71 28.17 6.36 56.45c1.67 17.85 2.72 35.72 4.06 53.59 1.13 15 2.78 30.43 9 44.26a55 55 0 0 0 12 17.19 52.62 52.62 0 0 0 4.18 3.58c1.7 1.31 3.7 2.72 1.75 4.89-1.62 1.8-5.61 2.28-7.91 2.81-12.81 3-26.32 1.46-39.27.44-4.15-.33-8-.43-11.11-3.57a21 21 0 0 1-4.82-9.21c-1.11-3.92-1.57-8-2.33-12a95.24 95.24 0 0 0-3.9-14.67c-7-19.48-15.35-38.43-22.36-57.91-6.83-19-12.48-38.46-17.88-57.87s-10-39-12.87-58.88a280.39 280.39 0 0 1-2.72-31c-.3-10.09.43-20.25-.68-30.3-2-18.53-11.89-34.38-20.39-50.53a269.73 269.73 0 0 1-30.67-110c-1.07-18.43-.81-37.53 3.62-55.55a87.63 87.63 0 0 1 10.13-24.91c.88-1.44-1.39-2.76-2.27-1.32-9.59 15.73-13.11 34.13-14.16 52.31a265 265 0 0 0 3.09 57.1 271.71 271.71 0 0 0 27.15 82.14c4.44 8.52 9.34 16.81 13.39 25.54a81.78 81.78 0 0 1 7.88 28.69c.73 10.4.06 20.86.55 31.27 1 20.31 4.3 40.45 8.88 60.24 4.69 20.3 10.67 40.26 16.82 60.15s13.64 39.26 21.36 58.64c3.91 9.81 8.32 19.73 11 30 2.08 7.94 2.24 16.62 5.65 24.17a17.77 17.77 0 0 0 5.68 7.34c3 2.16 6.46 2.34 10.06 2.62 7.93.64 15.89 1.31 23.86 1.31a75.79 75.79 0 0 0 16-1.54c4.18-.9 12.6-2.18 11.52-8.29a4.32 4.32 0 0 0-1.71-2.64c-1.64-1.36-3.39-2.54-5-4a49.37 49.37 0 0 1-7.65-8.86 66.61 66.61 0 0 1-8.91-20.49c-4.3-16.24-4.7-33.27-5.8-50-1.26-19-3-37.95-5.08-56.86q-6.36-58.41-17.23-116.21-11-58.29-26.64-115.55-15.52-56.63-36.34-111.61-5-13.08-10.37-26c-.39-.94-1.95-.54-1.56.43z" fill="#000000" class="fill-000000"></path><path d="M262.45 392.19a818.25 818.25 0 0 1 16.69 166.72c-.06 22.58-1.47 47.09-13.47 66.92-11.59 19.16-34.09 29.2-56 29.32-35.59.19-62.76-26.55-83.24-52.76a502 502 0 0 1-34.46-50.8c-9.72-16.21-17.53-32.68-29.74-47.21-9.59-11.38-19.71-18.09-33.4-18.95a4.13 4.13 0 0 1-2.77-6.88q6.23-7 12.47-13.92c8.15-9.09 19.42-19.05 31-15.08 3.38 1.17 6.25 3.45 9 5.68l119 95.21C188 523.09 179.18 495 178.3 466.08s7-59.24 27-80.16" fill="#000000" class="fill-000000"></path><path d="M261.7 392.4c5.52 28 9.77 56.17 12.51 84.55a803.55 803.55 0 0 1 3.75 84.4c-.11 12.26-.67 24.6-3.14 36.64-2.37 11.55-6.53 23.27-13.94 32.6-13.66 17.21-36.92 25.06-58.41 22.94-22.39-2.21-41.54-15.62-57-31.2a256.07 256.07 0 0 1-22.28-26.26c-8.24-11-15.94-22.3-23.23-33.91-7.09-11.28-13.49-22.94-20.23-34.44-6.36-10.83-13.33-21.8-22.47-30.52-7.67-7.31-17-12.14-27.65-13a3.49 3.49 0 0 1-2.66-1 2.92 2.92 0 0 1-.53-2.94c.51-1.28 1.91-2.4 2.81-3.41l3.77-4.17c4.36-4.88 8.58-9.95 13.47-14.3 4.31-3.82 9.44-7.45 15.27-8.33a15.43 15.43 0 0 1 8.41 1.07 35.41 35.41 0 0 1 7.92 5.31l34.05 27.25 68.09 54.51 16.4 13.12c.86.7 2.52.09 2.07-1.2-8.06-23.17-15.66-46.82-18.26-71.32-2.25-21.19-.53-43 7.41-62.91a90.73 90.73 0 0 1 18.38-29.06c1.12-1.18-.66-3-1.79-1.79-14.47 15.2-22.74 35.25-25.88 55.82-3.53 23.2-.56 46.73 5.15 69.33 3.48 13.74 7.94 27.21 12.6 40.59l2.07-1.21-69.79-55.84-34.89-27.92c-5.69-4.55-11.29-9.28-17.13-13.64-4.82-3.6-10.23-5.52-16.25-4.33-5.85 1.16-11 4.78-15.41 8.64-5 4.38-9.25 9.5-13.67 14.42l-3.57 4a23.41 23.41 0 0 0-3.26 3.85 5.5 5.5 0 0 0 .6 6.08c1.63 2 3.93 1.86 6.26 2.14a38.77 38.77 0 0 1 8 1.82c11 3.74 19.31 12.58 26.13 21.68 8 10.74 14.36 22.6 21 34.21 13.37 23.4 28.39 46.25 45.76 66.89 14.43 17.15 31.74 33.36 53.29 40.84 21.07 7.31 45.63 4.66 64.17-8a61.08 61.08 0 0 0 21.35-25.93c5.09-11.38 7.46-23.74 8.53-36.11 1.14-13.2 1-26.51.72-39.74q-.41-21.84-2-43.63a806.08 806.08 0 0 0-10.93-86.34q-1.87-10.35-4.07-20.64c-.2-1-1.68-.56-1.49.41z" fill="#000000" class="fill-000000"></path><path d="M250.18 246.47c-13.44 1.09-27.07 3-39.28 8.68S188 271 184.33 284c-1.57 5.63-1.76 11.54-1.7 17.38a213 213 0 0 0 4.5 41.59c2.21 10.62 5.26 21.38 3.89 32.14a36.5 36.5 0 0 0-.67 7.57c.38 4.55 3.26 8.61 6.89 11.37s8 4.41 12.29 5.88a212.48 212.48 0 0 0 65.15 11.32c5.4.08 10.87-.05 16.09-1.45 8.1-2.17 15.16-7.32 20.89-13.45 3.58-3.84 6.86-8.47 7-13.72.08-3-.92-6-1.24-9-.57-5.35 1-10.68 2.36-15.88 2.94-10.89 5-21.9 7.52-32.88a188.46 188.46 0 0 0 4.7-29.54c.56-8.85-.73-18.22-6-25.37-4.47-6.09-11.37-10-18.47-12.6-13.67-5-28.6-9.1-43.22-9.64-7.33-.28 0 0-7.12-1.76" fill="#ffffff" class="fill-ffffff"></path><path d="M326.83 269.47a31.52 31.52 0 0 0-11.49-10.11 94 94 0 0 0-15.81-6.16 134.87 134.87 0 0 0-35.89-6.85c-.59 0-1.18 0-1.77-.1h-.6c-.58.22 1 1 .76 1.55a1.67 1.67 0 0 0 0-.86c-.47-1.59-3.13-2.06-4.42-2.45-2-.61-2.83 2.66-.84 3.05.91.17 1.95.44 2.75.67.29.08.16.26.08 0a5 5 0 0 0-.34-.75c-.11 1.33 1.34 1.54 2.31 1.57a115.82 115.82 0 0 1 16.52 1.52 144.26 144.26 0 0 1 17.61 4.26 115.35 115.35 0 0 1 15.95 5.76 39.2 39.2 0 0 1 13.67 10.12c.69.85 2.14-.27 1.52-1.18zM250.18 245.5c-13 .95-26.21 2.58-38.29 7.76-10.08 4.33-19.32 11.55-24.92 21.1-6.59 11.26-6 24.51-5.32 37.1q.57 10.08 2.06 20.08c1 6.49 2.39 12.87 3.79 19.27 1.47 6.73 2.77 13.56 2.51 20.48-.13 3.49-1.08 6.94-1 10.43a15.43 15.43 0 0 0 2.46 8c3.3 5.21 8.8 8.18 14.41 10.31a176.63 176.63 0 0 0 19.24 5.92 213.37 213.37 0 0 0 40.59 6.3c6.77.39 13.69.73 20.43-.18a39.63 39.63 0 0 0 17-6.58 51.85 51.85 0 0 0 12.82-12.21 21.22 21.22 0 0 0 3.64-7.51c.73-3.16.23-6.22-.37-9.35a27.82 27.82 0 0 1-.07-10.45c.61-3.3 1.58-6.53 2.43-9.78 1.82-6.93 3.36-13.93 4.93-20.92.76-3.33 1.51-6.67 2.31-10 .48-2-2.61-2.82-3.05-.84-1.46 6.69-2.77 13.41-4.22 20.1-.73 3.34-1.49 6.68-2.32 10s-1.81 6.49-2.49 9.79a30.2 30.2 0 0 0-.63 9.52c.36 3.07 1.37 6.1 1.2 9.21-.32 5.77-4.68 10.62-8.61 14.45a45 45 0 0 1-14.37 9.75c-6 2.39-12.33 2.78-18.68 2.72a209.08 209.08 0 0 1-39.66-4.26c-6.35-1.29-12.65-2.88-18.85-4.75-6-1.81-12.46-3.57-17.76-7-5-3.26-8.21-8.27-7.62-14.33.32-3.25.93-6.42 1-9.71a64.81 64.81 0 0 0-.75-9.84c-1-6.6-2.65-13-4-19.58q-1.84-9.18-2.8-18.51c-.67-6.51-1-13.06-1.17-19.6s0-13.17 2.08-19.44c3.27-10 11-18.1 19.81-23.54 10.54-6.46 22.86-9.37 35-10.92 3.09-.4 6.19-.72 9.29-1 1.24-.12 1.26-2 0-1.95z" fill="#000000" class="fill-000000"></path><path d="M720.36 482.16a1705.86 1705.86 0 0 1 7.39-206.68c2.29-23.6 7.48-50.85 28.5-61.81 9.84-5.13 21.52-5.52 32.51-4 33.34 4.6 62.23 25.16 87.39 47.5 42.52 37.76 79.83 84.6 92.57 140 6.39 27.83 6.34 56.69 6.26 85.25l-.58 210.41c-.12 42.91-.5 87.18-17.45 126.6s-55 73.09-97.83 71.16c-7-.31-14-1.61-19.93-5.3-8.33-5.23-13.15-14.43-17.58-23.21l-41-81.34" fill="#02d19a" class="fill-18c4ff"></path><path d="M721.19 482.16c-.9-46-.16-92 2.47-137.9q2-34.68 5.4-69.25c1.61-16.09 4.18-33.5 13.47-47.19a38.8 38.8 0 0 1 20.39-15.49c9.84-3.09 20.51-2.46 30.51-.58 19.21 3.61 36.93 12.52 53 23.49s30.79 24 44.68 37.65a345.07 345.07 0 0 1 38.17 43.82 243.77 243.77 0 0 1 28.08 49.42 207.25 207.25 0 0 1 14.53 59.18c2.19 22.13 1.82 44.42 1.75 66.62l-.19 69.23q-.2 69.23-.35 138.43C972.88 741 972 784.7 954 822.9c-14.54 30.84-42.22 58.51-76.63 65.13-9 1.73-18.75 2.18-27.71.13-10.4-2.39-17.25-9.26-22.49-18.24-5.36-9.19-9.81-19-14.61-28.47l-15.63-31q-7.67-15.18-15.39-30.31c-.65-1.28-2.56-.15-1.92 1.12q16.29 32.54 32.69 65c4.79 9.5 9.09 19.57 15 28.46 5 7.56 11.68 13.17 20.58 15.49 16.65 4.33 35.43.53 50.76-6.57 15.8-7.32 29.53-18.86 40.46-32.34 25.63-31.62 33.44-72.63 35.66-112.3 1.26-22.61 1-45.29 1.06-67.93l.22-72 .2-71.94c.06-23.81.45-47.65 0-71.46-.44-22.16-2.14-44.45-7.94-65.92a216.92 216.92 0 0 0-22.76-53.24c-19.95-33.72-47.47-63.07-77.55-88.11-15.11-12.59-31.43-24.07-49.63-31.75-17.23-7.28-38.91-12.81-57.26-6.48-15.63 5.39-24.63 19.53-29.24 34.7-5.66 18.69-6.29 38.9-7.81 58.23q-5.69 71.81-5.23 143.9.12 17.58.67 35.16a.83.83 0 0 0 1.66 0z" fill="#02d19a" class="fill-18c4ff"></path><path d="M837.82 545.86c26.62-25 27.51-68 14.76-102.25a165.45 165.45 0 0 0-36.21-57.31c-25.67-26.45-59.15-43.35-92.85-58.69q-5.09 77.16-3.16 154.55l15.42 76.48c15.52 4.79 31.57 8 47.76 7.6 19.76-.51 39.87-6.85 54.28-20.38z" fill="#000000" class="fill-000000"></path><path d="M838.62 546.65c12.3-11.61 19.4-27.48 21.9-44.06 2.58-17.12.76-34.83-4.2-51.37a161 161 0 0 0-27.14-51.86c-12.37-16-27.69-29.3-44.46-40.48-17-11.33-35.28-20.52-53.78-29.09q-3.42-1.59-6.86-3.15a1.14 1.14 0 0 0-1.69 1q-2.49 38-3.3 76-.81 37.78.07 75.57a23.93 23.93 0 0 0 .31 4.24l.71 3.52 2.63 13 7.19 35.88c1.53 7.56 2.81 15.22 4.58 22.72 0 .12 0 .25.08.37a1.12 1.12 0 0 0 .78.78c27.52 8.47 58 11.9 84.89-.76a71.37 71.37 0 0 0 18.25-12.31c1.06-1-.54-2.57-1.59-1.59-20.21 18.85-49.57 22.68-75.91 18.48a185.36 185.36 0 0 1-25-6l.79.78-3.81-18.89-7.23-35.85-2.93-14.52c-.47-2.33-1.1-4.69-1.42-7a31.35 31.35 0 0 1-.08-3.36c-.07-3.14-.14-6.29-.19-9.44q-.16-9.45-.22-18.89-.12-18.9.18-37.79.6-37.79 2.87-75.52c.19-3.14.39-6.29.6-9.43l-1.69 1c18.26 8.31 36.39 17 53.46 27.63 16.82 10.44 32.52 22.79 45.51 37.8a163.06 163.06 0 0 1 30.08 51.2 120.74 120.74 0 0 1 7.12 50.06c-1.3 16.46-6.81 32.87-17.86 45.39q-2 2.26-4.22 4.35c-1.04 1 .52 2.59 1.58 1.59z" fill="#000000" class="fill-000000"></path><path d="M797.51 442.53c-144.58-10.56-286-53.46-426.94-86.48-14.4-3.37-30.66-6.46-43.07 1.58-13.48 8.73-16.68 26.76-18.41 42.73a1780.65 1780.65 0 0 0-4.65 335.42c1.59 19.65 3.8 40.16 14.6 56.65 13 19.9 36.16 30.39 58.29 39.13 143.42 56.68 299.67 83.16 453.21 68.87 37.91-3.53 81.08-13.21 98.77-46.93 8.94-17.06 9.38-37.14 9.62-56.4q1.64-132.11 3.26-264.21c.52-42 2.74-78.78-44.28-89.21-33-7.33-67.18 2.5-100.4-1.15" fill="#02d19a" class="fill-18c4ff"></path><path d="M797.51 441.59c-75.45-5.65-149.91-20-223.53-37.11-36.8-8.54-73.43-17.77-110.07-27q-27.42-6.87-54.86-13.64-13.69-3.34-27.4-6.62c-8.34-2-16.67-4.2-25.18-5.37-14.11-1.94-28.8.16-37.83 12.27-8.45 11.32-9.88 26.35-11.32 39.94q-6.1 57.24-8.49 114.8t-1 115.1c.88 37.84 2.27 76 6.37 113.62 1.73 15.79 4.86 32 13.7 45.49 8.1 12.42 20.2 21.37 33.1 28.23 14.27 7.57 29.62 13.16 44.72 18.8q25.51 9.54 51.48 17.78a1019.49 1019.49 0 0 0 212.17 43.53 933.82 933.82 0 0 0 108 4q26.9-.58 53.72-2.78c14.42-1.18 28.83-2.71 43-5.85 25.29-5.61 51.59-16.87 65.11-40.26 8.25-14.26 10.24-30.93 10.83-47.1.67-18.9.57-37.85.8-56.76l2.82-229c.24-20.86 1.15-45.56-12.59-62.84-18.2-22.91-53.42-22.18-79.67-20.61-17.94 1.07-35.92 2.93-53.88 1-1.6-.17-1.59 2.34 0 2.5 35.26 3.71 71.77-7.7 106.36 2.79 10.93 3.31 21.07 9.3 27.41 19 5.62 8.62 7.9 18.93 8.92 29 1.19 11.87.85 23.84.69 35.74q-.39 27.95-.7 55.88-.71 56.52-1.4 113l-.71 57.16c-.23 18.38 0 36.82-.85 55.19-.73 16.45-3.28 33.24-12.67 47.18-7.25 10.76-17.75 18.79-29.29 24.53-26.07 13-56.19 15.35-84.78 17.35a909.32 909.32 0 0 1-105.71 1.19A993.66 993.66 0 0 1 495.13 869q-51.19-13.66-100.88-32.39c-28.09-10.58-62-21.64-77-50-7.76-14.6-9.78-31.44-11.16-47.67-1.59-18.62-2.79-37.28-3.74-56q-2.85-56.24-2.15-112.57T305.14 458q2.14-28.23 5.18-56.38c1.47-13.53 3.38-29.38 13.64-39.4 12.11-11.84 30.4-8.5 45.24-5.08 17.85 4.11 35.65 8.48 53.44 12.86 35.66 8.78 71.24 17.83 106.93 26.47 70.95 17.17 142.43 32.88 214.93 41.8q26.44 3.24 53 5.2c1.21.08 1.2-1.79 0-1.88z" fill="#02d19a" class="fill-18c4ff"></path><path d="M351.2 406.87a57.14 57.14 0 0 1 21.86-12.21c2.06-.61 4.37-1.08 6.28-.1s2.87 3.1 3.65 5.1a2.33 2.33 0 0 1 .19 1.76 2.38 2.38 0 0 1-1.63 1l-7.45 2.14c5.08-1.71 10.55-2.71 15.82-1.7s10.31 4.28 12.4 9.22c.42 1 .58 2.4-.38 2.88a2.33 2.33 0 0 1-1.41.08 66.7 66.7 0 0 1-10.15-2.45c3.9 1 8.05 2.13 10.72 5.13a3.39 3.39 0 0 1 1 2.26 2.73 2.73 0 0 1-2.18 2.37 7.24 7.24 0 0 1-3.42-.22 46.92 46.92 0 0 1-7.33-2.41l8.79 4.55a4.59 4.59 0 0 1 1.64 1.2c1 1.38 0 3.52-1.57 4.19a6.62 6.62 0 0 1-5-.4 23.18 23.18 0 0 0-4.81-1.82 35.75 35.75 0 0 1 6.91 4.93 4.61 4.61 0 0 1 1.43 1.88 4.21 4.21 0 0 1-.83 3.45 11.8 11.8 0 0 1-4.3 3.88 3.27 3.27 0 0 1-2.61.45 2.6 2.6 0 0 1-1.46-2.69 7.73 7.73 0 0 1 1.18-3.05 4.16 4.16 0 0 1-2.55 1.43 46.53 46.53 0 0 1-34.18-4.26 4.92 4.92 0 0 1-1.56-1.18c-1.1-1.43-.56-3.87-2-4.91" fill="#ffffff" class="fill-ffffff"></path><path d="M395.83 434.51c.32 2.3-2.6 4.57-4.31 5.64-.74.46-2.18 1.37-2.72.22s.34-2.46.87-3.41c.66-1.18-1.05-2.65-2-1.51-1.11 1.39-3.67 1.56-5.31 1.88a40.15 40.15 0 0 1-5.57.68 42.32 42.32 0 0 1-11.72-.91 46.55 46.55 0 0 1-10.89-3.84 16.42 16.42 0 0 1-2.36-1.32 2.86 2.86 0 0 1-1-2c-.3-1.5-.58-2.85-1.94-3.73s-2.69 1.05-1.63 2.12.82 2.86 1.5 4.14c.92 1.72 3 2.51 4.66 3.29a48.68 48.68 0 0 0 12 3.86 49.3 49.3 0 0 0 12.6.7 44.87 44.87 0 0 0 6.21-.89c1.8-.38 3.95-.73 5.16-2.24l-2-1.51c-1 1.72-1.84 3.66-1 5.61a3.5 3.5 0 0 0 4.59 1.85c3.23-1.13 7.57-5.35 6.29-9.09a.81.81 0 0 0-1.56.43zM398.87 425.72a2.86 2.86 0 0 1-.49 2.21 3 3 0 0 1-2.6.88 10.58 10.58 0 0 1-3.51-1.27c-1.31-.59-2.88-1.61-4.36-1.36a1.37 1.37 0 0 0-.32 2.47 5 5 0 0 0 1.37.4 12.34 12.34 0 0 1 1.22.38c.75.28 1.44.68 2.2.92a10.84 10.84 0 0 0 5.09.81 4.59 4.59 0 0 0 3.39-2.52 2.88 2.88 0 0 0-.8-3.83.82.82 0 0 0-1.19.91zM400.32 418c.3.81 1 1.92.26 2.67s-2.13.68-3.15.5a33.19 33.19 0 0 1-4-1.21 19 19 0 0 1-1.83-.67 8.48 8.48 0 0 0-2.36-.86 1.36 1.36 0 0 0-1 2.3 8 8 0 0 0 2.73 1.16c.88.27 1.75.64 2.65.84a27.44 27.44 0 0 0 5.3 1 4.5 4.5 0 0 0 4.07-2.23 3.27 3.27 0 0 0-1.51-4.44c-.57-.31-1.44.21-1.19.91zM401.52 412.12v1.17s-.05.21-.06.27 0 .49-.05.28c0 .2-.09.06.06 0a3.28 3.28 0 0 1-1.35-.1l-2-.34c-1.29-.24-2.48-.65-3.74-1-.62-.16-1.24-.33-1.85-.55a6.75 6.75 0 0 0-2.09-.6 1.35 1.35 0 0 0-.68 2.5 7.47 7.47 0 0 0 2.51.76 22.9 22.9 0 0 0 2.31.57c1.62.23 3.18.71 4.78 1s3.31.6 4.21-.95a3 3 0 0 0-.61-3.63.82.82 0 0 0-1.38.57zM351.61 407.57c3.15-2.17 6.24-4.47 9.54-6.41a56.57 56.57 0 0 1 10.6-4.82 14.34 14.34 0 0 1 5.3-1.15c2 .12 3.1 1.43 3.95 3.13a7.88 7.88 0 0 1 .87 2c.11.66 0 .66-.66.85-.47.15-.94.26-1.41.38a43.62 43.62 0 0 0-6.38 1.86c-1.52.68-.33 2.65 1 2.46a40.9 40.9 0 0 0 6.05-1.76c1.42-.44 3.34-.77 3.91-2.37.52-1.45-.4-3.15-1-4.43a8.72 8.72 0 0 0-2.85-3.46c-2.93-2-6.8-.76-9.85.26a58 58 0 0 0-10.25 4.55 37 37 0 0 0-9.82 7.61c-.57.64.18 1.82 1 1.27zM916.18 426.29c-29.1 10.18-60.33 11.8-90.9 11.57q-6.48-.06-13-.2l-6.46-.14a42.2 42.2 0 0 0-6.46 0c-1.31.18-1.95 2.28-.35 2.58 3.69.68 7.68.43 11.43.5 3.93.07 7.86.13 11.8.16 7.79.06 15.59 0 23.38-.26a263.06 263.06 0 0 0 46-5.14 180.71 180.71 0 0 0 25.07-7.21c1.17-.44.68-2.32-.52-1.9zM297.49 532.57c-3.61-1.06-7.49 1.5-9.22 4.85s-1.84 7.26-1.91 11l-1.05 56.72c-.1 5.5-.19 11.14 1.57 16.36 3.59 10.66 13.14 16.72 22.83 21.29 11.35 5.36 23 11.61 35.66 13 15 1.65 17.57-12 18.59-23.66 1.37-15.74 2-24 1.74-39.8-.11-5.64 1.08-12.24-1.91-17.36-3.4-5.8-11.76-7.25-17.69-9.23-15-5-49.07-11.79-48.8-32.77" fill="#000000" class="fill-000000"></path><path d="M297.73 531.72a8.47 8.47 0 0 0-7.65 1.82 13.08 13.08 0 0 0-4.3 7.64c-.75 3.5-.62 7.18-.69 10.74l-.24 11.45-.48 23.38c-.16 7.66-.5 15.35-.42 23 .06 6.66 1.16 13.17 4.94 18.78A39.27 39.27 0 0 0 301.5 640c5.48 3.32 11.45 5.91 17.25 8.62a103.19 103.19 0 0 0 19.66 7.35c5.31 1.26 11.25 2.29 16.37-.16 3.85-1.84 6.28-5.48 7.77-9.36a50.72 50.72 0 0 0 2.63-13.45c.6-6.39 1.13-12.81 1.48-19.22.35-6.26.44-12.53.35-18.79-.05-3.3.07-6.58.09-9.88a23.1 23.1 0 0 0-1.39-9c-2.11-5.13-7.06-7.63-12-9.31-4-1.37-8.16-2.58-12.25-3.81-8.29-2.49-16.69-4.87-24.54-8.59-7-3.3-14.88-8.1-17.49-15.83a17.2 17.2 0 0 1-.88-5.56 1.2 1.2 0 0 0-2.39 0C296 550.58 317 558 330.7 562.38c3.7 1.18 7.44 2.25 11.16 3.38 4 1.22 8.14 2.37 12.1 3.79a20.5 20.5 0 0 1 6.46 3.43 11.73 11.73 0 0 1 3.85 7.22 45.2 45.2 0 0 1 .2 9c-.11 3.35 0 6.71 0 10.07a328.75 328.75 0 0 1-2.1 35.49c-.82 7.54-2.75 17.7-11.5 19.58a22.24 22.24 0 0 1-8.29-.23 65.23 65.23 0 0 1-9.52-2.46 163.36 163.36 0 0 1-18.7-8.06c-10.12-4.86-21.51-10.14-25.84-21.35-2.53-6.53-2-13.72-1.86-20.57l.37-22.39.37-22.39c.06-3.55.06-7.1.19-10.64.12-3.24.42-6.82 2.36-9.55 1.63-2.28 4.42-4 7.28-3.3a.88.88 0 0 0 .47-1.69z" fill="#000000" class="fill-000000"></path><path d="M306.14 582.06a12.12 12.12 0 0 0-5.16 7.88 21.15 21.15 0 0 0 .53 9.58 16.09 16.09 0 0 0 4 7.66c2.09 2 5.27 3.13 8 2.14 12.69-4.59 2.67-32.39-5.4-26.46" fill="#02d19a" class="fill-18c4ff"></path><path d="M305.75 581.39c-7.1 4.45-7.16 14-4.45 21.09 1.31 3.42 3.54 6.51 7.1 7.81a8.4 8.4 0 0 0 8.14-1.37c3.39-2.65 4.32-7.23 4.11-11.32a24.62 24.62 0 0 0-4-12.5c-2-2.84-6-6-9.25-3-.86.82.22 2.09 1.22 1.58 2.32-1.18 4.13 0 5.69 2a21.47 21.47 0 0 1 3.86 9.86c.49 3.29.37 7.1-1.56 9.94a7 7 0 0 1-3.76 2.78c-3.4 1-6.66-1.42-8.32-4.2a22.28 22.28 0 0 1-2.83-11.46c.09-3.8 1.62-7.77 4.86-9.95.82-.55.07-1.87-.78-1.34z" fill="#02d19a" class="fill-18c4ff"></path><path d="m283.35 243.67-4 18.05a3.06 3.06 0 0 1-.42 1.15 2.86 2.86 0 0 1-2.1.87 35.9 35.9 0 0 1-27.41-8.74 7.06 7.06 0 0 1-2.42-3.4 8 8 0 0 1 .55-4.2 182.44 182.44 0 0 0 7.25-33.63" fill="#ffffff" class="fill-ffffff"></path><path d="M307.25 188.93c-.33-2.91.35-23.62-21.89-24.83a36.14 36.14 0 0 0-23.36 7.27 62.74 62.74 0 0 0-6 5c-20.48 19.49-1.1 64.55 28.23 66.71 18.36 1.35 23-16.63 24.16-31.5.61-7.51-.29-15.11-1.14-22.65z" fill="#ffffff" class="fill-ffffff"></path><path d="M284.2 244.26a20.51 20.51 0 0 0 13.34-3.32 23.46 23.46 0 0 0 7.62-9.79c4.35-9.79 5-21.33 4.24-31.86-.3-4.16-.87-8.29-1.17-12.45a37.23 37.23 0 0 0-1.17-7.27c-2-7.09-6.73-12.75-13.78-15.16a33.16 33.16 0 0 0-19.11-.22c-7.32 2-13.53 6.27-19 11.43-1.06 1 .53 2.59 1.59 1.59 4.75-4.49 10.1-8.35 16.39-10.37a32.43 32.43 0 0 1 16.92-1 19.16 19.16 0 0 1 14.42 13 31.25 31.25 0 0 1 1.4 7c.26 2.84.53 5.67.81 8.51 1.09 10.71 1.16 21.79-2.17 32.15-1.38 4.28-3.48 8.5-6.9 11.52-3.73 3.28-8.58 4.31-13.44 4-1.44-.1-1.44 2.15 0 2.25z" fill="#000000" class="fill-000000"></path><path d="M290.89 202.12c.2 1.45.34 2.9.51 4.36a8.19 8.19 0 0 0 .35 1.76 3.3 3.3 0 0 0 1.2 1.54 2.09 2.09 0 0 1 .79 2.26c-.34 1-1.37 1.12-2 1.9a1.54 1.54 0 0 0 0 2.12 1.51 1.51 0 0 0 2.12 0c.24-.3.95-.63 1.35-1a4.87 4.87 0 0 0 .91-5.95 5.4 5.4 0 0 0-1.46-1.55c-.28-.2-.62-.34-.89-.54s-.24-.21-.32-.52c-.4-1.59-.71-3.21-1-4.81a.8.8 0 0 0-1.54.42zM256.67 204.39l.13-.06-.19.08a.77.77 0 0 1 .26-.07h-.22a1.71 1.71 0 0 1 .32 0h-.24a2.09 2.09 0 0 1 .49.13l-.22-.09a1.68 1.68 0 0 1 .34.2l-.19-.15a2.27 2.27 0 0 1 .3.32l-.15-.2a3 3 0 0 1 .38.67l-.1-.24a3.67 3.67 0 0 1 .24.73v-.28a1 1 0 0 1 0 .24v-.29.13l.11-.26v.06l.17-.22.23-.18.26-.11h.29-.05l.95.55v-.07l.11.26a1 1 0 0 1-.09-.35v.31a1.82 1.82 0 0 1 0-.33v.31a2 2 0 0 1 .05-.24 1.28 1.28 0 0 0 0-.75 1.15 1.15 0 0 0-.64-.72 1.09 1.09 0 0 0-1 .06 1.22 1.22 0 0 0-.63.85 2.1 2.1 0 0 0-.05.61 2.44 2.44 0 0 0 .34 1.15 1.26 1.26 0 0 0 .68.54 1.3 1.3 0 0 0 .65 0 1.34 1.34 0 0 0 .76-.58 1.66 1.66 0 0 0 .16-1.2 3.29 3.29 0 0 0-.32-.78 3.67 3.67 0 0 0-.36-.6 2.88 2.88 0 0 0-1.53-1.17 2 2 0 0 0-2 .5.77.77 0 0 0 .94 1.21zM282.54 243.45a77.82 77.82 0 0 0-2.42 9.68l-1 4.38-.55 2.44c-.15.64-.18 1.87-.7 2.32s-1.31.32-1.82.36c-.67.06-1.35.1-2 .12a34.35 34.35 0 0 1-4.06-.12 34.78 34.78 0 0 1-7.82-1.64 34.17 34.17 0 0 1-7.26-3.36c-2.16-1.32-4.69-2.93-6.18-5a4.41 4.41 0 0 1-.34-4.07c.44-1.5.93-3 1.37-4.49.9-3.06 1.72-6.15 2.45-9.25 1.62-6.83 2.78-13.75 3.8-20.69a1.28 1.28 0 1 0-2.53-.34 146.59 146.59 0 0 1-3.62 20.88q-1.23 5.11-2.76 10.15c-.86 2.86-2.31 6-.53 8.8 1.49 2.35 4.17 4.15 6.46 5.63a37.25 37.25 0 0 0 7.93 3.85 38 38 0 0 0 8.63 1.89 25.23 25.23 0 0 0 8.45-.22c1.69-.43 2.26-1.61 2.6-3.2.42-2 .83-3.91 1.25-5.87.84-3.94 2-8 2.29-12 .08-1-1.33-1-1.64-.22zM300.5 201a2.34 2.34 0 0 0 0-.26 1.17 1.17 0 0 0 0-.26.52.52 0 0 0-.05-.12 1 1 0 0 0-.05-.12c-.05-.09-.12-.17-.18-.26h-.05a1.2 1.2 0 0 0-.5-.29 1.57 1.57 0 0 0-.3 0 2 2 0 0 0-.35 0 2.36 2.36 0 0 0-.28.12 1.58 1.58 0 0 0-.29.22 1.29 1.29 0 0 0-.28.38 2.07 2.07 0 0 0-.15.34v.12a4.17 4.17 0 0 0-.08.51v.12a.15.15 0 0 0 0 .07 2 2 0 0 0 .05.35s0 0 0 .06a2.22 2.22 0 0 0 .13.31v.06a2.88 2.88 0 0 0 .22.27 1.12 1.12 0 0 0 1.1.3 1.83 1.83 0 0 0 .32-.14l.13-.1.14-.11a2.23 2.23 0 0 0 .19-.24 1.2 1.2 0 0 0 .13-.33.86.86 0 0 0 0-.45.9.9 0 0 0-.13-.42.92.92 0 0 0-.3-.32.82.82 0 0 0-.38-.2h-.31a1.16 1.16 0 0 0-.57.15l-.23.18a1.1 1.1 0 0 0-.29.5l.11-.27.17-.23.23-.17.28-.12 1.1.3.18.23a.21.21 0 0 1-.06-.1l.11.27a1.1 1.1 0 0 1-.06-.26v.3a1.37 1.37 0 0 1 0-.35v.29a1.17 1.17 0 0 1 .05-.2l-.1.25a.27.27 0 0 1 .06-.1l-.17.21a.6.6 0 0 1 .08-.08l-.22.17h.07l-.25.11h.08-.27a1.65 1.65 0 0 0 .3 0 1.53 1.53 0 0 0 .27-.11l-.25.1h.09-.26.07-.25l-.23-.09h.06l-.18-.14-.14-.18-.09-.21.09.21a.64.64 0 0 0 .22.24.52.52 0 0 0 .19.11.68.68 0 0 0 .34.08h.23l.2-.09a.87.87 0 0 0 .4-.52zM281.68 201a1.15 1.15 0 0 0 0-.26.77.77 0 0 0 0-.26.52.52 0 0 0-.05-.12 1 1 0 0 0-.05-.12c-.05-.09-.12-.17-.18-.26h-.05a1.2 1.2 0 0 0-.5-.29 1.57 1.57 0 0 0-.3 0 2 2 0 0 0-.35 0 2.36 2.36 0 0 0-.28.12 1.58 1.58 0 0 0-.29.22 1.53 1.53 0 0 0-.29.38 3.45 3.45 0 0 0-.14.34v.12a4.17 4.17 0 0 0-.08.51v.12a.15.15 0 0 0 0 .07 2 2 0 0 0 .05.35s0 0 0 .06a2.22 2.22 0 0 0 .13.31v.06a2.88 2.88 0 0 0 .22.27 1.12 1.12 0 0 0 1.1.3 1.83 1.83 0 0 0 .32-.14l.13-.1.14-.11a2.23 2.23 0 0 0 .19-.24 1.2 1.2 0 0 0 .13-.33.86.86 0 0 0 0-.45.9.9 0 0 0-.13-.42.92.92 0 0 0-.3-.32.82.82 0 0 0-.38-.2h-.31a1.16 1.16 0 0 0-.57.15l-.23.18a1.1 1.1 0 0 0-.29.5l.11-.27.17-.23.23-.17.27-.12 1.1.3.18.23a.21.21 0 0 1-.06-.1l.11.27a2 2 0 0 1-.07-.26v.3a2 2 0 0 1 0-.35v.29a1.17 1.17 0 0 1 .05-.2l-.1.25a.27.27 0 0 1 .06-.1l-.17.21.08-.08-.22.17h.07l-.25.11h.08-.27a1.65 1.65 0 0 0 .3 0 1.19 1.19 0 0 0 .26-.11l-.24.1h.09-.26.07-.25l-.23-.09h.06l-.18-.14-.14-.18-.09-.21.09.21a.64.64 0 0 0 .22.24.52.52 0 0 0 .19.11.68.68 0 0 0 .34.08h.23l.2-.09a.87.87 0 0 0 .4-.52zM288.27 220.17c-3.45-.22-6.48-2.22-9.63-3.63-.67-.3-1.52-.54-2.06-.06a1.87 1.87 0 0 0-.47 1.1 7.66 7.66 0 0 0 .46 4.37 4.73 4.73 0 0 0 3.3 2.73 3.45 3.45 0 0 0 3.73-1.78c.45-1 .34-2.12.73-3.12" fill="#000000" class="fill-000000"></path><path d="M288.48 219.4a19.07 19.07 0 0 1-6.49-2.62c-1.84-1-5.08-3.39-6.76-.9a6.15 6.15 0 0 0-.65 3.61 7.94 7.94 0 0 0 1.08 3.71 5.69 5.69 0 0 0 5.89 2.79 4.74 4.74 0 0 0 3-2c.76-1.16.69-2.58 1-3.88a1.27 1.27 0 0 0-.74-1.49 1.24 1.24 0 0 0-1.57.52 19.66 19.66 0 0 0-.71 2.84 1.8 1.8 0 0 1-1.07 1.19 2.71 2.71 0 0 1-3.29-1.24 4.76 4.76 0 0 1-.75-2.35 8.19 8.19 0 0 1 0-1.4c0-.21.32-1 0-.56h-.09c0 .09.25 0 .12 0a2.93 2.93 0 0 1 .51.13c.42.14.84.32 1.25.5.9.39 1.79.8 2.69 1.18a16.43 16.43 0 0 0 6.38 1.54c.87 0 1.12-1.44.21-1.57zM279.35 194.35c.36-.12.73-.2 1.09-.31l.52-.13.3-.06h1.85-.08a4.91 4.91 0 0 0 .53 0 1.12 1.12 0 0 0 .3-2.2 4.09 4.09 0 0 0-1.44-.08 8.42 8.42 0 0 0-1.41.21 9.25 9.25 0 0 0-1.16.38 3.56 3.56 0 0 0-.7.36l-.58.46a.82.82 0 0 0-.13 1 .83.83 0 0 0 .91.37zM299.07 194h.05-.24a5.26 5.26 0 0 1 1.19 0h-.27a3.52 3.52 0 0 1 .86.23l-.25-.1a2.75 2.75 0 0 1 .58.32 1.17 1.17 0 0 0 .86.11 1.09 1.09 0 0 0 .66-.51 1.13 1.13 0 0 0-.4-1.52 4.57 4.57 0 0 0-1.88-.53 5.17 5.17 0 0 0-1 .07 3.61 3.61 0 0 0-.88.33.88.88 0 0 0-.36 1.1.93.93 0 0 0 .36.42l.21.09a.94.94 0 0 0 .47 0z" fill="#000000" class="fill-000000"></path><path d="M276.38 221a1.61 1.61 0 0 0 1.15.73l.49.17c.1 0-.17-.08 0 0l.14.07.23.12a4 4 0 0 1 .43.28c.13.09-.11-.1 0 0l.1.08.19.18a3.59 3.59 0 0 1 .38.4c.05.06.07.14 0 0l.07.1c.09.13.19.25.29.37a.88.88 0 0 0 .63.26.84.84 0 0 0 .55-.19.9.9 0 0 0 .23-1.16 3.61 3.61 0 0 0-.79-.95 5.52 5.52 0 0 0-1-.73 5.14 5.14 0 0 0-1.11-.47 4.23 4.23 0 0 0-.71-.13h-.11.11c-.12-.06.12.13 0 0a.76.76 0 0 0-1.2.92z" fill="#02d19a" class="fill-18c4ff"></path><path d="M256.28 211c-2.26-1.28-4.07-4.92-4.14-7.51s1.29-4.88 3.83-5.41 5.9 2.37 6 5c1.14.86 2.65.64 2.56-.78s-.43-5-.53-6.39c-.19-2.85 2.64-4.84 4.2-7.24a14.18 14.18 0 0 0 1.76-4.68 36.59 36.59 0 0 0 .84-9.39c9.85 6 21.68 7.46 33.11 8.84a4.06 4.06 0 0 0 3-.43 20 20 0 0 1 .59 4.28 20.33 20.33 0 0 0 6.88-10.5 7.58 7.58 0 0 0 .17-4.19 8.3 8.3 0 0 0-2.81-3.63c-7.89-6.73-18.2-9.9-28.42-11.66-4.39-.75-9.36-1.25-12.91 1.44s-1.33 2.28-2.06 2.57.76 0 0 0c-5.86.41-13.29 3-17.14 7.38s-6.46 9.77-9 15a16.35 16.35 0 0 0-1.93 5.61 13.69 13.69 0 0 0 .82 5.25c3.22 10.14 10.31 18.92 12.2 29.39 1.23-4.28 2-8.63 3-13" fill="#000000" class="fill-000000"></path><path d="M256.67 210.33c-2.77-1.9-5-7.21-2.49-10.1 1.31-1.54 3.27-1.41 4.79-.27a5.41 5.41 0 0 1 1.59 1.87c.4.81.17 1.65 1 2.21 1.17.81 3 .85 3.78-.54.65-1.19.19-3.15.1-4.43-.12-1.52-.6-3.36 0-4.81.74-1.69 2.28-3 3.35-4.45a16.46 16.46 0 0 0 2.57-6.92 40 40 0 0 0 .64-8.32l-1.88 1.08a57.68 57.68 0 0 0 18.57 6.82c3.25.67 6.54 1.16 9.83 1.6 1.63.22 3.27.43 4.91.63a5.84 5.84 0 0 0 4.15-.56l-2-.8a20 20 0 0 1 .53 3.92 1.38 1.38 0 0 0 2.32 1c3.95-3.21 7.34-8.36 7.66-13.56.18-2.9-1.46-5-3.57-6.83a42.9 42.9 0 0 0-6.81-4.69 62 62 0 0 0-15.64-5.87c-5.11-1.23-11-2.75-16.23-1.59a11.09 11.09 0 0 0-6.5 4 1.88 1.88 0 0 0-.24 2c.06.12.41.63.59.63 0 0 .13-2.15.05-2.24q.48-.2-.12.06a.35.35 0 0 0-.19.1 1.39 1.39 0 0 0 .32 2.5 1.89 1.89 0 0 0 1.76-.45 1.38 1.38 0 0 0-.61-2.29 9.14 9.14 0 0 0-3 .23 31.85 31.85 0 0 0-3.62.75 30.35 30.35 0 0 0-7 2.82c-4.73 2.68-7.8 7.16-10.42 11.81-1.41 2.5-2.66 5.08-3.91 7.65s-2.27 5-2 7.86a28.6 28.6 0 0 0 2.46 8.16c1.08 2.57 2.32 5.06 3.58 7.54 2.87 5.62 5.87 11.25 7.18 17.47a1.16 1.16 0 0 0 2.21 0c1.21-4.27 2-8.64 3-12.95.34-1.46-1.9-2.08-2.24-.62-1 4.32-1.8 8.69-3 13h2.21c-1.72-10.31-8.36-18.71-11.71-28.43-.92-2.69-1.53-5.26-.58-8a55.11 55.11 0 0 1 3.4-7.16c2.25-4.39 4.83-9.39 8.84-12.44a23.81 23.81 0 0 1 6.85-3.48 33.27 33.27 0 0 1 3.65-1c.65-.14 1.31-.25 2-.34l.69-.08c.13 0 1.1 0 .72-.11l-.61-2.29a.75.75 0 0 1 .91-.26l.33 2.5c-.05 0 .1 0 .33-.16a1.54 1.54 0 0 0 .65-.85c.23-.8-.29-1.07-.68-1.61.11.16.26.18.38.37a3.41 3.41 0 0 1 .06 1 4.6 4.6 0 0 1 .39-.43 9.5 9.5 0 0 1 3-2c4.29-1.76 9.6-.39 13.94.52a67 67 0 0 1 14.3 4.54 45.65 45.65 0 0 1 6.37 3.56c1.84 1.25 4.23 2.76 5.34 4.75 1.33 2.37-.15 5.75-1.3 7.94a19.65 19.65 0 0 1-5.06 6.15l2.31 1a23.56 23.56 0 0 0-.64-4.64 1.35 1.35 0 0 0-2-.8c-1.1.73-2.86.19-4.08 0-1.44-.17-2.87-.34-4.31-.54-3.11-.42-6.22-.9-9.29-1.55a56.64 56.64 0 0 1-17.16-6.28 1.26 1.26 0 0 0-1.88 1.08 34.59 34.59 0 0 1-.95 9.88 11.76 11.76 0 0 1-1.74 4c-.72 1-1.59 1.9-2.34 2.89a7.72 7.72 0 0 0-1.59 5.93c.1 1.15.22 2.29.34 3.43a10.3 10.3 0 0 1 .14 1.35c0 .23.07.35-.07.43s-.7-.25-.84-.34l.51.9c-.42-4.8-6.8-8.25-10.31-4.13-3.23 3.79-.83 10.55 3.24 12.74a.77.77 0 0 0 .78-1.33z" fill="#000000" class="fill-000000"></path><g fill="#02d19a" class="fill-18c4ff"><path d="M273.64 457.17c1 18.5 2.32 37 3.62 55.47.37 5.19.46 10.48 1.16 15.63.16 1.15 2 .85 2-.27 0-4.61-.61-9.27-.93-13.87l-1-13.62c-.66-9.25-1.39-18.5-2.08-27.74q-.58-7.81-1.28-15.6c-.08-1-1.57-1-1.52 0zM81.73 457.8l-3.21-2.57c-2.79-2.23-5.66-4.51-9-5.68-11.54-4-22.8 6-30.95 15.08q-6.24 6.94-12.47 13.92a4.13 4.13 0 0 0 2.77 6.88 40 40 0 0 1 19.49 6.32 63.61 63.61 0 0 1 33.37-33.95z"></path><path d="M82.52 457c-5.39-4.31-10.78-9.33-18.09-9.47-6.63-.12-12.68 3.47-17.67 7.52-5.76 4.72-10.61 10.55-15.59 16.11q-2.05 2.28-4.1 4.58c-1.07 1.19-2.39 2.34-2.92 3.89a5.35 5.35 0 0 0 2.08 6.08c1.43 1 3.14.85 4.78 1a39.78 39.78 0 0 1 5.91 1.14 40.11 40.11 0 0 1 10.84 4.84 1.14 1.14 0 0 0 1.65-.67 62.74 62.74 0 0 1 32.88-33.28c1.33-.57.19-2.5-1.13-1.94a64.18 64.18 0 0 0-28.89 24.88 66.94 66.94 0 0 0-5 9.74l1.65-.67a42.1 42.1 0 0 0-17.45-6.23c-1.24-.16-2.87 0-4-.7a3.09 3.09 0 0 1-1.35-2.7c.07-1.39 1.17-2.3 2-3.27 1.25-1.41 2.51-2.81 3.77-4.22 4.55-5.09 9-10.4 14-15 4.44-4 9.76-7.86 15.83-8.74a15.85 15.85 0 0 1 9.83 1.8c3.38 1.83 6.31 4.46 9.29 6.85 1.21.95 2.81-.63 1.68-1.54zM426.25 899.86c2.78-.91 4.39-4.92 2-6.6a51.59 51.59 0 0 1-16.84-19.81 210.6 210.6 0 0 1-51.23.61c.68 3.34 1.24 6.72 1.84 10.13 1.32 7.58 4.76 16.91 13.69 17.64 27.09 2.17 36.61 2.58 50.54-1.97z"></path><path d="M426.55 900.94a5.89 5.89 0 0 0 4-5.69 3.94 3.94 0 0 0-1.71-3c-1.43-1.07-2.84-2.11-4.18-3.28a52.56 52.56 0 0 1-12.26-16.12 1.07 1.07 0 0 0-1-.56 212.61 212.61 0 0 1-51.23.61c-.78-.09-1.22.78-1.09 1.42 2.22 10.9 3 27.49 17.36 28.65 11.77 1 23.87 2.36 35.68 1.09a70.71 70.71 0 0 0 14.43-3.16c1.37-.44.78-2.62-.6-2.17a76.09 76.09 0 0 1-25.52 3.49c-6.22-.12-12.44-.59-18.64-1.07-3.21-.25-6.87-.05-9.82-1.5a13 13 0 0 1-5.32-5.2c-3.66-6.19-4-13.85-5.4-20.73l-1.08 1.43a212.61 212.61 0 0 0 51.23-.61l-1-.56a54.82 54.82 0 0 0 10 14.09 52.26 52.26 0 0 0 6.76 5.75 2 2 0 0 1 1 2.55 3.7 3.7 0 0 1-2.19 2.36c-1.37.54-.79 2.71.58 2.21z"></path></g><path d="M411.46 881.23A15.44 15.44 0 0 0 414 880a4.48 4.48 0 0 1 2.4-.73c.8.06 1.2.64 1.52 1.32.16.33.28.68.42 1l.28.71c0 .12.09.23.14.35l.06.16c0 .18.05.21.05.09s.1-.34.11-.26-.12 0-.09 0-.27.09-.39.11c-.44.11-.88.19-1.31.34a9.15 9.15 0 0 0-2.4 1.25c-.76.57-1.75 1.3-1.95 2.28a1.92 1.92 0 0 0 1.8 2.14 19.45 19.45 0 0 0 7.25-.36 1.21 1.21 0 0 0-.64-2.33 16 16 0 0 1-6.09.34h-.25a.44.44 0 0 1 .18.52c0 .49 0 .35.17.14a6.54 6.54 0 0 1 .95-.87 6.71 6.71 0 0 1 2.19-1.09 3.76 3.76 0 0 0 2.24-1.12c.7-.94.16-1.93-.24-2.87-.76-1.74-1.54-3.62-3.71-3.8a5.45 5.45 0 0 0-3 .78 25.17 25.17 0 0 1-2.72 1.64.81.81 0 0 0-.55 1 .78.78 0 0 0 1 .54z" fill="#000000" class="fill-000000"></path><path d="M466 255.67a190.07 190.07 0 0 0-120.73-7.18 198.11 198.11 0 0 1 23 98.42c10.13-7.7 23.44-10.18 36.14-9.52s25.05 4.2 37.34 7.49c16.57 4.43 33.38 8.48 50.52 9.18s34.77-2.13 49.64-10.69a5.58 5.58 0 0 0 2.22-1.91 5.72 5.72 0 0 0 .3-3.48q-5.61-45.93-15.08-91.27c-7.56 7.14-17.89 10.86-28.23 11.85s-20.78-.58-30.91-2.87" fill="#02d19a" class="fill-18c4ff"></path><path d="M466.3 254.69a191.69 191.69 0 0 0-94.68-12.8 185.27 185.27 0 0 0-26.71 5.18 1.49 1.49 0 0 0-.88 2.16 196.76 196.76 0 0 1 22.15 75.29 194.5 194.5 0 0 1 .62 22.39 1.53 1.53 0 0 0 2.29 1.31c13.9-10.45 32.23-10.72 48.65-7.64 9.26 1.74 18.26 4.42 27.36 6.78s18.53 4.67 27.95 6.22c17.55 2.87 35.76 3.33 52.95-1.82a79.39 79.39 0 0 0 11.89-4.6c3.36-1.62 8.23-3.35 8.14-7.79a67.52 67.52 0 0 0-.8-6.77q-.47-3.66-1-7.32-1-7.14-2-14.26-4.25-28.84-10-57.44c-.49-2.42-1-4.83-1.49-7.23a1.39 1.39 0 0 0-2.31-.62c-11.59 10.83-28.1 12.92-43.26 11.3a128.45 128.45 0 0 1-14.59-2.48c-1.48-.34-2.11 1.94-.63 2.28 16.41 3.7 34 5.56 49.71-1.85a42.12 42.12 0 0 0 10.73-7.29l-2.32-.61q5.88 28.18 10.28 56.66 2.17 14.16 4 28.38c.29 2.27.69 4.56.82 6.85a2.6 2.6 0 0 1-.82 2.44 16.51 16.51 0 0 1-2.65 1.59 72 72 0 0 1-11.81 5c-16.67 5.49-34.67 5.49-51.87 2.88a275.56 275.56 0 0 1-27.53-5.88c-9-2.32-18-5-27.13-6.87-16.17-3.34-34-4.07-48.85 4.21a42.58 42.58 0 0 0-5 3.23l2.29 1.31a199.9 199.9 0 0 0-13.74-78.47 203.65 203.65 0 0 0-9.53-20.69l-.88 2.16a190.05 190.05 0 0 1 94.52-1.44 184.85 184.85 0 0 1 25.55 8.19c1.22.49 1.74-1.48.54-2z" fill="#02d19a" class="fill-18c4ff"></path><path d="M716.59 155.41c-10.41 11.05-26.74 13.59-41.8 15.52-18.95 2.42-38.16 4.84-57.08 2.2-24.56-3.41-49.2-15.24-73.11-8.7a227.1 227.1 0 0 1 38.61 120.43c5.74-3.3 11.57-6.64 18-8.35 6.74-1.81 13.82-1.73 20.79-1.57 25.29.57 50.63 2.09 75.86.32s50.63-7 72.84-19.11c2.09-1.15 4.35-2.6 4.89-4.92a8.82 8.82 0 0 0-.57-4.52l-23.87-77.42c-2-6.34-4.09-13-8.91-17.53s-13.24-6-17.92-1.33" fill="#ffffff" class="fill-ffffff"></path><path d="M466.3 254.69a191.69 191.69 0 0 0-94.68-12.8 185.27 185.27 0 0 0-26.71 5.18 1.49 1.49 0 0 0-.88 2.16 196.76 196.76 0 0 1 22.15 75.29 194.5 194.5 0 0 1 .62 22.39 1.53 1.53 0 0 0 2.29 1.31c13.9-10.45 32.23-10.72 48.65-7.64 9.26 1.74 18.26 4.42 27.36 6.78s18.53 4.67 27.95 6.22c17.55 2.87 35.76 3.33 52.95-1.82a79.39 79.39 0 0 0 11.89-4.6c3.36-1.62 8.23-3.35 8.14-7.79a67.52 67.52 0 0 0-.8-6.77q-.47-3.66-1-7.32-1-7.14-2-14.26-4.25-28.84-10-57.44c-.49-2.42-1-4.83-1.49-7.23a1.39 1.39 0 0 0-2.31-.62c-11.59 10.83-28.1 12.92-43.26 11.3a128.45 128.45 0 0 1-14.59-2.48c-1.48-.34-2.11 1.94-.63 2.28 16.41 3.7 34 5.56 49.71-1.85a42.12 42.12 0 0 0 10.73-7.29l-2.32-.61q5.88 28.18 10.28 56.66 2.17 14.16 4 28.38c.29 2.27.69 4.56.82 6.85a2.6 2.6 0 0 1-.82 2.44 16.51 16.51 0 0 1-2.65 1.59 72 72 0 0 1-11.81 5c-16.67 5.49-34.67 5.49-51.87 2.88a275.56 275.56 0 0 1-27.53-5.88c-9-2.32-18-5-27.13-6.87-16.17-3.34-34-4.07-48.85 4.21a42.58 42.58 0 0 0-5 3.23l2.29 1.31a199.9 199.9 0 0 0-13.74-78.47 203.65 203.65 0 0 0-9.53-20.69l-.88 2.16a190.05 190.05 0 0 1 94.52-1.44 184.85 184.85 0 0 1 25.55 8.19c1.22.49 1.74-1.48.54-2zM716 154.79c-7 7.31-16.75 10.79-26.49 12.78-5 1-10.09 1.7-15.17 2.33-6.25.77-12.51 1.53-18.78 2.1-12.59 1.16-25.38 1.64-37.93-.19-11.76-1.72-23.16-5.22-34.76-7.76-12.69-2.78-25.87-4.39-38.61-1a1.41 1.41 0 0 0-.84 2.07 225.38 225.38 0 0 1 23 44A228.32 228.32 0 0 1 579.29 257a223.57 223.57 0 0 1 2.49 27.82 1.44 1.44 0 0 0 2.15 1.24 90.88 90.88 0 0 1 14.4-7.2 51.28 51.28 0 0 1 16.49-2.59c11.55-.18 23.14.54 34.69.86 22.67.63 45.45.76 67.94-2.61a182.8 182.8 0 0 0 30.81-7.2 149.56 149.56 0 0 0 14.74-5.74q3.46-1.57 6.84-3.36c2-1 4.15-2.1 5.64-3.84a7.17 7.17 0 0 0 1.3-6.71c-.67-2.69-1.63-5.34-2.45-8l-5.21-16.86-10.35-33.48-5.21-16.85a99.13 99.13 0 0 0-5-14c-1.9-3.93-4.63-7.69-8.46-9.92a15.86 15.86 0 0 0-11.76-1.89 11.34 11.34 0 0 0-5 2.85c-1.24 1.2.65 3.08 1.89 1.89 2.85-2.76 7-3 10.64-1.81 4.13 1.33 7.12 4.46 9.24 8.15 2.31 4 3.62 8.48 5 12.88l5 16.39q5 16.14 9.94 32.3l5 16.15 2.48 8.08c.41 1.33.84 2.67 1.23 4a6 6 0 0 1 .28 3.82c-.75 1.92-3 3-4.68 3.89q-3.36 1.8-6.82 3.41a143 143 0 0 1-14.41 5.72 182.26 182.26 0 0 1-29.66 7.14c-21.56 3.41-43.48 3.43-65.24 2.89-11.21-.28-22.42-.76-33.64-.95a77.45 77.45 0 0 0-16 1 52.46 52.46 0 0 0-14.36 5.39c-2.27 1.19-4.5 2.47-6.72 3.75l2.15 1.23a228.55 228.55 0 0 0-24.48-96.72 221.94 221.94 0 0 0-14.34-24.42l-.84 2.07c23.51-6.34 47.12 4.68 70.13 8.27 12.5 1.95 25.17 1.72 37.73.56 6.44-.59 12.86-1.41 19.28-2.25 5.22-.69 10.44-1.36 15.61-2.36 10.8-2.1 21.74-5.79 29.48-14 .78-.82-.45-2.06-1.24-1.24z" fill="#000000" class="fill-000000"></path><path d="M232.61 283.59c11.44 11.88 10.46 30.75 16.86 46 6.88 16.36 22.15 27.79 38.24 35.26s33.49 11.77 49.85 18.64c6.88 2.89 14.33 7.15 16 14.44 2.47-2.19 6.64-1.19 8.76 1.34s2.62 6 2.62 9.31a39.74 39.74 0 0 1-6.77 22.1c-1.39 2.06-3.15 4.1-5.56 4.69s-5.45-1.07-5.37-3.55c-9.14 8-23.1 5.9-34.82 2.68a334.54 334.54 0 0 1-62.33-24c-14.43-7.29-28.54-15.79-39.56-27.63s-18.6-25.56-24.82-47.34" fill="#ffffff" class="fill-ffffff"></path><path d="M232.08 284.13c7.54 8.07 9.52 19.35 11.8 29.77a93.42 93.42 0 0 0 4.57 15.92 54.62 54.62 0 0 0 8.37 13.82c15.84 19.32 40.62 26.83 63.33 34.7 6.84 2.37 13.85 4.68 20.34 7.93 5.09 2.54 10.3 6.13 11.7 12a1.41 1.41 0 0 0 2.32.62c2.27-1.87 5.73-.29 7.17 1.84 2 2.93 2 6.82 1.78 10.22-.43 7.11-2.91 14.87-7.51 20.42-1.07 1.29-2.53 2.68-4.3 2.75-1.37.05-3.07-.8-3.11-2.32a1.35 1.35 0 0 0-2.28-.95c-10.26 8.84-25.76 4.53-37.32 1.19a333.39 333.39 0 0 1-44.62-16.4c-13.67-6.15-27.28-13-39.38-21.88a100.16 100.16 0 0 1-24.55-25.9 97.83 97.83 0 0 1-13.88-35.42c-.35-1.86-.69-3.72-1-5.59-.19-1.24-2.36-1-2.21.3a98.68 98.68 0 0 0 35.84 65.64c11.92 9.77 25.73 17 39.64 23.54a331.23 331.23 0 0 0 45.58 17.32c6.9 2.07 13.87 4.09 21.06 4.82 6.37.64 13.14.17 18.85-3a23.34 23.34 0 0 0 3.87-2.74l-2.28-.94c.08 4 4.73 5.89 8.11 4.49 4.06-1.68 6.56-6.46 8.33-10.23a41.75 41.75 0 0 0 3.81-14c.39-4.31.37-9.36-2.28-13s-7.72-5-11.29-2.09l2.32.62c-1.22-5.16-5.1-8.94-9.47-11.65-5.12-3.18-11-5.22-16.62-7.28-12.9-4.7-26.17-8.47-38.74-14.08-10.42-4.65-20.41-10.7-28.41-18.92a55.25 55.25 0 0 1-9.78-13.44 71 71 0 0 1-5.39-15.8c-2.78-11.63-4.64-24.33-13.31-33.29-.68-.7-1.74.36-1.07 1.08z" fill="#000000" class="fill-000000"></path><path d="M296.91 530.77a9.16 9.16 0 0 0-8.49 2 14.33 14.33 0 0 0-4.64 9.1 72.82 72.82 0 0 0-.37 12l.18 13.1c.06 4.93.11 9.89.36 14.82a1.05 1.05 0 0 0 2.1 0c.33-10 .14-20.11.05-30.15 0-4.41-.4-9.17 1.38-13.32 1.42-3.33 5.09-6.77 9-6 1 .18 1.43-1.27.43-1.54z" fill="#02d19a" class="fill-18c4ff"></path><path d="M424 232.05a39.91 39.91 0 0 1-4.25-15.64 8.17 8.17 0 0 1 1-5.19c1.17-1.65 3.29-2.3 5.27-2.72a20.22 20.22 0 0 1 6.38-.54c1.86.21 4 1.34 3.93 3.21-.09 1.4-1.45 2.34-2.66 3.05l-4.16 2.44a9.81 9.81 0 0 1 8.49 15.21c-.22.33-.87.55-.88.15" fill="#ffffff" class="fill-ffffff"></path><path d="M424.62 231.66a42 42 0 0 1-3.38-11.28c-.45-3.16-1.37-8 2.08-9.74a16.47 16.47 0 0 1 5.35-1.36c1.66-.21 3.65-.38 5.19.41s1.24 2-.05 2.92c-1.56 1.12-3.34 2-5 3a1.25 1.25 0 0 0 .63 2.32 8.83 8.83 0 0 1 7.86 4.37 8.63 8.63 0 0 1 1.05 4.72 8.76 8.76 0 0 1-.85 3.29c-.16.32-.68.82-.28.81l.77.32-.1-.13c-.74-.93-1.9.12-1.77 1a1.45 1.45 0 0 0 2.11.93c1-.44 1.47-1.72 1.85-2.67a11.06 11.06 0 0 0-10.64-15.15l.63 2.32c1.66-1 3.42-1.87 5-3a4.8 4.8 0 0 0 2.44-3.59c.1-3.49-4-4.55-6.78-4.53a25.24 25.24 0 0 0-6 .85 9.66 9.66 0 0 0-4.37 2.18c-2.67 2.6-2 6.94-1.42 10.24a39.61 39.61 0 0 0 4.33 12.53c.49.88 1.74.1 1.34-.78zM435.32 201.24c.62 2.73 2.71 6.07 5.65 6.72a2.94 2.94 0 0 0 3.24-1.28c.82-1.49.38-3.8.16-5.39l-1.94.54c.42 2.95 1.57 8.22 5 9.11a3.5 3.5 0 0 0 3.86-1.77c1-1.67.65-3.65.26-5.45-.29-1.36-2.35-.78-2.08.57.4 1.94-.42 3.91.28 5.82a3.91 3.91 0 0 0 2.72 2.66 3.22 3.22 0 0 0 3.39-1.79c.89-1.64.37-3.54 1.1-5.19l-2-.27a21.37 21.37 0 0 0 3.4 7.49c.82 1.16 2.76 0 1.92-1.12a20 20 0 0 1-3.2-6.95 1.11 1.11 0 0 0-2-.27 10.32 10.32 0 0 0-.7 3.48c-.07.76-.35 2.81-1.57 2.45-1-.28-1.19-1.76-1.18-2.58a19.31 19.31 0 0 0-.06-4.3l-2.08.57c.26 1.15.63 2.55.06 3.66a1.47 1.47 0 0 1-2.6.26c-1.63-1.75-2.23-4.64-2.58-6.92-.19-1.28-2.13-.73-1.94.54a9.55 9.55 0 0 1 .14 3.76c-.4 1.14-1.87.38-2.51-.06a8.08 8.08 0 0 1-3.2-4.71.8.8 0 0 0-1.54.42z" fill="#000000" class="fill-000000"></path><g fill="#02d19a" class="fill-18c4ff"><path d="M193 279a35.09 35.09 0 0 1 27.37-.17c1.08.45 1.56-1.32.48-1.76a36.31 36.31 0 0 0-28.62.62c-.89.4-.12 1.7.77 1.31zM224.42 281.21l.44-.4a.56.56 0 0 0 .17-.26.61.61 0 0 0 .08-.32.59.59 0 0 0-.08-.32.55.55 0 0 0-.17-.27l-.17-.13a.78.78 0 0 0-.42-.11h-.22a.73.73 0 0 0-.36.21l-.4.44a.63.63 0 0 0-.16.26.64.64 0 0 0-.07.31 1 1 0 0 0 .23.56l.16.12a.84.84 0 0 0 .41.11h.21a.73.73 0 0 0 .35-.2zM231.5 253a56.35 56.35 0 0 0 26.07 19.23 53.93 53.93 0 0 0 16.2 3.13c3.18.11 6.25 0 9-1.79a16 16 0 0 0 5-5.16 16.88 16.88 0 0 0 .88-15.88c-.53-1.13-2.22-.15-1.67 1a14.4 14.4 0 0 1-.64 13.07 13.79 13.79 0 0 1-4.69 5.14c-2.56 1.62-5.4 1.62-8.32 1.49a55.06 55.06 0 0 1-28-9.31 52.88 52.88 0 0 1-12.51-11.69c-.61-.79-2 0-1.36.79z"></path><path d="M237.67 259q2.27-.85 4.49-1.85a34.56 34.56 0 0 0 4.31-2.14.85.85 0 0 0-.86-1.47c-1.4.65-2.74 1.45-4.14 2.11s-2.79 1.27-4.22 1.84a.78.78 0 1 0 .42 1.51zM250.64 267.26q2.22-2.53 4.28-5.22a.86.86 0 0 0-1.48-.86c-1.25 1.7-2.54 3.32-3.93 4.95a.82.82 0 0 0 0 1.13.81.81 0 0 0 1.13 0zM265.07 264.52l-.75 3.71c-.25 1.26-.59 2.53-.73 3.81a.88.88 0 0 0 1.72.23c.17-.6.24-1.24.36-1.86l.33-1.79.67-3.65a.86.86 0 0 0-.58-1 .84.84 0 0 0-1 .58zM277.24 265.09a16.2 16.2 0 0 1 1.44 3.34 24.21 24.21 0 0 1 .69 3.67.87.87 0 0 0 1.7-.23 14.37 14.37 0 0 0-.79-3.94 17.9 17.9 0 0 0-1.67-3.64.79.79 0 0 0-1.37.8zM284.1 258.15h.43l.51.1a8.38 8.38 0 0 1 1.11.34h.11l.27.12.5.26a8.43 8.43 0 0 1 1 .64.9.9 0 1 0 .91-1.56 9.12 9.12 0 0 0-4.82-1.54.79.79 0 0 0-.78.78.8.8 0 0 0 .78.77zM328.6 275.19c3.56 11.93 2.07 24.25.39 36.36-.22 1.58 2.2 2.26 2.41.67 1.68-12.3 3.51-25.6-1.22-37.47-.38-.95-1.89-.6-1.58.44zM328.31 317a1.7 1.7 0 0 0 .55.58 1.3 1.3 0 0 0 .38.17 2.13 2.13 0 0 0 .44.07h.2a2.14 2.14 0 0 0 .44-.08 1.41 1.41 0 0 0 .4-.18 1.75 1.75 0 0 0 .33-.28 1 1 0 0 0 .28-.67 1 1 0 0 0-.28-.67.93.93 0 0 0-.67-.28 1 1 0 0 0-.67.28l-.1.1.19-.15a2.2 2.2 0 0 1-.26.15l.22-.1a1.17 1.17 0 0 1-.25.07h.24-.29.24l-.39-.06h.24a.79.79 0 0 1-.22-.06l.2.09-.14-.08-.19-.08a.55.55 0 0 0-.31 0 .73.73 0 0 0-.45.21.94.94 0 0 0-.2.35.78.78 0 0 0 .07.6zM351.22 403.34a57.87 57.87 0 0 1-3.83 22.66c-.46 1.19 1.47 1.72 1.92.53a55.42 55.42 0 0 0 3.46-23.19c-.07-1-1.58-1-1.55 0zM202.19 440.08a40.62 40.62 0 0 0 19.13-18c.59-1.13-1.14-2.14-1.72-1a39 39 0 0 1-18.26 17.55c-1 .46-.13 1.9.85 1.45zM194.13 549.2a39 39 0 0 0 4.28 13.59.9.9 0 0 0 .8.46l1.22-.16a.92.92 0 1 0-.25-1.82l-1.22.17 1 .42a36.53 36.53 0 0 1-4.13-12.66.91.91 0 0 0-.87-.87.88.88 0 0 0-.87.87zM200.35 550.28a21.23 21.23 0 0 0 3.47 7.74 1 1 0 0 0 1.3.34 1 1 0 0 0 .34-1.3 19.67 19.67 0 0 1-3.44-7.24.87.87 0 0 0-1.67.46zM670.27 194.53c-10-2.09-20.39 3.67-24.51 12.9-4.48 10.07-1.83 21.89 5.77 29.67s19.63 11.51 30.23 8.45a23.61 23.61 0 0 0 12.65-8.85 20.65 20.65 0 0 0 3.59-15.17c-.94-6.43-4.42-12.3-8.36-17.34-3.59-4.59-8.29-9.09-14.24-10.17-1.37-.24-2 1.77-.58 2.13 4.81 1.25 8.54 4.39 11.66 8.16a41.61 41.61 0 0 1 7.67 13.25c1.55 4.73 1.84 9.92-.34 14.51a20.11 20.11 0 0 1-9.42 9.33c-9 4.38-20.41 2.11-28.08-4a25 25 0 0 1-9.2-25.18c2.4-10.25 12.44-17.53 23-16.17.87.11 1.07-1.36.21-1.54zM580.53 178.53a4.51 4.51 0 0 0-5.5-2.09 5.51 5.51 0 0 0-3.37 5.9 8.48 8.48 0 0 0 4.27 6.13c2.38 1.47 5.56 2 7.63-.28a4.89 4.89 0 0 0 1.23-4.11 4.51 4.51 0 0 0-2.62-3.48c-1-.4-1.82 1.11-1.06 1.82a3.76 3.76 0 0 1 1.4 2 2.5 2.5 0 0 1-.47 2c-1.21 1.56-3.19 1.08-4.68.24a6.7 6.7 0 0 1-3.38-3.88 4 4 0 0 1 1.2-4.17 2.78 2.78 0 0 1 4 .7c.5.9 1.76.11 1.35-.79zM757.8 237c-2.26-1.26-4.84-2.42-7.43-1.44a4.89 4.89 0 0 0-2.72 2.25 4.65 4.65 0 0 0-.21 3.62 10.32 10.32 0 0 0 5.34 5.42c2.12 1 5.08 1.44 6.73-.64 1.32-1.66 1.59-4.68-.65-5.73a1.11 1.11 0 0 0-1.48.39 1.08 1.08 0 0 0 .39 1.47l.19.1c.27.15-.06-.07.07 0l.14.15c.11.13-.11-.2 0 .05a1.47 1.47 0 0 1 .14.5 2 2 0 0 1 0 .42v.08a1.6 1.6 0 0 1 0 .21c0 .07-.16.43-.1.3a3.72 3.72 0 0 1-.27.48l-.15.17-.16.15c-.25.22.09-.05-.07.05l-.19.12-.11.06c.17-.07-.33.1-.28.08l-.33.08a4.53 4.53 0 0 1-2.58-.48 9 9 0 0 1-4.21-3.65 2.55 2.55 0 0 1 1.08-3.67c1.93-1 4.34-.12 6.18.69.87.39 1.64-.83.76-1.31z"></path></g><g fill="#ffffff" class="fill-ffffff"><path d="M907.2 458.28q4.72 48.64 6 97.54 1.23 48.66-1 97.34-.62 13.64-1.5 27.27l-.46 6.71c-.13 1.93-.12 3.91-1.1 5.64-.23.4-1.09 1.82-1.71 1.52-.45-.23-.4-1.64-.35-2.13a5.2 5.2 0 0 1 3-4.18l-1.33-.54c5.55 8.17 5.06 18.41 4.52 27.83l-2 34.14-4 69.08c-.76 13-1.66 25.93-2.2 38.9-.06 1.41 2.07 1.39 2.17 0 1.78-23.52 2.85-47.11 4.25-70.66l4.12-69.87c.61-10.32 1.32-21.64-4.78-30.6a1.23 1.23 0 0 0-1.61-.43 7.45 7.45 0 0 0-4.39 5.84c-.3 2.19.26 5.28 3.11 4.92 2.44-.31 3.83-3.27 4.28-5.39.83-4 .67-8.33.92-12.36q1.67-26.67 2.29-53.38 1.25-53.61-1.86-107.21-1.71-30-4.75-60c-.1-1-1.69-1-1.59 0zM903.13 870.64l2.55-1.18a.93.93 0 0 0-.93-1.6l-2.46 1.34a.83.83 0 0 0-.3 1.14.81.81 0 0 0 .49.38 1 1 0 0 0 .65-.08zM408.25 760.78a229.84 229.84 0 0 0 81.85-84q3.69-6.54 6.93-13.32c2.24-4.68 4.9-9.61 5.41-14.85.44-4.4-1.28-9.2-5.32-11.44-4.49-2.48-8.7.24-12.13 3.19-7.38 6.36-13.34 14.81-15.6 24.39-2.09 8.89-.7 18.84 4.56 26.42 5.48 7.89 14.57 11.93 24 12.39 10.33.5 20.25-3.39 28.85-8.83a125.23 125.23 0 0 0 23.34-19.56 145.32 145.32 0 0 0 31.45-50.74q1.27-3.52 2.36-7.11c.69-2.31 1.38-4.92.2-7.19-1.79-3.44-6.59-3.88-9.73-2.22-4 2.13-6.6 7.33-8.2 11.39-1.67 4.24-.66 8.5 3.12 11.13a12.71 12.71 0 0 0 11.66 1.26c4.76-1.75 8.44-5.4 12-8.87q25.15-24.5 48.92-50.39c15.76-17.18 31.11-34.78 45.78-52.9 3.6-4.45 7.15-8.93 10.71-13.41.73-.92-.57-2.24-1.31-1.31-13.42 16.9-27.39 33.41-41.71 49.57s-29.18 32.1-44.45 47.5c-7.48 7.54-14.92 15.24-22.82 22.35-3.33 3-7.53 6.17-12.26 5.93-3.45-.17-7.54-2.31-8-6.06-.34-2.69 1.19-5.27 2.41-7.54a18.88 18.88 0 0 1 3.92-5.52c3.12-2.72 9.05-2 8.11 3.18a48.18 48.18 0 0 1-2.09 6.91q-1.12 3.32-2.43 6.59a139 139 0 0 1-5.92 12.9A143.44 143.44 0 0 1 537.14 684c-13.89 11.71-33.89 23.25-52.08 13.8-8.1-4.2-13-12.43-14-21.38-1-9.15 2.07-18.07 7.36-25.46a50.72 50.72 0 0 1 9.5-10c1.82-1.47 4.06-2.91 6.51-2.39a7.5 7.5 0 0 1 4.69 3.9c2.62 4.83.13 10.64-1.91 15.19q-2.77 6.22-5.94 12.27a228.32 228.32 0 0 1-31.4 45.51A225.57 225.57 0 0 1 418.63 752q-5.53 3.79-11.28 7.25a.89.89 0 0 0 .9 1.54zM712.58 489.47a13 13 0 0 0 5.2-7 .88.88 0 0 0-1.69-.47 11.84 11.84 0 0 1-4.31 6.09.82.82 0 0 0-.29 1.09.8.8 0 0 0 1.09.29zM381.15 776.37a15.17 15.17 0 0 1 7.36-4.52.93.93 0 0 0-.49-1.79 16.9 16.9 0 0 0-8.11 5.07.9.9 0 0 0 0 1.24.87.87 0 0 0 1.24 0zM474 798q19.53-13.89 38.48-28.57t37.29-30.13q18.42-15.52 36.2-31.8t34.66-33.13q17.07-17 33.42-34.69 2-2.16 4-4.35c.73-.8-.46-2-1.19-1.19q-16.2 17.69-33.1 34.69t-34.51 33.29q-17.5 16.22-35.64 31.73t-37.08 30.39q-18.95 14.88-38.51 29l-4.8 3.44c-.81.58 0 1.92.78 1.34zM373.34 252.89a6.08 6.08 0 0 0-6.36 2.79 6.18 6.18 0 0 0 .54 7.19 7 7 0 0 0 6.88 2.54 8 8 0 0 0 5.78-4.94c.92-2.41.19-5.76-2.52-6.58-1.4-.43-2 1.77-.6 2.19a1.67 1.67 0 0 1 1.09 1.21 3.9 3.9 0 0 1 0 2.17 5.71 5.71 0 0 1-3.68 3.64 4.77 4.77 0 0 1-4.86-1.15 4.43 4.43 0 0 1-1.26-4.63 4.52 4.52 0 0 1 4.57-2.94c1 .14 1.41-1.26.41-1.49zM520 322.82a5.31 5.31 0 0 0-5 4 6.57 6.57 0 0 0 2.21 6.87 11 11 0 0 0 7.78 2.54 5.18 5.18 0 0 0 3.88-2 6.53 6.53 0 0 0 1.14-4.06c-.08-2.85-1.79-6.5-5-6.69-1-.06-1.48 1.53-.52 1.94a5 5 0 0 1 2.11 1.46 5.74 5.74 0 0 1 1.07 2.63 5.37 5.37 0 0 1-.28 2.78 2.74 2.74 0 0 1-2.29 1.62c-3.39.44-8.5-1.86-8.2-5.85.13-1.68 1.28-3.6 3.11-3.75a.78.78 0 0 0 0-1.56zM448.94 275.71a17.49 17.49 0 0 0-14.75 1.6 19.94 19.94 0 0 0-8.88 12.24c-2.51 9.91 1.87 20.73 9.79 26.94 7.29 5.72 17.53 7 25.7 2.37a23.62 23.62 0 0 0 7.6-34.12c-3.2-4.67-8.11-8.93-14.12-8.59-1.45.08-1.46 2.34 0 2.27 4.88-.21 8.86 3.17 11.54 6.95a22.43 22.43 0 0 1 4.23 11 21.52 21.52 0 0 1-8.23 18.74 20.39 20.39 0 0 1-21.89 1.53A25.15 25.15 0 0 1 427 294.72a19.48 19.48 0 0 1 6.44-14.4 15.86 15.86 0 0 1 15.08-3.07c1 .33 1.38-1.19.43-1.54z"></path></g><g fill="#02d19a" class="fill-18c4ff"><path d="M128.48 181.71c-17.77 1.56-29.73 17.94-37.63 32.33-9 16.36-14.4 36.11-7.19 54.18 3.27 8.21 9.13 15.68 17.26 19.47 7.83 3.65 17.19 3.23 23.43-3.24a16.15 16.15 0 0 0 4.71-10.45c.13-3.54-1.54-9-6.16-8-2.05.45-3.63 2.13-4.81 3.77a40.66 40.66 0 0 0-3.45 6 47.23 47.23 0 0 0 15.06 59.07 46.37 46.37 0 0 0 5.46 3.38c1.49.79 2.81-1.47 1.32-2.27a44.87 44.87 0 0 1-17.77-62.31c1-1.68 2-3.6 3.73-4.68 2-1.26 3.33.33 3.8 2.22.88 3.53-.37 7.27-2.5 10.1-5 6.62-13.68 7.63-21 4.51-7.56-3.22-13.1-9.86-16.37-17.25-7.16-16.18-3.22-34.47 4.33-49.72a101.05 101.05 0 0 1 13.51-21.11c5-5.82 11.19-11 18.64-13.32a29 29 0 0 1 5.62-1.13c1-.09 1-1.66 0-1.57zM212.57 114.88a169.76 169.76 0 0 0 9.28 32.51c.45 1.13 2.29.63 1.83-.5a175.47 175.47 0 0 1-9.51-32.45c-.2-1-1.79-.6-1.6.44zM259.39 95.75l-.1 38.91a1 1 0 0 0 1.92 0l-.11-38.91a.86.86 0 0 0-1.71 0zM314.83 95.56a304.66 304.66 0 0 1-12.94 46.33c-.43 1.18 1.45 1.69 1.87.52A299 299 0 0 0 316.48 96c.21-1.08-1.43-1.54-1.65-.46zM367.34 121.62a135.17 135.17 0 0 0-11.41 29.09 1 1 0 0 0 1.95.54 134.68 134.68 0 0 1 11-28.72c.54-1-1-1.93-1.55-.91z"></path></g></svg>