<svg viewBox="0 0 1000 1000" xmlns="http://www.w3.org/2000/svg"><path d="M386.79 246a40.87 40.87 0 0 1 7-11.49c2.42-2.78 5.92-6.78 10.06-5.62 2.1.59 2.34 2.31 3.45 3.9s3.09 1.69 4.77 2.62a5.75 5.75 0 0 1 .56 9.61l1.86 1.85c1-1.11 2.67-.33 3.22.84.85 1.8 0 4.12-.79 5.78-1.67 3.54-4.25 6.74-6.64 9.82a32.18 32.18 0 0 1-8.22 8 15.93 15.93 0 0 1-11.11 2.42c-1.7-.15-2 2.5-.4 2.93 7.6 2 15.14-3.71 19.76-9.11a94.37 94.37 0 0 0 7.06-9.45c1.95-3 4.14-7 3.05-10.66-.93-3.15-5.31-5.25-7.79-2.41a1.31 1.31 0 0 0 1.86 1.85 8.32 8.32 0 0 0 2.43-9.69 8.48 8.48 0 0 0-3.26-3.77 9.62 9.62 0 0 0-2.34-1 3.33 3.33 0 0 1-2.39-1.8 7.06 7.06 0 0 0-3.17-3.62 7.84 7.84 0 0 0-4.84-.61c-3.87.7-6.86 4-9.16 7A43.78 43.78 0 0 0 385 245.5c-.41 1.13 1.35 1.57 1.78.49z" fill="#000000" class="fill-000000"></path><path d="M515.28 299V111.32h-187v.7C328.3 215.29 412 299 515.28 299z" fill="#ff3030" class="fill-18c4ff"></path><path d="M516.48 299V119c0-2.44.06-4.89 0-7.33v-.32a1.22 1.22 0 0 0-1.2-1.2H335.93c-2.43 0-4.87-.06-7.3 0h-.32a1.22 1.22 0 0 0-1.2 1.2 183.5 183.5 0 0 0 9 58.4 187.42 187.42 0 0 0 25.54 51 190 190 0 0 0 38.87 40.45 187.29 187.29 0 0 0 107.37 38.9c2.46.09 4.93.14 7.39.14a1.2 1.2 0 0 0 0-2.4 186.8 186.8 0 0 1-57.7-9.13 185.6 185.6 0 0 1-128-170c-.08-2.45-.14-4.92-.1-7.38l-1.2 1.2h179.37a68.56 68.56 0 0 0 7.31 0h.32l-1.2-1.2v180c0 2.44-.07 4.89 0 7.33v.34a1.2 1.2 0 0 0 2.4 0z" fill="#000000" class="fill-000000"></path><path d="M515.28 261.6V111.46H365.7v.56A149.58 149.58 0 0 0 515.28 261.6z" fill="#ffffff" class="fill-ffffff"></path><path d="M516.48 261.6V129.86c0-6 .2-12.1 0-18.13a2.43 2.43 0 0 1 0-.27 1.22 1.22 0 0 0-1.2-1.2H384.14c-6.05 0-12.14-.21-18.19 0h-.25a1.22 1.22 0 0 0-1.2 1.2 147.18 147.18 0 0 0 7.17 46.66A150.56 150.56 0 0 0 392.1 199a150.49 150.49 0 0 0 117.2 63.69q3 .1 6 .11a1.2 1.2 0 0 0 0-2.4A148.22 148.22 0 0 1 367 117.3c-.06-1.94-.11-3.89-.08-5.84l-1.2 1.2H509.2a41.87 41.87 0 0 0 5.82 0h.26l-1.2-1.2v131.75c0 6-.2 12.1 0 18.13v.26a1.2 1.2 0 0 0 2.4 0z" fill="#000000" class="fill-000000"></path><g fill="#ff3030" class="fill-18c4ff"><path d="M481.65 140.52c-3 2.1-3.62 5.95-3 9.35a10.81 10.81 0 0 0 6.21 8 6.9 6.9 0 0 0 8.37-3.16 8.73 8.73 0 0 0-.23-9.47 6.41 6.41 0 0 0-5.12-2.91 5.11 5.11 0 0 0-4.78 2.85 1.4 1.4 0 0 0 .48 1.85 1.37 1.37 0 0 0 1.85-.49 2.72 2.72 0 0 1 2.45-1.45 3.64 3.64 0 0 1 2.85 1.61 6.07 6.07 0 0 1 .39 6.43 4.41 4.41 0 0 1-5.29 2.42c-2.39-.77-4-3.3-4.69-5.61-.76-2.73-.57-5.95 1.67-7.95.81-.71-.26-2.14-1.16-1.51zM476.62 182.65a5.84 5.84 0 0 0 1.91.1 6.62 6.62 0 0 0 2.05-.59 1.09 1.09 0 0 0 .5-.65 1.07 1.07 0 0 0-.11-.82 1.14 1.14 0 0 0-.64-.5 1.25 1.25 0 0 0-.83.11l-.25.11.26-.11a5.12 5.12 0 0 1-1.26.34h.28a4.72 4.72 0 0 1-1.3 0h.28l-.32-.06a1.14 1.14 0 0 0-.83.11 1.12 1.12 0 0 0-.49.64 1.09 1.09 0 0 0 .75 1.32zM469.52 157.54v-1.79a1.11 1.11 0 0 0-1.1-1.1 1.11 1.11 0 0 0-1.1 1.1v1.79a1.09 1.09 0 0 0 1.1 1.1 1.17 1.17 0 0 0 .78-.32 1.14 1.14 0 0 0 .32-.78zM454.31 147.87l-.45-1.33a.85.85 0 0 0-.19-.38.92.92 0 0 0-.31-.28.79.79 0 0 0-.41-.13.82.82 0 0 0-.44 0 1.11 1.11 0 0 0-.66.5 1.15 1.15 0 0 0-.11.85l.45 1.34a.82.82 0 0 0 .19.37 1 1 0 0 0 .31.29.9.9 0 0 0 .41.13.94.94 0 0 0 .44 0 1.12 1.12 0 0 0 .66-.51 1.14 1.14 0 0 0 .11-.85zM399.77 126.28a3.58 3.58 0 0 0-4.06.83 4.45 4.45 0 0 0-1.21 4.16c.67 3.07 4.1 5.34 7 5.79a7.25 7.25 0 0 0 7.71-4.55 9.56 9.56 0 0 0-1.65-9.71 4.72 4.72 0 0 0-4.74-1.5A3.78 3.78 0 0 0 400 125a1.34 1.34 0 0 0 2.67 0 .76.76 0 0 1 .25-.63 1.71 1.71 0 0 1 .85-.45 2.16 2.16 0 0 1 1.95.83 6.9 6.9 0 0 1 1.35 6.2 4.94 4.94 0 0 1-3.94 3.69 6.82 6.82 0 0 1-5.73-2.64 2.69 2.69 0 0 1-.49-2.75 1.91 1.91 0 0 1 2.15-1.26c1 .29 1.69-1.25.71-1.69zM405.82 154.68l2.23-.45a1.19 1.19 0 0 0 .84-1.47 1.28 1.28 0 0 0-.55-.72 1.31 1.31 0 0 0-.93-.12l-2.23.44a1.25 1.25 0 0 0-.72.56 1.23 1.23 0 0 0-.12.92 1.28 1.28 0 0 0 .55.72 1.42 1.42 0 0 0 .93.12zM429.87 133.62l-.44-.47a2.14 2.14 0 0 0-.32-.28l-.13-.09-.26-.18-.26-.11a.86.86 0 0 0-.42 0 .61.61 0 0 0-.27.08.74.74 0 0 0-.34.22l-.17.21-.1.26a.75.75 0 0 0 0 .42.78.78 0 0 0 .12.39l.19.26.09.12.18.23h.06l.48.43a.77.77 0 0 0 .36.23.91.91 0 0 0 .43.1.94.94 0 0 0 .43-.1.82.82 0 0 0 .36-.23l.14-.11a1.13 1.13 0 0 0 .15-.57v-.29a1.14 1.14 0 0 0-.28-.49zM427.5 128.34a5.47 5.47 0 0 1 1.11.34l-.28-.12a6.87 6.87 0 0 1 1.53.89l-.23-.18c.19.15.37.31.54.47a1.1 1.1 0 0 0 1.55 0 1.08 1.08 0 0 0 .33-.77 1.27 1.27 0 0 0-.33-.78 5.2 5.2 0 0 0-.65-.68 6 6 0 0 0-.95-.7 6.52 6.52 0 0 0-2-.74 1.23 1.23 0 0 0-.9.12 1.15 1.15 0 0 0-.54.7 1.18 1.18 0 0 0 .82 1.45zM434.43 163.83c-1.64-1.46-4.05-2.47-6.22-1.62a4.37 4.37 0 0 0-2.82 5.32 10 10 0 0 0 1.95 3 15.26 15.26 0 0 0 2.39 2.43 6.82 6.82 0 0 0 6.87 1.25 4.53 4.53 0 0 0 2.33-6.07 1.37 1.37 0 0 0-1.86-.49 1.42 1.42 0 0 0-.49 1.87c-.05-.13 0 .18.05.23v.28c0 .06 0 0 0 0a1.42 1.42 0 0 1-.05.22c0 .07-.15.43-.09.29a3.37 3.37 0 0 1-.25.46.71.71 0 0 1-.15.2 1.66 1.66 0 0 1-.67.51 4.11 4.11 0 0 1-3.88-.76 13.66 13.66 0 0 1-3.19-3.42 3.22 3.22 0 0 1-.48-.87 1.35 1.35 0 0 1-.05-.64 2.24 2.24 0 0 1 .84-1.32c1.31-1 3.15-.34 4.29.6a1.08 1.08 0 0 0 1.47 0 1.05 1.05 0 0 0 0-1.47zM468.45 121l-.88.9a.88.88 0 0 0-.24.36 1 1 0 0 0-.1.44 1 1 0 0 0 .1.44 1 1 0 0 0 .24.37l.23.17a1 1 0 0 0 .57.16h.3a1.14 1.14 0 0 0 .5-.29l.86-.94a.89.89 0 0 0 .23-.35.82.82 0 0 0 .09-.43.8.8 0 0 0-.09-.43.86.86 0 0 0-.26-.4l-.23-.17a1.09 1.09 0 0 0-.56-.15h-.29a1.08 1.08 0 0 0-.5.28zM459.5 196.42a1 1 0 0 0 0-1.9 1 1 0 0 0 0 1.9z"></path><path d="M460.19 194.82a5.38 5.38 0 0 0-5.8-.49 8.41 8.41 0 0 0-3.8 4.68c-1.58 4.06-1.37 9.11 1.7 12.43a8.08 8.08 0 0 0 11.06 1 12.92 12.92 0 0 0 3.63-4.77 10.24 10.24 0 0 0 1-6.64 6.89 6.89 0 0 0-4.92-4.7c-2.51-.79-5.15-.34-7.7-.86-1.7-.34-2.43 2.17-.72 2.63a40.65 40.65 0 0 0 5.83.79 6.37 6.37 0 0 1 3.79 1.49c2.2 2.19.15 6.3-1.38 8.29-1.77 2.31-4.56 3.45-7.22 1.89-2.94-1.72-3.72-5.28-3.29-8.46a9.22 9.22 0 0 1 1.94-4.88 3.48 3.48 0 0 1 4.6-.8c.94.67 2.16-.89 1.24-1.61zM411.65 184.86l-.42-.48a1.13 1.13 0 0 0-1.27-.24.91.91 0 0 0-.37.24l-.19.24a1.2 1.2 0 0 0-.15.59v.3a1.1 1.1 0 0 0 .3.52l.47.42a.86.86 0 0 0 .36.23.91.91 0 0 0 .43.1 1 1 0 0 0 .44-.1.86.86 0 0 0 .36-.23l.17-.23a1.07 1.07 0 0 0 .16-.57v-.3a1.16 1.16 0 0 0-.29-.49zM417.48 194.11l2.68 1.79a1 1 0 0 0 1.39-.37 1 1 0 0 0-.37-1.38l-2.68-1.79a1 1 0 0 0-.77-.1 1.07 1.07 0 0 0-.61.47 1 1 0 0 0 .36 1.38zM432.27 203.57l2.67-4a1 1 0 0 0-.36-1.41 1.07 1.07 0 0 0-1.41.37l-2.67 4a1 1 0 0 0 .36 1.4 1.06 1.06 0 0 0 1.41-.37zM449.23 177.84h2.23a1.13 1.13 0 0 0 .76-.31 1.11 1.11 0 0 0 .32-.76 1.07 1.07 0 0 0-.32-.76 1.12 1.12 0 0 0-.76-.32h-2.23a1.13 1.13 0 0 0-.78.33 1.1 1.1 0 0 0 0 1.57 1.13 1.13 0 0 0 .78.33zM487.63 211.86a4.32 4.32 0 0 0-3.75 1.92 6.59 6.59 0 0 0-.95 4.69 10.32 10.32 0 0 0 4.3 7.32 6.88 6.88 0 0 0 8.19-.44c2.66-2.11 3.48-5.63 3-8.87-.48-3.06-2.8-6.88-6.38-6.46a1.37 1.37 0 0 0-1.33 1.34 1.34 1.34 0 0 0 1.33 1.33c1.89-.14 3.09 1.72 3.55 3.34a7.28 7.28 0 0 1-1.07 6.58 4.57 4.57 0 0 1-5.28 1.46 7.3 7.3 0 0 1-3.69-4.38c-.63-1.92-.86-6 2.1-6a.9.9 0 0 0 0-1.8zM486.9 243.47l-2.27-2.94c-.8-1-1.64-2-2.47-3a1.1 1.1 0 0 0-1.73 1.33c.76 1.05 1.52 2.11 2.32 3.13l2.28 2.93a1.19 1.19 0 0 0 1.87-1.44zM465.82 226.71l3.57-2.68a1.18 1.18 0 0 0 .48-.62 1.06 1.06 0 0 0-.11-.8 1.05 1.05 0 0 0-1.42-.37l-3.57 2.68a1.12 1.12 0 0 0-.47.62 1.06 1.06 0 0 0 .1.8 1 1 0 0 0 .62.47 1 1 0 0 0 .8-.1zM494.69 193c-.33 2.12.07 4.84 2 6.08a3.42 3.42 0 0 0 3.58 0 4.73 4.73 0 0 0 2.07-3.5 10.26 10.26 0 0 0-1.25-5.09 1.08 1.08 0 0 0-1.47-.38 1.09 1.09 0 0 0-.39 1.46 9.59 9.59 0 0 1 1 3.23v.61a5.36 5.36 0 0 1-.16.64c0-.06-.08.16-.11.21a3.37 3.37 0 0 1-.19.32s-.18.24-.08.12a2.72 2.72 0 0 1-.29.3s-.24.18-.1.09l-.25.16-.18.09s.14 0 0 0a1.89 1.89 0 0 1-.34.09H498.23h.08l-.28-.07h-.12c-.12 0 .14.09 0 0l-.24-.14c-.17-.09.1.11 0 0l-.18-.17c-.05-.05-.23-.28-.1-.1a2.92 2.92 0 0 1-.29-.48l-.12-.23c-.07-.15.06.15 0 0l-.06-.17a5.61 5.61 0 0 1-.19-.67l-.06-.33v-1.45a1 1 0 0 0-.71-1.24 1 1 0 0 0-1.25.7zM502 172.1l.89-2.68a1.05 1.05 0 0 0-.73-1.29 1.07 1.07 0 0 0-1.29.73l-.89 2.68a1.05 1.05 0 0 0 .73 1.29 1.08 1.08 0 0 0 1.29-.73z"></path></g><path d="m380.29 122.06.15-.16.09-.07c.07-.06-.19.14-.06 0a2.5 2.5 0 0 1 .35-.21s.08 0 .1 0h-.1l.21-.07a3 3 0 0 1 .43-.09h-.24a2.66 2.66 0 0 1 .69 0h-.25a2.66 2.66 0 0 1 .63.17l-.22-.09.23.11a.94.94 0 0 0 .95-1.62 3.53 3.53 0 0 0-4.2.75 1 1 0 0 0-.25.62.9.9 0 0 0 .25.62.89.89 0 0 0 1.24 0zM380.9 140.54l4.45 2.7a1 1 0 1 0 1-1.75l-4.47-2.65a1 1 0 0 0-1.35.35 1 1 0 0 0 .35 1.35zM395.6 169.23a1.89 1.89 0 0 0 .89.55 2.32 2.32 0 0 0 1.08 0 2 2 0 0 0 .82-.34 2.64 2.64 0 0 0 .4-.35 2.41 2.41 0 0 0 .38-.66.93.93 0 0 0-.09-.69.89.89 0 0 0-.53-.4.9.9 0 0 0-1.09.62.36.36 0 0 1 0 .09l.09-.21a.72.72 0 0 1-.14.24l.14-.17a1.34 1.34 0 0 1-.21.2l.18-.14a1.44 1.44 0 0 1-.31.19l.2-.09a1.66 1.66 0 0 1-.38.11h.23a1.7 1.7 0 0 1-.39 0h.22a1.17 1.17 0 0 1-.32-.09l.19.08a.89.89 0 0 1-.25-.14l.17.13-.11-.1a.81.81 0 0 0-1.37.56.89.89 0 0 0 .24.57zM415.08 143l.45-.44a.69.69 0 0 0 .2-.3.85.85 0 0 0 0-.72.69.69 0 0 0-.2-.3l-.19-.15a.85.85 0 0 0-.47-.13h-.25a.82.82 0 0 0-.41.24l-.44.45a.73.73 0 0 0-.19.3.62.62 0 0 0-.08.35.64.64 0 0 0 .08.36.73.73 0 0 0 .19.3l.19.14a.84.84 0 0 0 .46.13h.25a1.06 1.06 0 0 0 .41-.24zM395.68 149.07h.89a.82.82 0 0 0 .35-.08.85.85 0 0 0 .48-.48.65.65 0 0 0 .07-.34v-.24a.84.84 0 0 0-.23-.4.94.94 0 0 0-.64-.26h-.89a.71.71 0 0 0-.35.07.67.67 0 0 0-.28.19 1 1 0 0 0-.27.64v.24a.88.88 0 0 0 .24.39.93.93 0 0 0 .63.27zM414.87 163.89a1 1 0 0 0 0-2 1 1 0 0 0 0 2zM427.46 219.59l2.65-1.82a1 1 0 0 0 .47-.61 1 1 0 0 0-1.5-1.16l-2.7 1.76a1.08 1.08 0 0 0-.48.63 1.11 1.11 0 0 0 .1.82 1.07 1.07 0 0 0 1.46.38zM438.08 212.84h1.33a.92.92 0 0 0 .63-.26.89.89 0 0 0 .26-.63.88.88 0 0 0-.26-.63 1 1 0 0 0-.63-.26h-1.33a.86.86 0 0 0-.61.25.85.85 0 0 0 0 1.22.86.86 0 0 0 .61.25zM440.8 227.37l3.12 1.36a1 1 0 0 0 .65.08.85.85 0 0 0 .55-1.14.88.88 0 0 0-.55-.5l-3.14-1.28a.82.82 0 0 0-.63.08.84.84 0 0 0-.33.39.8.8 0 0 0 .33 1zM455.93 233.87a.92.92 0 0 0 0-1.83.92.92 0 0 0 0 1.83zM455.48 220.81a.8.8 0 0 0 0-1.6.8.8 0 0 0 0 1.6zM465.05 243.66l1.76.56a1 1 0 0 0 1.1-1.43 1 1 0 0 0-.58-.45l-1.81-.39a.9.9 0 0 0-.68.09.88.88 0 0 0 .21 1.62zM477.79 234.85a1 1 0 0 0 0-2 1 1 0 0 0 0 2zM476.9 214.23a.91.91 0 0 0 0-1.82.91.91 0 0 0 0 1.82zM468 190.21a1 1 0 0 0 0-2 1 1 0 0 0 0 2zM463.51 180.27a.87.87 0 0 0 0-1.73.87.87 0 0 0 0 1.73zM442.36 151.32l-.09-.13v-.06l-.07-.09a.36.36 0 0 0-.07-.1l-.22-.23a.84.84 0 0 0-.28-.18.86.86 0 0 0-.68 0 .75.75 0 0 0-.28.18l-.14.18a1.11 1.11 0 0 0-.12.44v.23a.84.84 0 0 0 .22.39l.23.22.17.14.07.05.13.09.2.08a.62.62 0 0 0 .33 0 .36.36 0 0 0 .2-.06.59.59 0 0 0 .27-.17l.13-.17.08-.19a.62.62 0 0 0 0-.33.67.67 0 0 0-.1-.31zM442.83 140.87l.89-.9a.72.72 0 0 0 .21-.33.7.7 0 0 0 .09-.4.71.71 0 0 0-.09-.4.72.72 0 0 0-.21-.33l-.21-.16a1 1 0 0 0-.53-.15h-.27a1 1 0 0 0-.46.27l-.89.89a.91.91 0 0 0-.22.33.93.93 0 0 0-.09.4.87.87 0 0 0 .09.4 1 1 0 0 0 .22.34l.21.16a1 1 0 0 0 .52.14h.28a1.06 1.06 0 0 0 .46-.26zM446.55 122.74c1.94 0 3.87.07 5.81.06a1 1 0 0 0 0-1.92c-1.94 0-3.87 0-5.81.06a.91.91 0 0 0-.9.9.93.93 0 0 0 .9.9zM458.6 135.38h2.23a1.09 1.09 0 0 0 .73-.3 1 1 0 0 0-.73-1.75h-2.23a1.1 1.1 0 0 0-.74.31 1 1 0 0 0 .74 1.79zM470.21 145.57a1 1 0 0 0 0-1.95 1 1 0 0 0 0 1.95zM482.44 128.15l1.33.46a.74.74 0 0 0 .39 0 .67.67 0 0 0 .36-.12.72.72 0 0 0 .27-.25.67.67 0 0 0 .18-.33 1 1 0 0 0-.1-.75l-.15-.2a1 1 0 0 0-.43-.25l-1.34-.44a.74.74 0 0 0-.39 0 .77.77 0 0 0-.35.12.64.64 0 0 0-.27.24.77.77 0 0 0-.18.33 1 1 0 0 0 .1.74l.15.2a1 1 0 0 0 .43.25zM494.79 136.06l.89-.45a.72.72 0 0 0 .27-.25.65.65 0 0 0 .17-.33.7.7 0 0 0 0-.38.66.66 0 0 0-.11-.36l-.15-.19a1 1 0 0 0-.43-.25h-.25a.92.92 0 0 0-.49.13l-.89.44a.81.81 0 0 0-.27.25.65.65 0 0 0-.17.33.7.7 0 0 0 0 .38.66.66 0 0 0 .11.36l.15.2a1 1 0 0 0 .43.24h.25a1 1 0 0 0 .49-.13zM501.65 126.71h.08-.07a.46.46 0 0 1 .16.07l.25.14.3.17c.05 0 .2.11.23.17l-.06-.05.07.06.13.11.21.19.24.25.09.11s.16.16.06.07 0 0 0 .05l.1.14.17.27a5.85 5.85 0 0 1 .28.56c.05.1-.06-.18 0 0l.06.16c0 .1.07.2.1.3a5 5 0 0 1 .13.65.89.89 0 0 0 .41.54 1 1 0 0 0 .7.09.94.94 0 0 0 .63-1.11 6 6 0 0 0-3.85-4.53.84.84 0 0 0-1 .59.86.86 0 0 0 .58 1zM503.23 155.72a.86.86 0 0 0 0-1.72.86.86 0 0 0 0 1.72zM480.4 168.23l1.34.9a.69.69 0 0 0 .39.12.75.75 0 0 0 .42 0 .89.89 0 0 0 .36-.19.87.87 0 0 0 .27-.3 1 1 0 0 0 .1-.81l-.1-.25a1.12 1.12 0 0 0-.38-.37l-1.35-.88a.89.89 0 0 0-.38-.12.86.86 0 0 0-.42 0 .78.78 0 0 0-.35.18.87.87 0 0 0-.27.3 1 1 0 0 0-.1.79l.1.25a1 1 0 0 0 .37.37zM484.49 195.59h1.33a1 1 0 0 0 .7-.29.66.66 0 0 0 .21-.31.73.73 0 0 0 .08-.38 1 1 0 0 0-.29-.7 1 1 0 0 0-.7-.29h-1.33a1.07 1.07 0 0 0-.72.3.72.72 0 0 0-.21.33.86.86 0 0 0-.09.39 1 1 0 0 0 .3.71 1.07 1.07 0 0 0 .72.3zM500.73 230.81l2.23.88a1 1 0 0 0 .79-.1 1 1 0 0 0 .47-.61 1 1 0 0 0-.1-.79L504 230a.94.94 0 0 0-.45-.26l-2.22-.93a1 1 0 0 0-1.29.73 1.09 1.09 0 0 0 .1.81l.17.21a1 1 0 0 0 .46.27zM500.51 247.17a5.13 5.13 0 0 0 2.29.65 4.35 4.35 0 0 0 2.29-.56 1 1 0 0 0 .4-1.2 1 1 0 0 0-1.14-.56 3.9 3.9 0 0 1-.89.24h.27l-.5.07h.27a4.1 4.1 0 0 1-1.05 0h.28a4.27 4.27 0 0 1-.71-.15l-.17-.06c-.21-.08.13.06 0 0l-.33-.17a1 1 0 0 0-1.4.37 1 1 0 0 0 .36 1.4zM508 213.45l-.47-.42a.72.72 0 0 0-.33-.21.71.71 0 0 0-.4-.09.7.7 0 0 0-.4.09.72.72 0 0 0-.33.21l-.17.21a1.08 1.08 0 0 0-.14.53v.27a1 1 0 0 0 .27.46l.42.47a.69.69 0 0 0 .34.22.87.87 0 0 0 .42.1.86.86 0 0 0 .41-.1.69.69 0 0 0 .38-.19l.17-.22a1 1 0 0 0 .15-.54v-.28a1 1 0 0 0-.28-.48zM440.35 182.43l-.46-.89a.7.7 0 0 0-.26-.28.75.75 0 0 0-.35-.19.81.81 0 0 0-.41 0 .79.79 0 0 0-.38.13l-.2.16a.94.94 0 0 0-.27.45v.27a1 1 0 0 0 .14.52l.45.89a.7.7 0 0 0 .26.28.8.8 0 0 0 .35.19.82.82 0 0 0 .41 0 .75.75 0 0 0 .38-.13l.21-.16a1 1 0 0 0 .26-.45v-.27a1 1 0 0 0-.14-.52zM422 176.41a1 1 0 0 0 0-2 1 1 0 0 0 0 2zM408.49 192.66l.45-.45a.77.77 0 0 0 .22-.34.76.76 0 0 0 .09-.42.75.75 0 0 0-.09-.41.87.87 0 0 0-.22-.35l-.22-.16a1 1 0 0 0-.54-.15h-.29a1.06 1.06 0 0 0-.47.27l-.45.45a.8.8 0 0 0-.22.35 1 1 0 0 0 0 .82.8.8 0 0 0 .22.35l.22.17a1.14 1.14 0 0 0 .54.14h.29a1.18 1.18 0 0 0 .47-.28z" fill="#000000" class="fill-000000"></path><path d="M374.81 270.56c-1.18-6.63-2.21-13.47-.81-20.06s5.74-13 12.2-14.89c2-.61 4.84-.39 5.55 1.63.46 1.31-.25 2.72-1 3.89a34.82 34.82 0 0 1-5.14 6.28 15.25 15.25 0 0 1 6.51 18.68" fill="#ffffff" class="fill-ffffff"></path><path d="M375.7 270.56c-.88-7.76-2.43-15.87.57-23.39a19.66 19.66 0 0 1 5.28-7.56c1.92-1.66 5.22-3.71 7.88-2.86 3.8 1.22-3.42 8.46-4.73 9.74a1.31 1.31 0 0 0 .26 2c5.85 3.31 8.45 11 6.17 17.28-.4 1.08 1.39 1.85 1.87.79a16 16 0 0 0-6.73-20.31l.26 2a37.64 37.64 0 0 0 4.58-5.42c1.2-1.72 2.57-3.82 1.87-6-1.15-3.64-5.89-3.11-8.62-2-7.5 3.13-11.34 11.18-12.05 18.89a52.9 52.9 0 0 0 1.64 17c.23.95 1.86.77 1.75-.24z" fill="#000000" class="fill-000000"></path><path d="M261.18 276.69c15 4.21 26.92 15.74 36.5 28.08s17.64 26 28.69 37a6.28 6.28 0 0 0 2.82 1.92c2.64.64 4.84-2 6.13-4.43 5.79-10.88 8.2-23.18 12.38-34.77s10.8-23.18 21.81-28.7c-1.69-3.27 1.16-7.4 4.69-8.44s7.29 0 10.81 1.13c3 .92 6.1 1.9 8.52 3.9s4 5.34 3.09 8.34c-.46 1.47-2.22 2.86-3.43 1.91 4.72 4.89 4.26 12.64 3.4 19.39-2.27 17.7-5.22 35.54-12.35 51.91s-18.86 31.3-34.91 39.1a59.34 59.34 0 0 1-57.22-3.59c-13.15-8.57-22.23-22-30.94-35.06-3.55-5.32-7.2-10.91-7.87-17.27" fill="#ff3030" class="fill-18c4ff"></path><path d="M135.26 413.6A1275.79 1275.79 0 0 0 99 929.93c1.11 8.18 2.06 17.35-2.92 23.94-3.82 5.06-11.17 9.52-9.18 15.54 1.6 4.81 7.95 5.63 13 5.59l33.43-.27c3.6 0 7.63-.24 10.1-2.85 2.22-2.36 2.45-5.91 2.56-9.14a1354.63 1354.63 0 0 1 27-224.92c3.66-17.74 7.69-35.49 8.72-53.57 1.22-21.12-1.67-42.4.88-63.4 2.35-19.33 9.22-37.78 14.27-56.6a304.87 304.87 0 0 0 6.52-126.95" fill="#000000" class="fill-000000"></path><path d="M99 929.93c1.11 8.18 2.06 17.35-2.92 23.94-3.82 5.06-11.17 9.52-9.18 15.54 1.6 4.81 7.95 5.63 13 5.59l33.43-.27c3.6 0 7.63-.24 10.1-2.85 2.22-2.36 2.45-5.91 2.56-9.14q.87-24.25 2.63-48.47c-17.42-1.31-35.07-1.14-52.14-4.15.8 6.61 1.62 13.21 2.52 19.81z" fill="#ffffff" class="fill-ffffff"></path><path d="M134.43 413.37q-16.16 56.24-26.91 113.81-10.62 56.91-16 114.63-5.43 58.25-5.49 116.84t5.33 116.85c1.75 19.09 4.24 38.06 6.53 57.09.51 4.28.91 8.74.12 13A19.7 19.7 0 0 1 92.28 956c-3.84 4-9.6 9.36-6.08 15.37 3.39 5.79 11.94 5.08 17.61 5 10.12-.11 20.25-.07 30.37-.33 3.3-.08 7-.41 9.59-2.68s3.18-5.43 3.43-8.58c.75-9.82.8-19.72 1.35-29.55 2.25-40.37 6.26-80.67 12.16-120.67q4.42-30 10.18-59.69c3.75-19.37 8.54-38.61 11-58.21 2.5-20 .6-40 1-60s5.67-39 11.41-58.22a339.89 339.89 0 0 0 12.16-55.7 305.75 305.75 0 0 0 1.61-58.1q-.94-13.94-3.15-27.74c-.31-1.94-3.28-1.12-3 .82a305.48 305.48 0 0 1-3.4 113.83c-4.1 18.51-10.7 36.35-14.75 54.86-4.14 18.9-3.53 37.84-3.11 57.06a231.46 231.46 0 0 1-.91 29.44c-1 9.8-2.81 19.49-4.75 29.14-3.87 19.19-7.84 38.34-11.17 57.64q-10 57.92-15.09 116.58Q146.25 925.6 145 955c-.18 4.18.29 9-.95 13-1.57 5.09-6.77 5.28-11.28 5.31q-15 .11-30.08.17c-3.67 0-7.71.28-11.14-1.29-3.59-1.64-4.34-5.28-2.29-8.51 1.91-3 4.86-5.27 7.14-8a20.22 20.22 0 0 0 4.4-9.39c1.5-8-.38-16.39-1.41-24.35q-1.83-14.25-3.35-28.53-6-56.58-6.89-113.56t3.21-113.74q4.13-57.12 13.35-113.7T129 440.56q3.41-13.41 7.09-26.74a.86.86 0 0 0-1.66-.45z" fill="#000000" class="fill-000000"></path><g fill="#ff3030" class="fill-18c4ff"><path d="M110.46 927.27c-2.12-1.45-4.74.23-5.91 2.13-1.68 2.73 1 4.71 3.27 5.7 2.07.9 6.09 2 7.43-.59a2.33 2.33 0 0 0-.68-3 3.63 3.63 0 0 0-3.81-.08c-2.23 1.18-4.41 4.11-4.28 6.71.12 2.4 2.17 4.11 4.36 4.7a6.25 6.25 0 0 0 3.24.08 2.54 2.54 0 0 0 1.84-3.06c-1-3.11-5.76-1.28-7.65-.41a5.46 5.46 0 0 0-3.09 2.78 5 5 0 0 0 .39 4.38 8.56 8.56 0 0 0 7.86 3.9c1.77-.19 1.79-3 0-2.8a6 6 0 0 1-4.89-1.83c-1.09-1.16-1.2-2.72.29-3.55a12 12 0 0 1 2.72-1.14 4.32 4.32 0 0 1 1.13-.2 2.36 2.36 0 0 1 .75.07c.21-.72.11-1-.29-.81a8.47 8.47 0 0 0-1 0 4.59 4.59 0 0 1-1.07-.29 3.26 3.26 0 0 1-1.42-1c-1-1.35.35-3.07 1.25-4.09a4.61 4.61 0 0 1 1.78-1.29.74.74 0 0 1 .39 0c0-.27-.16-.32-.34-.13-.4 0-.88.06-1.3 0-1.52-.15-3.84-.75-4.9-2s1.84-3.45 3.12-2.89a.81.81 0 0 0 .82-1.4zM120.13 948.27H120c-1.15-.26-1.64 1.51-.49 1.77h.13c1.53.36 1.54-2.18 0-1.83h-.13c-1.15.27-.66 2 .49 1.77h.13a.89.89 0 0 0 0-1.71zM116.33 928a1 1 0 0 0 0-2 1 1 0 0 0 0 2zM120.27 938.8l.23-.22a.57.57 0 0 0 .18-.28.72.72 0 0 0 0-.66.57.57 0 0 0-.18-.28l-.17-.13a.82.82 0 0 0-.43-.12h-.23a.85.85 0 0 0-.38.22l-.22.23a1.09 1.09 0 0 0-.25.61.61.61 0 0 0 .08.32.62.62 0 0 0 .17.28l.17.13a.84.84 0 0 0 .43.11h.23a.85.85 0 0 0 .37-.21z"></path></g><path d="M263.88 413.6a1275.79 1275.79 0 0 1 36.27 516.33c-1.12 8.18-2.07 17.35 2.91 23.94 3.82 5.06 11.17 9.52 9.18 15.54-1.59 4.81-7.94 5.63-13 5.59l-33.43-.27c-3.6 0-7.62-.24-10.1-2.85-2.22-2.36-2.45-5.91-2.56-9.14a1354.63 1354.63 0 0 0-27-224.92c-3.66-17.74-7.69-35.49-8.72-53.57-1.21-21.12 1.67-42.4-.88-63.4-2.34-19.33-9.22-37.78-14.27-56.6a305.2 305.2 0 0 1-6.52-126.95" fill="#000000" class="fill-000000"></path><path d="M300.15 929.93c-1.12 8.18-2.07 17.35 2.91 23.94 3.82 5.06 11.17 9.52 9.18 15.54-1.59 4.81-7.94 5.63-13 5.59l-33.43-.27c-3.6 0-7.62-.24-10.1-2.85-2.22-2.36-2.45-5.91-2.56-9.14q-.87-24.25-2.63-48.47c17.43-1.31 35.07-1.14 52.14-4.15-.8 6.61-1.66 13.21-2.51 19.81z" fill="#ffffff" class="fill-ffffff"></path><path d="M263.05 413.82q15.17 54.85 25.55 110.89Q299 581 304.43 638.1q5.35 56.65 5.69 113.64.36 57.16-4.42 114.22-2.37 28.35-6 56.58c-1 7.93-2.89 16.29-1.25 24.25a20.32 20.32 0 0 0 4.55 9.26c2.3 2.68 5.29 4.94 7.08 8 2.16 3.69.5 7.21-3.4 8.57-3.42 1.2-7.2.94-10.77.92-10 0-20.05 0-30.08-.16-4.57 0-9.47-.51-10.82-5.71-1.08-4.17-.69-8.91-.87-13.19q-.65-14.85-1.59-29.69-3.81-58.38-12.55-116.31-4.39-29.13-10-58c-3.77-19.29-8.58-38.49-10.6-58.08s.11-39-.53-58.44c-.62-19-5.57-37-10.94-55.21-5.44-18.39-9.86-36.92-12.19-56a305.43 305.43 0 0 1-1.6-57c.61-9.37 1.68-18.7 3.15-28 .31-1.93-2.65-2.77-3-.82a306.93 306.93 0 0 0 3.36 114.38c4.21 19 11.11 37.33 15.28 56.36 4.34 19.77 3.22 39.59 2.95 59.66-.27 19.91 2.52 39.16 6.53 58.62 4.06 19.72 8 39.44 11.42 59.3Q244 845.3 248.66 906.13q1.16 15.11 2 30.21c.53 9.59.46 19.3 1.33 28.86.28 3.13 1.09 6.34 3.66 8.37 2.74 2.17 6.38 2.42 9.74 2.49 10.17.2 20.34.22 30.5.33 5.67.06 14.05.59 17.21-5.33 3.27-6.1-2.7-11.36-6.5-15.35a19.61 19.61 0 0 1-5.67-11.45 49.69 49.69 0 0 1 .39-12.12c1.18-9.54 2.5-19 3.59-28.6q6.62-57.87 7.88-116.17 1.29-58.5-2.84-116.94-4.1-58-13.46-115.49t-24.16-113.88q-3.65-13.89-7.62-27.69a.86.86 0 0 0-1.66.45z" fill="#000000" class="fill-000000"></path><g fill="#ff3030" class="fill-18c4ff"><path d="M289.5 928.67c1.28-.56 4.19 1.63 3.12 2.89s-3.37 1.84-4.9 2c-.42 0-.9-.07-1.3 0-.18-.19-.3-.14-.34.13a.77.77 0 0 1 .4 0 4 4 0 0 1 1.77 1.29c.9 1 2.25 2.74 1.25 4.09a3.26 3.26 0 0 1-1.42 1 4.47 4.47 0 0 1-1.07.29 8.47 8.47 0 0 0-1 0c-.4-.18-.5.09-.29.81a2.39 2.39 0 0 1 .75-.07 4 4 0 0 1 1.13.2 12.44 12.44 0 0 1 2.72 1.14c1.49.83 1.38 2.39.29 3.55a6 6 0 0 1-4.89 1.83c-1.79-.18-1.77 2.61 0 2.8a8.71 8.71 0 0 0 7.41-3.24 4.84 4.84 0 0 0-.71-7 13.25 13.25 0 0 0-3.69-1.73c-1.38-.45-3.24-.72-4.55.08a2.24 2.24 0 0 0-.75 3 3.4 3.4 0 0 0 3.42 1.44c2.26-.16 4.65-1.34 5.52-3.55 1-2.58-.72-5.43-2.62-7.11a5.14 5.14 0 0 0-3.21-1.49 2.71 2.71 0 0 0-2.87 2 2.63 2.63 0 0 0 1.49 2.74c1.29.65 3 .34 4.32 0 2.39-.6 6.64-2.49 5.47-5.64-.85-2.28-4-4.42-6.26-2.84a.81.81 0 0 0 .82 1.4zM279 950h.13c1.15.27 1.64-1.5.49-1.77h-.13c-1.53-.35-1.54 2.19 0 1.83h.13c1.15-.26.66-2-.49-1.77H279a.89.89 0 0 0 0 1.71zM282.82 928a1 1 0 0 0 0-2 1 1 0 0 0 0 2zM280.07 937.59l-.21-.23a.84.84 0 0 0-.28-.18.75.75 0 0 0-.33-.07.8.8 0 0 0-.34.07.71.71 0 0 0-.27.18l-.14.18a.82.82 0 0 0-.12.43v.23a.93.93 0 0 0 .23.38l.23.22a.65.65 0 0 0 .27.17.81.81 0 0 0 .66 0 .65.65 0 0 0 .27-.17l.13-.18a.79.79 0 0 0 .12-.42v-.23a1 1 0 0 0-.22-.38zM214.74 242.94c4.46-.63 17 3.78 17.78 13.31.11 1.36-.82 2.61-1 4-.54 4.68 4.71 7.69 9.11 9.4 14.39 5.61 29.22 6.61 34.9 21 4.42 11.16 1.51 23.73-1.45 35.37l-8.12 32c-3.56 14-7.09 29-2.39 42.66 2.14 6.22 5.87 11.74 8.64 17.7s4.6 12.81 2.62 19.08c-2.77 8.79-12 13.75-20.7 16.76-31.75 11-67.27 7.93-98.62-4.11-6.71-2.57-13.39-5.63-18.62-10.55s-8.83-12-8-19.17 5.71-13 7.42-19.91c3-12.25-4.23-24.35-9.6-35.76a130.14 130.14 0 0 1-12.35-57.11c.09-5.64.61-11.52 3.56-16.32 3.79-6.16 10.81-9.41 17.42-12.33l24.47-10.78c-2.78-11.08 6.34-23 17.75-22.34 0 0 .69 11.06-1.89 18.56 0 0 11.48 11.66 19.29 13.26s8.11-3.1 18.78-11.62c0 0 .65-12 .67-12.44z"></path></g><path d="M211.8 375.81a23.86 23.86 0 0 1 19.56-14.61c1.77-.16 3.73-.06 5.08 1.11a3.89 3.89 0 0 1-2.92 6.82 22.29 22.29 0 0 1 11.85-1.9 12.69 12.69 0 0 1 6.36 2.09 6.21 6.21 0 0 1 2.66 5.86c-.42 2.22-2.85 4-5 3.31 2.46-1.05 5.47 1.41 5.34 4.09s-2.78 4.79-5.45 4.81c2.6-1 5.42 2.22 4.65 4.91s-3.92 4.13-6.69 3.76c1.37 1.29 1.21 3.65.08 5.16a8.94 8.94 0 0 1-4.74 2.87 5 5 0 0 1-3.61.06c-1.1-.56-1.64-2.25-.69-3a61.06 61.06 0 0 1-26.09-.33" fill="#ffffff" class="fill-ffffff"></path><path d="M162.69 183.61a124.35 124.35 0 0 0-.31 13.65 91.42 91.42 0 0 0 1.24 14c1.61 9.13 5.46 17.56 12.71 23.55 4.32 3.57 9.23 6.72 14.68 8.2a20.72 20.72 0 0 0 15.29-1.83c8.76-4.51 16.15-13.11 18.84-22.62 1.52-5.38 1.81-11.09 2-16.65a183.22 183.22 0 0 0-.07-19 1.13 1.13 0 0 0-2.25 0c-.46 10.28.45 20.69-1.4 30.88a32.31 32.31 0 0 1-4.53 11.88 39.5 39.5 0 0 1-10 10.51c-4 2.92-8.85 5.18-14 4.66-5.31-.54-10.26-3.35-14.47-6.46a33.32 33.32 0 0 1-9.19-9.88 42.49 42.49 0 0 1-4.59-11.86 81.91 81.91 0 0 1-1.89-14.47c-.26-4.84-.1-9.7-.47-14.54a.83.83 0 0 0-1.65 0z" fill="#000000" class="fill-000000"></path><path d="M163.9 191.26a4.47 4.47 0 0 0-2.74-4.74 5.37 5.37 0 0 0-5.73 1.26 8.05 8.05 0 0 0-2.29 6.14 9.88 9.88 0 0 0 2.18 6.36 10.93 10.93 0 0 0 3.34 2.33 18 18 0 0 0 1.81.79 5 5 0 0 0 2.16.53 1.19 1.19 0 0 0 .59-2.19 6.65 6.65 0 0 0-1.69-.65 12.91 12.91 0 0 1-1.58-.67 9.6 9.6 0 0 1-2.66-1.73c-1.41-1.43-1.78-3.88-1.61-5.8a4.69 4.69 0 0 1 3-4.21 2.66 2.66 0 0 1 3.56 2.35c0 .93 1.53 1.2 1.67.23z" fill="#000000" class="fill-000000"></path><path d="M160.26 194.22h.26-.05.22c-.19 0-.13-.06-.05 0a1.64 1.64 0 0 1 .22.14c.09.06-.17-.16 0 0l.08.07.09.1c.1.12 0 0 0-.06a1.65 1.65 0 0 1 .28.5l-.1-.25c.06.16.13.32.19.47l-.1-.25a6.25 6.25 0 0 1 .34 1.14v-.29.06-.29.06l.11-.26v.07l.17-.22a1.84 1.84 0 0 0-.5.78 1.64 1.64 0 0 0 .15 1.17 1.62 1.62 0 0 0 .63.64 1.48 1.48 0 0 0 .71.19 1.22 1.22 0 0 0 .6-.16 1.68 1.68 0 0 0 .42-.42 1.12 1.12 0 0 0 .11-.84 1.35 1.35 0 0 0-.5-.65 1.29 1.29 0 0 0-.67-.18h.3-.1l.26.11-.09-.06.22.18-.1-.11.17.22-.06-.1.11.27a.83.83 0 0 1 0-.15v.3-.11.29a.23.23 0 0 1 0-.11l-.12.26v-.06l-.17.22a3 3 0 0 0 .23-.27 1.19 1.19 0 0 0 .28-.79 3 3 0 0 0-.2-.84 6.32 6.32 0 0 0-.31-.78 3.19 3.19 0 0 0-.46-.71 2.59 2.59 0 0 0-2.69-.92.82.82 0 0 0-.59.9.81.81 0 0 0 .81.72zM227.26 191a2.66 2.66 0 0 1 3.56-2.35 4.69 4.69 0 0 1 3 4.21c.17 1.92-.2 4.37-1.61 5.8a9.75 9.75 0 0 1-2.66 1.73 13.16 13.16 0 0 1-1.45.62 7.54 7.54 0 0 0-1.82.7 1.19 1.19 0 0 0 .59 2.19 7.7 7.7 0 0 0 3.47-1.08 14.35 14.35 0 0 0 3.16-1.92 8.94 8.94 0 0 0 2.8-6.11 8.62 8.62 0 0 0-1.69-6.46 5.65 5.65 0 0 0-5.51-2.1 4.53 4.53 0 0 0-3.5 5c.14 1 1.68.71 1.67-.23z" fill="#000000" class="fill-000000"></path><path d="M229.45 192.6a2.59 2.59 0 0 0-2.69.92 2.83 2.83 0 0 0-.45.69 6.71 6.71 0 0 0-.32.78 2.84 2.84 0 0 0-.2.86 1.25 1.25 0 0 0 .19.68 3.05 3.05 0 0 0 .32.38l-.17-.22v.06l-.11-.26a.45.45 0 0 1 0 .11v-.29.11-.3a.88.88 0 0 1-.05.15l.12-.27-.06.1.17-.22-.1.11.22-.18-.1.06.27-.11h-.1.29a1.28 1.28 0 0 0-.66.18 1.2 1.2 0 0 0-.5.65 1.07 1.07 0 0 0 .11.84 1.3 1.3 0 0 0 .42.42 1.22 1.22 0 0 0 .6.16 1.51 1.51 0 0 0 .69-.18 1.57 1.57 0 0 0 .65-.65 1.76 1.76 0 0 0 .16-1.15 1.72 1.72 0 0 0-.52-.8l.17.22v-.07l.11.26v-.06.29-.06.29a6.25 6.25 0 0 1 .34-1.14l-.11.25c.07-.15.14-.31.2-.47l-.1.25a2.1 2.1 0 0 1 .13-.26s.1-.22.15-.24-.15.18-.06.08l.09-.1.1-.09c.11-.12-.14.09 0 0a1.37 1.37 0 0 1 .2-.13s.17-.08 0 0h.12-.05a1.13 1.13 0 0 1 .26 0 .79.79 0 0 0 .58-.25.82.82 0 0 0-.36-1.37zM180.9 193.86a1.53 1.53 0 0 0-.43 0 1.64 1.64 0 0 0-.63.38l-.11.11a2.36 2.36 0 0 0-.26.36 1.72 1.72 0 0 0-.16.43 2.76 2.76 0 0 0-.06.4 4.05 4.05 0 0 0 .05.42 1.32 1.32 0 0 0 .17.41 1.43 1.43 0 0 0 .29.36 1.88 1.88 0 0 0 .36.27 2.14 2.14 0 0 0 .44.18 2.32 2.32 0 0 0 .45.06 2.87 2.87 0 0 0 .41-.05h.07a1.74 1.74 0 0 0 .67-.39 1.07 1.07 0 0 0 .28-.36 1.62 1.62 0 0 0 .21-.77 1.54 1.54 0 0 0-.05-.48.19.19 0 0 0 0-.07 3 3 0 0 0-.16-.37 1.33 1.33 0 0 0-.29-.38 1.69 1.69 0 0 0-.7-.4 1.51 1.51 0 0 0-.42-.05 1.45 1.45 0 0 0-.73.19l-.27.21a1.11 1.11 0 0 0-.28.43.69.69 0 0 0-.09.34 1 1 0 0 0 0 .54l.13.32.21.28a1.07 1.07 0 0 0 .44.28 1 1 0 0 0 .51.11h-.36.07l-.33-.13.1.05-.27-.21.07.07-.21-.27v.09l-.14-.32a.2.2 0 0 1 0 .11l-.05-.36a.14.14 0 0 1 0 .09l.05-.36a.14.14 0 0 1 0 .07l.14-.32a.21.21 0 0 1 0 .06l.21-.27-.06.06.27-.21h-.07l.31-.13h-.09.35-.12.35-.14l.32.13-.11-.06.26.2a.34.34 0 0 1-.08-.09l.2.26a.38.38 0 0 1-.09-.13l.13.3a.27.27 0 0 1 0-.12v.33a.43.43 0 0 1 0-.16v.32a.94.94 0 0 1 0-.16l-.11.28a.51.51 0 0 1 .09-.16l-.18.23.18-.23a.94.94 0 0 0 .06-.15 1.34 1.34 0 0 0 .07-.18l-.11.27a.3.3 0 0 1 0-.08 1.06 1.06 0 0 0 0-1.06 1 1 0 0 0-.38-.37 1.08 1.08 0 0 0-.53-.15zM177.29 190.52c.31-.12.63-.21.94-.31l.51-.14H181.18c.7 0 1.4.05 2.1.06a4.11 4.11 0 0 0 1.26-.11 1.51 1.51 0 0 0 1.08-1.82 1.28 1.28 0 0 0-1.21-.92 1.55 1.55 0 0 0-.84.19c.07 0 .27 0 .3-.07a1.33 1.33 0 0 1-.29 0h-1a20.75 20.75 0 0 0-2.09.06 11.22 11.22 0 0 0-2.16.37 5 5 0 0 0-2 1.11 1 1 0 0 0-.16 1.21 1 1 0 0 0 1.13.46zM207.68 195.44v.08l-.11-.27a1.34 1.34 0 0 0 .07.18.57.57 0 0 0 .15.26l.11.14-.18-.23a.51.51 0 0 1 .09.16l-.12-.28a.49.49 0 0 1 .05.16v-.32.16-.33a.53.53 0 0 1 0 .12l.13-.3-.09.13.2-.26a.34.34 0 0 1-.08.09l.26-.2-.11.06.31-.13a.31.31 0 0 1-.13 0h.34-.11.34-.09l.32.13h-.07l.26.21v-.06l.21.27v-.06l.14.32a.14.14 0 0 1 0-.07v.36-.09.36a.2.2 0 0 1 0-.11l-.14.32v-.09l-.21.27.07-.07-.27.21.1-.05-.33.13h.07-.36.36a1 1 0 0 0 .46-.24.69.69 0 0 0 .24-.24 1 1 0 0 0 .24-.46l.05-.36-.05-.35a1 1 0 0 0-.24-.46 1 1 0 0 0-.38-.35 1.48 1.48 0 0 0-.71-.19 1.81 1.81 0 0 0-.41.05 1.48 1.48 0 0 0-.7.39 1.64 1.64 0 0 0-.29.35 1.72 1.72 0 0 0-.18.42 1.55 1.55 0 0 0-.08.47 1.48 1.48 0 0 0 .06.47 1.61 1.61 0 0 0 .75 1 1.3 1.3 0 0 0 .42.18 2 2 0 0 0 .93 0 1.66 1.66 0 0 0 .43-.19 2 2 0 0 0 .36-.29 1.7 1.7 0 0 0 .39-.66 1.62 1.62 0 0 0 0-.95 1.54 1.54 0 0 0-.19-.44 2.06 2.06 0 0 0-.29-.37 1.43 1.43 0 0 0-1.09-.44 1.08 1.08 0 0 0-.53.15 1 1 0 0 0-.38.37 1.06 1.06 0 0 0 0 1.06zM213.17 188.85a5.09 5.09 0 0 0-2-1.09 11.1 11.1 0 0 0-2.22-.39 19.58 19.58 0 0 0-2-.06h-1.3.17c.23.06-.27-.1-.3-.11a1.21 1.21 0 0 0-.46 0 1.3 1.3 0 0 0-1.21.92 1.49 1.49 0 0 0 .91 1.76 3.52 3.52 0 0 0 1.37.17c.72 0 1.44-.05 2.16-.06a14 14 0 0 1 2.05.06h.09l.24.05.51.13c.33.11.67.21 1 .33.94.36 1.68-1 1-1.67zM192.15 209.36a5 5 0 0 0 2.95 1.3 4.74 4.74 0 0 0 1.55-.12 5.24 5.24 0 0 0 .76-.26 1.71 1.71 0 0 0 1-.73 1 1 0 0 0 0-1 1 1 0 0 0-.89-.51 2.27 2.27 0 0 0-.95.35c-.08 0-.18.08-.25.12.19-.12.1 0 0 0l-.13.05a6 6 0 0 1-.61.14h.06-1.08c-.04 0 .2 0 0 0h-.14l-.3-.08c-.1 0-.2-.06-.3-.09s-.15-.07-.05 0 0 0-.06 0a3.48 3.48 0 0 1-.56-.34.81.81 0 0 0-1 1.27zM177.19 263.16a102.32 102.32 0 0 0 2.08-17.16c.11-2.84 0-5.68-.12-8.52-.12-2.12-.09-4.31-2.09-5.55-1.38-.85-2.59 1.27-1.26 2.16.7.46.48 1.43.52 2.18.08 1.29.15 2.59.19 3.89.08 2.51.11 5 .08 7.54a138.89 138.89 0 0 1-1.09 15.25c-.12 1 1.5 1.18 1.69.23zM215 264.3c.39-5.76.67-11.52.94-17.28.13-2.71.21-5.41.34-8.12a22.21 22.21 0 0 1 1.63-7.37c.57-1.48-1.62-2.17-2.42-1-1.39 2-1.73 4.76-1.92 7.12-.23 2.87-.21 5.77-.24 8.65-.08 6-.15 12-.1 18a.89.89 0 0 0 1.77 0z" fill="#000000" class="fill-000000"></path><path d="M173.36 261.48c.51 3.27 3.24 5.46 5.61 7.48a73.34 73.34 0 0 0 8.83 6.68 35.92 35.92 0 0 0 4.85 2.51 13 13 0 0 0 5.48 1.38c1.92-.09 3.47-1.19 5-2.3s3-2.33 4.49-3.57a92.63 92.63 0 0 0 9.45-9.24c1.17-1.3-.75-3.24-1.92-1.92a94.76 94.76 0 0 1-9.63 9.38 62.12 62.12 0 0 1-5 3.88 4.49 4.49 0 0 1-3.37 1 15.29 15.29 0 0 1-3-.89 44.5 44.5 0 0 1-10.72-6.36c-3-2.24-7.21-4.71-8.41-8.48a.87.87 0 0 0-1.67.45zM187 216.55a10.33 10.33 0 0 0 3.47 2.75 9.58 9.58 0 0 0 4.51 1 1.1 1.1 0 1 0 0-2.19s-.18 0 0 0h-.24c-.24 0-.47-.05-.71-.08H193.74l-.47-.09a8.12 8.12 0 0 1-1-.25c-.29-.09-.66-.22-.88-.31a11.25 11.25 0 0 1-3.17-2 .85.85 0 0 0-1.2 0 .87.87 0 0 0 0 1.2zM163.88 187.66a286.91 286.91 0 0 0 38.73-20.84c3.58-2.29 7.33-4.94 8.7-9 1.95-5.69-2-12.18-7.44-14.67s-11.92-1.77-17.63.12c-9.16 3-17.47 9.1-22.23 17.49s-5.64 19.13-1.35 27.77" fill="#000000" class="fill-000000"></path><path d="M164.12 188.52a224.34 224.34 0 0 0 31.13-15.75q3.81-2.28 7.57-4.67a38.93 38.93 0 0 0 6-4.4c3.3-3.15 5-7.42 3.85-11.94a15.12 15.12 0 0 0-8.54-9.78c-4.88-2.12-10.39-1.89-15.46-.62a42.1 42.1 0 0 0-23.69 15.75c-6.63 9.2-8.34 21.76-3.33 32.08.69 1.41 2.8.17 2.11-1.24-4.12-8.48-3.15-18.82 1.54-26.87 4.46-7.64 12-13.24 20.22-16.22s20.05-3.64 24.26 5.86c1.8 4.06.6 8.13-2.51 11.16-3.46 3.37-8.05 5.77-12.16 8.24-10.24 6.17-20.9 11.53-31.63 16.76-.9.44-.26 2 .69 1.64z" fill="#000000" class="fill-000000"></path><path d="M206.68 158.6c.59 9.08 12 23.89 19 29.75 2.36 2-2-2.38 0 0 2.95-.89 4-4.52 4.14-7.6a37.12 37.12 0 0 0-3.64-18.05 20.86 20.86 0 0 0-7.29-8.83c-3.28-2.05-7.64-2.65-11-.81" fill="#000000" class="fill-000000"></path><path d="M205.81 158.6c.34 6.66 4.35 13 8.09 18.28a78.46 78.46 0 0 0 6.87 8.45c1 1.12 2.13 2.2 3.27 3.22.66.59 1.64 1.77 2.66 1.49a1.19 1.19 0 0 0 .88-1.16 3.38 3.38 0 0 0-2.45-2.47 1.2 1.2 0 0 0-1.17.88c-.22.77.39 1.38.83 1.92a1.2 1.2 0 0 0 1.18.31c2.91-1 4.31-3.78 4.8-6.66a32.77 32.77 0 0 0-.42-11.47c-1.35-7.1-4.83-15.45-11.5-19.09-3.61-2-8.06-2.48-11.76-.49-1.65.89-.2 3.31 1.46 2.5 3.65-1.77 7.91-.8 11 1.67s5.13 6.13 6.56 9.76a35.87 35.87 0 0 1 2.53 12.74c0 2.8 0 7.59-3.29 8.7l1.18.31c-.5-.6 0-.3-.22.45l-1.16.89c-.36 0-.74-.42-.57-.14a2.67 2.67 0 0 0 .38.37c.11.1.21.25.33.34.32.24-.05.07-.11-.52l.89-1.17c1.19-.33.9.33.63-.07a3.86 3.86 0 0 0-.65-.55q-.75-.66-1.47-1.35c-1-1-2-2-2.95-3.05a82.21 82.21 0 0 1-6.22-7.71 65.35 65.35 0 0 1-5.16-8.47 23 23 0 0 1-2.68-7.91c-.1-1.1-1.8-1.14-1.74 0zM162.22 203.29a36.16 36.16 0 0 0-9.93 6.81 21.24 21.24 0 0 0-5.89 10.38 17.54 17.54 0 0 0 24.25 19.72c2.09-.92 4.1-2.38 4.89-4.52a1.78 1.78 0 0 0 .12-1 2.11 2.11 0 0 0-.8-1 34.29 34.29 0 0 1-11.83-30" fill="#000000" class="fill-000000"></path><path d="M162 202.37c-7.3 2.56-14 8.3-16.58 15.75a19.56 19.56 0 0 0 4.58 19.75 19.27 19.27 0 0 0 20 4.31c2.95-1.12 7.26-3.67 7.12-7.36-.06-1.78-2.1-2.87-3.23-4a30.63 30.63 0 0 1-3.5-4.05 33.09 33.09 0 0 1-6-23.13c.21-1.8-2.61-1.78-2.82 0a35.49 35.49 0 0 0 3 18.78 36.14 36.14 0 0 0 5 8.06 32.24 32.24 0 0 0 3.43 3.58c.28.25.56.5.85.73.07.06.28.21.31.3 0-.12 0-.29-.1 0a4.46 4.46 0 0 1-1.38 1.95c-2.26 2.08-5.73 2.87-8.72 2.89a16.94 16.94 0 0 1-9-2.47 16.26 16.26 0 0 1-7.22-15.84 19.58 19.58 0 0 1 4.95-9.9c2.83-3.17 6.4-5.33 9.92-7.62.87-.56.34-2.13-.74-1.75z" fill="#000000" class="fill-000000"></path><path d="M162.68 446.12 216.33 434c22.35-5 44.8-10.1 66-18.65 3.69-1.48 7.6-3.3 9.48-6.8s1.26-7.7.6-11.59l-12.24-71.9c-.46-2.74-1.13-5.79-3.45-7.32-1.89-1.25-4.35-1.09-6.61-.89L242 319.33a18.67 18.67 0 0 0-7.23 1.63c-2.2 1.18-4 3.54-3.64 6s2.35 5.08.71 6.86a4.26 4.26 0 0 1-2 1c-26.38 8.23-54.07 11.4-80.84 18.18a8 8 0 0 0-3.83 1.76c-1.64 1.64-1.55 4.29-1.35 6.61q3.17 35.69 8.06 71.2" fill="#ffffff" class="fill-ffffff"></path><path d="M162.91 446.93c15.85-3.2 31.61-6.82 47.4-10.32 14.92-3.32 29.87-6.54 44.6-10.65 7.45-2.07 14.83-4.38 22.09-7.06a90.44 90.44 0 0 0 9.53-3.86 14.64 14.64 0 0 0 6.55-5.75c1.62-3 1.62-6.47 1.21-9.76-.48-3.78-1.22-7.54-1.86-11.3l-4-23.64-4.11-24.13-2-11.82c-.54-3.15-.77-6.7-2.38-9.53s-4.56-3.88-7.72-3.81c-3.8.08-7.62.63-11.4 1L249 317.31a98 98 0 0 0-11.23 1.17c-3.16.65-6.21 2.36-7.49 5.46a6.57 6.57 0 0 0-.3 4.13c.3 1.27 1.42 3 1.15 4.3s-2.87 1.55-3.86 1.84c-2 .59-4 1.16-6 1.7q-5.51 1.48-11.08 2.77c-14.88 3.45-29.93 6-44.87 9.13-3.81.8-7.62 1.63-11.41 2.53-1.78.42-3.56.84-5.33 1.3a9.31 9.31 0 0 0-4.45 2.12c-2.26 2.27-1.95 5.7-1.69 8.61q.52 5.91 1.1 11.81 2.31 23.61 5.36 47.14c.51 3.88 1 7.77 1.59 11.64.22 1.56 3 1.21 2.77-.37-2-15.27-3.94-30.55-5.57-45.87q-1.2-11.43-2.24-22.87c-.23-2.53-1.3-6.89 1.33-8.53a15.8 15.8 0 0 1 4.65-1.43q2.9-.72 5.8-1.38c14.41-3.31 29-5.82 43.47-8.85 7.15-1.49 14.27-3.12 21.33-5q2.52-.69 5-1.42a21.39 21.39 0 0 0 5-1.67c3-1.77 1.65-5 .86-7.54-2.36-7.71 10.71-7.35 15.09-7.74 7.66-.67 15.32-1.47 23-2a9.45 9.45 0 0 1 4.39.38 5.18 5.18 0 0 1 2.64 3.23c1.1 3.17 1.36 6.71 1.92 10l3.92 23.1 3.86 22.66 2 11.82c.62 3.61 1.4 7.24 1.81 10.88.35 3.14.24 6.5-1.91 9-1.92 2.24-4.76 3.52-7.43 4.61-6.78 2.77-13.71 5.15-20.71 7.3-14.05 4.33-28.38 7.65-42.7 10.93-15.05 3.44-30.13 6.81-45.15 10.37-3.73.88-7.46 1.77-11.17 2.7-1.07.26-.62 1.85.45 1.63zM180.39 286.13a3.22 3.22 0 0 0 .57 4.11 2.54 2.54 0 0 0 3.5-.26 2.32 2.32 0 0 0-.57-3.28c-1.89-1.25-2.67 1-3.31 2.35a114.44 114.44 0 0 0-8.07 23.79c-1 4.6-1.85 9.25-2.46 13.92l1.28-1.28a3.83 3.83 0 0 0-4.14 4c0 1 1.43 1.82 2.18.9l1.19-1.45-2.14-.56.7 2.22a1.28 1.28 0 0 0 2.51-.34v-3.29l-1.63 1.2c.35.07.62 1.09.87 1.39a2.61 2.61 0 0 0 1.39.94 1.8 1.8 0 0 0 1.56-.29 1.87 1.87 0 0 0 .6-.71l.12-.3c.2-.44.07-.43-.39 0l-.83-.35.13.14a1.15 1.15 0 0 0 1.81-1.39c-.64-1-2.57-1.07-2.88.32-.22.34-.16.39.19.17.35 0 .4-.15.15-.38a2.57 2.57 0 0 0-.41-.83 2.49 2.49 0 0 0-1.63-1.22 1.3 1.3 0 0 0-1.62 1.24v3.29l2.51-.34-.69-2.22a1.3 1.3 0 0 0-2.14-.57l-1.19 1.45 2.19.91a1.3 1.3 0 0 1 1.58-1.4c.75.08 1.2-.67 1.28-1.29a147.8 147.8 0 0 1 11-38.57l-1 .6c.1 0-.4-.42-.43-.46a1.69 1.69 0 0 1 0-1.44 1 1 0 0 0-1.81-.76z" fill="#000000" class="fill-000000"></path><path d="M209.93 283.46c-1.5 1.05-4.19 4.4-2 6a2.27 2.27 0 0 0 2.62-.07c1.08-.76 1.14-2.15 1-3.34l-2.3.62c1.15 2.23.64 4.79 0 7.09-.68 2.52-1.56 5.11-1.31 7.76.35 3.6 3.77 8.31 7.89 6.39 1.67-.77 2.73-2.74 1.6-4.42a3.37 3.37 0 0 0-4.55-.67c-3.63 2.4-1 8.23.63 11 2.1 3.7 5.56 7.36 5.16 11.91-.14 1.51 2.24 1.78 2.61.35l.44-1.68-2 .8a9.72 9.72 0 0 1 2.08 2 1.35 1.35 0 0 0 2.33-1.37 20.53 20.53 0 0 0-4.12-6l-1.6 2.17a17.58 17.58 0 0 0 5.18 1.78c.91.15 2.16-.62 1.72-1.72a4 4 0 0 0-2.45-2.44c-1.4-.56-2.37 1.77-1 2.44a1.34 1.34 0 0 1 .79.74l1.71-1.71a16.83 16.83 0 0 1-4.53-1.48 1.39 1.39 0 0 0-1.67 2.17 18.52 18.52 0 0 1 3.74 5.44l2.12-1.64a12.77 12.77 0 0 0-2.85-2.64 1.35 1.35 0 0 0-2 .8l-.43 1.68 2.62.36c.51-6.25-4.55-10.55-6.65-16-.45-1.16-1.16-3.08-.49-4.28.08-.16.84-.72.92-.46s-1 .47-1.24.45c-1.42-.11-2.46-1.62-2.88-2.84a9.54 9.54 0 0 1 .12-5.27c.94-4 2.38-8.13.26-12-.73-1.31-2.45-.34-2.26 1a7 7 0 0 1 0 1.13c.21.23.53-.74.55-.8a6.28 6.28 0 0 1 1.24-2c.6-.64-.19-1.83-1-1.28z" fill="#000000" class="fill-000000"></path><path d="M135.36 278.88c-10.66 3.61-24.5 14.62-31.49 23.45s-12.17 18.9-17.25 28.95c-10.08 20-20 40.47-23.15 62.6a151.23 151.23 0 0 0-1.08 26.91c.24 6.29.73 12.68 3 18.57 6.26 16.59 25.31 25.58 43 25.21s34.38-8.18 50-16.58 31.14-17.72 45.33-28.6c4.48-3.44 9.33-8.54 7.57-13.9 3.95-.66 6.8-4.48 7.46-8.43s-.43-8-1.8-11.74c-1.52-4.17-3.73-8.57-7.82-10.3s-10.05 1.29-9.36 5.68c-.3-4.13-5.76-5.4-9.88-5.08-10.27.8-20.09 4.38-29.76 7.92l-45.58 16.72c4-.51 5.36-5.44 6.18-9.36A69.31 69.31 0 0 1 132 365.18" fill="#ff3030" class="fill-18c4ff"></path><path d="M213.24 375.85a10 10 0 0 1 3.65-5.34 38.26 38.26 0 0 1 5.88-4.15 26.67 26.67 0 0 1 6.4-2.81 22.89 22.89 0 0 1 7-.56 1.23 1.23 0 0 0 .32-2.41c-5.13-1.12-11 1.15-15.3 3.89-4 2.55-8.92 6.12-9.57 11.16-.12.92 1.43 1.12 1.62.22zM233.91 369.69a36.82 36.82 0 0 1 5.3-1 21.46 21.46 0 0 1 4.87.32c1.57.26 3.14.56 4.71.85 1.19.23 2.6.44 3.35 1.49.88 1.24 2.87.15 2.07-1.21a5.56 5.56 0 0 0-3.67-2.37c-1.79-.45-3.64-.71-5.46-1a20.62 20.62 0 0 0-5.87-.23 38.25 38.25 0 0 0-5.79 1.33.93.93 0 0 0 .49 1.79zM249.07 379.75a3.75 3.75 0 0 1 .58-.13h.43a4.51 4.51 0 0 1 .52 0h.12l.29.05a5.47 5.47 0 0 1 .58.15l.21.07.14.06c.11 0 .09 0 0 0a2 2 0 0 1 .53.27 5.39 5.39 0 0 1 .5.33 1.07 1.07 0 0 0 .84.11 1.12 1.12 0 0 0 .66-.5 1.13 1.13 0 0 0-.39-1.51 6.41 6.41 0 0 0-5.43-.54.87.87 0 0 0 .46 1.67zM248.34 388.6l.35-.09c.11 0 .12 0 0 0h.18a3.11 3.11 0 0 1 .61 0h.17l.35.09c.2.06.41.12.61.2l.17.07c.08 0 .17.07.25.12.23.11.45.23.66.35.41.24.79.51 1.21.72a1.09 1.09 0 0 0 1.39-.28 1.08 1.08 0 0 0-.08-1.41 8.38 8.38 0 0 0-3.08-1.66 5 5 0 0 0-3.29.08.92.92 0 1 0 .49 1.78zM246.2 396.44a2.55 2.55 0 0 1 .88 2.83 4.6 4.6 0 0 1-2.61 2.51 8.25 8.25 0 0 1-3.66 1c-.76 0-2.45-.93-1.43-1.83l-1.79-1.79c-2 2-5.1 2.17-7.73 2.3a62.35 62.35 0 0 1-9.26-.7c-1.43-.14-1.55 2-.32 2.38 3.32 1.13 7.32 1.13 10.78.84 3-.25 6.14-.78 8.32-3a1.27 1.27 0 0 0-1.79-1.79c-1.58 1.41-1.12 3.94.42 5.18 2 1.58 4.78.8 6.85-.07s4.06-2.35 4.49-4.67c.36-2-.43-4.16-2.46-4.78-1-.31-1.48 1.08-.69 1.65z" fill="#000000" class="fill-000000"></path><g fill="#ffffff" class="fill-ffffff"><path d="M112.89 303.2A110.66 110.66 0 0 0 119 349c.43 1.16 2.27.69 1.88-.52a131.47 131.47 0 0 1-5.3-22.23 121.56 121.56 0 0 1-1-23c0-1.06-1.58-1.05-1.65 0zM121.83 361.56l1.79-.88a1 1 0 0 0 .34-1.32 1 1 0 0 0-.57-.44 1.06 1.06 0 0 0-.74.1l-1.78.9a1 1 0 0 0-.44.57 1 1 0 0 0 .67 1.17h.25a.91.91 0 0 0 .48-.13zM279 293.13a37.72 37.72 0 0 1-1.19 16.46 1.05 1.05 0 0 0 2 .55 38.18 38.18 0 0 0 .89-17.49c-.2-1.15-1.9-.65-1.73.48zM278.43 316.73a1.06 1.06 0 0 0 0-2.12 1.06 1.06 0 0 0 0 2.12zM201 384.81c1.46 2.73 2.91 5.47 4.21 8.28.66 1.42 1.29 2.86 1.87 4.31a36 36 0 0 0 1.72 4.25 1 1 0 0 0 1.74-.73 22.55 22.55 0 0 0-1.61-4.3c-.63-1.47-1.28-2.93-2-4.37a76.25 76.25 0 0 0-4.54-8.27.82.82 0 0 0-1.42.83zM373.76 277.56a19.66 19.66 0 0 1 11.24 5.31c.85.81 2.15-.49 1.29-1.29a21.66 21.66 0 0 0-12.54-5.75.87.87 0 0 0-.86.86.9.9 0 0 0 .86.87z"></path></g><g fill="#ff3030" class="fill-18c4ff"><path d="M129.51 488.46a52.32 52.32 0 0 0 22.49-15.1c.89-1-.59-2.51-1.48-1.49a53.79 53.79 0 0 1-21.47 14.9c-1 .4-.62 2.06.46 1.69zM247.78 469.35a30 30 0 0 0 21.61 19.07c1.19.25 1.7-1.53.51-1.83a29.93 29.93 0 0 1-20.53-17.68c-.39-1-2-.59-1.59.44zM113.75 669a36.66 36.66 0 0 0 19.43 2.68c1-.13.77-1.89-.24-1.77a36 36 0 0 1-18.54-2.46c-.88-.37-1.54 1.17-.65 1.55zM116.89 685.13h13.38a.89.89 0 0 0 0-1.77h-13.38a.85.85 0 0 0 0 1.7zM258.8 673.17a38.38 38.38 0 0 0 15-1.26 1 1 0 0 0-.53-1.95 36.86 36.86 0 0 1-14.47 1.26c-1.25-.13-1.23 1.81 0 1.95zM261.7 690.42l13.42-2.49c1.22-.23.71-2.09-.51-1.86l-13.41 2.55c-1.18.22-.68 2 .5 1.8zM750.78 399c103.27 0 187-83.71 187-187v-.69h-187zM750.78 25c-103 0-186.59 83.34-187 186.29h187zM937.75 211.29C937.38 108.34 853.82 25 750.78 25v186.29z"></path></g><path d="M750.78 23.8a188 188 0 0 0-188 180.1q-.15 3.69-.17 7.39a1.21 1.21 0 0 0 1.2 1.19h179.34c2.44 0 4.88.07 7.31 0h.32a1.21 1.21 0 0 0 1.2-1.19V32.6c0-2.43.07-4.87 0-7.29V25a1.2 1.2 0 0 0-2.4 0v178.69a68.18 68.18 0 0 0 0 7.29v.31l1.2-1.2H571.44a68.56 68.56 0 0 0-7.31 0h-.32l1.2 1.2A185.58 185.58 0 0 1 743.39 26.34c2.46-.09 4.93-.14 7.39-.14a1.2 1.2 0 0 0 0-2.4z" fill="#000000" class="fill-000000"></path><path d="M939 211.29A188 188 0 0 0 758.17 23.94q-3.69-.14-7.39-.14a1.22 1.22 0 0 0-1.2 1.2v178.69c0 2.42-.07 4.86 0 7.29v.31a1.21 1.21 0 0 0 1.2 1.19h179.35c2.43 0 4.87.07 7.3 0h.32a1.2 1.2 0 0 0 0-2.39H758.41a68.56 68.56 0 0 0-7.31 0h-.32l1.2 1.2V32.6a68.18 68.18 0 0 0 0-7.29V25l-1.2 1.2a185.55 185.55 0 0 1 185.6 177.7c.11 2.46.16 4.92.17 7.39a1.2 1.2 0 0 0 2.45 0z" fill="#000000" class="fill-000000"></path><path d="M750.78 400.16a188 188 0 0 0 188.06-181.5c.09-2.45.15-4.92.11-7.37a1.22 1.22 0 0 0-1.2-1.2H758.41c-2.43 0-4.88-.07-7.31 0h-.32a1.22 1.22 0 0 0-1.2 1.2v180c0 2.43-.07 4.89 0 7.32v.32a1.2 1.2 0 0 0 2.4 0v-180a68.93 68.93 0 0 0 0-7.33v-.31l-1.2 1.19h179.35a68.37 68.37 0 0 0 7.3 0h.32l-1.2-1.19a181.46 181.46 0 0 1-8.91 57.71 185.59 185.59 0 0 1-169.47 128.62c-2.46.09-4.93.14-7.39.14a1.2 1.2 0 0 0 0 2.4z" fill="#000000" class="fill-000000"></path><g fill="#ffffff" class="fill-ffffff"><path d="M750.78 62.4a149.58 149.58 0 0 0-149.58 149h149.58zM900.36 211.42a149.58 149.58 0 0 0-149.58-149v149zM750.78 361.57A149.59 149.59 0 0 0 900.37 212v-.56H750.78z"></path></g><path d="M750.78 61.2a150.66 150.66 0 0 0-150.64 144.25c-.08 2-.13 4-.13 6a1.21 1.21 0 0 0 1.19 1.2h131.14c6 0 12.14.22 18.19 0h.25a1.22 1.22 0 0 0 1.2-1.2V80.71c0-6 .21-12.06 0-18.06v-.25a1.2 1.2 0 0 0-2.4 0v142.93a43.77 43.77 0 0 0 0 5.84 2.09 2.09 0 0 1 0 .25l1.2-1.19h-143.5a41.87 41.87 0 0 0-5.82 0 2.25 2.25 0 0 1-.26 0l1.2 1.19A148.27 148.27 0 0 1 660.72 94a147.77 147.77 0 0 1 84.08-30.29c2-.08 4-.11 6-.11a1.2 1.2 0 0 0-.02-2.4z" fill="#000000" class="fill-000000"></path><path d="M901.56 211.42a151.63 151.63 0 0 0-7.49-46.48 150.07 150.07 0 0 0-20.56-40.56 152.49 152.49 0 0 0-31.19-32.22 150.15 150.15 0 0 0-85.56-30.85c-2-.07-4-.11-6-.11a1.22 1.22 0 0 0-1.2 1.2v130.71c0 6-.21 12.06 0 18.06a2.09 2.09 0 0 1 0 .25 1.22 1.22 0 0 0 1.2 1.2h131.16c6.05 0 12.14.22 18.19 0h.25a1.2 1.2 0 0 0 0-2.39h-143.5a41.87 41.87 0 0 0-5.82 0 2.25 2.25 0 0 1-.26 0l1.2 1.19V68.49a42.16 42.16 0 0 0 0-5.84 2.09 2.09 0 0 1 0-.25l-1.2 1.2A148.21 148.21 0 0 1 899 205.45c.09 2 .13 4 .14 6a1.2 1.2 0 0 0 2.42-.03z" fill="#000000" class="fill-000000"></path><path d="M750.78 362.76a150.62 150.62 0 0 0 150.69-145.5c.07-1.94.12-3.89.09-5.84a1.21 1.21 0 0 0-1.2-1.19H769.22c-6.05 0-12.14-.22-18.18 0h-.26a1.21 1.21 0 0 0-1.2 1.19v131.75c0 6-.2 12.1 0 18.13a2.43 2.43 0 0 1 0 .27 1.2 1.2 0 0 0 2.4 0v-144a45.68 45.68 0 0 0 0-5.85 2.43 2.43 0 0 1 0-.27l-1.2 1.2h143.5a42 42 0 0 0 5.83 0h.25l-1.2-1.2a145.06 145.06 0 0 1-7 45.86 148.21 148.21 0 0 1-135.37 103c-2 .08-4 .11-6 .12a1.2 1.2 0 0 0-.01 2.33z" fill="#000000" class="fill-000000"></path><g fill="#ff3030" class="fill-18c4ff"><path d="M660.67 132.22a7.2 7.2 0 0 0-6.66 5.24 7 7 0 0 0 3 7.94 7.65 7.65 0 0 0 8.49.06 10.29 10.29 0 0 0 4-9.92 6 6 0 0 0-3.77-4.44 4.13 4.13 0 0 0-3.09 0 2.18 2.18 0 0 0-.82 3 1.33 1.33 0 0 0 2.42-1c0 .14-.26.75-.35.66a3 3 0 0 0 .66 0 2.56 2.56 0 0 1 1.21.67 3.89 3.89 0 0 1 1 3.09 7.29 7.29 0 0 1-3.46 6 4.19 4.19 0 0 1-1.12.38 2.44 2.44 0 0 1-.55.06 8.1 8.1 0 0 1-.85 0 7.29 7.29 0 0 1-1.22-.3 5.23 5.23 0 0 1-1.2-.61 4.36 4.36 0 0 1-2-4.56 5.9 5.9 0 0 1 4.55-4.55c1-.18.7-1.66-.23-1.67zM666.16 166.56a1.16 1.16 0 0 0 .64 0 1.13 1.13 0 0 0 .54-.31c.06-.06.24-.32.19-.24a1.69 1.69 0 0 0 .12-.28 1.86 1.86 0 0 0 0-.33 2 2 0 0 0-.05-.35 2.52 2.52 0 0 0-.12-.29l-.17-.23a1.22 1.22 0 0 0-.53-.3 1.25 1.25 0 0 0-.32 0h-.29a.91.91 0 0 0-.38.19.84.84 0 0 0-.28.31.86.86 0 0 0-.13.41.82.82 0 0 0 0 .44l.11.26a1.1 1.1 0 0 0 .4.4l.26.11a1.14 1.14 0 0 0 .58 0h-.58l-.26-.11-.22-.18-.18-.23-.12-.26a.14.14 0 0 1 0 .06v-.29.08-.3a.14.14 0 0 1 0 .06l.12-.26.18-.23.23-.17.26-.12h.6a.83.83 0 0 0-.44 0 .9.9 0 0 0-.42.13 1.28 1.28 0 0 0-.51.67v.29a1.09 1.09 0 0 0 .15.56l.18.23a1.05 1.05 0 0 0 .49.28zM641.44 163.53a6 6 0 0 0 4.18 7.11 1.1 1.1 0 0 0 .59-2.12l-.45-.14s-.23-.11-.08 0l-.12-.06a7.82 7.82 0 0 1-.72-.45c-.11-.07.16.14 0 0l-.17-.16a3.34 3.34 0 0 1-.33-.32 1.48 1.48 0 0 1-.26-.3c.13.23 0 0 0 0l-.13-.2a4.51 4.51 0 0 1-.4-.75c.11.24 0-.16-.08-.23s-.08-.27-.11-.41a1.85 1.85 0 0 1 0-.23c0-.06 0-.3 0 0v-.85c0-.16.05-.29 0-.05 0-.07 0-.15.05-.23a1 1 0 1 0-1.88-.52zM691.39 173.65l1.12-1.4c.43-.54.83-1.1 1.23-1.65a1.23 1.23 0 0 0 .12-.92 1.25 1.25 0 0 0-.55-.71 1.21 1.21 0 0 0-1.62.43c-.32.5-.66 1-1 1.5l-.91 1.54a1 1 0 0 0 .26 1.29.92.92 0 0 0 .6.22.94.94 0 0 0 .71-.3zM689.91 152.89c.15-.15.31-.29.47-.43l.13-.1c-.19.13 0 0 0 0l.27-.19.54-.33.29-.14a1.25 1.25 0 0 1 .33-.16s-.2.08 0 0l.15-.06.3-.12.61-.2q.33-.09.66-.15h.48a1 1 0 0 0 1-1 1 1 0 0 0-1-1 8.24 8.24 0 0 0-5.64 2.54 1 1 0 0 0 1.44 1.43zM719.13 155.75v-.31.25a2.46 2.46 0 0 1 .16-.59l-.1.24a3.24 3.24 0 0 1 .17-.32l-.16.21.12-.14.14-.19-2-.54v1a1.12 1.12 0 0 0 .15.56l.18.22a1 1 0 0 0 .49.29 1.24 1.24 0 0 0 .85-.11.79.79 0 0 0 .31-.29.78.78 0 0 0 .2-.38 1 1 0 0 0 0-.59l-.14-1-.1-.25-.17-.22-.22-.16a.79.79 0 0 0-.39-.13.71.71 0 0 0-.29 0 .68.68 0 0 0-.27.07.49.49 0 0 0-.23.14.89.89 0 0 0-.28.3 2 2 0 0 0-.1.21c0 .09 0 .14-.07.22l.1-.25a3.66 3.66 0 0 0-.21.55 5.4 5.4 0 0 0-.1.58 3.4 3.4 0 0 0 0 .9.76.76 0 0 0 .17.32.75.75 0 0 0 .26.24l.23.1a.67.67 0 0 0 .37 0 .5.5 0 0 0 .24-.06.8.8 0 0 0 .3-.19 1 1 0 0 0 .27-.67zM714.44 177.62c-3.44-.74-6.24 2-7.35 5a8.49 8.49 0 0 0 1.65 8.6 5.64 5.64 0 0 0 4.48 1.68 8.14 8.14 0 0 0 4.78-2.37c2.59-2.46 4.66-6.58 3.5-10.19-1.11-3.43-5.56-5.69-8.57-3.12-1.16 1 .34 2.87 1.62 2.1a1.67 1.67 0 0 1 1-.3 2.57 2.57 0 0 1 1.21.18 3.42 3.42 0 0 1 1.88 1.82 5.36 5.36 0 0 1-.08 3.35 9.68 9.68 0 0 1-1.88 3.32c-1.41 1.63-3.82 3.32-5.77 1.77-1.35-1.06-1.92-3.43-1.66-5.24.31-2.14 2.13-5.1 4.65-4.65 1.28.22 1.85-1.7.55-2zM692.32 190.69a1 1 0 0 0 0-2.05 1 1 0 0 0 0 2.05zM665.1 189.79a1 1 0 0 0 0-2 1 1 0 0 0 0 2zM691.63 99.72c.77 3.18-.43 6.42-.72 9.58-.23 2.61.16 6.88 3.32 7.61a3.35 3.35 0 0 0 3.61-1.83c.87-1.59.47-3.36.3-5.06a18.55 18.55 0 0 1 .21-5.26c.31-1.69 1.19-3.32 1.32-5 .31-4-5.22-5.31-8.16-4.16-1.47.58-.9 3 .68 2.43a4.71 4.71 0 0 1 4.21.46c.83.58.76 1.14.47 2-.24.75-.52 1.48-.72 2.24a21.47 21.47 0 0 0-.7 5.41 21.12 21.12 0 0 0 .15 2.38 9.24 9.24 0 0 1 .2 2.82c-.09.48-.43 1.24-1 1.17s-.89-.74-1.07-1.14a9.22 9.22 0 0 1-.44-4.69c.3-3.17 1.12-6.32.2-9.47a1 1 0 0 0-1.83.5zM714.37 125.41v1.78a1.19 1.19 0 0 0 .34.82 1.11 1.11 0 0 0 .82.34 1.15 1.15 0 0 0 .82-.34 1.17 1.17 0 0 0 .34-.82v-1.78a1.19 1.19 0 0 0-.34-.82 1.11 1.11 0 0 0-.82-.34 1.15 1.15 0 0 0-.82.34 1.17 1.17 0 0 0-.34.82zM725.49 135.06l.89-4.46a1.07 1.07 0 1 0-2.07-.57l-.89 4.46a1.07 1.07 0 0 0 2.07.57zM726.37 103.79c.27.07.54.15.8.24.07 0 .32.17.39.15s-.19-.09 0 0l.23.1a9.44 9.44 0 0 1 1.4.84s.15.13.16.12-.17-.14 0 0l.32.27a8.21 8.21 0 0 1 .6.58l.28.31a1.47 1.47 0 0 0 .1.13l.08.1c.06.07 0 0 0-.07 0 .06.18.25.22.31s.17.25.25.38a1.16 1.16 0 0 0 2-1.17 10.26 10.26 0 0 0-6.11-4.46 1.14 1.14 0 0 0-.61 2.2zM731.15 155a1.08 1.08 0 0 0 0-2.15 1.08 1.08 0 0 0 0 2.15zM637.51 182.62c-1.75 2-3.67 4.46-3.41 7.24a5.34 5.34 0 0 0 4.33 4.74 5.73 5.73 0 0 0 6-2.51 6.79 6.79 0 0 0 .25-6.87 7.46 7.46 0 0 0-2.86-2.85 8.51 8.51 0 0 0-2-.81 4.6 4.6 0 0 0-2.33-.07 1.29 1.29 0 0 0 0 2.46 6 6 0 0 0 .93.22h.36c.21 0 .43.1.64.16l.35.12c.26.08 0 0 .21.09a6.2 6.2 0 0 1 1.14.67c-.12-.09.22.2.28.25s.42.43.49.51a5.76 5.76 0 0 1 .58 1c-.08-.19 0 .07 0 .12s.08.22.11.33l.06.26s.06.44 0 .18a5.63 5.63 0 0 1 0 1.23c0-.23 0 0 0 0l-.06.27c0 .11-.06.22-.09.33a1.72 1.72 0 0 0-.09.28 7.65 7.65 0 0 1-.5.88s-.24.27-.34.36a1.8 1.8 0 0 1-.2.19c-.19.17.06 0-.16.11a5.14 5.14 0 0 1-.51.29c-.2.1.28-.07-.09 0l-.24.07-.25.06h-1.03c-.21 0-.41-.09-.62-.16a2.29 2.29 0 0 1-.83-.39s-.3-.22-.17-.12-.18-.16-.16-.14a3.89 3.89 0 0 1-.34-.36c.13.16 0-.05 0-.1a2.26 2.26 0 0 1-.16-.26s-.1-.22 0 0a2.7 2.7 0 0 1-.16-.48c-.54-2.08 1.21-4.31 2.47-5.82a1.15 1.15 0 0 0 0-1.57 1.12 1.12 0 0 0-1.57 0zM730.57 192.93l1.28.55a1.13 1.13 0 0 0 .6.17l.32-.05a1.22 1.22 0 0 0 .53-.3 1.32 1.32 0 0 0 .35-.85.89.89 0 0 0-.1-.46.9.9 0 0 0-.25-.39 1.24 1.24 0 0 0-.53-.31l-1.37-.29a.9.9 0 0 0-.43 0 .82.82 0 0 0-.4.13l-.22.17a.8.8 0 0 0-.22.35.5.5 0 0 0-.07.27.79.79 0 0 0 0 .43l.11.25a1.09 1.09 0 0 0 .38.39zM738.29 120a.81.81 0 0 0 0-1.62.81.81 0 0 0 0 1.62zM793.68 163.3a34.88 34.88 0 0 0-5.25 12.34 4.76 4.76 0 0 0 2 5.27 9.84 9.84 0 0 0 5.47 1.3 11.87 11.87 0 0 0 9.87-5.28 10.54 10.54 0 0 0 .31-10.91c-2.11-3.43-6.76-5.64-10.66-4.1a1.38 1.38 0 0 0 .73 2.65 7.09 7.09 0 0 1 7 2.39 7.32 7.32 0 0 1 .63 7.62 8.69 8.69 0 0 1-6.82 4.74 9.44 9.44 0 0 1-4.32-.41 3 3 0 0 1-1.44-.91 2.78 2.78 0 0 1-.17-2.26 35.52 35.52 0 0 1 4.5-11.35c.72-1.19-1.1-2.24-1.86-1.09zM774 185.42c.1.21.21.41.32.61-.05-.1.07.17.08.2s.12.31.2.45a6.45 6.45 0 0 0 .86 1.16 4.13 4.13 0 0 0 2.6 1.42c1.93.19 4-1.47 3.47-3.5a1.13 1.13 0 1 0-2.17.6v.13-.13a.54.54 0 0 0 0 .22c0-.08.05-.26 0 0v.06-.09a.68.68 0 0 0-.09.17c-.13.21 0 0 0 0l-.16.17-.08.07-.03.04-.18.11c-.21.11.21-.07 0 0l-.21.07-.24.05c-.08 0 .23 0 0 0h-.25c-.2 0 .21 0 0 0l-.21-.05c-.07 0-.24-.09-.07 0a2.77 2.77 0 0 1-.48-.26s-.27-.2-.1-.06l-.2-.17-.36-.35-.17-.2-.14-.17a2.19 2.19 0 0 0-.13-.19l-.26-.31a4.05 4.05 0 0 1-.56-.82.82.82 0 0 0-1.1-.28.81.81 0 0 0-.28 1.09zM779.85 146.05l1.78-2.69a1.19 1.19 0 0 0 .11-.89 1.15 1.15 0 0 0-2.1-.27l-1.77 2.69a1.15 1.15 0 0 0 2 1.16zM766.85 163h2.67a1 1 0 0 0 1-1 1 1 0 0 0-1-1h-2.67a1 1 0 1 0 0 1.94zM783.31 97.75a13.19 13.19 0 0 0-9.16 4.83 10.12 10.12 0 0 0-1.73 9.71 9.35 9.35 0 0 0 6.8 6.31 11.44 11.44 0 0 0 6.42-.91 9.27 9.27 0 0 0 4.56-3.39c1.31-2.09.89-4.66 0-6.82a41.81 41.81 0 0 0-3.85-7 1.4 1.4 0 0 0-2.16-.27 2.45 2.45 0 0 0-.52 3c.63 1.36 2.49.33 2.26-1 0 .12 0 0 .2-.15l-2.16-.28q1.53 2.37 2.82 4.87c.73 1.45 1.65 3.18 1.45 4.87a4.19 4.19 0 0 1-2.63 3 10.46 10.46 0 0 1-5 1.32 6.52 6.52 0 0 1-5.56-4.14 7.59 7.59 0 0 1 .63-7.21 11.58 11.58 0 0 1 7.87-4.88c1.12-.18.87-2.1-.27-2zM799.42 130.59h1.34a1 1 0 0 0 .45-.1.82.82 0 0 0 .38-.25.84.84 0 0 0 .25-.37 1 1 0 0 0 .1-.46 1.18 1.18 0 0 0-1.18-1.17h-1.34a1.19 1.19 0 0 0-.82.34 1 1 0 0 0-.24.38.92.92 0 0 0-.1.44 1.22 1.22 0 0 0 .34.83 1.31 1.31 0 0 0 .82.34zM823 133.54l-.45-2.23a1.28 1.28 0 0 0-1.58-.9 1.32 1.32 0 0 0-.77.6l-.13.3a1.34 1.34 0 0 0 0 .69l.45 2.23a1.28 1.28 0 0 0 1.58.9 1.34 1.34 0 0 0 .77-.59l.13-.31a1.34 1.34 0 0 0 0-.69zM765.64 129.07l3.13-1.78a1.15 1.15 0 1 0-1.16-2l-3.12 1.79a1.15 1.15 0 0 0-.41 1.56 1.17 1.17 0 0 0 1.56.41zM778.09 81.32a3 3 0 0 0 .68 4.68 3.13 3.13 0 0 0 4.41-2.83l-1.4 1.07a12.17 12.17 0 0 1 4.58 1.53 1.08 1.08 0 0 0 1.08-1.86 11.42 11.42 0 0 0-5.36-1.84 1.11 1.11 0 0 0-1.11 1.1v.23c0 .07-.13.37-.06.23 0 .06-.2.33-.12.22a1.38 1.38 0 0 1-.3.29c.1-.07-.17.1-.23.13.11 0-.18 0-.24.06h-.35l-.17-.1c-.12-.08.09.08 0 0l-.13-.13c-.1-.11.06.09 0 0a1.14 1.14 0 0 1-.25-.56 1.1 1.1 0 0 1 .21-.95.84.84 0 0 0-1.18-1.19zM818.71 103.24l-.3-1.62-1.73 1.38c.62.29 1.22.63 1.82 1a18.1 18.1 0 0 1 1.73 1.1 1.16 1.16 0 0 0 .89.12 1.25 1.25 0 0 0 .6-.41 1.12 1.12 0 0 0 .24-.7 1.1 1.1 0 0 0-.33-.81 19.71 19.71 0 0 0-1.92-1.37 15 15 0 0 0-2.13-1 1.15 1.15 0 0 0-1.14.3 1.19 1.19 0 0 0-.3 1.15c.12.53.25 1.06.38 1.6a1.14 1.14 0 0 0 2.19-.61zM845.09 124.84l.64 2.46c.22.83.47 1.63.73 2.44a1.19 1.19 0 0 0 1.43.82 1.2 1.2 0 0 0 .81-1.43c-.18-.83-.37-1.66-.59-2.48l-.66-2.46a1.22 1.22 0 0 0-2.36.65zM854.45 153c-3.28-2.69-8.11-2.13-11.22.55-3.74 3.22-3.9 8.95-1.93 13.15a10.84 10.84 0 0 0 5 5.25 7.83 7.83 0 0 0 7.39-.51c4.14-2.44 7.43-7.75 6.5-12.65a7.78 7.78 0 0 0-5.59-5.79c-3.18-1-6.41-.22-9.5.71a1.39 1.39 0 0 0 .74 2.68c3.36-.63 8.9-1.88 10.91 2 1.66 3.21-.92 7.32-3.27 9.41a6.21 6.21 0 0 1-4.66 1.83 6.49 6.49 0 0 1-4.29-3.06c-2-3-2.63-7.21-.55-10.32 1.89-2.81 6.37-4.06 9.18-1.89.93.73 2.27-.55 1.32-1.32zM818.61 147.84a1 1 0 0 0 0-2 1 1 0 0 0 0 2zM793.31 145.36l4 4a1.07 1.07 0 0 0 1.51 0 1.09 1.09 0 0 0 0-1.5l-4-4a1.07 1.07 0 1 0-1.52 1.52zM838.72 183.31c-2.84-.18-4.2 3-4.59 5.32-.28 1.65-.22 3.32 1.3 4.35a5 5 0 0 0 3.82.51c2.6-.6 4.48-3.08 5.13-5.56a8.38 8.38 0 0 0-1.56-7.54c-1.2-1.43-3.36-2.42-5.12-1.39a2.91 2.91 0 0 0-.74 4.5 1.34 1.34 0 0 0 1.89-1.89s.16.25.06.11 0 .09 0 0v-.06c0 .16 0 .15 0 0 0 0-.16.29 0 0 0 0 .16-.21 0 0 .06-.08.13-.13.19-.2-.14.15 0 0 0 0-.27.07.09 0 0 0a2.89 2.89 0 0 1 1.87 1.41 5.68 5.68 0 0 1 .59 4.41 5.28 5.28 0 0 1-2.7 3.57 3.14 3.14 0 0 1-1.91.19 2.5 2.5 0 0 1-.25-.09c.18.09-.06 0-.1-.07s-.21-.2-.14-.1a.55.55 0 0 1-.17-.37 3.37 3.37 0 0 1 0-.84c.11-1.21.54-4.15 2.24-4.21a1 1 0 0 0 0-2zM817.72 194.35a1.11 1.11 0 0 0 0-2.22 1.11 1.11 0 0 0 0 2.22zM779.53 195.5l1.79.45a1 1 0 0 0 .74-.1.94.94 0 0 0 .44-.57.92.92 0 0 0-.1-.74.94.94 0 0 0-.57-.44l-1.79-.45a1 1 0 0 0-.74.1.94.94 0 0 0-.44.57 1 1 0 0 0 .67 1.18zM824.42 171.21l2.23.24c.74.08 1.49.11 2.23.15a1.17 1.17 0 0 0 .31-2.3c-.83-.12-1.66-.26-2.5-.34l-2.27-.22a1.23 1.23 0 0 0-.87.36 1.22 1.22 0 0 0 0 1.75 1.45 1.45 0 0 0 .87.36zM874.61 185.43c-3.66 3-4.53 9-1.49 12.69 1.63 2 4.56 3 6.72 1.23a10.38 10.38 0 0 0 2.68-7.74c-.48-2.87-3.95-4.91-6.38-2.83-1.09.94.36 2.87 1.56 2a1.05 1.05 0 0 1 1.29 0 1.79 1.79 0 0 1 .94 1.47 6.53 6.53 0 0 1-.59 3.07 4.82 4.82 0 0 1-1.24 2.13c-1.15.92-2.79-.35-3.46-1.33a7.13 7.13 0 0 1-1.12-4.65 7.41 7.41 0 0 1 2.36-4.8c.88-.79-.39-2-1.27-1.27zM767 227.59a5.4 5.4 0 0 0-.14 1 5.52 5.52 0 0 0 .16 1.08 5.31 5.31 0 0 0 .9 1.85 5.76 5.76 0 0 0 3.41 2.27 3.48 3.48 0 0 0 2.55-.34 3.39 3.39 0 0 0 1.34-1.73c.6-1.64-.11-3.3-.83-4.77l-1.31 1.71c.94.29 1.9.55 2.85.82a1.14 1.14 0 0 0 .61-2.2c-.95-.29-1.89-.6-2.84-.87a1.18 1.18 0 0 0-1.32 1.71 9.23 9.23 0 0 1 .68 1.55 2.46 2.46 0 0 1 .12.71 1.36 1.36 0 0 1 0 .35v.17a1.24 1.24 0 0 1-.21.48.62.62 0 0 1-.25.23 1.82 1.82 0 0 1-1.2 0 3.77 3.77 0 0 1-1.93-1.38 5.59 5.59 0 0 1-.62-1.14 5.29 5.29 0 0 1-.33-1.33.81.81 0 0 0-1.59-.22zM807.46 224.6c-1.84-1.4-4.56-.74-6.09.8-1.9 1.92-2 4.87-1.67 7.39s1.77 5.21 4.56 5.63c2.94.44 4.68-2.18 5.43-4.65a13.3 13.3 0 0 0-.7-9.25 1.4 1.4 0 0 0-1.87-.49 4 4 0 0 0-2.25 4 1.41 1.41 0 0 0 1.35 1.35 1.35 1.35 0 0 0 1.35-1.35 1.46 1.46 0 0 1 .93-1.64l-1.87-.49a10.39 10.39 0 0 1 .85 5.69c-.18 1.33-.68 3.67-2.11 4.24-1.69.68-2.86-1.54-3.19-2.82a7.64 7.64 0 0 1 .24-5.39c.76-1.4 2.62-2.32 4-1.31a1 1 0 0 0 1.35-.35 1 1 0 0 0-.35-1.36zM787.23 259.53l-1.36-.25c-.53-.1-1.08-.13-1.62-.19a1.11 1.11 0 0 0-.76.32 1.09 1.09 0 0 0 .48 1.79c.43.1.87.23 1.32.3l1.34.2a1.25 1.25 0 0 0 .87-.11 1.17 1.17 0 0 0 .51-.68 1.12 1.12 0 0 0-.78-1.38zM788.28 276.71a7.06 7.06 0 0 0-6 5.08c-1 3.11.05 6.45 1.8 9.08 1.6 2.42 4.54 6.27 7.91 5.12a7.82 7.82 0 0 0 3.71-3.37 12.27 12.27 0 0 0 1.82-4.78c.49-3.26-.37-7.53-3.91-8.71-1.38-.46-2.34 1.74-1 2.37 4.39 2.09 2.35 9.28-.69 11.68-1.06.83-2.07.43-3-.36a16.94 16.94 0 0 1-2.65-2.9c-1.36-1.88-2.49-4.25-2.13-6.64s1.91-4.6 4.35-5c.89-.14.69-1.68-.22-1.59zM821.15 260.55c-2.31 1.57-2.92 4.9-2.31 7.48a6 6 0 0 0 5.34 4.81 5.69 5.69 0 0 0 5.73-3.48c1.1-3-1.25-5.81-3.5-7.51-1.36-1-3-2-4.82-1.87a4.39 4.39 0 0 0-2.47 1 3.51 3.51 0 0 0-1.16 2.31 1.34 1.34 0 0 0 2.63.36 2.09 2.09 0 0 1 .08-.36c-.08.26.05-.08.08-.12-.16.26.34-.3.11-.13.11-.08.22-.13.33-.2.3-.18-.2 0 .14-.06l.31-.09h.19c-.16 0-.15 0 0 0a3.84 3.84 0 0 1 1.27.27 9.12 9.12 0 0 1 1.64 1 8.92 8.92 0 0 1 2.17 2.12 3.23 3.23 0 0 1 .56 1.23 2.74 2.74 0 0 1 0 .28v.21a3.09 3.09 0 0 1 0 .43v.13a2.58 2.58 0 0 0-.08.26c-.09.31.13-.21 0 .07s-.17.3-.27.44c.17-.25 0 0-.06.07l-.22.22-.24.21c.18-.14 0 0-.08.05a6.12 6.12 0 0 1-.56.31c-.22.12 0 0 0 0l-.31.11a5 5 0 0 1-.64.17h-.22c.31-.05-.15 0-.21 0H824s-.4-.07-.1 0l-.32-.07a3.16 3.16 0 0 1-.52-.17c.25.11-.08 0-.11-.06l-.39-.23c-.33-.23.08.06-.1-.08l-.24-.21-.26-.27s-.25-.31-.13-.15a4.65 4.65 0 0 1-.34-.52c-.06-.11-.12-.22-.17-.33a1.53 1.53 0 0 1-.11-.25 5.93 5.93 0 0 1-.34-2.89 5 5 0 0 1 1.4-3.05c.78-.7-.25-2.07-1.14-1.47zM784.38 311a4.84 4.84 0 0 0-5.13 2.45 5.66 5.66 0 0 0 .25 6.1c2.59 3.71 8.88 5.21 11.84 1.17 1.32-1.81 1.66-4.12 2.84-6 .81-1.3-1.2-2.44-2-1.19a25.45 25.45 0 0 0-2 4.44c-.59 1.35-1.41 2.59-3 2.8-2.84.38-7.18-2-6.44-5.35a3.32 3.32 0 0 1 3.49-2.79c.92.12 1.12-1.42.22-1.62zM817.53 308.82v-2.23a1.17 1.17 0 0 0-.32-.78 1.1 1.1 0 0 0-1.88.78v2.23a1.17 1.17 0 0 0 .34.81 1.19 1.19 0 0 0 .81.34 1.15 1.15 0 0 0 .81-.34 1.13 1.13 0 0 0 .34-.81zM763.43 267.5l2.68.89a1.11 1.11 0 0 0 .59-2.15l-2.68-.89a1.17 1.17 0 0 0-.86.11 1.12 1.12 0 0 0 .27 2zM812.1 274.14l-.86 2.69a1.17 1.17 0 0 0 .82 1.42 1.15 1.15 0 0 0 .89-.11 1.3 1.3 0 0 0 .54-.7l.92-2.66a1.21 1.21 0 0 0-.12-.93 1.2 1.2 0 0 0-2.19.29zM768.54 337.84a9.22 9.22 0 0 0 7.48 1.33 1 1 0 0 0-.53-1.93 6.21 6.21 0 0 1-1.47.15h-1.53a7.86 7.86 0 0 1-1.58-.43 8.6 8.6 0 0 1-1.37-.71 1 1 0 1 0-1 1.7zM800.86 332.6l.43-.9a.9.9 0 0 0 .13-.42.86.86 0 0 0 0-.45.82.82 0 0 0-.2-.38.89.89 0 0 0-.32-.29l-.26-.11a1 1 0 0 0-.6 0l-.27.11a1.1 1.1 0 0 0-.4.4l-.47.88a.88.88 0 0 0-.14.43.9.9 0 0 0 0 .46.92.92 0 0 0 .21.39 1 1 0 0 0 .32.3l.27.11a1.09 1.09 0 0 0 .62 0l.27-.11a1.18 1.18 0 0 0 .41-.42zM841.14 290.2a4.5 4.5 0 0 0-4 1.44 7.84 7.84 0 0 0-1.79 4.28c-.41 2.68-.24 6 2.69 7.2a9 9 0 0 0 4.65.11 14.94 14.94 0 0 0 4.56-1.26c2.57-1.26 4.65-4.29 3.73-7.22a7.36 7.36 0 0 0-2.5-3.26 11 11 0 0 1-1.4-1.33 2.84 2.84 0 0 1-.53-1.27 1.23 1.23 0 0 0-1.36-.88 1.25 1.25 0 0 0-1.07 1.21c-.25 2.17 1.77 3.48 3.17 4.75a3.16 3.16 0 0 1 1.28 2 3.53 3.53 0 0 1-.91 2.52c-1.53 1.8-4.28 2.18-6.49 2.44-1 .12-2.31.29-3.07-.54a3.86 3.86 0 0 1-.76-2.49c-.06-2.19.51-6.22 3.52-5.93 1 .1 1.26-1.65.24-1.79zM858.6 270.89v-1.79a1.16 1.16 0 0 0-1.16-1.16 1.13 1.13 0 0 0-.82.34 1.22 1.22 0 0 0-.35.82v1.79a1.18 1.18 0 0 0 .35.82 1.16 1.16 0 0 0 1.64 0 1.21 1.21 0 0 0 .34-.82zM826.22 237.18a4.18 4.18 0 0 0-3.33 5.12 8.42 8.42 0 0 0 1.68 3.4 14.76 14.76 0 0 0 2.77 3 4.63 4.63 0 0 0 3.53 1 5.49 5.49 0 0 0 3.16-2.14c1.61-1.91 3.25-4.3 3-6.92s-2.48-5.21-5.36-4.78c-1.3.2-1 2.4.31 2.31a2.67 2.67 0 0 1 2.62 2.39c.31 1.69-.8 3.44-1.79 4.71a7.38 7.38 0 0 1-1.76 1.85 1.74 1.74 0 0 1-1.92-.08 7.66 7.66 0 0 1-2-1.86 14 14 0 0 1-1.62-2.22 3.11 3.11 0 0 1-.4-2.39 1.65 1.65 0 0 1 1.36-1.29c1.19-.17.92-2.26-.28-2.11zM860.62 229.16a1.88 1.88 0 0 0-.7.7 2.32 2.32 0 0 0-.28 1 2.62 2.62 0 0 0 0 .28 1.9 1.9 0 0 0 .09.53 2.21 2.21 0 0 0 .5.88 1.85 1.85 0 0 0 .93.57 1.07 1.07 0 0 0 .77-.1 1 1 0 0 0 .36-1.37 1 1 0 0 0-.59-.46h-.2l.24.1a1.09 1.09 0 0 1-.23-.14l.2.16a1.7 1.7 0 0 1-.19-.19l.16.2a1.22 1.22 0 0 1-.17-.29l.1.23a1.66 1.66 0 0 1-.11-.38v.26a1.51 1.51 0 0 1 0-.37v.25a1.28 1.28 0 0 1 .09-.32l-.1.23a.88.88 0 0 1 .14-.23l-.15.19a1.21 1.21 0 0 1 .16-.16l-.19.14h.08a1 1 0 0 0 .42-.55 1 1 0 0 0-.09-.7.94.94 0 0 0-1.25-.33zM839.24 220.81l2.23 2.68a1.11 1.11 0 0 0 .79.33 1.18 1.18 0 0 0 .8-.33 1.15 1.15 0 0 0 .33-.8 1.3 1.3 0 0 0-.33-.79l-2.23-2.68a1.15 1.15 0 0 0-.8-.33 1.13 1.13 0 0 0-.79.33 1.11 1.11 0 0 0-.33.79 1.25 1.25 0 0 0 .33.8zM857.79 248.93l1.79-1.78a1.18 1.18 0 0 0 .33-.81 1.14 1.14 0 0 0-.33-.8 1.11 1.11 0 0 0-.8-.33 1.16 1.16 0 0 0-.81.33l-1.78 1.78a1.19 1.19 0 0 0-.34.81 1.15 1.15 0 0 0 .34.8 1.09 1.09 0 0 0 .8.33 1.14 1.14 0 0 0 .8-.33zM880.77 225.07a14.32 14.32 0 0 0-4.34 11.19 6.47 6.47 0 0 0 2.78 5.14 4.35 4.35 0 0 0 5.38-.51 1.29 1.29 0 0 0-1.82-1.82 2.15 2.15 0 0 1-2.76-.26 5.19 5.19 0 0 1-1.24-3.84 12.35 12.35 0 0 1 3.44-8.47 1 1 0 0 0-1.44-1.43z"></path><path d="M882.57 246.5a5.63 5.63 0 0 0 .44-3.87 5.57 5.57 0 0 0-2.16-3.2 1.31 1.31 0 1 0-1.33 2.26c.18.13-.18-.16-.06-.05l.13.12.23.23.12.13c.11.13-.05-.06-.07-.1s.14.2.2.3a2.54 2.54 0 0 1 .16.28.8.8 0 0 1 .08.16s.11.25 0 0 0 .11.06.18a3.57 3.57 0 0 1 .1.35c0 .1 0 .21.07.32s0-.36 0-.1a.66.66 0 0 0 0 .14 3.86 3.86 0 0 1 0 .68 1.1 1.1 0 0 0 0 .18c0-.08.05-.31 0-.1s0 .21-.08.32-.07.23-.11.34 0-.08 0-.11l-.09.19a1.3 1.3 0 0 0 2.25 1.31z"></path></g><path d="M678.25 164.66a3.72 3.72 0 0 0 3-.42 1 1 0 0 0 .46-.61 1 1 0 0 0-.1-.78 1 1 0 0 0-.6-.46 1 1 0 0 0-.78.1 2.43 2.43 0 0 1-.54.31l.24-.1a3 3 0 0 1-.71.2h.26a2.55 2.55 0 0 1-.73 0h.25l-.25-.05a1 1 0 0 0-.73.1.94.94 0 0 0-.43.56 1 1 0 0 0 .66 1.15zM655.46 158.16l.46-.43a.7.7 0 0 0 .19-.29.69.69 0 0 0 .07-.35.71.71 0 0 0-.07-.35.67.67 0 0 0-.19-.28l-.18-.15a.9.9 0 0 0-.46-.12h-.24a.88.88 0 0 0-.39.24l-.44.45a.59.59 0 0 0-.18.29.66.66 0 0 0-.08.34.68.68 0 0 0 .08.34.57.57 0 0 0 .18.28l.18.14a.89.89 0 0 0 .45.12h.23a.86.86 0 0 0 .39-.23zM676.38 133.44v-.89a.86.86 0 0 0-.09-.39.9.9 0 0 0-.54-.54.74.74 0 0 0-.39-.08h-.26a1.07 1.07 0 0 0-.45.26l-.16.21a1 1 0 0 0-.14.51v.89a.86.86 0 0 0 .09.39.78.78 0 0 0 .21.33.83.83 0 0 0 .32.2.7.7 0 0 0 .39.09h.27a1.07 1.07 0 0 0 .45-.26l.16-.21a1 1 0 0 0 .14-.51zM669.12 115.19a.94.94 0 0 0 0-1.88.94.94 0 0 0 0 1.88zM707.27 93.5l-.19.14h.08l-.22.1a.29.29 0 0 1 .1 0h-.25.21-.25.15l-.23-.09a.39.39 0 0 1 .14.08l-.19-.15.1.1-.15-.19.06.1-.1-.23a.38.38 0 0 1 0 .1v-.25.11a.64.64 0 0 0 .08.36.77.77 0 0 0 .19.31.79.79 0 0 0 .31.2.77.77 0 0 0 .37.08h.25a.89.89 0 0 0 .42-.24l.15-.19a1.15 1.15 0 0 0 .13-.48 1.5 1.5 0 0 0 0-.37v-.05a2.18 2.18 0 0 0-.11-.27 2.07 2.07 0 0 0-.17-.24l-.09-.08c-.08-.06-.15-.13-.23-.18h-.11l-.27-.11h-.48a1.45 1.45 0 0 0-.3 0 1.36 1.36 0 0 0-.28.11 1.29 1.29 0 0 0-.3.22.6.6 0 0 0-.19.3.76.76 0 0 0 0 .72.6.6 0 0 0 .19.3l.19.15a1 1 0 0 0 .47.13h.25a.82.82 0 0 0 .41-.24zM701 125.19a1.63 1.63 0 0 1 .17.2l-.16-.21a3.29 3.29 0 0 1 .41.7l-.1-.24a3.31 3.31 0 0 1 .22.82v-.27a3.46 3.46 0 0 1 0 .56 1 1 0 0 0 1 1 1 1 0 0 0 1-1 4.28 4.28 0 0 0-1.11-3 1 1 0 0 0-.72-.3 1 1 0 0 0-.73 1.75zM707.05 167.47h.89a.73.73 0 0 0 .41-.09 1 1 0 0 0 .55-.55.73.73 0 0 0 .09-.41v-.28a1.08 1.08 0 0 0-.27-.46l-.21-.16a1 1 0 0 0-.53-.15h-.89a.75.75 0 0 0-.39.09.78.78 0 0 0-.33.21 1 1 0 0 0-.29.71v.27a1.13 1.13 0 0 0 .26.45l.21.16a1 1 0 0 0 .51.13zM680.27 188.4h.45a.71.71 0 0 0 .38-.08.75.75 0 0 0 .32-.21.72.72 0 0 0 .2-.31.85.85 0 0 0 .09-.38v-.27a1 1 0 0 0-.25-.43l-.2-.16a1.09 1.09 0 0 0-.5-.13h-.45a.81.81 0 0 0-.37.09.69.69 0 0 0-.31.2.72.72 0 0 0-.2.31.75.75 0 0 0-.08.37v.25a.88.88 0 0 0 .24.43l.2.15a1 1 0 0 0 .48.13zM681.61 197.62h-.44a1 1 0 0 0-.7.29.66.66 0 0 0-.21.31.73.73 0 0 0-.08.38v.27a1.06 1.06 0 0 0 .26.43l.2.16a1.06 1.06 0 0 0 .5.13h.44a.82.82 0 0 0 .38-.09.87.87 0 0 0 .51-.51.82.82 0 0 0 .09-.38v-.26a1 1 0 0 0-.25-.43l-.2-.15a.92.92 0 0 0-.49-.13zM627.41 172.06l2.24-1.78a.94.94 0 0 0 .29-.69 1 1 0 0 0-1-1h-.26a1 1 0 0 0-.43.26l-2.25 1.83a1 1 0 0 0-.28.69 1 1 0 0 0 .28.69 1 1 0 0 0 .69.29h.26a1 1 0 0 0 .43-.25zM618.69 190.67h2.23a1 1 0 0 0 1-1 1 1 0 0 0-1-1h-2.23a1.05 1.05 0 0 0-.71.29 1 1 0 0 0 .71 1.71zM728.47 170.13a4.3 4.3 0 0 1 .62 0h-.27a4.07 4.07 0 0 1 1 .28l-.24-.11a4.34 4.34 0 0 1 .88.52l-.21-.16.14.11a1.09 1.09 0 0 0 .73.3 1 1 0 0 0 .72-.3 1 1 0 0 0 .3-.72 1 1 0 0 0-.3-.73 5.42 5.42 0 0 0-1.68-1 5 5 0 0 0-1.71-.27 1 1 0 0 0-1 1 1 1 0 0 0 1 1zM739.77 181.64v-3.57a1 1 0 1 0-2 0v3.57a1 1 0 0 0 1 1 1.05 1.05 0 0 0 1-1zM738 145v-1.3a1.12 1.12 0 0 0-.31-.75 1 1 0 0 0-.34-.22 1 1 0 0 0-.41-.09 1 1 0 0 0-.75.31 1.12 1.12 0 0 0-.31.75v1.3a1.06 1.06 0 0 0 .31.75.69.69 0 0 0 .34.22.73.73 0 0 0 .41.09 1.06 1.06 0 0 0 .75-.31 1.08 1.08 0 0 0 .31-.75zM709.33 147.53l.46-1.78a1.12 1.12 0 0 0-.1-.8 1.08 1.08 0 0 0-.62-.47 1.06 1.06 0 0 0-.8.1 1.09 1.09 0 0 0-.48.62l-.43 1.79a1 1 0 0 0 .1.79 1.07 1.07 0 0 0 .61.47 1 1 0 0 0 .79-.1 1.09 1.09 0 0 0 .47-.62zM727.58 81.36h4a1 1 0 0 0 0-2h-4a1 1 0 1 0 0 2zM740.56 89.76 741.9 92a1 1 0 0 0 .59.45 1 1 0 0 0 .76-.1 1 1 0 0 0 .35-1.35l-1.34-2.23a1.06 1.06 0 0 0-.59-.45 1 1 0 0 0-.76.1 1 1 0 0 0-.35 1.35zM724 93.84h1.78a1 1 0 0 0 1-1 1 1 0 0 0-.29-.71 1 1 0 0 0-.72-.3H724a1 1 0 0 0-.72.3 1 1 0 0 0-.3.71 1.09 1.09 0 0 0 .3.72 1.06 1.06 0 0 0 .72.29zM765.67 109.05l-.43-1.35a1.12 1.12 0 0 0-.47-.62.89.89 0 0 0-.39-.12.82.82 0 0 0-.41 0 1.06 1.06 0 0 0-.62.48 1 1 0 0 0-.1.79l.44 1.34a1.13 1.13 0 0 0 .47.62.89.89 0 0 0 .38.12.81.81 0 0 0 .41 0 1 1 0 0 0 .61-.47 1 1 0 0 0 .11-.79zM765.06 90.67a1 1 0 0 0 0-1.92 1 1 0 0 0 0 1.92zM771.31 92.9a1 1 0 0 0 0-1.92 1 1 0 0 0 0 1.92zM779.09 125.16l-.45.44a.83.83 0 0 0-.2.32.94.94 0 0 0 0 .76.83.83 0 0 0 .2.32l.2.15a1 1 0 0 0 .5.14h.26a1 1 0 0 0 .4-.29l.45-.45a.76.76 0 0 0 .2-.32.79.79 0 0 0 .09-.38.85.85 0 0 0-.09-.38.79.79 0 0 0-.2-.31l-.2-.16a1 1 0 0 0-.5-.13h-.26a.94.94 0 0 0-.44.26zM773.7 140.13v-.89a.9.9 0 0 0-.09-.4 1 1 0 0 0-.56-.56.9.9 0 0 0-.4-.09h-.28a1 1 0 0 0-.46.27l-.17.21a1.1 1.1 0 0 0-.14.53v.89a.73.73 0 0 0 .09.41.74.74 0 0 0 .22.34 1.16 1.16 0 0 0 .74.3h.28a1 1 0 0 0 .46-.27l.16-.22a1 1 0 0 0 .15-.53zM801.5 114.45l2.24-.43a1.11 1.11 0 0 0 .63-.48 1.09 1.09 0 0 0 .1-.81 1.05 1.05 0 0 0-.48-.63 1.14 1.14 0 0 0-.81-.1l-2.23.45a1.09 1.09 0 0 0-.62.48 1.06 1.06 0 0 0-.1.8 1 1 0 0 0 .47.62 1.17 1.17 0 0 0 .8.1zM802.55 98.76h.21l.37.09.36.11.2.07c.22.09-.21-.1 0 0a7.06 7.06 0 0 1 .67.35l.35.23h.07c-.14-.09.06.05.08.07a5.64 5.64 0 0 1 .56.53 3.47 3.47 0 0 1 .25.29c.14.16-.11-.15 0 0a1.77 1.77 0 0 1 .12.17 4.4 4.4 0 0 1 .39.66l.09.19c.11.21-.07-.21 0 0s.1.26.14.4a1 1 0 0 0 1.23.7 1 1 0 0 0 .7-1.23 6.76 6.76 0 0 0-2.11-3.21 7 7 0 0 0-3.71-1.61 1 1 0 0 0-1 1 1.06 1.06 0 0 0 1 1zM817.27 123.25a1 1 0 0 0 0-1.93 1 1 0 0 0 0 1.93zM805.5 87.2l2.23 1.8a1 1 0 0 0 .62.25.85.85 0 0 0 .87-.87.87.87 0 0 0-.25-.62L806.74 86a1 1 0 0 0-.62-.25.89.89 0 0 0-.62.25.91.91 0 0 0-.26.62.84.84 0 0 0 .26.62zM840.91 137.9v-.44a.73.73 0 0 0-.07-.36.7.7 0 0 0-.19-.29.67.67 0 0 0-.3-.19.78.78 0 0 0-.35-.08h-.24a.9.9 0 0 0-.4.23l-.14.19a.82.82 0 0 0-.13.46v.44a.65.65 0 0 0 .07.34.75.75 0 0 0 .18.28.59.59 0 0 0 .29.18.62.62 0 0 0 .33.08h.24a1 1 0 0 0 .38-.23l.14-.18a.83.83 0 0 0 .12-.44zM832.89 149a.84.84 0 0 0 0-1.67.84.84 0 0 0 0 1.67zM812.37 143a1.06 1.06 0 0 0 0-2.12 1.06 1.06 0 0 0 0 2.12zM782.92 160.28l.88 1.35a1.08 1.08 0 0 0 .6.47 1.11 1.11 0 0 0 .78-.1 1 1 0 0 0 .37-1.39l-.9-1.33a1 1 0 0 0-.6-.46.68.68 0 0 0-.4 0 .65.65 0 0 0-.37.12 1 1 0 0 0-.46.59 1.07 1.07 0 0 0 .1.77zM801 195.29l1.77-1.8a1 1 0 0 0 .29-.7 1 1 0 0 0-1-1 1.13 1.13 0 0 0-.7.29l-1.8 1.77a1.07 1.07 0 0 0-.3.72 1 1 0 0 0 .3.71 1 1 0 0 0 1.43 0zM816.84 182.14l1.34 1.79a.84.84 0 0 0 .27.29.78.78 0 0 0 .36.19 1 1 0 0 0 .81-.11 1.06 1.06 0 0 0 .48-.62 1 1 0 0 0-.1-.81l-1.35-1.78a.66.66 0 0 0-.27-.3.92.92 0 0 0-.35-.19 1.09 1.09 0 0 0-.81.11 1.06 1.06 0 0 0-.38 1.43zM830.66 205.41a1 1 0 0 0 0-2 1 1 0 0 0 0 2zM807.46 204h.89a.74.74 0 0 0 .36-.09.67.67 0 0 0 .31-.19.79.79 0 0 0 .2-.31.73.73 0 0 0 .08-.36v-.26a.89.89 0 0 0-.24-.42l-.19-.14a.91.91 0 0 0-.48-.13h-.89a.69.69 0 0 0-.35.07.85.85 0 0 0-.48.48.69.69 0 0 0-.07.35v.23a.84.84 0 0 0 .23.4l.18.14a1 1 0 0 0 .46.13zM769.1 198.34l-.46-2.23a.93.93 0 0 0-.43-.56 1 1 0 0 0-.72-.09.93.93 0 0 0-.56.43 1.05 1.05 0 0 0-.09.72l.43 2.24a.94.94 0 0 0 .44.56 1 1 0 0 0 .73.1 1 1 0 0 0 .57-.44 1 1 0 0 0 .09-.73zM765.06 175h1.79a1 1 0 0 0 .66-.28.94.94 0 0 0 0-1.32 1 1 0 0 0-.66-.28h-1.79a.94.94 0 0 0-.64.26.91.91 0 0 0 .64 1.56zM779.34 173.13a.87.87 0 0 0 0-1.73.87.87 0 0 0 0 1.73zM764.75 183.87v-1.79a1.07 1.07 0 0 0-.3-.72 1 1 0 0 0-.73-.3 1 1 0 0 0-1 1v1.79a1 1 0 0 0 .3.72 1 1 0 0 0 1.45 0 1.09 1.09 0 0 0 .3-.72zM761.05 142.83a.91.91 0 0 0 0-1.82.91.91 0 0 0 0 1.82zM872 163l1.78-.45a1.19 1.19 0 0 0 .67-.51 1.17 1.17 0 0 0 .11-.86 1.13 1.13 0 0 0-.51-.66 1.18 1.18 0 0 0-.86-.12l-1.77.5a1.16 1.16 0 0 0-.65.5 1.09 1.09 0 0 0 .39 1.49 1.17 1.17 0 0 0 .84.11zM865.7 137.38l2.67.91a1 1 0 0 0 1.17-.66 1 1 0 0 0-.67-1.17l-2.68-.89a.94.94 0 1 0-.49 1.81zM860.56 183.48h.44a.8.8 0 0 0 .37-.08.87.87 0 0 0 .51-.51.8.8 0 0 0 .08-.37v-.26a.89.89 0 0 0-.24-.42l-.2-.15a.91.91 0 0 0-.48-.13h-.45a.69.69 0 0 0-.37.08.72.72 0 0 0-.3.2.69.69 0 0 0-.2.3.8.8 0 0 0-.08.37v.25a.89.89 0 0 0 .24.42l.19.15a1 1 0 0 0 .48.13zM857 200.29h2.68a.8.8 0 1 0 0-1.6H857a.8.8 0 0 0-.8.8.82.82 0 0 0 .8.8zM834.63 119.65l.44-.89a.77.77 0 0 0 .12-.36.9.9 0 0 0-.19-.72.68.68 0 0 0-.28-.25l-.23-.1a.92.92 0 0 0-.52 0l-.23.1a.91.91 0 0 0-.35.35l-.45.89a.66.66 0 0 0-.11.36.74.74 0 0 0 0 .39.65.65 0 0 0 .17.33.72.72 0 0 0 .27.25l.24.1a.89.89 0 0 0 .51 0l.24-.1a1.06 1.06 0 0 0 .35-.35zM839.14 106.36a1 1 0 0 0 0-2.07 1 1 0 0 0 0 2.07zM701.69 202.65a.94.94 0 0 0 0-1.87.94.94 0 0 0 0 1.87zM712.85 201.38a1 1 0 0 0 0-2 1 1 0 0 0 0 2zM735.16 206.61h.45a.85.85 0 0 0 .35-.08.7.7 0 0 0 .29-.19.6.6 0 0 0 .19-.3.59.59 0 0 0 .08-.35v-.24a.83.83 0 0 0-.24-.4l-.18-.14a.84.84 0 0 0-.46-.13h-.45a.62.62 0 0 0-.33.07.75.75 0 0 0-.47.47.62.62 0 0 0-.07.33v.24a1 1 0 0 0 .22.38l.18.14a.88.88 0 0 0 .44.12zM647.69 203.81a27.65 27.65 0 0 0 5.6-5 .94.94 0 0 0-1.29-1.31 25.45 25.45 0 0 1-2.47 2.62c-.42.39-.87.77-1.32 1.14s-.86.67-1.37 1a.91.91 0 0 0-.32 1.21.89.89 0 0 0 1.21.32zM663.58 204.65l.45-.43a.72.72 0 0 0 .21-.33.89.89 0 0 0 0-.78.75.75 0 0 0-.21-.32l-.2-.16a1 1 0 0 0-.51-.14h-.27a.94.94 0 0 0-.45.26l-.44.45a.83.83 0 0 0-.2.32.75.75 0 0 0-.09.39.71.71 0 0 0 .09.38.76.76 0 0 0 .2.32l.21.16a1 1 0 0 0 .5.14h.27a1.05 1.05 0 0 0 .44-.26zM653.94 179.45a.94.94 0 0 0 0-1.88.94.94 0 0 0 0 1.88zM625.38 200.38v-2.23a.89.89 0 1 0-1.78 0v2.23a.89.89 0 0 0 1.78 0zM631.63 144.66l2.23.07a.91.91 0 0 0 .91-.91.93.93 0 0 0-.91-.91h-2.23a.88.88 0 0 0 0 1.75zM643.68 126.44a2.74 2.74 0 0 1 .5 0h-.27a4.64 4.64 0 0 1 1.16.32l-.24-.1a5.64 5.64 0 0 1 1.16.69l-.2-.16.3.27a1 1 0 0 0 1.42-1.42 5.58 5.58 0 0 0-3.83-1.68 1.05 1.05 0 0 0-1 1 1.07 1.07 0 0 0 1 1zM767.64 294a3.8 3.8 0 0 1 .67-.66l-.22.17a3.93 3.93 0 0 1 .84-.49l-.26.11a4.07 4.07 0 0 1 .7-.22 1.09 1.09 0 0 0 .66-.51 1.12 1.12 0 0 0-.4-1.52 1.25 1.25 0 0 0-.85-.11 4.78 4.78 0 0 0-2.71 1.66.86.86 0 0 0-.23.36.78.78 0 0 0-.09.43 1.11 1.11 0 0 0 1.11 1.11 1 1 0 0 0 .78-.33zM763.4 308.24l1.36 1.76a.72.72 0 0 0 .33.21.86.86 0 0 0 .39.09 1 1 0 0 0 .61-.22.9.9 0 0 0 .36-.52 1 1 0 0 0-.1-.78L765 307a1.15 1.15 0 0 0-.38-.38l-.24-.1a1 1 0 0 0-.91.19.84.84 0 0 0-.27.29 1.16 1.16 0 0 0-.1.8 1 1 0 0 0 .27.45zM768 324.4l.45-.89a.71.71 0 0 0 .1-.3.62.62 0 0 0 0-.33.54.54 0 0 0-.14-.27.66.66 0 0 0-.23-.21.82.82 0 0 0-.63-.08.78.78 0 0 0-.48.37l-.45.89a.53.53 0 0 0-.09.3.62.62 0 0 0 0 .33.61.61 0 0 0 .15.27.56.56 0 0 0 .22.21.82.82 0 0 0 .63.08.78.78 0 0 0 .48-.37zM785.29 301.23v-.44a.87.87 0 0 0-.09-.4.74.74 0 0 0-.22-.34.72.72 0 0 0-.33-.21.7.7 0 0 0-.4-.09h-.27a.92.92 0 0 0-.46.26l-.16.21a1 1 0 0 0-.15.53v.44a.9.9 0 0 0 .09.4.83.83 0 0 0 .22.33.67.67 0 0 0 .33.22.93.93 0 0 0 .4.09h.28a1 1 0 0 0 .47-.23l.17-.2a1.1 1.1 0 0 0 .14-.53zM778.47 271.33V270a1 1 0 0 0-.27-.65.93.93 0 0 0-.65-.27 1 1 0 0 0-.66.27 1 1 0 0 0-.27.65v1.34a1 1 0 0 0 .26.65.92.92 0 0 0 .65.26.9.9 0 0 0 .64-.26.93.93 0 0 0 .27-.65zM774.65 251.47l2.24-2.23a1 1 0 0 0 0-1.41 1 1 0 0 0-.71-.29 1.07 1.07 0 0 0-.71.29l-2.23 2.22a1 1 0 0 0-.3.71 1 1 0 0 0 .3.71 1 1 0 0 0 1.41 0zM792 245.07a5.82 5.82 0 0 1 1.16.3h.14c.12.05 0 0-.06 0l.28.13a5.54 5.54 0 0 1 .53.3l.23.16.12.09s-.18-.15 0 0a5.22 5.22 0 0 1 .43.39 5.87 5.87 0 0 1 .41.46l.08.09c-.16-.15-.06-.08 0 0l.2.28a1 1 0 0 0 1.28.34 1 1 0 0 0 .33-1.29 6.69 6.69 0 0 0-4.57-3.12 1.08 1.08 0 0 0-.75.1 1 1 0 0 0-.45.59 1 1 0 0 0 .68 1.19zM805.42 261.07v-2.23a1.12 1.12 0 0 0-.3-.74 1.07 1.07 0 0 0-.74-.3 1.06 1.06 0 0 0-1 1v2.23a1.08 1.08 0 0 0 1.08 1.09 1.14 1.14 0 0 0 .77-.32 1.16 1.16 0 0 0 .32-.77zM792.15 231.16l.93-2.2a.88.88 0 0 0 .13-.47v-.24a.9.9 0 0 0-.54-.6.88.88 0 0 0-.71 0 1 1 0 0 0-.54.6l-.84 2.24a.88.88 0 0 0 .09.67.84.84 0 0 0 .41.36.81.81 0 0 0 .57 0 .87.87 0 0 0 .53-.41zM783.18 221.54l-1.78-2.23a1 1 0 0 0-.67-.28 1 1 0 0 0-.66.28.91.91 0 0 0-.27.66v.25a.82.82 0 0 0 .24.41l1.81 2.22a.93.93 0 0 0 .65.27.94.94 0 0 0 .93-.93v-.24a.82.82 0 0 0-.24-.41zM765.06 221.45a1 1 0 0 0 0-2 1 1 0 0 0 0 2zM820 225h1.79a1 1 0 0 0 .69-.28 1 1 0 0 0 .28-.69 1 1 0 0 0-1-1H820a1 1 0 0 0-1 1 1 1 0 0 0 .28.68 1 1 0 0 0 .68.28zM815.19 241.73l.9.89a.74.74 0 0 0 .33.22 1 1 0 0 0 .41.09.9.9 0 0 0 .4-.09.83.83 0 0 0 .34-.22l.16-.21a1 1 0 0 0 .15-.53v-.28a1 1 0 0 0-.27-.46l-.89-.89a.74.74 0 0 0-.34-.22.71.71 0 0 0-.4-.09.73.73 0 0 0-.41.09.74.74 0 0 0-.34.22l-.16.21a1 1 0 0 0-.14.53v.28a1.08 1.08 0 0 0 .27.46zM855.16 259.91c-.3 1.19-.62 2.38-.89 3.58a1 1 0 0 0 2 .55c.34-1.18.64-2.37 1-3.55a1.07 1.07 0 1 0-2.07-.58zM812.23 287.84v1.79a1.05 1.05 0 0 0 .29.69 1 1 0 0 0 .69.28 1 1 0 0 0 .69-.28 1.09 1.09 0 0 0 .28-.69v-1.79a1 1 0 0 0-.3-.72 1 1 0 0 0-1.45 0 1.09 1.09 0 0 0-.3.72zM835.83 281.66a1 1 0 0 1 .25-.05h-.26a2 2 0 0 1 .49 0h-.26a2.19 2.19 0 0 1 .5.14l-.23-.1a2.3 2.3 0 0 1 .4.23l-.2-.15.14.12a1.05 1.05 0 0 0 .71.29 1 1 0 0 0 .71-.29 1 1 0 0 0 .29-.71 1 1 0 0 0-.29-.7 2.85 2.85 0 0 0-2.76-.63 1 1 0 0 0-.57.44 1 1 0 0 0-.1.74 1 1 0 0 0 .44.58 1 1 0 0 0 .74.1zM827.54 295.87a.89.89 0 0 0 0-1.77.89.89 0 0 0 0 1.77zM803 300h1.34a1 1 0 0 0 .73-.3.75.75 0 0 0 .21-.32.93.93 0 0 0 .09-.4 1 1 0 0 0-.3-.72 1 1 0 0 0-.73-.3H803a1 1 0 0 0-.72.3.72.72 0 0 0-.21.33.66.66 0 0 0-.09.39 1 1 0 0 0 .3.72 1 1 0 0 0 .72.3zM808.35 320.94h2.23a1 1 0 0 0 1-1 1 1 0 0 0-1-1h-2.23a1 1 0 0 0-.68.28 1 1 0 0 0 .68 1.65zM830.08 313.73v.44a.9.9 0 0 0 .09.4.9.9 0 0 0 .54.54.93.93 0 0 0 .4.09h.27a1.13 1.13 0 0 0 .45-.26l.16-.21a1 1 0 0 0 .14-.52v-.44a.7.7 0 0 0-.09-.4.84.84 0 0 0-.21-.33.72.72 0 0 0-.33-.21.86.86 0 0 0-.39-.09h-.27a1.1 1.1 0 0 0-.46.26l-.16.21a1 1 0 0 0-.14.52zM825.31 329.06a1.05 1.05 0 0 0 0-2.1 1.05 1.05 0 0 0 0 2.1zM785.44 330.39l.43.46a.75.75 0 0 0 .28.18.81.81 0 0 0 .66 0 .75.75 0 0 0 .28-.18l.14-.18a.92.92 0 0 0 .11-.43v-.23a.81.81 0 0 0-.22-.38l-.45-.44a.62.62 0 0 0-.28-.17.61.61 0 0 0-.32-.08.62.62 0 0 0-.33.08.55.55 0 0 0-.27.17l-.14.17a1 1 0 0 0-.11.43v.23a.78.78 0 0 0 .22.37zM789.13 346.21l.89.46a.72.72 0 0 0 .37.11.74.74 0 0 0 .39 0 .75.75 0 0 0 .34-.18.68.68 0 0 0 .25-.28l.1-.23a1 1 0 0 0 0-.53l-.1-.23a1 1 0 0 0-.37-.33l-.89-.45a.81.81 0 0 0-.37-.12.74.74 0 0 0-.39 0 .75.75 0 0 0-.34.18.81.81 0 0 0-.25.27l-.1.24a.92.92 0 0 0 0 .52l.1.24a.91.91 0 0 0 .35.35zM765.06 350.35a.93.93 0 0 0 0-1.85.93.93 0 0 0 0 1.85zM849.59 312.12l1.33-1.34a1 1 0 0 0 .25-.62.89.89 0 0 0-.25-.62.91.91 0 0 0-.62-.26.9.9 0 0 0-.62.26l-1.35 1.33a.88.88 0 0 0 0 1.25.88.88 0 0 0 .63.26.94.94 0 0 0 .63-.26zM862.11 291.18l1.8-1.77a1 1 0 0 0 .28-.67 1 1 0 0 0-.28-.67.94.94 0 0 0-1.34 0l-1.77 1.8a.93.93 0 0 0-.27.65.92.92 0 0 0 .92.93 1 1 0 0 0 .66-.27zM875.39 283.66l.45-2.23a1.05 1.05 0 0 0-.75-1.32 1 1 0 0 0-.82.11 1.07 1.07 0 0 0-.5.64l-.45 2.23a1.15 1.15 0 0 0 .11.83 1.07 1.07 0 0 0 1.47.38 1.05 1.05 0 0 0 .49-.64zM872.16 264.46h-2.67a1.09 1.09 0 0 0-1.08 1.07 1.1 1.1 0 0 0 1.08 1.08h2.67a1.08 1.08 0 1 0 0-2.15zM839 268a15.87 15.87 0 0 0 3.26-3.77 1 1 0 1 0-1.68-1 11.11 11.11 0 0 1-.67 1l-.09.13v-.05l-.19.24-.38.45a16.27 16.27 0 0 1-1.69 1.63 1 1 0 0 0 0 1.39 1 1 0 0 0 1.4 0zM850.42 242.77l.42-4a1 1 0 0 0-1.71-.71 1.16 1.16 0 0 0-.29.71l-.47 4a1.06 1.06 0 0 0 .3.73 1.09 1.09 0 0 0 .73.3 1.06 1.06 0 0 0 1-1zM852.08 222a13.24 13.24 0 0 0 4.52-1.08 1 1 0 0 0 .46-.6 1 1 0 0 0 0-.65 1 1 0 0 0-1.18-.58 11.75 11.75 0 0 1-1.94.59 3.55 3.55 0 0 1-.47.09 1 1 0 0 1-.29.05h.13-.15c-.34 0-.68.07-1 .08a1.05 1.05 0 0 0 0 2.1zM879.75 221h.45a.78.78 0 0 0 .37-.09.64.64 0 0 0 .31-.2.72.72 0 0 0 .21-.31.71.71 0 0 0 .08-.38v-.26a1 1 0 0 0-.26-.43l-.19-.15a1 1 0 0 0-.49-.13h-.45a.73.73 0 0 0-.38.08.79.79 0 0 0-.31.2.83.83 0 0 0-.2.32.67.67 0 0 0-.08.37v.26a1 1 0 0 0 .25.43l.2.15a.93.93 0 0 0 .49.14zM879.09 233.71l1.35 4.46a1.14 1.14 0 0 0 2.19-.61l-1.33-4.46a1.15 1.15 0 1 0-2.21.61z" fill="#000000" class="fill-000000"></path><path d="M513.84 254.94c.1-2.52.36-5.39 2.37-6.92a6.46 6.46 0 0 1 3.79-1.13c10.77-.27 17.79 12.73 28.49 14 1.6.19 3.56-.1 4.25-1.56s-.47-3.36-1.63-4.68l-4.43-5.07a1.88 1.88 0 0 1 2.73-2.59l.69.73a107.59 107.59 0 0 0 30.7 23 4.19 4.19 0 0 0 5.29-1.22c1.37-2 .17-3.69-1-5.1-14.25-17.13-35.86-26.79-50.17-44a4.59 4.59 0 0 1-.92-4.36c.71-2.11 2.41-2.28 4-2.14 6.48.61 12.11 6 18.58 5.32a4.33 4.33 0 0 0 2.44-.92c1.49-1.32 1.1-3.74.28-5.55-3-6.62-9.85-10.48-15.94-14.48s-12.31-9.44-12.82-16.7c2.21 1.6 5.27-1.68 4.54-4.31s-3.37-4.18-5.79-5.47c-5-2.65-10.09-5.47-13.64-9.89s-5.17-10.83-2.49-15.81" fill="#ffffff" class="fill-ffffff"></path><path d="M514.65 254.94c.19-2.12.44-4.94 2.45-6.18 1.77-1.09 4.32-.77 6.23-.26 3.65 1 6.8 3.31 9.75 5.56s6.11 4.86 9.64 6.51c3 1.4 8.45 3.27 10.89 0 2.3-3.1-1.07-6.33-3.05-8.56l-2.62-2.94c-.16-.18-.44-.41-.46-.67-.09-1 .9-.69 1.32-.31 1.86 1.67 3.53 3.57 5.35 5.29s3.79 3.48 5.77 5.12a109.7 109.7 0 0 0 12.42 8.9q3.28 2 6.71 3.81c1.91 1 3.78 1.66 5.88.77a4.71 4.71 0 0 0 2.92-5c-.4-2.17-2.32-4-3.73-5.54-6.4-7.12-14-13-21.69-18.7s-15.66-11.54-22.45-18.5q-1.2-1.22-2.34-2.49a11.33 11.33 0 0 1-2.37-3.07 2.83 2.83 0 0 1 .47-3 3.15 3.15 0 0 1 2.41-.33c4.64.55 8.61 3.46 13 4.74 3.7 1.06 10 1.2 10.07-4.07.07-4.16-3.34-8.15-6.21-10.8-6.66-6.13-16.17-9.35-21.09-17.3a14.06 14.06 0 0 1-2.14-6.2l-2 1.16c2.63 1.68 5.64-.55 6.45-3.18 1-3.33-1.69-6.12-4.28-7.76-3.13-2-6.52-3.47-9.58-5.58a22.57 22.57 0 0 1-7.57-8c-1.79-3.49-2.39-7.82-.57-11.42.78-1.52-1.5-2.87-2.31-1.35-3.06 5.83-1.18 12.75 2.81 17.63a32.05 32.05 0 0 0 8 6.66c2.79 1.74 5.94 3 8.61 4.94 1.19.85 2.69 2.29 2.37 3.9-.21 1.08-1.39 2.62-2.58 1.87a1.34 1.34 0 0 0-2 1.16c.82 9.56 9.37 15.15 16.69 19.91 3.77 2.45 7.7 5.06 10.4 8.73 1.16 1.58 2.63 3.76 2.44 5.83-.23 2.48-3.78 2.09-5.53 1.74-4.55-.92-8.45-3.76-13-4.79-1.75-.4-3.87-.74-5.51.22a5.05 5.05 0 0 0-2 5.45c.51 2.25 2.5 4 4 5.65s3.37 3.46 5.14 5.09c3.54 3.26 7.29 6.26 11.11 9.19 7.7 5.91 15.71 11.45 22.91 18 1.79 1.62 3.51 3.29 5.17 5 .73.78 1.45 1.57 2.16 2.38s2 2 2.24 3.19a2.27 2.27 0 0 1-1.41 2.48 3.73 3.73 0 0 1-3.36-.42c-2.23-1.13-4.42-2.33-6.57-3.62a104.36 104.36 0 0 1-12.74-8.93c-2-1.63-3.92-3.33-5.78-5.11s-3.43-3.61-5.17-5.4c-2.88-3-7.12 1.1-4.59 4.25 1.37 1.7 2.86 3.32 4.28 5a7.75 7.75 0 0 1 1.31 1.9c.53 1.26-.19 2-1.42 2.12a11.12 11.12 0 0 1-5.45-1.12c-3.51-1.49-6.55-3.95-9.57-6.22s-6.14-4.58-9.79-5.74-8.91-1.44-11 2.33a12.42 12.42 0 0 0-1.09 6.17.81.81 0 0 0 1.62 0z" fill="#000000" class="fill-000000"></path><path d="M757.4 238.53c2.44 16.54-8.15 34-24.38 40.25a56.8 56.8 0 0 1-17.94 3.32 90.74 90.74 0 0 1-16.8-.84c-3.82-.54-7.64-1.33-11.5-1.16s-7.86 1.45-10.27 4.33a4 4 0 0 0-1.08 2.29A5.18 5.18 0 0 0 677 290a7.73 7.73 0 0 1-5.4 12.66 39.63 39.63 0 0 1-8.85-.37c-21.9-3.22-39.81-17.72-59.61-27.23-4.42-2.12-9.12-4-14.07-4.13.56 3.77 4.24 6.29 7.6 8.34l43.07 26.27c5.59 3.42 11.2 6.84 17.07 9.8a126.16 126.16 0 0 0 50.19 13.3c5.9.31 12.08.26 17.3 2.92a3.1 3.1 0 0 1 1.67 1.53c.41 1.15-.57 2.28-1.09 3.4-1.87 4 2.48 8.4 7 9.36s9.19-.06 13.71.7c1.32.22 2.76.7 3.35 1.85a19.81 19.81 0 0 1 .62 2.44c.77 2.07 3.46 2.64 5.62 3.42s4.37 3.09 3.05 4.89" fill="#ffffff" class="fill-ffffff"></path><path d="M756.4 238.53c1.55 12.75-4.44 25.3-14.3 33.24-5.67 4.56-12.54 7-19.68 8a87.32 87.32 0 0 1-25.62-.41c-7.06-1.08-16.2-2.32-21.39 3.95a5.07 5.07 0 0 0-1.32 4.69c.44 1.51 1.63 2.49 2.42 3.79a6.26 6.26 0 0 1-.33 6.95c-1.94 2.61-5.06 2.69-8 2.63a52.72 52.72 0 0 1-11.71-1.77 99 99 0 0 1-20.75-8.3c-6.71-3.47-13.18-7.37-19.76-11.08-3.28-1.85-6.59-3.66-10-5.35a57.26 57.26 0 0 0-11-4.48 26.67 26.67 0 0 0-5.89-.85 1.42 1.42 0 0 0-1.35 1.77c1.06 6.08 8.26 9.18 12.94 12l19.6 12 19.57 12A206.38 206.38 0 0 0 659 318a128.61 128.61 0 0 0 39.43 11.37c3.44.42 6.9.67 10.36.83a58.15 58.15 0 0 1 10 1 20.54 20.54 0 0 1 4.47 1.47c.43.21 1.33.51 1.41 1.05s-.75 1.51-1 2a6.94 6.94 0 0 0 1.12 7.37 12.44 12.44 0 0 0 8.33 4.47c4 .52 8.12-.25 12.11.43a4.33 4.33 0 0 1 2.1.72c.6.52.51 1.4.7 2.11a5.39 5.39 0 0 0 2.67 3.28c1.11.63 7.61 2.15 6.28 4.28-1 1.64 1.56 3.15 2.59 1.51 1.66-2.64-.57-5.47-3-6.66-1.14-.57-2.39-.84-3.56-1.32a3.18 3.18 0 0 1-2.29-2.72c-.67-3.27-3.59-4.06-6.55-4.34-3.64-.35-7.34.25-11-.3-2.69-.4-5.6-1.86-6.81-4.44a3.63 3.63 0 0 1 .19-3.54c.72-1.34 1.43-2.75.73-4.26a5.47 5.47 0 0 0-3-2.44 23.77 23.77 0 0 0-4.81-1.58 57.39 57.39 0 0 0-9.88-1 130.37 130.37 0 0 1-41.22-8.34c-13.88-5.35-26.35-13.64-39-21.34l-22.18-13.51c-3.54-2.15-7.1-4.27-10.6-6.47-2.66-1.67-5.59-3.7-6.17-7l-1.35 1.77a31.11 31.11 0 0 1 11.95 3.27c3.51 1.62 6.94 3.43 10.32 5.29 6.81 3.74 13.45 7.78 20.29 11.45a115.54 115.54 0 0 0 20.83 9.05 67.66 67.66 0 0 0 11.43 2.46c3.53.43 7.78.88 11.1-.67a9.27 9.27 0 0 0 3.26-14 7 7 0 0 1-1.24-1.85c-.29-.85.24-1.54.8-2.15a10.1 10.1 0 0 1 4.41-2.71c3.89-1.28 8-.85 12-.24 15.67 2.4 33.83 3.19 47.46-6.36 10.51-7.35 17.49-20 17.12-32.91a36 36 0 0 0-.48-4.76c-.18-1.1-2.1-.86-2 .26z" fill="#000000" class="fill-000000"></path><g fill="#ff3030" class="fill-18c4ff"><path d="M523.7 202.8a1.43 1.43 0 0 0 .08-.22c0 .11-.08.19 0 0s.12-.25.19-.37.13-.21.2-.32l.11-.15c.08-.12-.15.18 0 0a5.39 5.39 0 0 1 .57-.6l.14-.13c.13-.1.08-.05 0 0 .12-.08.22-.17.34-.24a6 6 0 0 1 .7-.39c.19-.09-.17.06 0 0l.18-.07c.13 0 .26-.09.4-.12l.4-.1h.15c.27-.05-.28 0 0 0H527.99A1.12 1.12 0 0 0 529 199a1.14 1.14 0 0 0-1.11-1.11 5.77 5.77 0 0 0-3.83 1 6.56 6.56 0 0 0-2.54 3.3 1.13 1.13 0 0 0 .79 1.38 1.14 1.14 0 0 0 1.38-.78zM522.47 216.43l1.5-.56a1 1 0 0 0 .41-.24l.15-.19a.91.91 0 0 0 .13-.48.78.78 0 0 0-.08-.36.72.72 0 0 0-.2-.3.67.67 0 0 0-.3-.19.64.64 0 0 0-.36-.08.85.85 0 0 0-.47.13l-1.47.62a.79.79 0 0 0-.25.23.62.62 0 0 0-.16.31v.24a.85.85 0 0 0 .08.35.86.86 0 0 0 .37.43.93.93 0 0 0 .69.09zM525.25 230.75a4.42 4.42 0 0 0-4.79.34 4.69 4.69 0 0 0-1.63 5 5.32 5.32 0 0 0 3.71 3.7 5.88 5.88 0 0 0 5.32-1 5.45 5.45 0 0 0 2-5.36 1.17 1.17 0 1 0-2.26.62v.23s0-.18 0 0v.66a4.13 4.13 0 0 1-.15.5s-.08.21 0 .05l-.07.15a3.38 3.38 0 0 1-.24.41s-.22.32-.12.2a3.33 3.33 0 0 1-.36.39 3.49 3.49 0 0 1-.35.32c-.16.13.12-.08-.05 0l-.15.1a3.26 3.26 0 0 1-.4.24l-.22.11c.15-.07 0 0-.1 0a3.17 3.17 0 0 1-.41.12s-.48.09-.3.07a4.78 4.78 0 0 1-1 0h-.06l-.25-.05a4.27 4.27 0 0 1-.48-.13l-.17-.06h-.07a4.53 4.53 0 0 1-.48-.27 2.32 2.32 0 0 1-.57-.5 2.58 2.58 0 0 1-.44-.67 3 3 0 0 1-.23-.7 3.09 3.09 0 0 1-.05-.85s0-.26 0-.15v-.09c0-.16.07-.31.12-.47 0 0 .07-.18 0-.07 0-.08.07-.15.1-.22l.09-.15s.15-.21.07-.11a2.47 2.47 0 0 1 3-.78.93.93 0 0 0 .93-1.6zM537.38 239.28l-.6-.3a.83.83 0 0 0-.41-.13.86.86 0 0 0-.45 0 1.24 1.24 0 0 0-.67.52l-.12.27a1.18 1.18 0 0 0 0 .59l.12.27a1.12 1.12 0 0 0 .4.41l.59.29a.81.81 0 0 0 .42.14 1 1 0 0 0 .45 0 .87.87 0 0 0 .38-.2.81.81 0 0 0 .29-.32l.12-.27a1.22 1.22 0 0 0 0-.6l-.12-.26a1.12 1.12 0 0 0-.4-.41zM512.41 230.73v-2.38a.89.89 0 0 0-1.77 0v2.38a.89.89 0 0 0 .88.89.91.91 0 0 0 .89-.89zM512.86 183.55l.22-.09h-.07.24a.14.14 0 0 1-.09 0h.25-.09l.22.1-.09-.06.19.15a.46.46 0 0 1-.07-.07l.15.19a.56.56 0 0 1-.05-.08l.1.24v-.08.26a.09.09 0 0 1 0-.07v.26a1 1 0 0 0 0-.53l-.1-.24a1 1 0 0 0-.36-.36.7.7 0 0 0-.37-.11.78.78 0 0 0-.4 0 1.08 1.08 0 0 0-.59.46 1 1 0 0 0-.14.51 2.51 2.51 0 0 0 0 .27.81.81 0 0 0 .06.13 1.21 1.21 0 0 0 .05.14l.16.2.2.16.18.08a.73.73 0 0 0 .19.07h.34a2.3 2.3 0 0 0 .26 0l.23-.1.2-.15a.68.68 0 0 0 .18-.29.69.69 0 0 0 .08-.35v-.24a.67.67 0 0 0-.16-.3.44.44 0 0 0-.17-.16.55.55 0 0 0-.3-.16h-.24a.81.81 0 0 0-.45.13zM511.17 201a6.44 6.44 0 0 0 1.92-.88 6.92 6.92 0 0 0 1.65-1.59.93.93 0 0 0 .1-.73 1 1 0 0 0-.44-.57.94.94 0 0 0-.73-.09 1.11 1.11 0 0 0-.57.43.35.35 0 0 0-.05.08l.14-.19a5.57 5.57 0 0 1-1 1l.19-.15a5.49 5.49 0 0 1-1.26.74l.22-.09a4.8 4.8 0 0 1-.67.23.94.94 0 0 0 .5 1.81zM511.55 172.81l3 .9a1 1 0 0 0 .55-2l-3-.89a1 1 0 1 0-.54 2zM544.55 207a2.4 2.4 0 0 0-.75-1.21 1.85 1.85 0 0 0-1.71-.49 2.31 2.31 0 0 0-1.49 2.2 2.62 2.62 0 0 0 1.4 2.33 3.57 3.57 0 0 0 2.88.15 6.86 6.86 0 0 0 2.71-2.09 1.22 1.22 0 1 0-1.73-1.73 10.54 10.54 0 0 1-.77.88 4.59 4.59 0 0 1-.39.37l-.12.1c.14-.11.16-.12.06-.05l-.19.13-.27.16-.14.06h.1l-.45.13h.1-.33a2.44 2.44 0 0 0-.27 0h.11-.09a1.41 1.41 0 0 1-.22-.06h.09l-.12-.06a.86.86 0 0 0-.16-.1c.14.1.16.12.07 0l-.08-.08c-.13-.12.15.24 0 0 0 0 0-.1-.07-.14.07.18.08.21 0 .11a.22.22 0 0 1 0-.1c0-.05-.06-.29 0-.07s0 0 0-.07.08-.28 0 0c0-.11.07-.24.1-.35-.08.16-.09.2 0 .1l.06-.09c.07-.14-.17.17 0 .05a.46.46 0 0 1 .07-.07c.08-.07 0 0-.08.06.06 0 .13-.08.19-.1l-.49.13h.1-.08.13c.19 0-.15-.1 0 0l.15.09c.09 0-.14-.13 0 0l.12.12c.07.06-.06-.12 0 0s.11.22 0 0a.83.83 0 0 0 1.6-.43zM660.42 293.13a1.11 1.11 0 0 0 0-2.22 1.11 1.11 0 0 0 0 2.22zM577.66 234.21a2.4 2.4 0 0 0 .37.28l.23.12.45.24a.72.72 0 0 0 .37.11.62.62 0 0 0 .38 0 .73.73 0 0 0 .34-.17.81.81 0 0 0 .25-.27l.1-.24a1.1 1.1 0 0 0 0-.51l-.1-.24a1.17 1.17 0 0 0-.35-.35l-.46-.22-.23-.11a1.79 1.79 0 0 0-.32-.13h-.38a.85.85 0 0 0-.35.08.72.72 0 0 0-.21.12.64.64 0 0 0-.23.26l-.1.22v.25a.66.66 0 0 0 .08.36.7.7 0 0 0 .19.29zM593 248a1.07 1.07 0 0 0 0-2.13 1.07 1.07 0 0 0 0 2.13z"></path></g><path d="m526.8 222.6.41.48a.64.64 0 0 0 .31.2.65.65 0 0 0 .37.08 1 1 0 0 0 .68-.28l.15-.19a1 1 0 0 0 .13-.49v-.25a.88.88 0 0 0-.24-.43l-.48-.41a.8.8 0 0 0-.3-.19.81.81 0 0 0-.7 0 .7.7 0 0 0-.29.19l-.15.19a.9.9 0 0 0-.12.46v.24a.83.83 0 0 0 .24.4zM533.24 205.44a.89.89 0 0 0 0-1.77.89.89 0 0 0 0 1.77z" fill="#000000" class="fill-000000"></path><g fill="#ff3030" class="fill-18c4ff"><path d="M551.32 279A129.74 129.74 0 0 0 608 334.12a125.39 125.39 0 0 0 12.16 5.23c2.91 1.07 7.43 1.93 9.68-.88 2.93-3.65-1.2-8.75-4-11.08s-8.63-5.64-11.7-2.13c-3.24 3.7.07 8.59 2.39 11.76a48.47 48.47 0 0 0 9.26 9.61 49.25 49.25 0 0 0 11.49 6.73c3.8 1.58 8 3 12.2 3 3.77 0 7.85-1.58 8.88-5.59 1.24-4.77-2.09-8.85-5.67-11.5-1.5-1.11-3.61-3-5.62-2.26-1.73.65-2 2.7-1.75 4.3a16.67 16.67 0 0 0 2.4 5.44 32.55 32.55 0 0 0 3.71 5 34.21 34.21 0 0 0 21.68 11.17 28.93 28.93 0 0 0 6.1 0c1.46-.15 1.51-2.43 0-2.32a31.73 31.73 0 0 1-20.31-5.6 30.83 30.83 0 0 1-7.6-7.43 28.84 28.84 0 0 1-2.72-4.65c-.24-.52-1.6-3.71-.24-3.46a8.26 8.26 0 0 1 2.38 1.55 21.29 21.29 0 0 1 2.45 2 8.48 8.48 0 0 1 2.83 5.33c.3 4-3.33 5.45-6.69 5.42a30 30 0 0 1-10.44-2.55 47.62 47.62 0 0 1-10.1-5.58 46.49 46.49 0 0 1-8.31-7.73 42.31 42.31 0 0 1-3.44-4.68c-1-1.58-2.23-3.62-1.42-5.54.94-2.25 3.66-1.19 5.34-.42a14.93 14.93 0 0 1 4.68 3.35c1.21 1.29 2.9 3.35 2.76 5.24-.11 1.57-1.67 2.05-3 2.09-3.36.11-6.75-1.65-9.77-2.92-3.59-1.5-7.1-3.18-10.53-5a129.4 129.4 0 0 1-19.14-12.53 127.5 127.5 0 0 1-30.16-34.3c-1-1.65-1.94-3.34-2.86-5-.55-1-2.09-.11-1.55.91zM703.68 295.93a2.7 2.7 0 0 0-3 .88 4.25 4.25 0 0 0-.65 3.68 7.52 7.52 0 0 0 3.84 5 6.46 6.46 0 0 0 6.21-.17 5.7 5.7 0 0 0 2.92-5.21 5.63 5.63 0 0 0-4-5.09c-1.45-.37-2.07 1.89-.61 2.24a3.17 3.17 0 0 1 2.28 2.41 3.24 3.24 0 0 1-1.1 3.27c-2.23 2-5.48.91-6.89-1.52a4.53 4.53 0 0 1-.68-2.53c0-.62.54-1.52 1.3-1.37a.81.81 0 0 0 .43-1.57zM689 294.49a1.14 1.14 0 0 0 0-2.27 1.14 1.14 0 0 0 0 2.27zM688.34 310.12q.13-.09 0 0l.12-.09.23-.15a4.59 4.59 0 0 1 .49-.26l.12-.06c-.12.05-.13.06 0 0l.27-.09a4.26 4.26 0 0 1 .54-.14.86.86 0 0 1 .27-.05c-.15 0-.16 0 0 0h.13a5.23 5.23 0 0 1 .56 0H691.49h-.06a5.29 5.29 0 0 1 .54.13 1 1 0 1 0 .53-1.93 6 6 0 0 0-5.4 1.21 1 1 0 0 0 1.36 1.36zM697.56 316.56v-.44a.79.79 0 0 0-.09-.38.67.67 0 0 0-.2-.32.75.75 0 0 0-.32-.21.71.71 0 0 0-.38-.08h-.26a1.1 1.1 0 0 0-.44.26l-.15.2a1 1 0 0 0-.14.5v.44a1.18 1.18 0 0 0 .29.7.72.72 0 0 0 .32.2.73.73 0 0 0 .38.09h.26a.92.92 0 0 0 .44-.25l.15-.2a1 1 0 0 0 .14-.5zM680.06 311.15a.84.84 0 0 0 0-1.67.84.84 0 0 0 0 1.67zM720.21 315.77a.58.58 0 0 1 .51.06s.12.32.13.32.1-.11.13-.14a3.88 3.88 0 0 1 .68-.53 4.72 4.72 0 0 1 1.56-.62 3.85 3.85 0 0 1 3 .54h.06l.14.11.3.3.22.25s.16.23.22.33l.2.37s.09.2 0 .06l.06.17a3 3 0 0 1 .12.4c0 .06.09.46.07.28a2.51 2.51 0 0 1-.18 1.44c.07-.17-.07.13-.1.18a2.39 2.39 0 0 1-.21.34c.11-.16-.1.11-.14.15a3.34 3.34 0 0 1-.33.32c-.1.08 0 0 0 0l-.24.16-.39.22-.16.07h-.08l-.44.12h-.68c-.14 0 0 0 0 0s-.25 0-.38-.06h-.07l-.32-.08a1.13 1.13 0 0 0-.87 2.06 4.62 4.62 0 0 0 5.11-.76 4.92 4.92 0 0 0 1.65-4.74 5.72 5.72 0 0 0-3.14-4.08 6.3 6.3 0 0 0-5.52.21 4.37 4.37 0 0 0-2.3 2.31c-.35 1.33 1.3 2.64 2.37 1.55.68-.69-.23-2-1.08-1.39zM743.43 336a1.09 1.09 0 0 0 0-2.18 1.09 1.09 0 0 0 0 2.18zM749 318a2.77 2.77 0 0 0-4.35-.2 4 4 0 0 0-.25 4.79 4.78 4.78 0 0 0 4.06 2.25 4 4 0 0 0 3.52-2.52 4.17 4.17 0 0 0-.73-4.6 1.15 1.15 0 1 0-1.63 1.63.93.93 0 0 1 .14.14c.1.11 0 .17 0 0a2.46 2.46 0 0 0 .17.27l.07.14c.08.13-.09-.28 0-.07s.08.24.11.37a1.29 1.29 0 0 0 0 .19c-.09-.28 0-.2 0-.09V320.98c0-.33 0-.14 0 0a1.62 1.62 0 0 1 0 .19l-.09.31c0 .11-.14.2 0 0 0 .05 0 .12-.08.18a2.54 2.54 0 0 1-.16.28l-.09.14c-.15.22.14-.16 0 0l-.23.23s-.11.08-.14.13c.09-.16.17-.12 0 0l-.3.18-.12.06h.09-.14l-.36.09s.27 0 0 0h-.36c-.27 0 0 0 0 0l-.43-.09a1.31 1.31 0 0 1-.35-.12h.12l-.13-.07-.13-.07a3 3 0 0 1-.38-.24c-.09-.06-.1 0 0 0-.08 0-.17-.14-.23-.19l-.26-.27-.05-.06s-.07-.1-.09-.12l-.21-.36s-.08-.12-.08-.16c.06.14.07.15 0 0s0-.09 0-.14-.07-.24-.1-.36 0 .17 0 0v-.19a2.81 2.81 0 0 1 0-.41c0-.27-.06.21 0-.05a2.86 2.86 0 0 0 .07-.28l.06-.2a.88.88 0 0 1 .05-.15c-.05.11-.05.12 0 0l.07-.15s.23-.3.08-.13l.11-.12s.29-.22.11-.11l.15-.09.1-.05c-.11 0-.11 0 0 0l.21-.06h.27c.22 0-.15-.05.06 0l.21.06c.17 0-.07-.07.06 0s.21.14.07 0c0 0 .22.22.12.1a.82.82 0 0 0 1.09.28.8.8 0 0 0 .3-.97zM767.08 343.05a1.05 1.05 0 0 0 0-2.1 1.05 1.05 0 0 0 0 2.1zM781 349.94l-.89-1.34a.74.74 0 0 0-.28-.3.83.83 0 0 0-.37-.2.86.86 0 0 0-.42 0 .79.79 0 0 0-.4.13 1.07 1.07 0 0 0-.39 1.47l.89 1.34a1.23 1.23 0 0 0 .64.49.79.79 0 0 0 .43 0 .78.78 0 0 0 .4-.12 1.13 1.13 0 0 0 .5-.65 1.07 1.07 0 0 0-.11-.82zM741.14 291.32c-.89-2-3.8-1.63-5.07-.24-2 2.2-.31 5.48 1.15 7.47s3.64 4 6.36 4.27a5.43 5.43 0 0 0 5.84-3.46c1-2.88-.74-5.79-.86-8.67-.06-1.5-2.42-1.51-2.35 0 .1 2.11 1 4.07 1.17 6.15a3.67 3.67 0 0 1-.5 2.55 3 3 0 0 1-1.76 1.11 5.16 5.16 0 0 1-4.7-1.58 12.62 12.62 0 0 1-1.95-2.36 6 6 0 0 1-1.17-2.84 1.65 1.65 0 0 1 1-1.82c.52-.22 1.11-.26 1.4.27.53 1 1.9.12 1.47-.85zM761.72 286.9a1.13 1.13 0 0 0 0-2.25 1.13 1.13 0 0 0 0 2.25zM752 280.55l-4 .89a1.27 1.27 0 0 0-.87 1.54 1.28 1.28 0 0 0 1.54.87l4-.89a1.27 1.27 0 0 0 .88-1.54 1.29 1.29 0 0 0-1.54-.87zM722.45 292.61h.45a.86.86 0 0 0 .39-.09.72.72 0 0 0 .33-.21 1 1 0 0 0 .22-.33.8.8 0 0 0 .08-.4v-.27a1 1 0 0 0-.27-.45l-.2-.16a1 1 0 0 0-.52-.14h-.45a.8.8 0 0 0-.4.08.91.91 0 0 0-.33.22.72.72 0 0 0-.21.33.71.71 0 0 0-.09.4v.28a1.08 1.08 0 0 0 .27.46l.21.16a1.07 1.07 0 0 0 .52.14z"></path></g><path d="m665.79 311.54.89-.44a1 1 0 0 0 .4-.51.69.69 0 0 0 0-.35.63.63 0 0 0-.1-.32.87.87 0 0 0-.51-.39h-.23a1 1 0 0 0-.44.12l-.88.47a.56.56 0 0 0-.24.22.69.69 0 0 0-.15.28.66.66 0 0 0 0 .34.71.71 0 0 0 .1.32.9.9 0 0 0 .51.39h.23a.85.85 0 0 0 .43-.12zM695.9 291.05l1.33.47a.7.7 0 0 0 .35 0 .62.62 0 0 0 .32-.11.85.85 0 0 0 .41-.52.88.88 0 0 0-.09-.67.94.94 0 0 0-.52-.4l-1.35-.43a.86.86 0 0 0-.65.09.81.81 0 0 0-.39.51.87.87 0 0 0 .08.65l.13.17a.81.81 0 0 0 .38.22zM710.4 317.47h.9a.71.71 0 0 0 .35-.07.7.7 0 0 0 .29-.19.73.73 0 0 0 .19-.3.67.67 0 0 0 .08-.35v-.24a.91.91 0 0 0-.24-.4.93.93 0 0 0-.64-.27h-.9a.72.72 0 0 0-.35.08.85.85 0 0 0-.48.48.72.72 0 0 0-.08.35v.24a.93.93 0 0 0 .23.41 1 1 0 0 0 .64.26zM726.92 306.83a13.69 13.69 0 0 0 4.72-.48 1 1 0 0 0-.52-1.88c-.36.1-.71.18-1.08.25l-.54.1H729.08a13.6 13.6 0 0 1-2.21 0 1 1 0 0 0-1 1 1 1 0 0 0 1 1zM738.14 333.07a4.93 4.93 0 0 1 1-.58l-.25.11a4.69 4.69 0 0 1 1.15-.32h-.27a4.68 4.68 0 0 1 1 0 1 1 0 0 0 1-1 1 1 0 0 0-.29-.71 1.16 1.16 0 0 0-.71-.29 5.34 5.34 0 0 0-3.65 1 1.1 1.1 0 0 0-.48.62 1.06 1.06 0 0 0 .1.8 1.08 1.08 0 0 0 .62.47 1 1 0 0 0 .8-.1zM761.28 334.94a1 1 0 0 0 0-1.95 1 1 0 0 0 0 1.95zM755.5 311.56l.89-.45a.68.68 0 0 0 .28-.25.9.9 0 0 0 .19-.72.77.77 0 0 0-.12-.36l-.15-.2a1 1 0 0 0-.43-.25h-.26a.92.92 0 0 0-.49.13l-.89.45a.68.68 0 0 0-.28.25.9.9 0 0 0-.19.72.77.77 0 0 0 .12.36l.15.2a1 1 0 0 0 .43.25h.26a1 1 0 0 0 .49-.13zM740.52 285.09l.23-.19c.08-.07 0 0 0 0a.54.54 0 0 1 .12-.09 5.36 5.36 0 0 1 .49-.34 8.93 8.93 0 0 1 1.09-.61l.27-.12c.13-.06-.16.06 0 0l.14-.06.57-.21a8.41 8.41 0 0 1 1.19-.33 1 1 0 0 0 .69-1.22 1 1 0 0 0-1.21-.69 10.11 10.11 0 0 0-4.87 2.52.94.94 0 0 0 0 1.32 1 1 0 0 0 1.33 0zM758.1 274.66l.47-.88a.81.81 0 0 0 .12-.37.78.78 0 0 0 0-.4.75.75 0 0 0-.18-.34.78.78 0 0 0-.28-.26l-.24-.1a1 1 0 0 0-.53 0l-.24.1a1 1 0 0 0-.36.36l-.42.91a.77.77 0 0 0-.12.36.86.86 0 0 0 0 .39.77.77 0 0 0 .18.33.81.81 0 0 0 .27.25l.23.1a1.14 1.14 0 0 0 .52 0l.23-.1a.91.91 0 0 0 .35-.35z" fill="#000000" class="fill-000000"></path><g fill="#ff3030" class="fill-18c4ff"><path d="M526.63 283.56a124.75 124.75 0 0 0 26.17 34.72 117.46 117.46 0 0 0 9.51 7.9c.86.64 2-.83 1.15-1.49a130.9 130.9 0 0 1-29.15-31.35q-3.39-5.14-6.26-10.61c-.49-.94-1.9-.11-1.42.83zM627.64 265l1.79-2.22a1 1 0 0 0 .28-.69 1 1 0 0 0-.28-.69 1 1 0 0 0-.69-.29 1 1 0 0 0-.69.29l-1.78 2.24a1.07 1.07 0 0 0-.28.68 1 1 0 0 0 1 1 .93.93 0 0 0 .68-.28zM637.46 240.06a65.48 65.48 0 0 0 16.73 19c6.31 4.89 13.72 8.56 21.71 9.55 6.29.79 15.32-.4 17.15-7.74a8.71 8.71 0 0 0-1.87-8.14c-2.3-2.31-6.81-2.68-8.23.78-1.76 4.27 2.67 7.9 5.68 10.12a31.09 31.09 0 0 0 12.53 5.47c1.55.3 2.22-2.06.66-2.39a30.66 30.66 0 0 1-9.68-3.76 29.65 29.65 0 0 1-3.76-2.71c-1.29-1.1-3-2.45-3.3-4.2a2.08 2.08 0 0 1 2.68-2.62 4 4 0 0 1 2.52 2.08 7 7 0 0 1-.27 6.65c-3.28 5.44-11.79 4.82-17 3.67a45.78 45.78 0 0 1-17.8-8.71 73.8 73.8 0 0 1-16.26-17.91.84.84 0 0 0-1.45.85z"></path></g></svg>