<svg viewBox="0 0 1000 1000" xmlns="http://www.w3.org/2000/svg"><path d="M938.86 146h-22.69a36.14 36.14 0 0 1 36.14 36.15v523.93a36.14 36.14 0 0 1-36.14 36.14h22.69A36.14 36.14 0 0 0 975 706.08V182.17A36.14 36.14 0 0 0 938.86 146z" fill="#000000" class="fill-000000"></path><path d="M938.86 144.13h-22.69a1.89 1.89 0 0 0 0 3.78 34.65 34.65 0 0 1 34.25 34.28v522.54c0 9.19-2.85 17.94-9.23 24.74a34.65 34.65 0 0 1-25 10.86c-2.44 0-2.44 3.78 0 3.78h16.45c6.6 0 13 0 19.35-2.32a38.53 38.53 0 0 0 24.92-35.89c.06-7.32 0-14.65 0-22V183.13c0-11.09-4.21-21.69-12.54-29.18a38.63 38.63 0 0 0-25.49-9.82c-2.44 0-2.44 3.76 0 3.78a34.65 34.65 0 0 1 34.25 34.31V703c0 5-.31 10-2.06 14.79A34.5 34.5 0 0 1 951 738.14c-6.34 2.37-12.79 2.19-19.42 2.19h-15.41v3.78c18.87-.21 35.27-14.26 37.7-33.13a66.63 66.63 0 0 0 .33-8.71V182.91a38.07 38.07 0 0 0-38-38.79v3.78h22.69a1.89 1.89 0 0 0-.03-3.77z" fill="#000000" class="fill-000000"></path><path d="M676.4 146h239.77a36.14 36.14 0 0 1 36.14 36.14v523.94a36.14 36.14 0 0 1-36.14 36.14H676.4a36.14 36.14 0 0 1-36.14-36.14V182.17A36.15 36.15 0 0 1 676.4 146z" fill="#3239fa" class="fill-18c4ff"></path><path d="M676.4 147.91h239.76c19.43.18 34.23 16 34.26 35.2v517.08c0 6.91-.06 13.55-3.06 20.07a34.66 34.66 0 0 1-31.2 20.07H676.41a34.66 34.66 0 0 1-31.78-21.41c-2.51-6.23-2.47-12.45-2.47-18.95V183.02c0-19.15 14.88-34.89 34.25-35.11 2.43 0 2.44-3.81 0-3.78a38.52 38.52 0 0 0-38 38.53v518.21c0 8 .55 15.71 4.44 23A38.37 38.37 0 0 0 673.92 744c2.23.15 4.47.08 6.7.08h231.07c2 0 4.09.06 6.13 0a38.41 38.41 0 0 0 31.38-19.14c4.29-7.52 5-15.54 5-23.88V182.7c-.06-20.47-16.08-37.87-36.79-38.57-6.25-.21-12.53 0-18.78 0H676.4a1.89 1.89 0 0 0 0 3.78z" fill="#3239fa" class="fill-18c4ff"></path><path d="M601.03 474.74h327.23v14.78H601.03z" fill="#000000" class="fill-000000"></path><path d="M928.26 488.57H606c-1.43 0-3-.14-4.37 0a5.23 5.23 0 0 1-.56 0l.94.94v-14.77l-.94.94h322.3c1.43 0 2.95.14 4.37 0a5.23 5.23 0 0 1 .56 0l-.94-.94v14.77a1 1 0 0 0 1.89 0v-14.77a1 1 0 0 0-1-.95h-314c-4.24 0-8.48-.07-12.72 0H601a1 1 0 0 0-.95.95v14.77a1 1 0 0 0 .95.95h314c4.24 0 8.49.07 12.72 0h.56a1 1 0 0 0-.02-1.89z" fill="#000000" class="fill-000000"></path><path d="M575.14 313.28H819.5V476.6H575.14z" fill="#ffffff" class="fill-ffffff"></path><path d="M575.14 366.41h145.5v67.2h-145.5z" fill="#3239fa" class="fill-18c4ff"></path><path d="M720.64 432.66H593c-5.85 0-11.75-.2-17.6 0h-.25a1 1 0 0 0 0 1.89H702.8c5.85 0 11.74.2 17.59 0h.25a1 1 0 0 0 0-1.89z" fill="#000000" class="fill-000000"></path><path d="M819.51 475.66H578.82c-1.07 0-2.2-.1-3.27 0h-.41l1 .94V315.73a14.55 14.55 0 0 0 0-2.19 2.26 2.26 0 0 1 0-.26l-1 .94h240.69c1.07 0 2.2.1 3.27 0h.41l-1-.94v143.19c0 6.61-.22 13.26 0 19.87v.26a1 1 0 0 0 1.89 0V333.41c0-6.61.22-13.26 0-19.87v-.26a1 1 0 0 0-.94-.95h-234.4c-3.16 0-6.34-.06-9.51 0h-.41a1 1 0 0 0-.94.95v143.19c0 6.61-.22 13.26 0 19.87v.26a1 1 0 0 0 .94.95h234.45c3.16 0 6.34.06 9.51 0h.41a1 1 0 0 0 0-1.89z" fill="#000000" class="fill-000000"></path><path d="M819.51 313.28h108.75V476.6H819.51z" fill="#000000" class="fill-000000"></path><path d="M928.26 475.66H821.15a7.8 7.8 0 0 0-1.45 0h-.19l.94.94V315.73a13.34 13.34 0 0 0 0-2.19 2.26 2.26 0 0 1 0-.26l-.94.94h107.11a7 7 0 0 0 1.45 0 1.21 1.21 0 0 1 .19 0l-.94-.94v143.19c0 6.61-.22 13.26 0 19.87v.26a1 1 0 0 0 1.89 0V333.41c0-6.61.22-13.26 0-19.87a2.25 2.25 0 0 1 0-.26 1 1 0 0 0-1-.95H824c-1.4 0-2.85-.09-4.25 0h-.19a1 1 0 0 0-1 .95v143.19c0 6.61-.22 13.26 0 19.87v.26a1 1 0 0 0 1 .95h104.26c1.4 0 2.85.1 4.25 0h.19a1 1 0 0 0 0-1.89z" fill="#000000" class="fill-000000"></path><path d="M845.04 366.41h83.22v67.2h-83.22z" fill="#3239fa" class="fill-18c4ff"></path><path d="M928.26 475.66H821.15a7.8 7.8 0 0 0-1.45 0h-.19l.94.94V315.73a13.34 13.34 0 0 0 0-2.19 2.26 2.26 0 0 1 0-.26l-.94.94h107.11a7 7 0 0 0 1.45 0 1.21 1.21 0 0 1 .19 0l-.94-.94v143.19c0 6.61-.22 13.26 0 19.87v.26a1 1 0 0 0 1.89 0V333.41c0-6.61.22-13.26 0-19.87a2.25 2.25 0 0 1 0-.26 1 1 0 0 0-1-.95H824c-1.4 0-2.85-.09-4.25 0h-.19a1 1 0 0 0-1 .95v143.19c0 6.61-.22 13.26 0 19.87v.26a1 1 0 0 0 1 .95h104.26c1.4 0 2.85.1 4.25 0h.19a1 1 0 0 0 0-1.89z" fill="#000000" class="fill-000000"></path><path d="M575.14 290.98H819.5v22.3H575.14z" fill="#ffffff" class="fill-ffffff"></path><path d="M575.14 291.93h240.69c1.07 0 2.2.09 3.27 0a2.8 2.8 0 0 1 .41 0l-1-.95v22.3l1-.95H585.06c-3.16 0-6.34-.06-9.51 0h-.41a1 1 0 0 0 0 1.89h234.45c3.16 0 6.34.07 9.51 0h.41a1 1 0 0 0 .94-.94V291a1 1 0 0 0-.94-.94H585.06c-3.16 0-6.34-.07-9.51 0h-.41a1 1 0 0 0 0 1.89z" fill="#000000" class="fill-000000"></path><path d="M819.51 290.98h108.75v22.3H819.51z" fill="#ffffff" class="fill-ffffff"></path><path d="M928.26 312.33H821.15a7.8 7.8 0 0 0-1.45 0 .61.61 0 0 1-.19 0l.94.95V291l-.94.95h107.11a7.8 7.8 0 0 0 1.45 0 .61.61 0 0 1 .19 0l-.94-.95v22.3a1 1 0 0 0 1.89 0V291a1 1 0 0 0-1-.94H824c-1.4 0-2.85-.1-4.25 0h-.19a1 1 0 0 0-1 .94v22.3a1 1 0 0 0 1 .94h104.26c1.4 0 2.85.1 4.25 0h.19a1 1 0 0 0 0-1.91z" fill="#000000" class="fill-000000"></path><path d="M569.16 357.24a7.74 7.74 0 0 1-7.34-10.52l13.32-33.44h22.26l-13.61 34.17a15.69 15.69 0 0 1-14.63 9.79z" fill="#3239fa" class="fill-18c4ff"></path><path d="M575.14 314.22h22.26l-.91-1.19-7.78 19.51-4.71 11.78c-1.35 3.4-2.72 6.6-5.77 8.92s-7.36 3.82-11 2.79a6.84 6.84 0 0 1-4.49-9.06c.43-1.14-1.4-1.63-1.82-.5a8.63 8.63 0 0 0 2.21 9.37c2.63 2.42 6.15 2.68 9.52 2a17 17 0 0 0 12.3-10.73l9.86-24.74 3.51-8.83a1 1 0 0 0-.91-1.2h-22.27a1 1 0 0 0 0 1.89z" fill="#000000" class="fill-000000"></path><path d="M591.43 357.24a7.74 7.74 0 0 1-7.34-10.52l13.32-33.44h22.26l-13.61 34.17a15.7 15.7 0 0 1-14.63 9.79z" fill="#ffffff" class="fill-ffffff"></path><path d="M597.41 314.22h22.26l-.91-1.19-7.76 19.51-4.69 11.78c-1.35 3.4-2.72 6.6-5.77 8.92s-7.37 3.82-11 2.79A6.83 6.83 0 0 1 585 347c.43-1.14-1.4-1.63-1.82-.5a8.63 8.63 0 0 0 2.21 9.37c2.63 2.42 6.15 2.68 9.52 2a17 17 0 0 0 12.3-10.73l9.86-24.74 3.51-8.83a1 1 0 0 0-.91-1.2h-22.26a1 1 0 0 0 0 1.89z" fill="#000000" class="fill-000000"></path><path d="M613.58 357.24a7.74 7.74 0 0 1-7.34-10.52l13.33-33.44h22.25l-13.61 34.17a15.69 15.69 0 0 1-14.63 9.79z" fill="#3239fa" class="fill-18c4ff"></path><path d="M619.57 314.22h22.25l-.91-1.19-7.77 19.51-4.69 11.78c-1.36 3.4-2.73 6.6-5.78 8.92s-7.36 3.82-11 2.79a6.83 6.83 0 0 1-4.49-9.06c.42-1.14-1.4-1.63-1.83-.5a8.63 8.63 0 0 0 2.21 9.37c2.64 2.42 6.15 2.68 9.52 2a17 17 0 0 0 12.3-10.73l9.86-24.74 3.51-8.83a1 1 0 0 0-.91-1.2h-22.27a1 1 0 0 0 0 1.89z" fill="#000000" class="fill-000000"></path><path d="M635.85 357.24a7.74 7.74 0 0 1-7.34-10.52l13.32-33.44h22.26l-13.61 34.17a15.69 15.69 0 0 1-14.63 9.79z" fill="#ffffff" class="fill-ffffff"></path><path d="M641.83 314.22h22.26l-.91-1.19-7.78 19.51-4.69 11.78c-1.35 3.4-2.72 6.6-5.77 8.92s-7.36 3.82-11 2.79a6.83 6.83 0 0 1-4.48-9.06c.42-1.14-1.41-1.63-1.83-.5a8.63 8.63 0 0 0 2.21 9.37c2.64 2.42 6.15 2.68 9.52 2a17 17 0 0 0 12.3-10.73l9.86-24.74 3.51-8.83a1 1 0 0 0-.91-1.2h-22.29a1 1 0 0 0 0 1.89z" fill="#000000" class="fill-000000"></path><path d="M658 357.24a7.73 7.73 0 0 1-7.33-10.52L664 313.28h22.25l-13.61 34.17a15.69 15.69 0 0 1-14.64 9.79z" fill="#3239fa" class="fill-18c4ff"></path><path d="M664 314.22h22.25l-.91-1.19-7.77 19.51-4.69 11.78c-1.36 3.4-2.73 6.6-5.78 8.92s-7.36 3.82-11 2.79a6.83 6.83 0 0 1-4.49-9.06c.42-1.14-1.4-1.63-1.83-.5a8.65 8.65 0 0 0 2.21 9.37c2.64 2.42 6.15 2.68 9.52 2a17 17 0 0 0 12.3-10.73l9.86-24.74 3.51-8.83a1 1 0 0 0-.91-1.2H664a1 1 0 0 0 0 1.89z" fill="#000000" class="fill-000000"></path><path d="M680.27 357.24a7.73 7.73 0 0 1-7.33-10.52l13.32-33.44h22.25l-13.61 34.17a15.69 15.69 0 0 1-14.63 9.79z" fill="#ffffff" class="fill-ffffff"></path><path d="M686.26 314.22h22.25l-.91-1.22-7.77 19.51-4.69 11.78c-1.36 3.4-2.73 6.6-5.78 8.92s-7.36 3.82-11 2.79a6.83 6.83 0 0 1-4.49-9.06c.42-1.14-1.4-1.63-1.83-.5a8.65 8.65 0 0 0 2.21 9.37c2.64 2.42 6.15 2.68 9.52 2a17 17 0 0 0 12.3-10.73l9.86-24.74 3.51-8.83a1 1 0 0 0-.91-1.2h-22.27a1 1 0 0 0 0 1.89z" fill="#000000" class="fill-000000"></path><path d="M702.43 357.24a7.73 7.73 0 0 1-7.34-10.52l13.32-33.44h22.25l-13.61 34.17a15.69 15.69 0 0 1-14.62 9.79z" fill="#3239fa" class="fill-18c4ff"></path><path d="M708.41 314.22h22.25l-.91-1.19-7.75 19.51-4.69 11.78c-1.36 3.4-2.73 6.6-5.78 8.92s-7.36 3.82-11 2.79A6.83 6.83 0 0 1 696 347c.43-1.14-1.4-1.63-1.82-.5a8.65 8.65 0 0 0 2.2 9.37c2.64 2.42 6.15 2.68 9.52 2a17 17 0 0 0 12.3-10.73l9.86-24.74 3.52-8.83a1 1 0 0 0-.92-1.2h-22.25a1 1 0 0 0 0 1.89z" fill="#000000" class="fill-000000"></path><path d="M724.7 357.24a7.73 7.73 0 0 1-7.34-10.52l13.32-33.44h22.25l-13.61 34.17a15.69 15.69 0 0 1-14.62 9.79z" fill="#ffffff" class="fill-ffffff"></path><path d="M730.68 314.22h22.25L752 313l-7.77 19.51-4.69 11.78c-1.36 3.4-2.73 6.6-5.78 8.92s-7.36 3.82-11 2.79a6.83 6.83 0 0 1-4.49-9.06c.42-1.14-1.4-1.63-1.83-.5a8.67 8.67 0 0 0 2.21 9.37c2.64 2.42 6.15 2.68 9.52 2a17 17 0 0 0 12.3-10.73l9.86-24.74 3.52-8.83a1 1 0 0 0-.92-1.2h-22.25a1 1 0 0 0 0 1.89z" fill="#000000" class="fill-000000"></path><path d="M746.85 357.24a7.73 7.73 0 0 1-7.34-10.52l13.32-33.44h22.26l-13.62 34.17a15.69 15.69 0 0 1-14.62 9.79z" fill="#3239fa" class="fill-18c4ff"></path><path d="M752.83 314.22h22.26l-.92-1.19-7.77 19.51-4.69 11.78c-1.36 3.4-2.72 6.6-5.78 8.92-2.91 2.22-7.36 3.82-11 2.79a6.83 6.83 0 0 1-4.49-9.06c.43-1.14-1.4-1.63-1.82-.5a8.65 8.65 0 0 0 2.2 9.37c2.64 2.42 6.15 2.68 9.52 2a17 17 0 0 0 12.31-10.73l9.85-24.74 3.52-8.83a1 1 0 0 0-.91-1.2h-22.28a1 1 0 0 0 0 1.89z" fill="#000000" class="fill-000000"></path><path d="M769.12 357.24a7.73 7.73 0 0 1-7.34-10.52l13.32-33.44h22.26l-13.62 34.17a15.69 15.69 0 0 1-14.62 9.79z" fill="#ffffff" class="fill-ffffff"></path><path d="M775.1 314.22h22.26l-.92-1.19-7.77 19.51-4.67 11.78c-1.36 3.4-2.73 6.6-5.78 8.92s-7.36 3.82-11 2.79a6.83 6.83 0 0 1-4.49-9.06c.43-1.14-1.4-1.63-1.82-.5a8.65 8.65 0 0 0 2.2 9.37c2.64 2.42 6.15 2.68 9.52 2a17 17 0 0 0 12.27-10.74l9.85-24.74 3.52-8.83a1 1 0 0 0-.91-1.2H775.1a1 1 0 0 0 0 1.89z" fill="#000000" class="fill-000000"></path><path d="M791.27 357.24a7.73 7.73 0 0 1-7.34-10.52l13.32-33.44h22.26l-13.62 34.17a15.68 15.68 0 0 1-14.62 9.79z" fill="#3239fa" class="fill-18c4ff"></path><path d="M797.25 314.22h22.26l-.91-1.22-7.78 19.51-4.69 11.78c-1.36 3.4-2.72 6.6-5.77 8.92s-7.37 3.82-11 2.79a6.83 6.83 0 0 1-4.49-9.06c.43-1.14-1.4-1.63-1.82-.5a8.65 8.65 0 0 0 2.2 9.37c2.64 2.42 6.15 2.68 9.52 2a17 17 0 0 0 12.31-10.73l9.85-24.74 3.52-8.83a1 1 0 0 0-.91-1.2h-22.29a1 1 0 0 0 0 1.89zM801.65 476.6H737v-95.08a15.12 15.12 0 0 1 15.11-15.11h34.47a15.11 15.11 0 0 1 15.11 15.11z" fill="#000000" class="fill-000000"></path><path d="M801.65 475.66H737l.95.94V385a34 34 0 0 1 .21-6 14.39 14.39 0 0 1 14.4-11.66h29.14c4.39 0 8.64-.25 12.54 2.25 4.41 2.83 6.51 7.59 6.51 12.7v94.31a1 1 0 0 0 1.89 0v-92.42a23.44 23.44 0 0 0-.89-7.94 16.31 16.31 0 0 0-15.53-10.77h-29.45c-4.44 0-8.73-.18-12.75 2.16a16.36 16.36 0 0 0-8 14.31v94.66a1 1 0 0 0 1 .95h64.69a1 1 0 0 0-.06-1.89z" fill="#000000" class="fill-000000"></path><g fill="#ffffff" class="fill-ffffff"><path d="m582.7 431.05 12.63-15.95c2-2.6 4.11-5.19 6.15-7.79s3.89-5.15 6-7.55c1.72-1.94 3.75-3.91 6.25-4.74a6.82 6.82 0 0 1 3.85-.14 5.06 5.06 0 0 0 3.43.1 9.47 9.47 0 0 0 3-2.73l3.63-4.06 6.6-7.39q7.59-8.49 15.17-17c.7-.78-.45-1.94-1.15-1.15q-6.79 7.55-13.55 15.13l-6.59 7.39c-2.25 2.51-4.37 5.29-6.82 7.61-1.33 1.26-2.46.61-4 .34a8.21 8.21 0 0 0-3.62.21 14.36 14.36 0 0 0-6 3.84 70.13 70.13 0 0 0-5.83 7c-2 2.6-4.08 5.22-6.11 7.83l-14 18.05c-.53.69.43 1.67 1 1zM624.85 411l39.53-47.67c.61-.73-.44-1.78-1-1.05l-39.43 47.79c-.53.65.39 1.58.94.93zM612.83 422.18l1.56-1.92a.69.69 0 0 0 0-1 .75.75 0 0 0-.49-.21.69.69 0 0 0-.49.21l-1.53 1.94a.77.77 0 0 0-.2.47.72.72 0 0 0 .2.48.7.7 0 0 0 .47.19.65.65 0 0 0 .48-.19zM662.83 424q19.78-23.2 40.47-45.6c3.9-4.22 7.91-8.36 11.75-12.63.62-.7-.37-1.71-1-1-7.18 7.23-14 14.91-20.79 22.47s-13.49 15.09-20.13 22.73q-5.65 6.53-11.23 13.1c-.56.66.39 1.63 1 1zM688.49 416l12-13.45c.63-.7-.41-1.74-1-1l-11.92 13.57c-.55.62.36 1.54.92.92zM857.05 423.9q19.4-21.7 38.63-43.55c3.63-4.1 7.27-8.18 10.84-12.34.67-.78-.44-1.92-1.14-1.14-13 14.38-25.68 29.12-38.48 43.7-3.62 4.11-7.21 8.25-10.8 12.38-.56.65.37 1.59.95.95zM876.13 427.88q19.46-23.19 38.14-47l5.11-6.54c1.73-2.23 3.59-4.41 5.16-6.75.46-.68-.6-1.51-1.15-.88-3.3 3.77-6.21 8-9.3 11.93s-6.12 7.82-9.2 11.71q-9.33 11.76-18.83 23.4-5.4 6.62-10.86 13.19c-.54.65.38 1.59.93.93zM899 424.74l1.64-3a.85.85 0 0 0-.3-1.13.84.84 0 0 0-1.13.3l-1.65 3a.84.84 0 0 0 .3 1.14.83.83 0 0 0 1.14-.3zM792.85 424.57c-.32-1.5.73-3.21-.09-4.51-.65-1-2.08-1.13-3.29-1.12a48.45 48.45 0 0 0-8.08.49c-.45.08-1 .29-1 .75a1 1 0 0 0 .26.61 5.74 5.74 0 0 0 3.73 1.91 38.1 38.1 0 0 0 4.28.16c.32 0 .71.08.82.38a1 1 0 0 1 0 .51 1.83 1.83 0 0 0 3.36 1.22"></path><path d="M793.52 424.38c-.17-1.17.47-2.31.36-3.5a3.07 3.07 0 0 0-1.9-2.57 9 9 0 0 0-3.59-.38c-1.46 0-2.94 0-4.4.12-.73.06-1.45.15-2.17.25a3.55 3.55 0 0 0-1.92.66c-1.19 1-.34 2.46.64 3.26a7.33 7.33 0 0 0 3.52 1.49 15.89 15.89 0 0 0 2.18.18h1a5.75 5.75 0 0 0 1.31 0h.12c.22 0 .15-.14-.2-.44-.09.1-.06.51 0 .63a2.75 2.75 0 0 0 .26 1 2.93 2.93 0 0 0 1.38 1.44 3 3 0 0 0 3.69-1.09c.78-1.11-1-2.17-1.82-1.06a.78.78 0 0 1-1.36-.2c-.13-.35 0-.74 0-1.12a1.52 1.52 0 0 0-1-1.14 9.75 9.75 0 0 0-3.28-.2 9.34 9.34 0 0 1-3.15-.48 4.38 4.38 0 0 1-1.12-.62c-.15-.12-.27-.3-.43-.41 0 0-.11-.15-.13-.15q-.35.48-.12.42h.05a3.06 3.06 0 0 0 .57-.12l.78-.12c.59-.07 1.18-.12 1.77-.17 1.19-.09 2.38-.13 3.58-.15a14.25 14.25 0 0 1 2.77 0c1 .17 1.48.53 1.46 1.57a12.4 12.4 0 0 0-.08 3.16c.19.89 1.45.49 1.33-.37z"></path></g><path d="M676.4 146.02h239.77M676.4 147.91h230c3.12 0 6.26.07 9.38 0h.4a1.89 1.89 0 0 0 0-3.78h-230c-3.13 0-6.26-.06-9.39 0h-.39a1.89 1.89 0 0 0 0 3.78z" fill="#000000" class="fill-000000"></path><path d="M769.28 164.27h54a18.83 18.83 0 0 0 15.5-8.12l7-10.13h-99l7 10.13a18.82 18.82 0 0 0 15.5 8.12z" fill="#000000" class="fill-000000"></path><path d="M769.28 166.17h53.62a21.55 21.55 0 0 0 10.57-2.68c3.8-2.14 6.26-5.4 8.67-8.89l5.27-7.62a1.91 1.91 0 0 0-1.63-2.85H759c-4 0-8-.16-12.06 0h-.17a1.91 1.91 0 0 0-1.64 2.85l6.62 9.57a21.37 21.37 0 0 0 17.51 9.62c2.44 0 2.44-3.76 0-3.79a17.18 17.18 0 0 1-10.11-3.38 19.86 19.86 0 0 1-4.43-4.85l-6.3-9.11-1.63 2.84h94.92a36.05 36.05 0 0 0 3.89 0h.18l-1.63-2.84-4.49 6.48c-1.74 2.52-3.34 5.14-5.75 7.1a17.16 17.16 0 0 1-10.81 3.73h-53.82c-2.43.03-2.44 3.82 0 3.82z" fill="#000000" class="fill-000000"></path><path d="M444.4 400.34c-34 14-60.41 45.28-68.35 81.2-.65 2.94-1.17 6.11 0 8.9 1 2.47 3.2 4.24 5.3 5.89q17 13.34 34.84 25.62a17.2 17.2 0 0 0 5.52 2.86c8.67 2.09 14.3-8.77 16.53-17.41a242.06 242.06 0 0 0 78.22 116c8.25 6.7 17.35 13 27.82 14.88 16.17 2.86 32.26-5.5 45.06-15.79s23.95-22.84 38.29-30.85c19.55-10.92 44.12-12.87 60.63-28 3.83-3.51 7.29-8.32 6.5-13.46-.54-3.49-2.93-6.37-5.34-8.94-14.21-15.19-32-26.5-48-39.72s-31-29.33-36.36-49.42c14.57 7.55 32.49 15.07 46.51 6.55 5.71-3.47 9.71-9.14 13.05-14.92 4.11-7.08 7.57-15 7-23.17-1.15-15.58-16.13-26.19-30.34-32.7-59.59-27.29-133-21.77-187.86 14.13" fill="#ffffff" class="fill-ffffff"></path><path d="m453.37 402-9-1.66c-1.95.8-3.87 1.67-5.77 2.58a29.93 29.93 0 0 0 8.14 10c9.28 7.26 22.41 8.75 33.53 4.88s20.17-12.69 25.51-23.19a60.44 60.44 0 0 0 5.67-17.81 191 191 0 0 0-58.08 25.2z" fill="#000000" class="fill-000000"></path><path d="M641.9 501c-12.1-10.36-23.74-22-31-36.42a66.52 66.52 0 0 1-4.87-12.78l-1.56 1.2c10.07 5.24 21.19 10.55 32.78 10.59a28.2 28.2 0 0 0 15.56-4.36c4.76-3.1 8.35-7.65 11.33-12.43 6.11-9.77 11.23-21.54 7.27-33.1-3.29-9.58-11.4-16.63-19.8-21.77-9.22-5.65-19.57-9.66-29.82-13a193.69 193.69 0 0 0-32.67-7.54 204.23 204.23 0 0 0-66.74 1.61 195.11 195.11 0 0 0-62.51 23.44q-3.62 2.13-7.14 4.44c-1.35.88-.09 3.06 1.28 2.17a191 191 0 0 1 59.27-25.49 201.45 201.45 0 0 1 64.41-5A190 190 0 0 1 640 388.72c8.94 4.06 17.88 9.3 24.11 17.06a28.07 28.07 0 0 1 5.89 12.65c1 5.77-.34 11.63-2.57 16.95a65.39 65.39 0 0 1-9 15.35 27 27 0 0 1-13.06 9.37c-10.75 3.29-22.53-.76-32.32-5.22-2.55-1.17-5-2.41-7.54-3.69a1.07 1.07 0 0 0-1.56 1.2c4.3 15.81 14.38 29.24 26.12 40.38 3.44 3.26 7 6.32 10.75 9.27.71.56 1.73-.41 1-1zM444.21 399.65c-24.41 9.68-44.8 28.3-57.55 51.18a115.85 115.85 0 0 0-8.1 18c-1.07 3.06-2 6.16-2.82 9.3-.85 3.38-1.9 7-1.39 10.48s3 6.09 5.77 8.27c3.19 2.54 6.42 5 9.66 7.48q10.29 7.81 20.86 15.24c3.35 2.36 7 5.69 11.12 6.52a10.38 10.38 0 0 0 8.11-1.8c5.24-3.75 8-10.53 9.57-16.55H437a243.14 243.14 0 0 0 71 110.18c8.4 7.43 17.33 15 27.83 19.25 10.77 4.35 22.41 3.5 33-.81 22.11-9 36.14-29.13 55.92-41.56 18.18-11.42 40.75-13.31 58.46-25.58a57.53 57.53 0 0 0 5.87-4.67c1.2-1.09-.59-2.87-1.79-1.78-15.59 14.15-37.65 16.68-56.08 25.57-20.72 10-34.38 29.48-54 41-9.74 5.73-21.25 9.71-32.65 7.69s-21-9.27-29.61-16.5a241.16 241.16 0 0 1-73-105.79q-1.32-3.84-2.52-7.71a1.26 1.26 0 0 0-2.41 0c-1.37 5.21-3.57 11-7.78 14.59a8.2 8.2 0 0 1-6.84 2.06c-3.53-.66-6.7-3.56-9.57-5.56q-9.6-6.7-19-13.72-4.94-3.69-9.79-7.46c-2.73-2.12-6.27-4.33-7.26-7.85s.21-7.16 1-10.46q1.13-4.49 2.64-8.87a111.45 111.45 0 0 1 7.32-16.68 117.6 117.6 0 0 1 57-52.15c.74-.32.2-1.62-.56-1.32z" fill="#000000" class="fill-000000"></path><path d="M290.28 498.59c22.31-27 44.82-54.21 72.07-76.21 5.34-4.31 10.88-8.43 17.06-11.41a83.32 83.32 0 0 1 16.9-5.66 180.71 180.71 0 0 1 24.37-4.1c1.28-.13 2.7-.2 3.69.62 1.23 1 1.17 3 .29 4.37a9.69 9.69 0 0 1-3.75 2.89 173.23 173.23 0 0 1-18.37 8.31c6.6 2.06 13.12 5.6 16.72 11.5s3.32 14.53-2.05 18.9a5.45 5.45 0 0 1-4.43 1.43c-1.57-.34-2.8-2.23-2-3.63-3.51 9.82-15.14 15.92-25.21 13.23a5.59 5.59 0 0 0-3.5-.26 4.89 4.89 0 0 0-2.22 2.6l-43.43 86.05" fill="#ffffff" class="fill-ffffff"></path><path d="M402.34 418.13c7.26 2.36 15.19 6.82 17.55 14.62a14.76 14.76 0 0 1-.45 10.29 10.38 10.38 0 0 1-3.14 4 4.18 4.18 0 0 1-3.2 1c-.72-.18-1.66-1-1.27-1.86l-2.22-.93c-2.34 6.29-8.22 11-14.65 12.55a20.18 20.18 0 0 1-4.89.57 26.15 26.15 0 0 1-5.34-.83 4.34 4.34 0 0 0-4.66 1.39 33.29 33.29 0 0 0-3.07 5.77c-4.4 8.69-8.71 17.43-13.22 26.06-1.15 2.21-2.32 4.41-3.49 6.61-.54 1-1 2.16-1.56 3.14a25.81 25.81 0 0 0-1.82 3.09c-.49 1.13-.85 2.29-1.38 3.4s-1.2 2.38-1.8 3.57l-3.26 6.43-15 29.65c-.6 1.2 1.2 2.26 1.81 1l13.4-26.52c2.21-4.38 4.36-8.8 6.64-13.14.55-1.05 1.19-2 1.82-3a19.66 19.66 0 0 0 1.53-3.49c.46-1.14 1.14-2.2 1.67-3.3l1.63-3.38c4.3-8.92 8.84-17.74 13.29-26.59 1.08-2.15 2.16-4.32 3.25-6.47a5.06 5.06 0 0 1 1.7-2.31c1.07-.56 2.47.11 3.54.38a21.59 21.59 0 0 0 9.76.05A22.57 22.57 0 0 0 412 445.92c.47-1.28-1.64-2.19-2.22-.93a3.75 3.75 0 0 0 1 4.53 4.8 4.8 0 0 0 5.22.48c3.26-1.45 5.45-4.88 6.3-8.25 1.84-7.4-1.68-14.63-7.5-19.14a37.47 37.47 0 0 0-12-5.9c-.94-.29-1.33 1.16-.4 1.46zM290.82 499.12c13.85-16.47 27.92-32.77 42.65-48.46a288 288 0 0 1 23.31-22.38c4-3.43 8.12-6.89 12.48-9.91a92.81 92.81 0 0 1 3.36-2.22 31.57 31.57 0 0 1 3.55-2.18 21.21 21.21 0 0 0 3.3-1.57 20.65 20.65 0 0 1 4-2.06 108.3 108.3 0 0 1 17.86-5.08 183.26 183.26 0 0 1 19.36-3c1.32-.13 1.34-2.22 0-2.09a157.88 157.88 0 0 0-33.7 6.65c-2.58.85-5 2-7.6 2.9a13 13 0 0 0-3.41 1.57c-1.22.86-2.5 1.59-3.75 2.42a154.46 154.46 0 0 0-12.68 9.69 381 381 0 0 0-46.31 46.07c-8 9.4-15.71 19-23.49 28.59-.6.75.44 1.83 1.08 1.07z" fill="#000000" class="fill-000000"></path><path d="M365.65 576.92c3.52-23.24 21.34-41.22 33.59-61.27 12.78-20.92 19.77-44.9 24-69 1.86-10.56 3.25-21.33 7.26-31.27s11.1-19.2 21.09-23.08c3.44-1.34 7.3-2 10.82-.88s6.51 4.35 6.5 8-3.8 7.14-7.34 6.11a61 61 0 0 1 36.23-5.77 8.35 8.35 0 0 1 3.76 1.25c2.81 2 2.24 6.69-.23 9.13s-6.06 3.24-9.46 3.94c2.78-1.41 5.79-2.78 8.88-2.39s6.08 3.24 5.42 6.28a7.5 7.5 0 0 1-2 3.31 30.24 30.24 0 0 1-12.79 8.33c2.28-1.77 4.7-3.6 7.56-4s6.23 1.07 6.81 3.9c.48 2.34-1 4.6-2.64 6.34a30.72 30.72 0 0 1-14.88 8.82c1.9-1.24 3.93-2.53 6.2-2.62s4.78 1.5 4.79 3.77a5.83 5.83 0 0 1-1.12 3 32.26 32.26 0 0 1-18.45 13.78c-2.67.75-5.52 1.18-7.83 2.72-4.68 3.12-5.57 9.51-6.14 15.12A382.47 382.47 0 0 1 437 591.77c-7.55 17.68-17 35.48-32.71 46.58-13.75 9.73-31.47 13.34-48.12 10.75s-32.17-11.19-43.93-23.25c-4.25-4.35-8.39-9.37-14.24-11" fill="#ffffff" class="fill-ffffff"></path><path d="M497.57 448.49a32.63 32.63 0 0 1-11.57 10.6 30.91 30.91 0 0 1-7 2.78c-2.6.69-5.36 1.16-7.65 2.67-3.82 2.52-5.33 7-6.06 11.35-1 5.71-1.34 11.53-2.12 17.27a382 382 0 0 1-16.82 71.3 337.8 337.8 0 0 1-13.22 33.48c-4.49 9.68-9.69 19.18-16.57 27.39a64.14 64.14 0 0 1-25.53 18.84A67.23 67.23 0 0 1 359 648.3a73.59 73.59 0 0 1-30.29-10.76 82 82 0 0 1-12.7-9.71c-3.79-3.53-7-7.65-11.18-10.8a20.39 20.39 0 0 0-6.52-3.39 1.24 1.24 0 0 0-.66 2.38c5.11 1.52 8.76 5.58 12.33 9.31A91.41 91.41 0 0 0 322.09 636a79.38 79.38 0 0 0 29.34 13.42c21.37 4.72 44.39-.75 60.44-15.85 7.8-7.33 13.8-16.39 18.74-25.83a277.6 277.6 0 0 0 13.67-31.53 384.25 384.25 0 0 0 19.22-71.89c1-6.08 1.89-12.19 2.58-18.31.58-5.11.53-10.78 2.7-15.55a10.17 10.17 0 0 1 4.77-5.08c2.51-1.23 5.38-1.56 8-2.47a32.35 32.35 0 0 0 12.51-7.85 33 33 0 0 0 4.6-5.92c.44-.71-.65-1.33-1.1-.64z" fill="#000000" class="fill-000000"></path><path d="M366.26 577.09c2.57-14.62 10.54-27.29 19-39.21 4.3-6.07 8.68-12.09 12.72-18.34a151.81 151.81 0 0 0 11.41-21.25c6.6-15 11-30.91 14.05-47 3-15.66 4.27-32.74 13.92-46.06 4.11-5.68 9.85-10.61 16.69-12.56 3.77-1.07 8.21-1.1 11.27 1.69 2.52 2.3 3.44 6.08.83 8.69a4.42 4.42 0 0 1-4.22 1.32l.28 2.18a59.3 59.3 0 0 1 19.25-5.78 63.38 63.38 0 0 1 9.84-.39c1.61.06 3.21.18 4.81.38a11 11 0 0 1 4.87 1.3c1.33.87 2.56-1.25 1.24-2.13a11 11 0 0 0-4.7-1.47c-1.77-.25-3.55-.44-5.34-.54a60 60 0 0 0-10.72.39 63.48 63.48 0 0 0-20.46 6.18 1.21 1.21 0 0 0 .29 2.18 7.25 7.25 0 0 0 8.1-4.16 8.37 8.37 0 0 0-1.78-9.18c-5.62-6.17-15.1-3.53-21.27.26-14.1 8.63-19.25 25.45-22 40.77-1.6 8.86-2.93 17.73-4.93 26.51a220.9 220.9 0 0 1-7.27 25.23 159.63 159.63 0 0 1-10.78 24 219.71 219.71 0 0 1-13.22 20.29c-8.84 12.47-18.48 25.52-22 40.67-.44 1.87-.78 3.76-1 5.67-.11.79 1.09 1.16 1.23.34zM135.44 438.1c5-19 11.77-37.47 15.77-56.71a86.38 86.38 0 0 0 2-14.21c.07-1.5-2.16-1.45-2.3 0-.86 9.08-3 18-5.28 26.83-2.53 9.93-5.4 19.78-8.1 29.68-1.27 4.65-2.53 9.3-3.55 14a.75.75 0 0 0 1.45.4z" fill="#000000" class="fill-000000"></path><path d="M185.8 346.15c2.22.61 4.13-1.9 4.38-4.19s-.42-4.65.15-6.88c.7-2.72 3.07-4.65 4.67-7 2.81-4.08 3.21-9.34 3.05-14.3a47.35 47.35 0 0 0-2.77-15.39 69.6 69.6 0 0 0 38 0c3.63-1 7.82-3.21 7.91-7a5 5 0 0 0-6.53-4.54c8.48-.14 15.88-8.53 15-17-.21-1.93-.92-4-2.59-5a6.89 6.89 0 0 0-4.6-.47 24.15 24.15 0 0 0-11 4.93c2.22-1.86 4.5-3.78 5.41-6.69A6 6 0 0 0 237 260c-.61-3.83-4.41-5-7.75-5.34-8.65-.92-17.41 1.18-25.38 4.65s-15.27 8.29-22.53 13.08a16.36 16.36 0 0 0 1.55-1.87c2.71-3.83-1.09-8.87-5.59-7.56a22.83 22.83 0 0 0-14 11.54c-5.1-1.6-12.44 3.31-16.74 6.29a48.71 48.71 0 0 0-12.92 12.88c-17.46 26.16 1 57.64 13.38 82.1a6.36 6.36 0 0 0 2 2.65 5.91 5.91 0 0 0 2.3.73c7.32 1.21 11.3.4 18.42-1.67a6.75 6.75 0 0 0 2.6-1.21 7.19 7.19 0 0 0 1.8-3.21c1.7-4.81 3.43-9.76 3.22-14.85-.11-2.79-.76-5.76.52-8.23" fill="#3239fa" class="fill-18c4ff"></path><path d="M185.58 347c2.86.68 5.09-2 5.51-4.57.3-1.9-.1-3.81 0-5.72a8.8 8.8 0 0 1 2.44-5.08c2.3-2.76 4.12-5.42 4.92-9a38.82 38.82 0 0 0 .55-11.08 46.52 46.52 0 0 0-2.68-13.37L195 299.5a71 71 0 0 0 28.78 2 47.11 47.11 0 0 0 12.68-3.07c3-1.33 6.11-3.85 5.84-7.48a6.16 6.16 0 0 0-7.92-5.16c-1.14.4-1 2.24.3 2.2a17.17 17.17 0 0 0 14.91-10.62 14.56 14.56 0 0 0 .79-9.58 6.57 6.57 0 0 0-2.75-3.84 7.77 7.77 0 0 0-5.09-.64 25.37 25.37 0 0 0-11.93 5.28l1.6 1.6c3.34-2.79 7.4-6.83 5.63-11.64-1.39-3.8-5.64-4.8-9.24-5.12-11-1-21.92 2.79-31.54 7.93-5.62 3-10.95 6.51-16.26 10l1.39 1.8c2.15-2.27 3.67-5 2.16-8.11a6.27 6.27 0 0 0-6.66-3.38 21.19 21.19 0 0 0-8.8 4.3 23.15 23.15 0 0 0-6.57 7.91l1.3-.53c-5.16-1.49-10.75 1.87-14.91 4.57a56.67 56.67 0 0 0-13.41 11.58 45.32 45.32 0 0 0-9.72 33.5c1.16 12 5.72 23.46 10.84 34.31 2.61 5.53 5.43 10.95 8.21 16.4 1.18 2.3 2.15 5.26 4.78 6.23a19.28 19.28 0 0 0 4.6.8 32.61 32.61 0 0 0 4.74.16 42 42 0 0 0 9.49-1.74c1.66-.46 3.58-.83 4.9-2a9.62 9.62 0 0 0 2.26-4.16 50.84 50.84 0 0 0 2.88-11 29.48 29.48 0 0 0 0-5.79c-.15-1.87-.33-3.84.5-5.59.58-1.23-1.25-2.31-1.84-1.07-1.28 2.7-.84 5.47-.7 8.35a28.37 28.37 0 0 1-1.44 9.67c-.48 1.56-1 3.1-1.57 4.64-.46 1.31-.87 2.89-2.17 3.63a19.42 19.42 0 0 1-4.49 1.43c-1.35.36-2.71.69-4.09.94a29.35 29.35 0 0 1-8 .3c-1.42-.13-3.4-.16-4.67-.89s-1.69-2.21-2.26-3.33c-2.5-4.93-5.06-9.82-7.48-14.78-9.55-19.54-18.83-43.75-6.09-64.08a48.19 48.19 0 0 1 13.83-14A52.93 52.93 0 0 1 155 277c2.42-1.14 5.29-2.16 8-1.39a1.14 1.14 0 0 0 1.29-.53 21.74 21.74 0 0 1 11.57-10.42c2.1-.8 4.38-1.28 6 .74 1.76 2.22.39 4.42-1.27 6.18-.87.91.26 2.54 1.39 1.8 8.29-5.48 16.7-11.06 26.09-14.5a51.64 51.64 0 0 1 14.4-3.21 37.86 37.86 0 0 1 7.14.17 9.88 9.88 0 0 1 4.66 1.57c1.93 1.45 2.07 3.93 1.08 6s-2.93 3.7-4.72 5.2c-1.14.95.48 2.49 1.6 1.6a22 22 0 0 1 11.43-4.74c2.1-.17 3.69.55 4.44 2.59a10.55 10.55 0 0 1 .4 5.05c-1 6.7-7 12.45-13.8 12.66l.3 2.2c2.67-1 5.8 1.56 4.95 4.43s-4.36 4.19-6.92 4.94a67.89 67.89 0 0 1-23.81 2.43 69.08 69.08 0 0 1-13.61-2.4c-.75-.21-1.66.55-1.35 1.36a45.4 45.4 0 0 1 2.68 13.71c.23 4.17.23 8.59-1.39 12.51-1.5 3.62-5.19 6-6.15 9.87-.56 2.2 0 4.45-.12 6.68-.09 1.62-1.21 4.21-3.22 3.86-1-.19-1.49 1.34-.44 1.59z" fill="#3239fa" class="fill-18c4ff"></path><path d="M233.6 298.39c2 4.78 2.28 10 2.16 15.11s-.53 10.21-.66 15.33a85.85 85.85 0 0 0 .82 16.88 47.36 47.36 0 0 0 4.91 14.05c.55 1 1.64 2.32 1.68 3.51a3.69 3.69 0 0 1-1.92 3.11c-1.7 1.16-3.38 2.16-4.28 4.1a14.38 14.38 0 0 0-.88 5.67c-.06 2-.1 4-.16 6-.23 8.13-.55 17.06-4.57 24.36a16.28 16.28 0 0 1-10 8.26c-5.14 1.36-10.71.4-15.81-.66-1.41-.3-2 1.87-.6 2.16 8.82 1.85 18.94 2.83 25.52-4.61 5.69-6.43 7-15.6 7.46-23.85.25-4.16.26-8.34.41-12.51.08-2.35.39-4.42 2.42-5.9 1.79-1.3 3.65-2.18 4.36-4.46.83-2.7-1-4.76-2.16-7.05a45.23 45.23 0 0 1-3.1-7.65 61.06 61.06 0 0 1-2.13-16.48c-.1-6.32.33-12.63.38-18.95 0-5.72-.34-11.58-2.7-16.87-.3-.66-1.47-.18-1.19.5z" fill="#000000" class="fill-000000"></path><path d="M228.83 344.17a1.19 1.19 0 0 0-.91 1.73.93.93 0 0 0 1.24.47c.74-.38.85-2-.06-2.21" fill="#000000" class="fill-000000"></path><path d="M229 343.53a1.52 1.52 0 0 0-1.2.13 2.11 2.11 0 0 0-.76.78 1.73 1.73 0 0 0-.2.55 2.32 2.32 0 0 0 0 .59 1.87 1.87 0 0 0 .12.57 2.32 2.32 0 0 0 .46.77 2.45 2.45 0 0 0 .35.29.94.94 0 0 0 .18.12 1.91 1.91 0 0 0 .91.22 2 2 0 0 0 1.33-.58 2.44 2.44 0 0 0 .57-1 1.73 1.73 0 0 0 .07-.31 2.94 2.94 0 0 0 .05-.59 2.31 2.31 0 0 0-.34-1.17 2.11 2.11 0 0 0-.59-.6 1.37 1.37 0 0 0-1.08-.15 1 1 0 0 0-.45 1.7l.09.1-.17-.22a1.67 1.67 0 0 0 .44.44l.09.06-.23-.18.15.15-.17-.22a.94.94 0 0 1 .12.22l-.11-.27a1.25 1.25 0 0 1 .08.32v-.29a3.09 3.09 0 0 1 0 .43v-.29a1.66 1.66 0 0 1-.12.42l.11-.26a1.12 1.12 0 0 1-.16.28l.17-.22a.91.91 0 0 1-.17.17l.22-.17a.54.54 0 0 1-.18.11l.26-.11a.65.65 0 0 1-.21.06h.29-.24.29l-.26-.07.26.11a1.16 1.16 0 0 1-.24-.14l.22.17a1 1 0 0 1-.2-.2l.16.21a.72.72 0 0 1-.14-.24l.1.25a1 1 0 0 1-.08-.29v.27a2 2 0 0 1 0-.35v.25c0-.14.05-.28.06-.43v.26a1.11 1.11 0 0 1 .09-.31l-.1.21a1.28 1.28 0 0 1 .15-.25l-.13.17a3.31 3.31 0 0 1 .26-.27l-.15.12a.69.69 0 0 1 .19-.1l-.17.07h.08a.69.69 0 0 0 .49-.65.7.7 0 0 0-.49-.64z" fill="#000000" class="fill-000000"></path><path d="M224.16 348c2.32-.29 4.73-.59 7 .18 1 .34 1.5-1.34.45-1.64-2.51-.7-5.11-.28-7.62.17-.72.13-.57 1.39.17 1.29z" fill="#000000" class="fill-000000"></path><g fill="#3239fa" class="fill-18c4ff"><path d="m216.44 349.57.18.08a2.6 2.6 0 0 0 .25.1h.1a.68.68 0 0 0 .4 0l.17-.07a.78.78 0 0 0 .27-.27.62.62 0 0 0 .09-.27.57.57 0 0 0 0-.29.64.64 0 0 0-.13-.26.55.55 0 0 0-.21-.19.79.79 0 0 0-.37-.1H216.62l-.16.06-.13.1-.1.13a.48.48 0 0 0-.07.24.25.25 0 0 0 0 .17.29.29 0 0 0 0 .16.32.32 0 0 0 .08.14.58.58 0 0 0 .18.17zM219.1 350.9l.31.47a.75.75 0 0 0 .27.26l.17.08a.86.86 0 0 0 .39 0 .7.7 0 0 0 .24-.13.55.55 0 0 0 .19-.21.51.51 0 0 0 .09-.27.57.57 0 0 0 0-.29.8.8 0 0 0-.19-.32l-.39-.42a.74.74 0 0 0-.22-.14.6.6 0 0 0-.27-.06h-.18a.57.57 0 0 0-.23.12.34.34 0 0 0-.12.12.51.51 0 0 0-.12.23v.18a.7.7 0 0 0 .09.35zM216 352.3a4.74 4.74 0 0 0 .49.4l.38.26a.5.5 0 0 0 .27.08.53.53 0 0 0 .28 0 .47.47 0 0 0 .25-.13.58.58 0 0 0 .18-.2.71.71 0 0 0 .07-.55l-.07-.18a.69.69 0 0 0-.26-.25l-.38-.25a1.24 1.24 0 0 0-.2-.1l-.21-.1a.41.41 0 0 0-.24-.08.46.46 0 0 0-.26 0l-.16.07a.52.52 0 0 0-.19.17.29.29 0 0 0-.08.14.58.58 0 0 0-.06.26.64.64 0 0 0 .19.46zM212.68 351.51h.2a.86.86 0 0 0 .39 0l.18-.08a.65.65 0 0 0 .26-.26.46.46 0 0 0 .09-.27.61.61 0 0 0 0-.3.56.56 0 0 0-.14-.25.61.61 0 0 0-.2-.19.72.72 0 0 0-.38-.1h-.2a.55.55 0 0 0-.28.07.51.51 0 0 0-.23.15l-.12.15a.5.5 0 0 0-.08.27.31.31 0 0 0 0 .19.5.5 0 0 0 .08.27l.12.15a.74.74 0 0 0 .32.19zM213.33 354.8l1.15.58a.78.78 0 0 0 .58.07.77.77 0 0 0 .46-.35.74.74 0 0 0 .07-.58l-.07-.18a.7.7 0 0 0-.27-.27l-1.18-.53a.56.56 0 0 0-.27-.08.57.57 0 0 0-.29 0 .75.75 0 0 0-.44.34.73.73 0 0 0-.07.56.68.68 0 0 0 .33.43zM218.8 355.08l.39.1a.72.72 0 0 0 .41 0l.18-.08a.81.81 0 0 0 .28-.27.52.52 0 0 0 .09-.29.61.61 0 0 0 0-.3.7.7 0 0 0-.15-.24.51.51 0 0 0-.22-.19.73.73 0 0 0-.38-.11h-.4a.63.63 0 0 0-.27.06.57.57 0 0 0-.23.15l-.11.14a.53.53 0 0 0-.08.27.31.31 0 0 0 0 .19.5.5 0 0 0 .08.26l.11.14a.77.77 0 0 0 .31.19z"></path></g><path d="M186.91 346.57a10.25 10.25 0 0 0-5.83-6.84 7.71 7.71 0 0 0-8.53 1.89 9.31 9.31 0 0 0-1.79 6.89 38.12 38.12 0 0 0 1.74 7.08c.71 2.39 1.34 4.9 2.95 6.8s4.6 2.91 6.65 1.5" fill="#ffffff" class="fill-ffffff"></path><path d="M187.61 346.38a11.16 11.16 0 0 0-6-7.55 8.86 8.86 0 0 0-9.13 1.25c-2.92 2.46-3.3 6.58-2.69 10.1.37 2.14 1.1 4.22 1.68 6.31a21 21 0 0 0 1.95 5.29c1.79 3 6.37 5.73 9.53 3 .86-.76-.05-2.45-1.16-2a4.18 4.18 0 0 1-4.38-.35 8.94 8.94 0 0 1-2.85-4.49c-1.27-3.58-2.92-7.67-2.6-11.52a6.29 6.29 0 0 1 6.77-6.1c3.62.2 6.42 3.21 7.48 6.49a.73.73 0 0 0 1.41-.39z" fill="#3239fa" class="fill-18c4ff"></path><path d="M176.88 347.22a6.59 6.59 0 0 1 2.37 2.55c.19.37-.06-.23.07.16l.15.45c.06.16.11.32.16.49s.08.5 0 .15a7.69 7.69 0 0 0 .2 1.26v.25c.06-.11.05-.1 0 0l.43-.43h.74l.11.06.43.43-.27 1.15-.6.16a.66.66 0 0 1-.57-.58 2.72 2.72 0 0 1 0 .28c0-.12 0 .22-.05.26s-.07.4-.05.27c-.08.11-.08.13 0 .06q-.15.17 0 0l.58-.16h-.09l.82.34-.07-.06.3.51v.23c0-.16 0-.09 0 0s.19-.27.12-.2a1.18 1.18 0 0 0 0-1.64 1.16 1.16 0 0 0-1.64 0 2.3 2.3 0 0 0-.6 2.54c.65 1.13 2.05.56 2.57-.35a4 4 0 0 0 .46-2.21 1.7 1.7 0 0 0-2.07-1.59 1.5 1.5 0 0 0-.63 2.46c.86.88 2.14.19 2.6-.73.11-.21.17-.44.28-.65 0 .05-.09.21 0 0l.12-.31a2.87 2.87 0 0 0 .09-1.74 5 5 0 0 0-1.17-2.32c-1.07-1.23-2.69-2.44-4.39-2.39-.67 0-1 1-.37 1.34zM198 438.08c.87-3.75 2.09-7.44 3.21-11.12.64-2.08 1.28-4.16 1.89-6.25.26-.86.51-1.71.74-2.58.1-.36.19-.73.28-1.1s.3-.92.1-.84a1.18 1.18 0 0 0-.63-2.28c-1.81.49-2 3.31-2.38 4.87-.56 2.26-1.16 4.52-1.73 6.78a104.76 104.76 0 0 0-2.79 12.34c-.1.75 1.14.91 1.31.18z" fill="#000000" class="fill-000000"></path><g fill="#3239fa" class="fill-18c4ff"><path d="M126.18 442.37a59 59 0 0 1 5-15.75 8.38 8.38 0 0 1 2.65-3.56 9.1 9.1 0 0 1 3.87-1.06c22-2.64 44.73-5.22 65.76 1.62a8.23 8.23 0 0 1 3.07 1.54 8 8 0 0 1 1.95 3.79 61 61 0 0 1 2.39 18"></path><path d="M126.8 442.54a73.19 73.19 0 0 1 3.2-11 50.65 50.65 0 0 1 2.14-4.75c.88-1.7 1.86-3 3.82-3.43a48.55 48.55 0 0 1 5-.63l6-.68c3.72-.4 7.44-.76 11.17-1 14.76-1.13 29.89-1 44.14 3.47 2 .63 3.71 1.21 4.57 3.29a31.89 31.89 0 0 1 1.54 5.69 66 66 0 0 1 1.36 13.51 1.14 1.14 0 0 0 2.28 0 59.31 59.31 0 0 0-2.43-18.52 8.63 8.63 0 0 0-2.5-4.38 13.13 13.13 0 0 0-4.63-2c-2-.61-4-1.13-6-1.59a100.22 100.22 0 0 0-11.66-1.83 148 148 0 0 0-24.55-.1c-4.12.29-8.23.69-12.34 1.15-3.93.44-8 .67-11.89 1.47-4.18.87-5.58 4.61-7 8.2a53.08 53.08 0 0 0-3.45 13c-.08.72 1.11.87 1.26.17zM220.73 334.61a5.25 5.25 0 0 0 2.57.33c.27 0 .53.07.8.07s.6-.07.9-.08c.59 0 1.18 0 1.78-.05a11.72 11.72 0 0 1 1.87.09l-1.09-.14c.88.13 1.77.24 2.66.33a3.92 3.92 0 0 0 3.48-2 4.05 4.05 0 0 0 .55-2l-.14-1.07a3 3 0 0 0-.72-1.37 2 2 0 0 0-.73-.73 3.12 3.12 0 0 0-1.37-.72 8.14 8.14 0 0 0-3.43-.51 18.53 18.53 0 0 0-2.23.24 7.55 7.55 0 0 0-2 .71 6.45 6.45 0 0 0-2.54 1.87 13.93 13.93 0 0 0-1 1.41 3.12 3.12 0 0 0-.5 1.53 2.41 2.41 0 0 0 1.18 2.13z"></path></g><path d="M102.43 442.38A308 308 0 0 1 233 439.76c12.61 2.49 26.06 6.39 33.82 16.65 6.31 8.35 7.63 19.34 8.73 29.76l4 38.34c.79 7.47-17.86 8.2-18.59 15.67-2.74 28-6.27 56.57-14.15 83.55-4.36 14.95-3.89 30.93-1.56 46.33.62 4.13 1.37 8.35.66 12.46-1.29 7.41-7.09 13.21-13.21 17.57-20.58 14.64-46.9 18.44-72.14 19.06-38.79.94-78.53-4.94-112.71-23.29-5.93-3.18-11.89-6.94-15.37-12.7-6.38-10.55-2.62-24.06 1.38-35.73 8.28-24.1 8.43-33 13.94-57.92 5.61-25.32 14.46-65.94 16.65-91.67 1.11-13 3.41-26.19 9.11-38 5.14-10.71 17.85-14.91 28.86-17.42" fill="#000000" class="fill-000000"></path><path d="M102.61 443a307.93 307.93 0 0 1 100.85-6.7q12.6 1.25 25.07 3.54c7 1.29 14.07 2.75 20.74 5.35 6.2 2.42 12.09 6 16.27 11.23 4.63 5.82 6.61 13.19 7.76 20.41 1.26 8 1.85 16.06 2.7 24.08l1.38 13.15.63 6a24.48 24.48 0 0 1 .47 5.18c-.2 1.58-1.67 2.68-2.92 3.47a43.85 43.85 0 0 1-5.8 2.84c-3.31 1.46-7.77 3.09-9.39 6.63a9.68 9.68 0 0 0-.64 3.24q-.33 3.28-.67 6.57-.65 6.21-1.37 12.39c-1 8.44-2.14 16.87-3.54 25.26-1.36 8.2-3 16.37-4.89 24.45s-4.73 16.18-5.91 24.52a110 110 0 0 0-.51 24.4c.35 4.14.88 8.25 1.51 12.36s1.24 8.37.12 12.47c-1.9 7-7.74 12.09-13.47 16a87.53 87.53 0 0 1-19.52 9.93c-14 5.12-29 7.17-43.88 7.91a288.37 288.37 0 0 1-46.55-1.35 219 219 0 0 1-45.85-10 178.48 178.48 0 0 1-21.52-8.85c-6.41-3.16-13.27-6.54-18-12-10.53-12.08-3.51-29.19.79-42.31 3.93-12 6.56-24.23 9-36.62 5.2-26.75 11.72-53.22 16.27-80.11 1.1-6.51 2.1-13 2.92-19.59.84-6.77 1.23-13.6 2.26-20.35a96.56 96.56 0 0 1 6.35-23.55 27.36 27.36 0 0 1 5-8.24 29.14 29.14 0 0 1 7.41-5.59c5.31-2.91 11.21-4.59 17.07-5.94 1.2-.27.69-2.12-.51-1.84-6.16 1.41-12.34 3.17-17.9 6.26a31.12 31.12 0 0 0-7.34 5.53 27.54 27.54 0 0 0-5.41 8.45 96.05 96.05 0 0 0-6.61 23c-1.19 7.05-1.63 14.18-2.48 21.28-3.28 27.25-9.34 54.19-15.25 81-2.84 12.86-4.95 25.88-8 38.67-1.69 7-3.78 13.86-6.09 20.65-2.38 7-4.72 14.18-5.14 21.64-.4 7.22 1.44 14.29 6.36 19.74s11.73 8.85 18.18 12a192.42 192.42 0 0 0 44.81 15.31 258.63 258.63 0 0 0 47.89 5.43c15.37.38 30.91-.14 46.08-2.81 14.71-2.59 29.25-7.48 41.56-16.13 5.51-3.88 10.8-8.73 13.2-15.19 1.48-4 1.38-8.15.84-12.28s-1.26-8.42-1.67-12.67a112 112 0 0 1 .13-25.22c1.11-8.61 4-16.85 6-25.27a438.78 438.78 0 0 0 8.6-50.54q.74-6.33 1.39-12.65c.22-2.1.43-4.21.63-6.31a5.22 5.22 0 0 1 .93-2.92 13.12 13.12 0 0 1 4.67-3.27c2-1 4.09-1.82 6.11-2.78 3.17-1.49 7.23-3.67 7-7.75-.27-4.38-.93-8.78-1.4-13.15l-1.39-13.14C277 490.16 276.45 482 275 474c-1.34-7.1-3.75-14.1-8.5-19.67-9.17-10.76-24.17-13.93-37.42-16.32a309.41 309.41 0 0 0-102.24-1.19q-12.36 1.92-24.54 4.85c-.87.21-.5 1.54.36 1.33z" fill="#000000" class="fill-000000"></path><path d="M314.38 854c-24.82-50.12-52.12-99.39-76.93-149.51-2.35-4.74-4.73-9.53-8.2-13.46-6-6.82-14.74-10.4-23.44-12.47-10.41-2.48-21.14-3.1-31.81-3.72-30.62-1.76-71.68-6-102.1-1.94-5.13.68-10.41 1.58-14.79 4.43s-7.68 8.13-6.8 13.4c-10.39 8.56-15.4 22.2-19.11 35.39-11.2 39.69-4.63 86.73-.48 127.88" fill="#3239fa" class="fill-18c4ff"></path><path d="M314.93 853.65c-11.8-24.59-24.58-48.73-37.21-72.91-12.54-24-25.14-48-37.22-72.28-2.78-5.59-5.33-11.45-9.15-16.43a35.59 35.59 0 0 0-12.71-10.11c-11.07-5.41-23.82-6.73-36-7.59-11.44-.82-22.9-1.46-34.34-2.23-11.9-.79-23.81-1.51-35.74-1.81a293.18 293.18 0 0 0-34.31.83c-10.14.94-23.53 2-28.1 12.81a13 13 0 0 0-.85 7.07l.27-1c-7.83 6.53-12.61 15.77-16 25.21a153.88 153.88 0 0 0-7.63 31.45c-3.14 22.86-2.1 46.08-.11 69 1.11 12.81 2.64 25.57 3.93 38.36.13 1.23 2.08 1.25 2 0-1.84-17.58-3.76-35.12-4.91-52.72-1.11-17.77-1.33-35.72 1-53.41a159.1 159.1 0 0 1 5.37-25c2.29-7.63 5.08-15.21 9.44-21.92a42.63 42.63 0 0 1 7.54-8.81c.66-.57 1.15-.84 1.12-1.73a13.68 13.68 0 0 1 .05-3.26 12.92 12.92 0 0 1 2.3-5.19c5-7 14.83-7.77 22.67-8.58 16.41-1.71 33-1.32 49.46-.55s32.84 2.12 49.27 3.07c9.58.55 19.2 1.15 28.6 3.19 8 1.73 16.08 4.49 22.28 10 6.69 5.94 10.08 14.73 14 22.56q6.54 13.07 13.24 26c8.94 17.34 18.05 34.58 27.12 51.84s18.2 34.68 27.08 52.13q3.21 6.32 6.43 12.63c.37.74 1.46.09 1.1-.65z" fill="#3239fa" class="fill-18c4ff"></path><path d="M237.07 440.53a111.19 111.19 0 0 1 32.25 14.75C301.84 477 321 514.56 353 537.14c4 2.82 8.27 5.49 11 9.51 2.5 3.63 3.56 8.06 4.16 12.42 3 21.85-4.4 44.29-17.17 62.28-6.8 9.58-16.59 18.76-28.34 18.48-9-.21-16.84-5.94-23.85-11.58a557 557 0 0 1-53.32-48.89c-7.84-8.18-15.5-16.71-20.9-26.67" fill="#000000" class="fill-000000"></path><path d="M236.9 441.17a114.84 114.84 0 0 1 37 18.61c10 7.51 18.74 16.53 27 25.83 16.58 18.6 31.78 38.82 52.43 53.22a52.18 52.18 0 0 1 7.47 5.85 20.18 20.18 0 0 1 5 8.82c1.87 6.52 2.1 13.67 1.65 20.4a89.5 89.5 0 0 1-12 38.21 80.38 80.38 0 0 1-11.61 16c-4.2 4.36-9.26 8.2-15.2 9.79-13.76 3.68-25.57-7.51-35.29-15.56q-17.2-14.25-33.13-29.91c-5.21-5.14-10.38-10.33-15.45-15.6A147.54 147.54 0 0 1 231 560.67a89.37 89.37 0 0 1-5.44-8.54c-.7-1.25-2.6-.14-1.92 1.13 6.86 12.83 17.36 23.45 27.47 33.74 5.36 5.49 11.05 10.68 16.67 15.9s11.36 10.34 17.19 15.33c5.63 4.81 11.3 9.64 17.23 14.08 5.33 4 11.29 7.58 18 8.44 13.06 1.68 23.81-8 31-17.76a97.59 97.59 0 0 0 17-37.48 79.7 79.7 0 0 0 1.7-20.51c-.36-6.67-1.24-14.08-5.37-19.58-3.93-5.25-10.07-8.42-15.17-12.37A158.21 158.21 0 0 1 335 520.31c-9.19-9.1-17.49-19-26-28.77s-16.88-19.12-26.53-27.45a114.23 114.23 0 0 0-35.05-21q-5-1.85-10.18-3.21a.66.66 0 0 0-.35 1.28z" fill="#000000" class="fill-000000"></path><path d="M236.9 441.17a114.84 114.84 0 0 1 37 18.61c10 7.51 18.74 16.53 27 25.83 16.58 18.6 31.78 38.82 52.43 53.22a52.18 52.18 0 0 1 7.47 5.85 20.18 20.18 0 0 1 5 8.82c1.87 6.52 2.1 13.67 1.65 20.4a89.5 89.5 0 0 1-12 38.21 80.38 80.38 0 0 1-11.61 16c-4.2 4.36-9.26 8.2-15.2 9.79-13.76 3.68-25.57-7.51-35.29-15.56q-17.2-14.25-33.13-29.91c-5.21-5.14-10.38-10.33-15.45-15.6A147.54 147.54 0 0 1 231 560.67a89.37 89.37 0 0 1-5.44-8.54c-.7-1.25-2.6-.14-1.92 1.13 6.86 12.83 17.36 23.45 27.47 33.74 5.36 5.49 11.05 10.68 16.67 15.9s11.36 10.34 17.19 15.33c5.63 4.81 11.3 9.64 17.23 14.08 5.33 4 11.29 7.58 18 8.44 13.06 1.68 23.81-8 31-17.76a97.59 97.59 0 0 0 17-37.48 79.7 79.7 0 0 0 1.7-20.51c-.36-6.67-1.24-14.08-5.37-19.58-3.93-5.25-10.07-8.42-15.17-12.37A158.21 158.21 0 0 1 335 520.31c-9.19-9.1-17.49-19-26-28.77s-16.88-19.12-26.53-27.45a114.23 114.23 0 0 0-35.05-21q-5-1.85-10.18-3.21a.66.66 0 0 0-.35 1.28z" fill="#000000" class="fill-000000"></path><path d="M50 695.47q33.29-1.69 66.62-1.38t66.38 2.67c3 .22 6.1.33 9.12.71a10.19 10.19 0 0 1 3.93 1.18 21.46 21.46 0 0 1 2.6 2.07c1.48 1.2 3.27 2.1 5.15 1.19.77-.37 4.6-4.18 5.09-1.92.23 1 1.8.59 1.58-.44-.33-1.53-1.93-2-3.33-1.76-1.92.37-2.94 2.71-4.85 2.85s-3.59-2.21-5.07-3.2a13 13 0 0 0-6.22-1.72c-11.33-1-22.71-1.57-34.07-2.08q-34.17-1.5-68.38-.87-19.28.35-38.52 1.38c-.85.05-.85 1.37 0 1.32zM215.84 706.21l2.36-.9a.76.76 0 0 0 .43-.34.73.73 0 0 0 .08-.56.7.7 0 0 0-.34-.43.69.69 0 0 0-.56-.08l-2.34 1a.78.78 0 0 0-.42.32.78.78 0 0 0-.07.54.71.71 0 0 0 .86.48z" fill="#3239fa" class="fill-18c4ff"></path><path d="m490.46 416.46.61.2v.4c-.08.1-.06.09.06 0l.17-.15c.18-.14.38-.27.56-.4.38-.26.76-.52 1.15-.77.78-.49 1.58-.94 2.41-1.36a37.55 37.55 0 0 1 5.08-2 .94.94 0 0 0-.5-1.81 25 25 0 0 0-7.11 3.05c-.54.33-1.07.68-1.59 1a6.67 6.67 0 0 0-1.5 1.19 1.16 1.16 0 0 0 .14 1.65.93.93 0 0 0 1.38-.2c.39-.54-.35-1.14-.86-.86zM489.62 431.59c3.72-1.81 7.4-3.76 11.06-5.69 1-.52.11-2-.86-1.48-3.64 2-7.28 4-10.85 6.07-.72.42-.09 1.46.65 1.1zM489.87 445.37A33.3 33.3 0 0 1 494 442c.71-.49 1.44-1 2.19-1.4a23.46 23.46 0 0 0 2.39-1.37.84.84 0 0 0-.64-1.53 11.09 11.09 0 0 0-2.5 1.32c-.8.5-1.58 1-2.34 1.61a35.54 35.54 0 0 0-4.24 3.71.74.74 0 0 0 1.05 1.05zM216.34 374.51c1.68 2.76 3.61 5.85 6.8 7 .82.29 1.4-1.05.6-1.43a10.77 10.77 0 0 1-3.51-2.62 30.15 30.15 0 0 1-2.71-3.64c-.48-.72-1.63-.07-1.18.69z" fill="#000000" class="fill-000000"></path><g fill="#3239fa" class="fill-18c4ff"><path d="M142.11 468.73q-4.86 38.47-11.38 76.72-6.45 37.83-14.5 75.37c-.73 3.39-1.38 6.82-2.24 10.19a14.62 14.62 0 0 1-1.73 4.37 24.87 24.87 0 0 1-2.85 3.22c-1.42 1.54-3.1 3.69-2.06 5.89.5 1 2 1 3 .88a7.68 7.68 0 0 0 3.8-1.37l-1.06-1.38a17.24 17.24 0 0 0-3.92 8.33c-.19 1.09 1.48 1.56 1.67.46a16 16 0 0 1 3.49-7.55c.59-.7-.19-2-1.07-1.38a6 6 0 0 1-3.49 1.19c-.8 0-1.06.06-1-.8a3.42 3.42 0 0 1 .64-1.58c1.29-2 3.32-3.36 4.51-5.42a25.19 25.19 0 0 0 2.36-7.4c.66-3.05 1.32-6.09 2-9.14q3.84-18.06 7.3-36.18 7-36.49 12.36-73.27 3-20.53 5.57-41.15c.1-.85-1.23-.84-1.34 0zM118.09 657.16l2.61-2a.77.77 0 0 0 .29-1.07.81.81 0 0 0-.48-.37.78.78 0 0 0-.6.08l-2.61 2a.88.88 0 0 0-.36.47.79.79 0 0 0 .55 1 .78.78 0 0 0 .6-.08zM231.69 573.33c6.92 5.94 13.59 12.2 20 18.69a.79.79 0 0 0 1.12-1.11c-6.42-6.52-13.18-12.66-20.21-18.5-.64-.53-1.56.37-.92.92z"></path></g><path d="M52 705c11.49.21 23 .52 34.48.61a.79.79 0 0 0 0-1.57c-11.49-.24-23-.27-34.48-.38a.67.67 0 0 0 0 1.34zM132.19 706.05q23.22-.79 46.43-1.69c1.1 0 1.1-1.76 0-1.71q-23.22 1-46.43 2.1c-.83 0-.84 1.33 0 1.3zM124.7 820.8c6.29 10.14 5.1 22.81 10.13 33.46.48 1 2 .13 1.5-.88-5-10.59-3.77-23.35-10.49-33.24-.48-.7-1.6-.07-1.14.66zM223.78 709.47c-4.33 14-8.51 28.13-12.73 42.21h1.64a57.84 57.84 0 0 0-2.24-6.49c-.43-1.05-.9-2.1-1.4-3.13a11.33 11.33 0 0 1-1.33-2.95c-.33-2.16 1.41-3.11 3.19-3.56 2.12-.55 4.23-1.14 6.33-1.75a.9.9 0 0 0-.48-1.73c-2.41.71-4.86 1.29-7.27 2a4.79 4.79 0 0 0-3.49 3.83c-.37 2.23 1.15 4.16 2 6.08a55.76 55.76 0 0 1 3 8.16.86.86 0 0 0 1.64 0c4.16-14.1 8.35-28.18 12.4-42.31a.68.68 0 0 0-1.31-.36zM595.43 447.32c1.8.94 3.58 1.91 5.33 2.93.86.5 1.72 1 2.58 1.52a19.17 19.17 0 0 0 2.7 1.57c.86.34 1.58-1 .9-1.55a14.71 14.71 0 0 0-2.6-1.54c-.91-.5-1.82-1-2.74-1.45q-2.72-1.38-5.49-2.63c-.77-.35-1.45.75-.68 1.15z" fill="#000000" class="fill-000000"></path><g fill="#3239fa" class="fill-18c4ff"><path d="M537 422.25c1.67 20.54.38 41.15-1.32 61.64s-3.41 41-5.58 61.45q-1.84 17.5-4.26 35c-.14 1 1.37 1.43 1.52.42 3.06-20.41 5.07-41 6.9-61.54s3.86-41.25 4.67-61.92a282.06 282.06 0 0 0-.57-35c-.07-.86-1.43-.87-1.36 0zM552.14 516.13Q548.54 560 545 603.8c-.67 8.31-1.37 16.61-2 24.91-.08 1.09 1.6 1.08 1.7 0 2.51-29.21 4.67-58.45 7-87.68l2-24.9c.07-.93-1.36-.92-1.44 0zM564.11 615.8l3.1-17.39c.16-.93-1.27-1.32-1.43-.39l-2.9 17.44c-.14.8 1.09 1.15 1.23.34z"></path></g><g fill="#ffffff" class="fill-ffffff"><path d="M732.7 509.89c25.39.29 50.78.3 76.17.41 7.14 0 14.28.18 21.41 0a1.16 1.16 0 0 0 0-2.32c-12.68-.39-25.4 0-38.09 0l-38.08.18c-7.14 0-14.28.07-21.41.15a.79.79 0 0 0 0 1.58zM732.7 526.78c25.39.29 50.78.3 76.17.41 7.14 0 14.28.18 21.41 0a1.16 1.16 0 0 0 0-2.32c-12.68-.39-25.4 0-38.09 0l-38.08.18c-7.14 0-14.28.07-21.41.15a.79.79 0 0 0 0 1.58zM732.7 543.67c25.39.29 50.78.3 76.17.41 7.14 0 14.28.18 21.41 0a1.16 1.16 0 0 0 0-2.32c-12.68-.39-25.4 0-38.09 0l-38.08.18c-7.14 0-14.28.07-21.41.15a.79.79 0 0 0 0 1.58zM732.7 560.56c10.06.18 20.13.2 30.19.28l15 .11c5.06 0 10.16.23 15.22 0a1.16 1.16 0 0 0 0-2.32c-5-.25-10-.06-15 0l-15.22.12c-10.06.08-20.13.09-30.19.28a.79.79 0 0 0 0 1.58zM732.7 599c25.39.29 50.78.3 76.17.41 7.14 0 14.28.18 21.41 0a1.16 1.16 0 0 0 0-2.32c-12.68-.39-25.4 0-38.09 0l-38.08.19q-10.71 0-21.41.15a.79.79 0 0 0 0 1.58zM732.7 615.89c25.39.3 50.78.31 76.17.42 7.14 0 14.28.18 21.41 0a1.17 1.17 0 0 0 0-2.33c-12.68-.38-25.4 0-38.09 0l-38.08.19q-10.71 0-21.41.15a.79.79 0 0 0 0 1.57zM732.7 632.78c25.39.3 50.78.31 76.17.41 7.14 0 14.28.18 21.41 0a1.17 1.17 0 0 0 0-2.33c-12.68-.38-25.4 0-38.09 0l-38.08.19q-10.71 0-21.41.15a.79.79 0 0 0 0 1.57zM732.7 649.67c10.06.19 20.13.21 30.19.29l15 .11c5.06 0 10.16.23 15.22 0a1.17 1.17 0 0 0 0-2.33c-5-.24-10-.06-15 0l-15.22.11c-10.06.08-20.13.1-30.19.29a.79.79 0 0 0 0 1.57zM693.13 254.47a41.61 41.61 0 0 0 18.28.27.82.82 0 0 0 .36-1.35c-3.65-4.14-4.56-11-1.12-15.58 3.1-4.11 9.37-5.48 13.73-2.63.92.59 1.73-.54 1.36-1.36-2.84-6.34-1.12-14.31 5-18a12.12 12.12 0 0 1 9.09-1.54 16 16 0 0 1 7.62 4.81 48.93 48.93 0 0 1 6.35 9 1.18 1.18 0 0 0 2.13-.27c.81-3.48 1.72-7.62 4.9-9.73 2.72-1.8 6.28-1.59 9.19-.38 7.31 3 9.22 11.8 9.94 18.87a1.33 1.33 0 0 0 2.45.67c1.24-2 4.22-1.65 5.89-.44 2.34 1.73 3.23 4.88 4 7.53a1.32 1.32 0 0 0 2.54-.7c-.23-1.63 2.51-1.92 3.5-1.43 1.87.92 2.81 3.21 3.66 5 .72 1.49 2.82.18 2.19-1.29-1.22-2.85-3.15-6.37-6.66-6.59-2.91-.18-5.65 2-5.23 5l2.54-.7c-1.09-3.56-2.47-7.76-6-9.56-2.93-1.49-6.84-1.12-8.69 1.84l2.45.66c-.68-6.72-2.2-14.42-7.77-18.9-4.54-3.66-11.72-4.92-16.39-.77-2.92 2.6-3.92 6.62-4.74 10.29l2.12-.28c-3.61-6-8.08-13-15.38-14.77s-14.9 2.86-17.26 9.86a17.56 17.56 0 0 0 .84 12.84l1.36-1.36c-5.18-3.33-12.52-1.65-16.17 3.18-4.06 5.37-2.89 13.07 1.42 17.89l.35-1.34a41.14 41.14 0 0 1-17.5 0c-.84-.18-1.19 1.09-.35 1.29zM846.11 231.29a78.9 78.9 0 0 0 15.75 2.09.87.87 0 0 0 .75-1.29 5.06 5.06 0 0 1 1.77-6.18 5 5 0 0 1 6.4 1.25c.66.82 1.9-.08 1.67-1-1.42-5.66.58-13.28 6.12-16.11 2.87-1.47 6.28-.49 8.77 1.29 2.76 2 4.61 5 6.41 7.77a1.22 1.22 0 0 0 2.2-.29 6.11 6.11 0 0 1 12 2.49c-.19 1.4 2.16 1.7 2.47.33a4.77 4.77 0 0 1 9.45 1.2 1.31 1.31 0 0 0 1.64 1.25 3.34 3.34 0 0 1 1.21-.24 2.52 2.52 0 0 1 .48.05c.33.1.14.14.13-.05.05 1.27 2.14 1.71 2.34.32.41-2.83-2.76-3.32-4.85-2.58l1.64 1.25A7.31 7.31 0 0 0 908 221l2.47.34a8.55 8.55 0 0 0-16.79-3.13l2.2-.28c-2.14-3.3-4.41-6.76-7.81-8.89-3-1.9-6.91-2.63-10.22-1s-5.45 4.77-6.7 8a17.38 17.38 0 0 0-.57 10.74l1.66-1a6.63 6.63 0 0 0-11.12 7.22l.74-1.3a73.71 73.71 0 0 1-15.39-1.7c-.84-.18-1.2 1.09-.36 1.3z"></path></g><g fill="#3239fa" class="fill-18c4ff"><path d="M359.52 147.86a144.69 144.69 0 0 0-10.21 90.29c2.08 9.86 5.13 19.66 10 28.54 8.66 15.9 25.36 29.71 44.5 27.32 8.26-1 16.28-5 21.44-11.62a26.35 26.35 0 0 0 4.55-22.32 23.38 23.38 0 0 0-5.35-10.15c-2.85-3.12-7.06-5.87-11.45-5.54-8.64.63-13 10.79-15 18-4.34 15.58-.48 32.74 8.42 46 9.68 14.42 26.95 25.93 44.92 24.17a28.14 28.14 0 0 0 21-12c4.29-6.28 6.09-14.6 3.08-21.79-1.6-3.8-4.58-7.45-9-7.82-3.92-.33-7.25 2.39-9.33 5.45-4.8 7.07-3.57 16.65-.34 24.1 3.51 8.05 9.77 14.68 16.7 19.94 7.76 5.9 17.07 10.73 26.69 12.6a35.34 35.34 0 0 0 14.59-.14c1.44-.32.83-2.54-.62-2.22-9.59 2.14-19.61-1-28.13-5.33a66.44 66.44 0 0 1-20.09-15.14c-5.25-6-9.22-13.42-9.55-21.5a18 18 0 0 1 2.69-11c1.91-2.89 5.24-5.41 8.84-4.08s5.67 5.82 6.36 9.44a20.06 20.06 0 0 1-.94 10.35 25.1 25.1 0 0 1-14.79 15.2c-16.4 6-34.8-3.21-45.64-15.52-9.89-11.24-15.48-26.53-14.26-41.53a45.47 45.47 0 0 1 2.17-10.71 29.49 29.49 0 0 1 5.51-10.43c3-3.32 7.05-4.88 11.3-2.93a18.17 18.17 0 0 1 8.1 7.91 24.21 24.21 0 0 1 .68 21.17c-3.27 7.16-10.07 12.15-17.49 14.35-17.23 5.11-34.37-5.09-44.09-19-5.4-7.71-9-16.52-11.54-25.53a139.1 139.1 0 0 1-4.92-28.06 144.19 144.19 0 0 1 7.28-56.6 140.7 140.7 0 0 1 5.23-13.1c.4-.87-.89-1.63-1.29-.76zM301.8 323.64A206.82 206.82 0 0 0 345 350a212.64 212.64 0 0 0 48.11 15.25 206.52 206.52 0 0 0 28.27 3.37c1.08.05 1.07-1.62 0-1.68a210.47 210.47 0 0 1-95.24-28.39 212.1 212.1 0 0 1-23.44-15.84c-.65-.5-1.58.4-.92.92zM295.52 369.5a79.82 79.82 0 0 0 49.19 16.72.78.78 0 0 0 0-1.56 79.3 79.3 0 0 1-48.35-16.26c-.62-.47-1.47.62-.84 1.1zM452.09 610.73a127.93 127.93 0 0 0 54.42 55.34 123.61 123.61 0 0 0 11.76 5.4c4.17 1.67 8.61 3.16 13.16 3a13.19 13.19 0 0 0 10.51-5.23 17.1 17.1 0 0 0 2.91-11.54c-.37-3.68-2-7.69-5.6-9.22s-7.51.22-9.85 3c-6.22 7.44 0 17.88 4.88 24.19a53.13 53.13 0 0 0 20.09 15.73 48 48 0 0 0 12.55 3.79c4.36.63 9.06.52 13-1.71 8-4.55 9.4-15.86 6.46-23.8a22.9 22.9 0 0 0-3.2-5.89 1.14 1.14 0 0 0-1.25-.51c-3.67 1.2-4.34 5.24-3.8 8.61.62 3.85 2.95 7.49 5.4 10.44a33.65 33.65 0 0 0 21 11.6 29.47 29.47 0 0 0 13.47-1.11c1.25-.41.73-2.39-.55-2-13.8 4.27-30.13-2.84-36.16-16-1.16-2.52-2.49-8.11 1.17-9.31l-1.25-.51c5 6.57 6.2 16.71 1 23.57-5.32 7.09-15.63 5.08-22.84 2.61a51.46 51.46 0 0 1-19.66-12.35 49.45 49.45 0 0 1-7.31-9.36c-2.29-3.8-4.37-8.44-3.36-13 .74-3.31 3.81-6.5 7.36-6.52 4.08 0 6 4.31 6.43 7.8a15.18 15.18 0 0 1-2.76 10.76c-2.62 3.37-6.77 4.43-10.87 4.09s-8-1.83-11.78-3.36a118.73 118.73 0 0 1-10.78-5.05 124.69 124.69 0 0 1-19.93-13.08 126.1 126.1 0 0 1-30.73-36c-.95-1.68-1.85-3.38-2.73-5.1-.41-.83-1.65-.1-1.24.72z"></path></g><g fill="#ffffff" class="fill-ffffff"><path d="M113.64 790.68a121.73 121.73 0 0 1 7.52 19.6.74.74 0 0 0 1.43-.4A125.44 125.44 0 0 0 114.8 790c-.38-.78-1.53-.1-1.16.67zM212.2 760.43c-1 2.29-1.44 4.84-.28 7.16.58 1.13 1.41 2.12 2 3.22a29.84 29.84 0 0 1 2 4.3c2.31 6 4.4 12.15 6.6 18.21q6.7 18.36 13.48 36.68 3.78 10.28 7.64 20.52c.37 1 2 .58 1.63-.45-8.66-23.85-17.32-47.69-26.17-71.47a51.64 51.64 0 0 0-3.71-8.61c-.81-1.36-2-2.59-2.46-4.15a7.93 7.93 0 0 1 .52-4.87c.27-.72-.94-1.24-1.24-.53z"></path></g></svg>