<svg viewBox="0 0 1000 1000" xmlns="http://www.w3.org/2000/svg"><path d="M410.61 425.56c14.24 2 28.42 4.32 42.6 6.72 18.29 3.09 36.55 6.34 54.81 9.64q29.51 5.34 59 10.79 27.78 5.1 55.57 10.17c14.81 2.68 29.62 5.34 44.46 7.81l4.32.71c.61.1.87-.84.25-.94-14.25-2.32-28.47-4.86-42.68-7.42q-27.33-4.92-54.63-10-29.68-5.44-59.36-10.84-27.77-5-55.57-9.79c-14.79-2.51-29.6-5-44.47-7l-4.2-.56c-.4-.06-.5.65-.1.71z" fill="#3239fa" class="fill-18c4ff"></path><path d="M464.84 302h-5.51a8.88 8.88 0 0 1 8.77 9v130.34a8.88 8.88 0 0 1-8.77 9h5.51a8.89 8.89 0 0 0 8.77-9V311a8.89 8.89 0 0 0-8.77-9z" fill="#d6275e" class="fill-000000"></path><path d="M464.84 301.07h-5.51a.88.88 0 0 0 0 1.76 8.11 8.11 0 0 1 7.89 8.14v127.59c0 2.8.13 5.49-1.74 7.87a7.94 7.94 0 0 1-6.15 3 .88.88 0 0 0 0 1.76c2.91 0 6.25.43 9-.67a10 10 0 0 0 6.16-9.24V311.15a10.21 10.21 0 0 0-3.3-7.64 9.71 9.71 0 0 0-6.35-2.44.88.88 0 0 0 0 1.76 8.11 8.11 0 0 1 7.88 8.16v129.46a11.84 11.84 0 0 1-.2 2.72 8.15 8.15 0 0 1-4.52 5.63 11.54 11.54 0 0 1-4.91.66h-3.71v1.76a9.84 9.84 0 0 0 9.52-8.25 16.37 16.37 0 0 0 .13-2.52V311.11a10.12 10.12 0 0 0-3.54-7.81 9.74 9.74 0 0 0-6.11-2.23v1.76h5.51a.88.88 0 0 0-.05-1.76z" fill="#d6275e" class="fill-000000"></path><path d="M401.17 302h58.16a8.88 8.88 0 0 1 8.77 9v130.34a8.88 8.88 0 0 1-8.77 9h-58.16a8.88 8.88 0 0 1-8.77-9V311a8.88 8.88 0 0 1 8.77-9z" fill="#3239fa" class="fill-18c4ff"></path><path d="M401.17 302.83h54.28a28.72 28.72 0 0 1 5.33.14c4.07.78 6.43 4.46 6.44 8.41v128.38a13.08 13.08 0 0 1-.43 4.22 8 8 0 0 1-7.46 5.48H402a11.37 11.37 0 0 1-2.47-.17 8.12 8.12 0 0 1-6.24-7.24c-.08-.89 0-1.79 0-2.68V311.22a8.14 8.14 0 0 1 7.89-8.39.88.88 0 0 0 0-1.76 9.91 9.91 0 0 0-9.65 10v128.65a15.57 15.57 0 0 0 .39 4.41 9.9 9.9 0 0 0 9.81 7.09h57.96a9.71 9.71 0 0 0 7.82-4.6 11.73 11.73 0 0 0 1.48-6.4V311.19a10 10 0 0 0-6.77-9.7c-2-.64-4.19-.45-6.24-.45h-54.8a.88.88 0 0 0-.01 1.79z" fill="#3239fa" class="fill-18c4ff"></path><path d="M401.17 301.95h58.16M401.17 302.83h58.16a.88.88 0 0 0 0-1.76h-58.16a.88.88 0 0 0 0 1.76z" fill="#d6275e" class="fill-000000"></path><path d="M423.7 306.49h13.1a4.52 4.52 0 0 0 3.76-2l1.7-2.52h-24l1.7 2.52a4.52 4.52 0 0 0 3.74 2z" fill="#d6275e" class="fill-000000"></path><path d="M423.7 307.37h10.59a12.55 12.55 0 0 0 4.41-.35c2.1-.8 3.13-2.87 4.32-4.63a.89.89 0 0 0-.76-1.32h-24a.89.89 0 0 0-.76 1.32c1.61 2.39 3 4.86 6.22 5 1.13.05 1.13-1.72 0-1.76-2.46-.09-3.49-2.31-4.7-4.11l-.76 1.33h24l-.76-1.33c-1.22 1.81-2.23 4-4.7 4.11-1.1.05-2.22 0-3.33 0h-9.77a.88.88 0 0 0 0 1.74z" fill="#d6275e" class="fill-000000"></path><path d="M285.05 498.68c20.8-25.18 41.79-50.55 67.2-71.06A83.66 83.66 0 0 1 368.16 417a78.29 78.29 0 0 1 15.76-5.28 167.83 167.83 0 0 1 22.72-3.82 4.6 4.6 0 0 1 3.45.58 3.18 3.18 0 0 1 .27 4.07 8.91 8.91 0 0 1-3.5 2.69 158.69 158.69 0 0 1-17.13 7.76c6.15 1.92 12.23 5.22 15.59 10.73s3.1 13.55-1.91 17.62a5 5 0 0 1-4.13 1.34c-1.46-.32-2.61-2.08-1.87-3.39-3.27 9.16-14.11 14.84-23.51 12.34a5.19 5.19 0 0 0-3.26-.25 4.62 4.62 0 0 0-2.07 2.43L328.07 544" fill="#ffffff" class="fill-ffffff"></path><path d="M389.54 423.65c6.75 2.2 14.11 6.33 16.35 13.56a13.85 13.85 0 0 1-.32 9.48 9.64 9.64 0 0 1-2.86 3.79 4.25 4.25 0 0 1-2.88 1.12c-.75-.08-1.85-.86-1.44-1.75l-2.07-.88c-2.18 5.88-7.68 10.25-13.7 11.71a17.92 17.92 0 0 1-4.73.52 24.72 24.72 0 0 1-4.76-.76 4.06 4.06 0 0 0-4.25 1.15c-1.26 1.49-2 3.59-2.88 5.32-4.13 8.17-8.19 16.38-12.42 24.49-1 2-2.1 4-3.14 6-.54 1-1 2.14-1.57 3.12a24 24 0 0 0-1.73 2.93c-.44 1-.76 2.1-1.25 3.12s-1.05 2.08-1.58 3.12l-3.14 6.24-13.94 27.65c-.56 1.12 1.11 2.1 1.68 1l12.5-24.73c2.06-4.09 4.07-8.2 6.19-12.26.55-1 1.23-2 1.83-3a21.21 21.21 0 0 0 1.29-3c.89-2.2 2.15-4.33 3.19-6.48 4-8.24 8.16-16.39 12.28-24.57 1.05-2.08 2.07-4.17 3.14-6.24.42-.81.86-1.73 1.77-2s2.21.25 3.21.48a20.1 20.1 0 0 0 9 0 21 21 0 0 0 15.16-13.09c.44-1.19-1.54-2-2.07-.87a3.51 3.51 0 0 0 .91 4.17 4.45 4.45 0 0 0 4.74.54c3.07-1.29 5.16-4.48 6-7.61 1.81-6.88-1.43-13.71-6.86-17.94a35 35 0 0 0-11.28-5.57c-.88-.27-1.24 1.08-.38 1.36zM285.55 499.18c12.94-15.39 26.09-30.64 39.87-45.3A269.81 269.81 0 0 1 347 433.19c3.81-3.24 7.67-6.51 11.79-9.36 1-.67 2-1.33 3-2a27 27 0 0 1 3.56-2.16c2.26-.95 4.23-2.35 6.51-3.27a100.9 100.9 0 0 1 16.82-4.79 168.5 168.5 0 0 1 18-2.8c1.24-.12 1.25-2.07 0-2a148.22 148.22 0 0 0-31.27 6.19c-2.46.8-4.8 1.91-7.24 2.75a12.58 12.58 0 0 0-3.15 1.42c-1.12.79-2.28 1.46-3.42 2.22a141.85 141.85 0 0 0-11.76 9 354.31 354.31 0 0 0-43.35 43.09c-7.47 8.78-14.68 17.76-21.94 26.7-.57.7.41 1.71 1 1z" fill="#d6275e" class="fill-000000"></path><path d="M355.33 571.72c3.28-21.66 19.89-38.43 31.32-57.13 11.92-19.5 18.44-41.87 22.4-64.38 1.73-9.85 3-19.88 6.76-29.15s10.35-17.91 19.67-21.53c3.21-1.25 6.81-1.86 10.09-.82s6.07 4.06 6.06 7.49-3.54 6.66-6.84 5.7a56.82 56.82 0 0 1 33.78-5.38 7.81 7.81 0 0 1 3.51 1.16c2.61 1.9 2.08 6.24-.22 8.52s-5.65 3-8.82 3.67c2.59-1.31 5.4-2.59 8.28-2.23s5.66 3 5.05 5.86a7 7 0 0 1-1.85 3.08 28.17 28.17 0 0 1-11.93 7.77c2.13-1.65 4.38-3.35 7.05-3.76s5.81 1 6.35 3.64c.45 2.17-.95 4.28-2.46 5.91a28.69 28.69 0 0 1-13.88 8.22c1.78-1.16 3.67-2.36 5.78-2.45s4.46 1.4 4.48 3.52a5.51 5.51 0 0 1-1.05 2.83 30.05 30.05 0 0 1-17.21 12.86c-2.49.7-5.14 1.1-7.3 2.53-4.37 2.91-5.19 8.87-5.72 14.1a356.88 356.88 0 0 1-26.78 103.83c-7 16.48-15.87 33.08-30.51 43.43-12.82 9.08-29.35 12.44-44.87 10s-30-10.43-41-21.67c-4-4.06-7.82-8.74-13.27-10.28" fill="#ffffff" class="fill-ffffff"></path><path d="M478.34 452a30.48 30.48 0 0 1-10.68 9.85 28.93 28.93 0 0 1-6.81 2.69c-2.36.61-4.85 1.07-6.92 2.43-3.53 2.34-4.95 6.51-5.63 10.5-.87 5.1-1.21 10.3-1.89 15.42a356 356 0 0 1-15.71 67 318.51 318.51 0 0 1-12.28 31.17c-4.18 9.05-9 17.93-15.41 25.62a59.87 59.87 0 0 1-23.91 17.74 62.72 62.72 0 0 1-30.17 3.86 68.88 68.88 0 0 1-27.95-10 76.25 76.25 0 0 1-12-9.21c-3.52-3.3-6.55-7.13-10.41-10.05a18.83 18.83 0 0 0-6-3.08 1.15 1.15 0 0 0-.61 2.22c4.78 1.43 8.2 5.24 11.55 8.73a84 84 0 0 0 11.29 9.93 74 74 0 0 0 27 12.41c20 4.51 41.61-.57 56.65-14.73 7.27-6.84 12.87-15.29 17.48-24.1a259.77 259.77 0 0 0 12.79-29.53 357.35 357.35 0 0 0 17.88-67q1.41-8.52 2.4-17.09c.54-4.72.5-9.95 2.49-14.35a9.5 9.5 0 0 1 4.71-4.9c2.27-1 4.8-1.35 7.15-2.16a30.29 30.29 0 0 0 11.8-7.37 30.84 30.84 0 0 0 4.22-5.44c.41-.66-.61-1.24-1-.61z" fill="#d6275e" class="fill-000000"></path><path d="M355.9 571.88c2.4-13.64 9.84-25.45 17.71-36.58 4-5.64 8.05-11.22 11.8-17a141.28 141.28 0 0 0 10.68-19.88 203.51 203.51 0 0 0 13.08-43.75c2.78-14.53 4-30.38 12.83-42.79 3.81-5.33 9.11-10 15.48-11.86 3.5-1.05 7.64-1.18 10.57 1.32 2.41 2.07 3.46 5.59 1.11 8.13a4.21 4.21 0 0 1-4.08 1.38l.27 2a55.45 55.45 0 0 1 17.88-5.37 56.34 56.34 0 0 1 9-.38c1.53 0 3.07.16 4.6.34a10.64 10.64 0 0 1 4.67 1.23c1.24.81 2.39-1.17 1.16-2-2.57-1.69-6.36-1.71-9.34-1.87a55.79 55.79 0 0 0-10.09.36 58.84 58.84 0 0 0-19 5.76 1.12 1.12 0 0 0 .26 2 6.74 6.74 0 0 0 7.48-3.73 7.74 7.74 0 0 0-1.48-8.59c-5.14-5.85-14-3.46-19.78 0-13.18 8-18 23.62-20.64 37.89-1.48 8.14-2.69 16.31-4.51 24.39a207 207 0 0 1-6.77 23.72 150.48 150.48 0 0 1-10 22.43 204.42 204.42 0 0 1-12.42 19.13c-8.27 11.67-17.32 23.88-20.65 38q-.62 2.63-1 5.28c-.1.75 1 1.09 1.15.32zM146.54 442.28c4.63-17.7 11-34.94 14.71-52.88a82.39 82.39 0 0 0 1.88-13.26c.05-1.4-2-1.35-2.15 0-.82 8.53-2.85 16.92-5 25.2-2.35 9.2-5 18.32-7.5 27.47-1.19 4.35-2.37 8.7-3.32 13.1a.7.7 0 0 0 1.35.37zM238.08 312c1.83 4.45 2.12 9.28 2 14s-.5 9.72-.62 14.6a78.5 78.5 0 0 0 .77 15.47 44.21 44.21 0 0 0 4.58 13.13c.53 1 1.63 2.27 1.56 3.44a3.68 3.68 0 0 1-1.95 2.83c-1.62 1.07-3.14 2.09-3.92 3.95a14.93 14.93 0 0 0-.74 5.48c-.05 1.84-.09 3.67-.14 5.5-.23 7.52-.57 15.8-4.35 22.51a15.15 15.15 0 0 1-9.32 7.56c-4.77 1.22-9.9.34-14.62-.65-1.31-.27-1.88 1.74-.56 2 8.09 1.7 17.41 2.64 23.56-4 5.41-5.88 6.66-14.41 7.16-22.07.26-3.91.28-7.83.4-11.74.08-2.24.24-4.31 2.16-5.78 1.63-1.25 3.44-2 4.14-4.11.83-2.53-.79-4.4-1.9-6.55a42.5 42.5 0 0 1-2.86-6.95 56.4 56.4 0 0 1-2.08-15.62c-.09-5.91.31-11.81.36-17.71 0-5.36-.32-10.82-2.53-15.77-.27-.62-1.37-.17-1.1.46z" fill="#d6275e" class="fill-000000"></path><path d="M233.63 354.69a1.11 1.11 0 0 0-.85 1.61.87.87 0 0 0 1.16.44c.68-.36.79-1.83-.06-2.06" fill="#d6275e" class="fill-000000"></path><path d="M233.79 354.09a1.43 1.43 0 0 0-1.11.12 1.85 1.85 0 0 0-.71.73 1.49 1.49 0 0 0-.19.51 2 2 0 0 0 0 .55 2 2 0 0 0 .1.54 2.33 2.33 0 0 0 .44.72 2.85 2.85 0 0 0 .32.27l.17.1a1.78 1.78 0 0 0 .85.21 1.83 1.83 0 0 0 1.24-.54 2.22 2.22 0 0 0 .53-.9c0-.1.05-.2.07-.29a3.48 3.48 0 0 0 0-.55 2.16 2.16 0 0 0-.31-1.09 2.1 2.1 0 0 0-.55-.56 1.26 1.26 0 0 0-1-.14.94.94 0 0 0-.41 1.58.39.39 0 0 1 .08.1l-.15-.21a1.42 1.42 0 0 0 .4.41l.08.05-.2-.16a.86.86 0 0 1 .13.14l-.16-.21a.82.82 0 0 1 .12.2l-.11-.24a1 1 0 0 1 .08.29v-.27a2.81 2.81 0 0 1 0 .41v-.28a1.24 1.24 0 0 1-.1.39l.1-.24a1.35 1.35 0 0 1-.15.26l.16-.2-.16.16.21-.16-.17.1.24-.1a1.39 1.39 0 0 1-.19.06h.27-.23.27a1.05 1.05 0 0 1-.24-.06l.24.1a.71.71 0 0 1-.22-.13l.2.16-.19-.19.15.2a1 1 0 0 1-.13-.22l.09.23a1.34 1.34 0 0 1-.07-.27v.25a1.82 1.82 0 0 1 0-.33v.24c0-.13.05-.26.06-.4v.24a1 1 0 0 1 .08-.29l-.08.2a1.12 1.12 0 0 1 .13-.24l-.12.16a1.48 1.48 0 0 1 .25-.25l-.15.11.18-.1-.16.07h.07a.62.62 0 0 0 0-1.2z" fill="#d6275e" class="fill-000000"></path><path d="M229.28 358.27a14.64 14.64 0 0 1 6.52.16c1 .33 1.4-1.24.42-1.52-2.34-.66-4.76-.26-7.11.16-.67.12-.52 1.29.17 1.2z" fill="#d6275e" class="fill-000000"></path><g fill="#3239fa" class="fill-18c4ff"><path d="m222.08 359.72.16.08a2.44 2.44 0 0 0 .24.1h.09a.77.77 0 0 0 .37 0l.16-.07a.75.75 0 0 0 .25-.25.81.81 0 0 0 .07-.53.55.55 0 0 0-.12-.24.55.55 0 0 0-.2-.17.62.62 0 0 0-.35-.1h-.53l-.14.06-.12.09-.1.12a.62.62 0 0 0-.07.23.43.43 0 0 0 0 .16.42.42 0 0 0 0 .15.35.35 0 0 0 .08.13.5.5 0 0 0 .17.15zM224.55 361l.3.44a.64.64 0 0 0 .24.25l.16.07a.73.73 0 0 0 .36 0 .56.56 0 0 0 .24-.13.45.45 0 0 0 .17-.19.44.44 0 0 0 .08-.25.5.5 0 0 0 0-.27.58.58 0 0 0-.18-.3l-.36-.39a.57.57 0 0 0-.21-.13.39.39 0 0 0-.24-.05h-.17a.53.53 0 0 0-.21.11.34.34 0 0 0-.12.12.53.53 0 0 0-.11.21v.17a.69.69 0 0 0 .08.32zM221.63 362.27a5.19 5.19 0 0 0 .45.37l.36.24a.43.43 0 0 0 .24.08.5.5 0 0 0 .27 0 .46.46 0 0 0 .23-.12.52.52 0 0 0 .17-.19.61.61 0 0 0 .07-.51l-.07-.16a.69.69 0 0 0-.24-.24l-.36-.23-.18-.1-.19-.09a.39.39 0 0 0-.23-.07.43.43 0 0 0-.25 0l-.14.06a.46.46 0 0 0-.18.16.35.35 0 0 0-.08.13.69.69 0 0 0-.05.24.6.6 0 0 0 .18.43zM218.57 361.53h.18a.77.77 0 0 0 .37 0l.16-.07a.6.6 0 0 0 .25-.25.44.44 0 0 0 .08-.25.54.54 0 0 0 0-.28.51.51 0 0 0-.12-.23.58.58 0 0 0-.2-.18.67.67 0 0 0-.34-.09h-.19a.78.78 0 0 0-.48.2l-.11.14a.46.46 0 0 0-.08.25.28.28 0 0 0 0 .18.47.47 0 0 0 .08.26l.11.14a.64.64 0 0 0 .3.17zM219.18 364.6l1.07.54a.78.78 0 0 0 .54.07.7.7 0 0 0 .42-.33.73.73 0 0 0 .08-.54l-.08-.17a.6.6 0 0 0-.25-.25l-1.1-.49a.46.46 0 0 0-.25-.08.5.5 0 0 0-.27 0 .68.68 0 0 0-.48.84.68.68 0 0 0 .32.4zM224.28 364.86l.36.1a.81.81 0 0 0 .38 0l.17-.08a.69.69 0 0 0 .26-.25.53.53 0 0 0 .08-.27.48.48 0 0 0 0-.29.47.47 0 0 0-.13-.24.44.44 0 0 0-.2-.18.65.65 0 0 0-.36-.1h-.38a.54.54 0 0 0-.25.06.46.46 0 0 0-.21.13l-.11.14a.48.48 0 0 0-.07.24.28.28 0 0 0 0 .18.48.48 0 0 0 .07.24l.11.14a.66.66 0 0 0 .29.17zM195.3 357.3a25.28 25.28 0 0 0 7.95-.47c-.82-3.4.68-7 3-9.67s5.28-4.57 8.12-6.63a84.21 84.21 0 0 0 25.47-29.87 5.4 5.4 0 0 0 .81-2.76 5.22 5.22 0 0 0-1.61-3c-12.89-14.41-35-18.09-53.44-17.08-18 1-36.46 10.26-47.4 24.65-9.78 12.85-10.33 29.67-6.65 44.84 3.44 14.14 10.71 32.26 21.65 42.33 5.48 5 8 3 15 3.07 4 0 6.3-1 8.24-4.46 1.75-3.13 5.32-8.48 7.07-11.61 1.4-2.5 2.84-5.17 2.72-8s-1.82-5.47-3.21-8a43.27 43.27 0 0 1-3.44-8.23c-.93-3.11-1.48-6.6 0-9.5a7.48 7.48 0 0 1 13.91 1.51"></path><path d="M195.3 358a25.93 25.93 0 0 0 8.2-.23 1 1 0 0 0 .66-1.17c-1.53-7.41 6.4-12 11.36-15.65a85.42 85.42 0 0 0 14.31-13.42 83.28 83.28 0 0 0 10.86-16.33 6 6 0 0 0 .85-3.92 8.16 8.16 0 0 0-2.3-3.58 44.79 44.79 0 0 0-6.43-5.64c-9.5-6.86-21.3-9.94-32.83-11-11.92-1.07-23.93-.07-35.11 4.4-11.4 4.56-22.14 12.22-29 22.53-7.08 10.59-8.5 23.76-6.76 36.13a98.63 98.63 0 0 0 4.35 17.58 108.24 108.24 0 0 0 7.14 16.7 65.49 65.49 0 0 0 10.3 14.6 17.48 17.48 0 0 0 6.4 4.71 15 15 0 0 0 6.32.4c2.66-.2 5.5.09 8.1-.56a8.82 8.82 0 0 0 5.35-4.2c1.44-2.36 2.85-4.74 4.3-7.09a72.54 72.54 0 0 0 4.41-7.7 11.29 11.29 0 0 0 .6-9.33c-1.29-3.21-3.29-6.07-4.6-9.28s-2.66-6.92-2.1-10.4a6.69 6.69 0 0 1 6.59-5.69 6.61 6.61 0 0 1 6.13 4.85 1.06 1.06 0 0 0 2-.56 8.59 8.59 0 0 0-12.77-5c-5.84 3.73-4.08 11.26-2 16.65 1.22 3.15 3 5.94 4.45 9a9.39 9.39 0 0 1 1 4.71 13.62 13.62 0 0 1-1.79 5.12c-1.3 2.46-2.81 4.8-4.29 7.14s-2.77 4.92-4.4 7.15c-1.52 2.07-3.68 2.69-6.15 2.72s-4.93.31-7.4.35c-5.22.06-9.07-4.55-12.06-8.31-7.41-9.31-12.13-20.82-15.36-32.18-3.34-11.76-4.74-24.42-1-36.26s13.17-21.18 23.74-27.38a67.76 67.76 0 0 1 34.4-9.13c11.38 0 23.14 1.67 33.46 6.65a44.38 44.38 0 0 1 13.72 10c1.27 1.39 1.94 2.54 1.07 4.39-.7 1.49-1.53 2.93-2.35 4.36a84.69 84.69 0 0 1-5.22 7.93 83.27 83.27 0 0 1-13.39 14.18c-2.49 2.09-5.15 3.92-7.77 5.85a23.56 23.56 0 0 0-6.47 6.54 11.57 11.57 0 0 0-1.59 8.44l.66-1.16a27.24 27.24 0 0 1-7.69.7c-.88-.06-.84 1.26 0 1.36z"></path></g><path d="M195.19 356.75a10.4 10.4 0 0 0-5.6-7 8.28 8.28 0 0 0-8.52 1.17c-2.72 2.29-3.08 6.13-2.5 9.41a60.83 60.83 0 0 0 1.56 5.89 19.61 19.61 0 0 0 1.82 4.93c1.67 2.82 5.94 5.34 8.89 2.76.8-.7-.05-2.29-1.08-1.86a3.92 3.92 0 0 1-4.09-.33 8.35 8.35 0 0 1-2.66-4.19c-1.18-3.34-2.72-7.15-2.43-10.74a5.88 5.88 0 0 1 6.32-5.69c3.38.19 6 3 7 6.05a.68.68 0 0 0 1.31-.36z" fill="#d6275e" class="fill-000000"></path><path d="M185.19 357.53a5 5 0 0 1 1.35 1.15 5.17 5.17 0 0 1 .86 1.23c.18.35-.06-.22.06.15l.14.42a3.88 3.88 0 0 1 .14.45s.08.47 0 .14a6.59 6.59 0 0 0 .18 1.18v.23c0-.1 0-.09 0 0l.41-.41H189l.11.05.4.4-.26 1.07-.55.15a.61.61 0 0 1-.53-.54 1.14 1.14 0 0 1 0 .26v.25c0 .04-.07.37-.05.24-.07.11-.07.13 0 .07-.09.1-.11.1 0 0l.54-.14h-.09l.77.31-.07-.05.28.48v.21c0-.15 0-.08 0 0s.17-.26.11-.19a1.11 1.11 0 0 0 0-1.53 1.09 1.09 0 0 0-1.53 0 2.16 2.16 0 0 0-.57 2.37c.62 1 1.92.52 2.41-.33a3.69 3.69 0 0 0 .42-2.06 1.58 1.58 0 0 0-1.93-1.48 1.39 1.39 0 0 0-.58 2.29c.8.82 2 .18 2.42-.68.1-.19.16-.41.26-.6 0 0-.08.19 0 0a1.39 1.39 0 0 0 .12-.28 2.72 2.72 0 0 0 .09-1.62 4.58 4.58 0 0 0-1.1-2.17 5.72 5.72 0 0 0-4.09-2.23c-.63 0-1 .94-.34 1.25zM204.87 442.26c.81-3.49 1.95-6.94 3-10.36.59-1.95 1.18-3.89 1.76-5.84.24-.8.48-1.6.68-2.4l.27-1c0-.22.28-.85.09-.78a1.11 1.11 0 0 0-.59-2.13c-1.69.46-1.85 3.09-2.21 4.54-.53 2.11-1.09 4.22-1.62 6.32a101.29 101.29 0 0 0-2.61 11.51c-.09.7 1.07.85 1.23.17zM227.23 346.89a2.49 2.49 0 0 0 1.34-.29 10.27 10.27 0 0 1 1.19-.38c.43-.11.86-.22 1.3-.31l.62-.12h.49a11.89 11.89 0 0 1 2.6-.05h.38l.63.1a4.16 4.16 0 0 0 1.79 0 1.23 1.23 0 0 0 .54-2 4.51 4.51 0 0 0-3.18-1.11 11.47 11.47 0 0 0-3.15.17 9.2 9.2 0 0 0-2.83 1.05 11.29 11.29 0 0 0-1.2.85c-.42.31-.93.66-1 1.2a.75.75 0 0 0 .52.92zM227.6 388.38a11.7 11.7 0 0 0 .7 2.61c.19.46.39.92.62 1.36a5.43 5.43 0 0 0 .92 1.22.88.88 0 0 0 1.38-1.07c-.1-.2-.18-.41-.29-.6s-.23-.38-.35-.57c-.21-.36-.4-.72-.58-1.1-.05-.1-.09-.2-.13-.3.07.18-.05-.14-.07-.17s-.13-.36-.19-.55a11.11 11.11 0 0 1-.34-1.29.88.88 0 0 0-1.07-.6.89.89 0 0 0-.6 1.06z" fill="#d6275e" class="fill-000000"></path><path d="M147.06 316c-6.76 5.4-15 10.61-23.46 9-9-1.73-15.08-11.26-14.93-20.41s5.38-17.61 12.11-23.83a57.72 57.72 0 0 1 15.78-10.29c5.27-2.35 11.22-4 16.78-2.46 8.27 2.25 13.48 11.28 13.16 19.84s-5.18 16.41-11.42 22.28" fill="#3239fa" class="fill-18c4ff"></path><path d="M146.52 315.42c-8.16 6.33-20.2 13.14-29.62 5.16a20.78 20.78 0 0 1-6.77-11.85 24.54 24.54 0 0 1 2.2-14.9c4.7-10.1 14.09-17.51 24-22.08 5.21-2.39 11.3-4.27 17-2.57 4.49 1.33 7.92 4.9 9.92 9 5.43 11.23-1.06 23-9 31.06-1 1 .5 2.47 1.55 1.55 8.37-7.41 14.39-19.38 10.8-30.62a20.83 20.83 0 0 0-8.95-11.71c-5.29-3.12-11.64-2.72-17.29-.86-11.46 3.76-22.61 11.86-28.64 22.42a29.05 29.05 0 0 0-4.15 16.19 23.46 23.46 0 0 0 5.79 13.79 18 18 0 0 0 16 6c6.91-.93 12.93-5.24 18.2-9.54.76-.62-.32-1.65-1.07-1.06z" fill="#3239fa" class="fill-18c4ff"></path><path d="M134.72 324.56c7.92-.66 15.17-4.25 21.36-9.09s12.92-11.37 11.13-19.83c-.18-.84-1.65-.67-1.53.21 1.06 7.95-5.5 14-11.2 18.43s-12.4 8.12-19.76 9c-.8.09-.83 1.35 0 1.28z" fill="#d6275e" class="fill-000000"></path><path d="M134.81 325c.52-.15 1.2.46 1.59.74a14 14 0 0 1 1.26 1.05 10.31 10.31 0 0 1 2.07 2.58 8.07 8.07 0 0 1 .77 6.35c-.58 1.84-2.42 4.18-4.62 3.4-1-.37-1.34-1.35-1.56-2.35-.28-1.29-.55-2.58-.73-3.89-.39-2.8-.25-5.76 1.37-8.17l-1.77-.75a38 38 0 0 1-2.63 6.36c-.53 1-1.11 2-1.73 3-.36.56-1 1.91-1.79 1.83-1-.1-1.19-1.35-1-2.12a5.75 5.75 0 0 1 1.91-2.49c1.8-1.61 3.64-3.18 5.44-4.81l-1.39-.83-.26.72a.81.81 0 0 0 1.48.62l.34-.68a.86.86 0 0 0-1.34-1c-1.27 1-2.51 2.1-3.76 3.17a24.32 24.32 0 0 0-3.08 2.83c-1.56 1.89-2 5.3.75 6.36s4.33-2.42 5.41-4.3a41 41 0 0 0 3.51-8.07c.34-1.09-1.17-1.62-1.76-.75-1.85 2.76-2 6.16-1.6 9.36a32.8 32.8 0 0 0 1 4.91 4.16 4.16 0 0 0 2.62 2.9c2.8 1 5.49-1.2 6.56-3.66a9.63 9.63 0 0 0-.49-8.39 12.1 12.1 0 0 0-2.94-3.51c-1-.83-2.73-2.3-4.07-1.45a.61.61 0 0 0 .47 1.11z" fill="#d6275e" class="fill-000000"></path><path d="m128.91 355.31 2.31-12.1c.75-3.92 1.73-7.9 1.72-11.92a.74.74 0 0 0-1.48 0c0 4-1 8-1.69 12L127.61 355c-.15.84 1.13 1.21 1.3.36z" fill="#d6275e" class="fill-000000"></path><path d="M121.26 349.78a42.6 42.6 0 0 1 5.78-8.62 41.77 41.77 0 0 0 5.5-8.92c.35-.8-.83-1.51-1.19-.69a45.22 45.22 0 0 1-5.57 9 42.55 42.55 0 0 0-5.6 8.59c-.31.72.75 1.36 1.08.63z" fill="#d6275e" class="fill-000000"></path><path d="M109.88 446.27a286.82 286.82 0 0 1 121.72-2.44c11.77 2.31 24.31 6 31.54 15.52 5.89 7.79 7.12 18 8.14 27.75l3.77 35.75c.74 7 1.47 14 .79 21-2.55 26.08-24 46.4-31.32 71.56-4.07 13.94-3.63 28.84-1.46 43.2.58 3.86 1.29 7.78.62 11.62-1.2 6.91-6.61 12.32-12.32 16.38-19.18 13.66-43.73 17.2-67.27 17.77-36.17.88-73.22-4.6-105.1-21.71-5.53-3-11.08-6.48-14.33-11.84-5.95-9.83-2.45-22.47 1.34-33.35 7.71-22.47 18.45-30.79 23.59-54 5.17-23.62 2.83-61.48 4.88-85.48 1-12.13 3.18-24.43 8.49-35.48 4.8-10 16.65-13.9 26.92-16.24" fill="#ffffff" class="fill-ffffff"></path><path d="M110.05 446.89a287 287 0 0 1 92.56-6.4q11.76 1.1 23.39 3.18a118.47 118.47 0 0 1 19.31 4.7c5.72 2.06 11.24 5 15.4 9.55 4.57 5 6.81 11.45 8.06 18 1.38 7.22 1.87 14.63 2.64 21.94l2.49 23.75c.81 7.77 1.73 15.63.78 23.44a65.86 65.86 0 0 1-5.18 18.11c-5 11.57-12.11 22-18 33.15a103.8 103.8 0 0 0-7.5 17.25 81.48 81.48 0 0 0-3.55 22 129 129 0 0 0 1.48 22.29c.59 4.08 1.5 8.32.69 12.43a19.64 19.64 0 0 1-4.13 8.41c-4.16 5.13-10 8.88-15.74 12a91.42 91.42 0 0 1-19 7.48c-13.19 3.65-26.92 4.86-40.56 5.15a262.72 262.72 0 0 1-43-2.43 196.93 196.93 0 0 1-41.75-10.55A160 160 0 0 1 59 681.45c-5.74-3.13-11.52-6.93-14.41-13s-2.31-13.34-.83-19.81a109.14 109.14 0 0 1 6.73-19.79c4.74-10.62 11.38-20.28 15.75-31.08 4.57-11.26 6.27-23.25 7.13-35.3.92-12.9 1-25.85 1.17-38.78.19-12.37.38-24.83 2.34-37.07a88.73 88.73 0 0 1 6-21.46 24.82 24.82 0 0 1 4.72-7.51 28.2 28.2 0 0 1 7-5.13 62.75 62.75 0 0 1 15.6-5.36c1.12-.26.65-2-.47-1.72a64.11 64.11 0 0 0-16.38 5.66 26.14 26.14 0 0 0-11.72 12.24c-5.88 12.86-7.79 27.16-8.53 41.16-.67 12.75-.58 25.52-.88 38.28-.29 12.39-.67 24.94-2.92 37.16a88 88 0 0 1-5.63 18.83c-2.32 5.38-5.2 10.49-8 15.61a158.39 158.39 0 0 0-8.32 16.83 96.29 96.29 0 0 0-6.17 20.3c-1.07 6.44-.93 13.26 2.29 19.1s9 9.65 14.76 12.75a172.72 172.72 0 0 0 40.56 15.5 229.42 229.42 0 0 0 43.3 6.26 243.91 243.91 0 0 0 43.15-1.18c13.68-1.71 27.3-5.13 39.44-11.82 5.74-3.17 11.54-7 15.65-12.21a21.77 21.77 0 0 0 4.23-8.22c.91-3.66.52-7.41 0-11.09-2.28-15.48-3.21-31.32 1.58-46.46 4-12.49 11.16-23.58 17.59-34.88 6.27-11 12.05-22.63 13.3-35.41.79-8.18-.32-16.41-1.18-24.54l-2.6-24.52c-1.39-13.09-1.68-28.34-11.32-38.47-9-9.49-23-12.16-35.31-14.32a288.43 288.43 0 0 0-94.36-.77q-11.3 1.77-22.4 4.45c-.81.19-.47 1.43.34 1.24z" fill="#d6275e" class="fill-000000"></path><path d="M300.08 830.08c-23.93-46.74-50.25-92.68-74.18-139.41-2.26-4.42-4.56-8.89-7.9-12.55-5.8-6.36-14.21-9.7-22.59-11.63-10-2.31-20.39-2.89-30.68-3.47-29.52-1.64-59.23-3.28-88.56.47-5 .63-10 1.47-14.26 4.13s-7.4 7.58-6.55 12.5c-10 8-14.85 20.7-18.43 33a312.32 312.32 0 0 0-10.33 117" fill="#d6275e" class="fill-000000"></path><path d="M300.33 829.93c-15.91-31.56-33.09-62.47-49.84-93.58q-12.49-23.28-24.64-46.77a63.19 63.19 0 0 0-6-10 31.54 31.54 0 0 0-8.08-7.24c-6.28-4-13.62-6-20.87-7.3a210.05 210.05 0 0 0-25.67-2.51c-8.77-.49-17.54-1-26.32-1.33-17.71-.71-35.48-.87-53.15.72-4.18.37-8.38.8-12.53 1.44a31.64 31.64 0 0 0-10.79 3.32 15.74 15.74 0 0 0-6.53 6.79 11.59 11.59 0 0 0-1.16 4.16c-.05.54.25 1.71 0 2.17-.28.68-1.53 1.38-2.08 1.9-10.45 9.95-14.67 24.86-18.18 38.4a309.41 309.41 0 0 0-9.35 98.19c.25 3.94.6 7.87 1 11.79.06.58 1 .59.91 0a311.58 311.58 0 0 1 5.39-97.17c1.64-7.59 3.55-15.15 5.84-22.57 2.09-6.8 4.61-13.55 8.41-19.59a42.5 42.5 0 0 1 6.74-8.32c.67-.63 2.28-1.52 2.4-2.44s-.16-2 0-3a11 11 0 0 1 .94-3c3.5-7.35 12.09-9.09 19.4-10 17.23-2.21 34.66-2.54 52-2.11 8.61.21 17.21.61 25.81 1.06s17.3.8 25.91 1.64c15.12 1.47 32.3 4.65 41.18 18.35a116.63 116.63 0 0 1 5.65 10.36q3.06 5.94 6.16 11.86 6 11.37 12 22.69c16.28 30.38 33 60.51 49 91q3 5.67 5.93 11.36c.18.35.69 0 .51-.3z" fill="#d6275e" class="fill-000000"></path><path d="M235.43 444.54a103.88 103.88 0 0 1 30.07 13.75c30.33 20.29 48.2 55.29 78 76.34 3.72 2.63 7.71 5.12 10.3 8.87 2.33 3.39 3.32 7.51 3.88 11.58 2.82 20.37-4.11 41.3-16 58.07-6.35 8.94-15.47 17.5-26.43 17.24-8.4-.2-15.7-5.53-22.24-10.8A519.51 519.51 0 0 1 243.29 574c-7.31-7.63-14.45-15.58-19.49-24.86" fill="#ffffff" class="fill-ffffff"></path><path d="M235.27 445.14a107.3 107.3 0 0 1 34.87 17.61c9.23 7 17.33 15.36 25 24 15.33 17.22 29.42 35.95 48.5 49.3a51 51 0 0 1 7.3 5.7 18.92 18.92 0 0 1 4.62 8.2 56.4 56.4 0 0 1 1.54 18.67 83.39 83.39 0 0 1-11.19 35.92 75.42 75.42 0 0 1-10.74 14.88c-3.93 4.09-8.67 7.72-14.23 9.22-12.87 3.46-23.9-7-33-14.53-10.59-8.77-20.88-17.92-30.62-27.63-9.47-9.44-19.5-18.72-27.37-29.6a85.51 85.51 0 0 1-5.28-8.25c-.65-1.17-2.42-.13-1.79 1 6.46 12.07 16.4 22.06 25.88 31.77 5 5.08 10.25 9.88 15.45 14.71s10.64 9.68 16.1 14.35c5.17 4.41 10.37 8.83 15.81 12.91 5 3.76 10.67 7.15 17 7.92 12.12 1.45 22.09-7.61 28.75-16.68a91 91 0 0 0 15.81-34.86 73.8 73.8 0 0 0 1.56-19.21c-.33-6.08-1.12-12.87-4.8-17.94s-9.49-8-14.33-11.79a146.86 146.86 0 0 1-13.22-11.69c-8.54-8.43-16.26-17.63-24.12-26.69s-15.89-18-25-25.9A106.79 106.79 0 0 0 245 446.91q-4.63-1.71-9.41-3a.62.62 0 0 0-.33 1.19z" fill="#d6275e" class="fill-000000"></path><path d="M61 682.28q30.92-1.59 61.89-1.3t61.86 2.48c2.72.19 5.45.34 8.16.62a11 11 0 0 1 3.88.95 14.88 14.88 0 0 1 2.61 2c1.4 1.16 3 2.11 4.86 1.31.77-.33 4.4-4 4.88-1.84.21 1 1.68.55 1.47-.41a2.42 2.42 0 0 0-2.89-1.67c-1.91.24-2.76 2.38-4.54 2.67s-3.51-2-4.92-3a12.19 12.19 0 0 0-5.76-1.61c-10.58-.94-21.22-1.47-31.83-1.94q-31.8-1.4-63.64-.82-18 .33-36 1.3c-.79 0-.8 1.27 0 1.23zM215.64 692.29l2.19-.84a.79.79 0 0 0 .41-.31.75.75 0 0 0 .07-.53.71.71 0 0 0-.32-.4.63.63 0 0 0-.52-.07l-2.18.9a.68.68 0 0 0-.39.3.65.65 0 0 0 .74.95z" fill="#3239fa" class="fill-18c4ff"></path><path d="M468 450.14a44.57 44.57 0 0 0 9.51-3.84 44.06 44.06 0 0 0 4.33-2.7c.56-.4 1.15-1 .8-1.7a1 1 0 0 0-1.64-.28.81.81 0 0 0 1.14 1.15l.08-.08-.57.24h-.19l-.37-.49c.18-.41.15-.5-.09-.26l-.41.3c-.27.19-.54.38-.82.56-.55.38-1.1.74-1.67 1.09-1.06.65-2.14 1.26-3.25 1.83a53.11 53.11 0 0 1-7.17 3 .61.61 0 0 0 .32 1.17zM471.54 435c2-.39 4-.87 5.92-1.44a31.71 31.71 0 0 0 5.7-2 .74.74 0 0 0-.56-1.34c-1 .3-1.86.73-2.79 1.08s-1.88.68-2.83 1c-1.89.62-3.82 1.14-5.76 1.58-.77.17-.44 1.31.32 1.17zM470 421.72a57.84 57.84 0 0 0 15.28-2.55c.92-.28.52-1.73-.39-1.44a62 62 0 0 1-14.89 2.8c-.76.05-.77 1.22 0 1.19z" fill="#d6275e" class="fill-000000"></path><g stroke="#d6275e" stroke-miterlimit="10" stroke-width="1.18" class="stroke-000000"><path d="M410.71 347.35h5.78v5.78h-5.78zM443.68 380.33h5.78v5.78h-5.78zM411.04 386.11v-5.78h5.78v5.78zM444.01 353.13v-5.78h5.78v5.78zM672.44 169.92h44.71v44.71h-44.71zM930.29 425.21H975v44.71h-44.71zM672.44 469.91V425.2h44.71v44.71zM930.29 214.65v-44.71H975v44.71z" fill="#d6275e" class="fill-000000"></path></g><g fill="#3239fa" class="fill-18c4ff"><path d="M141.54 467.1c-4.48 23.21-3 46.91-4 70.39a326.06 326.06 0 0 1-10.1 67.84q-2.41 9.3-5.36 18.46c-2 6.17-4.28 12.23-6.47 18.33-.3.85 1 1.16 1.33.37A264.34 264.34 0 0 0 127.69 610a327.84 327.84 0 0 0 7.31-33.63 329.14 329.14 0 0 0 3.7-33.72c.67-11.73.6-23.48.79-35.22.22-13.38.77-26.83 3.22-40 .14-.75-1-1.08-1.15-.32zM113.43 657.65l8.53-3.94a.76.76 0 0 0 .27-1 .77.77 0 0 0-1-.26l-8.53 3.93a.75.75 0 0 0-.27 1 .76.76 0 0 0 1 .27zM110 653.05a26 26 0 0 0 8.17-4.76c.66-.56-.3-1.51-1-.94a24.35 24.35 0 0 1-7.57 4.43c-.8.28-.46 1.56.35 1.27zM218.71 543.43a6.87 6.87 0 0 0 4.25-1.38.64.64 0 0 0 .22-.84.61.61 0 0 0-.84-.22 7.48 7.48 0 0 1-.89.57 4.3 4.3 0 0 1-.83.35 5.25 5.25 0 0 1-1.91.29.63.63 0 0 0-.62.62.61.61 0 0 0 .62.61zM216.26 538.22l5.93-1.9c.8-.26.46-1.54-.36-1.28l-5.92 1.96c-.79.26-.45 1.52.35 1.26zM244.73 573.71c6.63-.82 11.87-5.28 16.54-9.73a126.27 126.27 0 0 0 13.25-14.86 130.89 130.89 0 0 0 18.9-34.71 111.45 111.45 0 0 0 5.7-21.62c.13-.89-1.2-1.3-1.38-.38a156.4 156.4 0 0 1-4.74 18.72 129.07 129.07 0 0 1-30 49.12c-5 5.11-10.82 11.19-18.28 12.17-.81.11-.83 1.39 0 1.29zM263 588.93c23.34-10.68 35.12-35.42 44.55-57.79 2.87-6.8 5.5-13.73 6.34-21.11.11-1-1.41-1-1.52 0-.74 6.54-3 12.77-5.49 18.82s-5.06 12-7.91 17.81c-5.36 11-11.87 21.56-20.76 30.07a62.84 62.84 0 0 1-15.83 11.15c-.7.35-.09 1.37.62 1zM280.38 604.79c5.91-1.08 10.7-4.86 14.68-9.18a116.49 116.49 0 0 0 11.51-15.36A159.49 159.49 0 0 0 323.71 545a157.79 157.79 0 0 0 5.72-21.59c.18-.94-1.25-1.34-1.43-.4a158.46 158.46 0 0 1-11.79 36.78A149.23 149.23 0 0 1 296 592.37c-4.21 5.08-9.32 9.82-15.95 11.27-.76.17-.43 1.29.31 1.15zM342.15 536.26a118.34 118.34 0 0 1-7.22 38.24c-4.39 11.85-10.76 23.63-19.37 33a47.31 47.31 0 0 1-7.52 6.69 42.43 42.43 0 0 1-9.21 4.67.75.75 0 0 0 .4 1.45c5.78-1.33 11.08-5.31 15.26-9.37A78.85 78.85 0 0 0 326.14 596a113 113 0 0 0 14.95-37.26 107.55 107.55 0 0 0 2.28-22.49.61.61 0 0 0-1.22 0z"></path></g><g stroke="#d6275e" stroke-miterlimit="10" stroke-width="1.18" class="stroke-000000"><path d="M874.79 231h37.1v9.84h-37.1zM930.29 231H975v9.84h-44.71zM672.44 231h128.21v9.84H672.44zM762.8 259h93.84v9.84H762.8zM930.29 259H975v9.84h-44.71zM672.44 259h72.21v9.84h-72.21zM790.8 287h65.84v9.84H790.8zM902.79 287H975v9.84h-72.21zM672.44 287h44.71v9.84h-44.71zM672.44 315H975v9.84H672.44zM734.8 342.99H975v9.84H734.8zM672.44 342.99h44.71v9.84h-44.71zM672.44 370.99H975v9.84H672.44zM672.44 398.99H975v9.84H672.44z" fill="#d6275e" class="fill-000000"></path><path d="M734.8 240.84v-70.93h9.84v70.93zM734.8 471.2V259h9.84v212.2zM762.8 380.84V169.92h9.84v210.92zM762.79 471.2v-71.99h9.84v71.99z" fill="#d6275e" class="fill-000000"></path><path d="M762.8 380.84V169.92h9.84v210.92zM790.8 471.2v-45.99h9.84v45.99zM790.79 380.83v-65.84h9.84v65.84zM790.8 296.84V169.92h9.84v126.92zM818.8 471.2V169.92h9.84V471.2zM846.8 352.53v-182.6h9.84v182.6zM846.79 471.2V370.99h9.84V471.2zM874.8 471.2V169.92h9.84V471.2zM902.8 471.2V169.92h9.84V471.2z" fill="#d6275e" class="fill-000000"></path></g><g fill="#3239fa" class="fill-18c4ff"><path d="M672.46 170.72a.37.37 0 0 0 0-.73.37.37 0 0 0 0 .73z"></path><path d="M396.19 301.78C411 294 426 286.73 441 279.46q28.88-14 58-27.54 31.38-14.73 62.83-29.32 29.67-13.82 59.33-27.68c15.74-7.38 31.47-14.78 47.1-22.4l4.46-2.18c.56-.28.07-1.12-.49-.84-15 7.36-30.07 14.48-45.18 21.58q-29 13.66-58.15 27.16-31.47 14.64-62.9 29.34-29.62 13.91-59.13 28.06c-15.66 7.55-31.28 15.17-46.69 23.2l-4.4 2.32c-.41.22-.05.84.37.62z"></path></g></svg>