<?xml version="1.0" ?><svg id="Layer_1_1_" style="enable-background:new 0 0 64 64;" version="1.1" viewBox="0 0 64 64" xml:space="preserve" xmlns="http://www.w3.org/2000/svg" xmlns:xlink="http://www.w3.org/1999/xlink"><g><g><circle cx="23" cy="23" r="11" style="fill:#00F4CB;"/></g><g><path d="M22,18h2c1.103,0,2,0.897,2,2c0,0.552,0.448,1,1,1s1-0.448,1-1c0-2.206-1.794-4-4-4v-1c0-0.552-0.448-1-1-1s-1,0.448-1,1    v1c-2.206,0-4,1.794-4,4s1.794,4,4,4h2c1.103,0,2,0.897,2,2s-0.897,2-2,2h-2c-1.103,0-2-0.897-2-2c0-0.552-0.448-1-1-1    s-1,0.448-1,1c0,2.206,1.794,4,4,4v1c0,0.552,0.448,1,1,1s1-0.448,1-1v-1c2.206,0,4-1.794,4-4s-1.794-4-4-4h-2    c-1.103,0-2-0.897-2-2S20.897,18,22,18z"/><path d="M63,21c0-0.107-0.017-0.214-0.051-0.316l-3-9C59.812,11.275,59.431,11,59,11H38V4c0-1.654-1.346-3-3-3H11    C9.346,1,8,2.346,8,4v23.586l-3.251,3.251c-1.095,1.095-1.804,2.544-1.996,4.082l-0.698,5.586C2.018,40.793,2,41.084,2,41.374    v8.252c0,0.29,0.018,0.581,0.054,0.869L2.867,57H2c-0.552,0-1,0.447-1,1v4c0,0.553,0.448,1,1,1h11c0.552,0,1-0.447,1-1v-4    c0-0.553-0.448-1-1-1h-1v-3.172c0-0.263,0.107-0.521,0.293-0.707L16.414,49H35c1.654,0,3-1.346,3-3v-9h21c0.552,0,1-0.447,1-1    V24.858C61.72,24.411,63,22.858,63,21z M54.997,21.028C54.982,22.118,54.094,23,53,23c-1.103,0-2-0.897-2-2v-8h3.105    L54.997,21.028z M35,23c-1.054,0-1.919-0.819-1.995-1.854L35.721,13h1.277c0.001,0,0.002,0,0.002,0s0.002,0,0.002,0h0.881    l-0.877,7.89c-0.002,0.019,0.006,0.036,0.005,0.055C37.01,20.964,37,20.98,37,21C37,22.103,36.103,23,35,23z M39.895,13H43v8    c0,1.103-0.897,2-2,2c-1.094,0-1.982-0.882-1.997-1.972L39.895,13z M45,13h4v8c0,1.103-0.897,2-2,2s-2-0.897-2-2V13z M11,3h24    c0.551,0,1,0.449,1,1v3H10V4C10,3.449,10.449,3,11,3z M12,61H3v-2h9V61z M10.879,51.707C10.312,52.273,10,53.027,10,53.828V57    H4.883l-0.844-6.753C4.013,50.041,4,49.834,4,49.626v-8.252c0-0.208,0.013-0.415,0.039-0.621l0.698-5.586    c0.137-1.098,0.644-2.133,1.426-2.916l3.544-3.544c0,0,0,0,0.001-0.001l2.379-2.379C12.298,26.117,12.579,26,12.879,26    C13.497,26,14,26.503,14,27.121c0,0.3-0.117,0.581-0.328,0.793l-4.208,4.207C8.52,33.065,8,34.321,8,35.657v6.132    c0,0.99,0.291,1.949,0.84,2.773L9.132,45H9c-0.552,0-1,0.447-1,1s0.448,1,1,1h3c0.265,0,0.52-0.105,0.707-0.293l4.379-4.379    C17.298,42.116,17.579,42,17.879,42C18.497,42,19,42.503,19,43.121c0,0.295-0.12,0.584-0.328,0.793l-3.377,3.377    c-0.001,0.001-0.003,0.003-0.004,0.004L10.879,51.707z M11.586,45h-0.051l-1.031-1.547C10.174,42.958,10,42.383,10,41.789V41    h5.586L11.586,45z M35,47H18.414l1.672-1.672c0.1-0.1,0.183-0.215,0.268-0.328H26c0.552,0,1-0.447,1-1s-0.448-1-1-1h-5.012    c-0.03-0.772-0.339-1.47-0.833-2H36v5C36,46.552,35.551,47,35,47z M36,39H10v-3.343c0-0.802,0.312-1.556,0.878-2.121l4.208-4.208    C15.675,28.739,16,27.955,16,27.121C16,25.4,14.6,24,12.879,24c-0.834,0-1.618,0.325-2.207,0.914L10,25.586V9h26v2h-1    c-0.431,0-0.812,0.275-0.949,0.684l-3,9C31.017,20.786,31,20.893,31,21c0,1.858,1.28,3.411,3,3.858V36c0,0.553,0.448,1,1,1h1V39z     M49,35h-4v-6h4V35z M51,35v-7c0-0.552-0.448-1-1-1h-6c-0.552,0-1,0.448-1,1v7h-7V24.861c0.784-0.204,1.48-0.628,2-1.218    C38.733,24.475,39.807,25,41,25s2.267-0.525,3-1.357C44.733,24.475,45.807,25,47,25s2.267-0.525,3-1.357    C50.733,24.475,51.807,25,53,25s2.267-0.525,3-1.357c0.52,0.59,1.216,1.014,2,1.218V35H51z M59,23c-1.103,0-2-0.897-2-2    c0-0.02-0.01-0.036-0.011-0.056c-0.001-0.019,0.007-0.036,0.005-0.055L56.117,13h2.162l2.715,8.146C60.919,22.181,60.054,23,59,23    z"/></g></g></svg>