<?xml version="1.0" ?><svg id="Layer_1_1_" style="enable-background:new 0 0 64 64;" version="1.1" viewBox="0 0 64 64" xml:space="preserve" xmlns="http://www.w3.org/2000/svg" xmlns:xlink="http://www.w3.org/1999/xlink"><g><g><path d="M58,11H41v7v0h7l-3,3l4,4l-3,3l-4-4l-1,1v5H12V11H6c-0.553,0-1,0.447-1,1v22h54V12    C59,11.447,58.553,11,58,11z" style="fill:#00F4CB;"/></g><g><path d="M35,27H16c-0.553,0-1-0.447-1-1v-4c0-0.553,0.447-1,1-1h19c0.553,0,1,0.447,1,1v4    C36,26.553,35.553,27,35,27z" style="fill:#00F4CB;"/></g><g><path d="M58,7H42V2c0-0.552-0.447-1-1-1H12c-0.553,0-1,0.448-1,1v5H6c-2.757,0-5,2.243-5,5v45c0,3.533,2.056,6,5,6h52    c2.944,0,5-2.467,5-6V12C63,9.243,60.757,7,58,7z M3,35h4v17c0,0.552,0.447,1,1,1h48c0.553,0,1-0.448,1-1V35h4v20H3V35z M13,35v4    H9v-4H13z M19,35v4h-4v-4H19z M25,35v4h-4v-4H25z M31,35v4h-4v-4H31z M37,35v4h-4v-4H37z M43,35v4h-4v-4H43z M49,35v4h-4v-4H49z     M55,35v4h-4v-4H55z M45,51v-4h4v4H45z M21,51v-4h22v4H21z M15,51v-4h4v4H15z M9,51v-4h4v4H9z M55,45h-4v-4h4V45z M49,45h-4v-4h4    V45z M43,45h-4v-4h4V45z M37,45h-4v-4h4V45z M31,45h-4v-4h4V45z M25,45h-4v-4h4V45z M19,45h-4v-4h4V45z M13,45H9v-4h4V45z M51,47    h4v4h-4V47z M44.293,21.707L47.586,25L46,26.586l-3.293-3.293C42.512,23.098,42.256,23,42,23s-0.512,0.098-0.707,0.293    l-0.999,0.999c-0.001,0.001-0.001,0.001-0.002,0.002L40,24.586V19h5.586l-1.293,1.293C43.902,20.684,43.902,21.316,44.293,21.707z     M39,17c-0.553,0-1,0.448-1,1v9c0,0.404,0.243,0.769,0.617,0.924c0.374,0.154,0.803,0.07,1.09-0.217L40,27.414V29H13V11h27v6H39z     M13,3h27v6H13V3z M6,9h5v21c0,0.552,0.447,1,1,1h29c0.553,0,1-0.448,1-1v-4.586l3.293,3.293C45.488,28.902,45.744,29,46,29    s0.512-0.098,0.707-0.293l3-3c0.391-0.391,0.391-1.023,0-1.414L46.414,21l2.293-2.293c0.286-0.286,0.372-0.716,0.217-1.09    C48.77,17.244,48.404,17,48,17h-6V9h16c1.654,0,3,1.346,3,3v21H3V12C3,10.346,4.346,9,6,9z M58,61H6c-1.822,0-3-1.57-3-4h58    C61,59.43,59.822,61,58,61z"/><circle cx="16" cy="6" r="1"/><circle cx="20" cy="6" r="1"/><circle cx="24" cy="6" r="1"/><path d="M37,13H16c-0.553,0-1,0.448-1,1s0.447,1,1,1h21c0.553,0,1-0.448,1-1S37.553,13,37,13z"/><path d="M35,17h-6c-0.553,0-1,0.448-1,1s0.447,1,1,1h6c0.553,0,1-0.448,1-1S35.553,17,35,17z"/><path d="M23,17h-7c-0.553,0-1,0.448-1,1s0.447,1,1,1h7c0.553,0,1-0.448,1-1S23.553,17,23,17z"/></g></g></svg>