<?xml version="1.0" ?><!DOCTYPE svg  PUBLIC '-//W3C//DTD SVG 1.1//EN'  'http://www.w3.org/Graphics/SVG/1.1/DTD/svg11.dtd'><svg height="512px" style="enable-background:new 0 0 512 512;" version="1.1" viewBox="0 0 512 512" width="512px" xml:space="preserve" xmlns="http://www.w3.org/2000/svg" xmlns:xlink="http://www.w3.org/1999/xlink"><g id="Layer_1"><g id="_x31_72-inbox"><path d="M255.995,255.908v0.185c0-0.06,0.008-0.119,0.01-0.179L255.995,255.908z" style="fill:#13AEF5;"/></g><g id="Layer_1_1_"/></g><g id="_x31_72-inbox_1_"><g><path d="M83.499,472.145h344.997h28.753c15.874,0,28.75-12.912,28.75-28.824V227.113l-230,140.02    L83.499,472.145z" style="fill:#53C4F7;"/><path d="M480.735,216.098l-79.398-65.236l-60.213-49.472l-67.188-55.202    c-10.551-8.474-25.3-8.45-36.015,0.113L31.262,216.098c-3.114,2.559-4.978,6.302-5.214,10.307h459.904    C485.717,222.399,483.854,218.656,480.735,216.098z" style="fill:#375BC1;"/><path d="M255.999,367.273L26.001,227.256v216.021c0,15.912,16.188,28.826,32.063,28.826h26.205    L255.999,367.273z" style="fill:#13AEF5;"/><path d="M485.952,226.405H26.048c-0.013,0.224-0.028,0.447-0.037,0.672c-0.002,0.06-0.01,0.119-0.01,0.179    l229.998,140.017l230-140.017C485.999,226.97,485.969,226.689,485.952,226.405z" style="fill:#477CE3;"/><polygon points="218.823,163.631 178.173,204.393 255.999,282.432 448.825,89.084 408.173,48.321     255.997,200.908   " style="fill:#E3E3E3;"/></g></g></svg>