<svg id="Layer_1" version="1.1" viewBox="0 0 50 50" xml:space="preserve" xmlns="http://www.w3.org/2000/svg"><path d="M41.036 1.084c-.225-.131-.537-.113-.88.085L8.15 19.647c-.686.396-1.239 1.354-1.236 2.139L6.98 47.18c.001.39.139.664.36.793l1.623.942c-.222-.129-.36-.403-.361-.793l-.067-25.395c-.002-.785.551-1.742 1.237-2.138L41.777 2.112c.344-.198.656-.217.88-.086l-1.621-.942z" fill="#53f292" class="fill-6bb5fb"></path><path d="M41.777 2.112c.683-.394 1.24-.077 1.242.708l.066 25.395c.003.785-.55 1.742-1.233 2.137L9.847 48.829c-.685.396-1.242.08-1.244-.705l-.067-25.396c-.002-.785.551-1.742 1.237-2.138L41.777 2.112z" fill="#3239fa" class="fill-4466fb"></path><path fill="#f0f0e2" d="m41.483 6.747.054 22.006-31.385 18.12-.055-22.005z" class="fill-ffffff"></path><path d="M36.772 6.726c.351-.202.637-.04.638.363 0 .403-.283.893-.634 1.095-.348.202-.634.04-.635-.362-.001-.403.282-.894.631-1.096zM40.845 4.375c.35-.202.636-.04.638.363 0 .403-.283.893-.634 1.095-.349.202-.634.04-.635-.362-.001-.403.282-.894.631-1.096zM38.809 5.55c.35-.202.636-.04.637.364.001.403-.282.892-.633 1.094-.35.203-.635.041-.636-.362 0-.403.281-.893.632-1.096z" fill="#d9ddf6" class="fill-d9ddf6"></path><g><path d="m29.156 27.549 9.148-5.282c.342-.197.651-.215.875-.085l1.223.71c-.224-.13-.533-.111-.875.086L30.38 28.26c-.679.392-1.228 1.343-1.226 2.126l.03 10.51c.001.389.138.662.36.79l-1.223-.71c-.222-.129-.359-.402-.36-.792l-.03-10.509c-.002-.783.547-1.734 1.226-2.126z" fill="#d9ddf6" class="fill-d9ddf6"></path><path d="M30.379 28.26c-.679.392-1.228 1.343-1.226 2.126l.03 10.51c.002.782.555 1.097 1.234.705l9.148-5.281c.679-.392 1.228-1.344 1.226-2.127l-.03-10.509c-.002-.783-.555-1.098-1.234-.706L30.38 28.26z" fill="#b7c5fd" class="fill-b7c5fd"></path><path d="m39.657 25.512.075-.043.023 8.134-.075.044c-.637.367-1.154 1.262-1.151 1.994v.089l-7.08 4.087v-.09c-.002-.731-.522-1.027-1.159-.66l-.077.045-.023-8.134.077-.045c.637-.368 1.154-1.262 1.151-1.994v-.09l7.08-4.087v.09c.002.731.522 1.028 1.159.66zm-.055 8.008-.022-7.788c-.66.336-1.193.032-1.234-.704l-6.778 3.913c-.036.78-.564 1.697-1.223 2.122l.022 7.788c.66-.34 1.19-.034 1.231.701l6.778-3.913c.037-.78.567-1.698 1.226-2.12" fill="#9aadfd" class="fill-9aadfd"></path><path fill="#9aadfd" d="m35.708 33.39.002.415-4.465 2.577-.002-.414zM38.704 29.302l.002.414-7.468 4.311-.001-.414zM38.707 30.48l.002.414-7.467 4.31-.002-.414z" class="fill-9aadfd"></path><path fill="#384e85" d="m38.55 26.736.002.869-7.176 4.143-.003-.869z" class="fill-384e85"></path><g><g fill="#384e85" class="fill-384e85"><path d="m35.455 41.452.274.736.257.15-.273-.737zM36.73 39.37l-.258-.15.754 2.103.258.15z"></path><path d="m37.135 37.417-1.337.772-1.083 4.096.257.15 1.084-4.096 1.337-.772z"></path></g><path fill="#1b2a4f" d="m37.393 37.567 1.098 2.836-.741.022-.266 1.048-.755-2.103-.743 2.968-.273-.737-.74.833 1.083-4.095z" class="fill-1b2a4f"></path><g><path d="M34.311 38.33c0 .593.21 1.011.549 1.208l.446.26c-.339-.197-.548-.615-.548-1.208-.003-1.198.837-2.655 1.88-3.258.522-.3.998-.33 1.34-.13l-.447-.26c-.342-.2-.817-.17-1.34.13-1.043.603-1.883 2.06-1.88 3.258z" fill="#53f292" class="fill-6bb5fb"></path><ellipse cx="36.643" cy="37.5" rx="2.658" ry="1.54" transform="rotate(-59.838 36.643 37.5)" fill="#3239fa" class="fill-4466fb"></ellipse><path fill="#f0f0e2" d="m36.73 36.233.323.56.717-.295-.549.936.307.7-.735-.09-.698.826.121-.891-.52-.283.716-.533z" class="fill-ffffff"></path></g></g></g><path d="M37.728 13.107c-.002-.565-.404-.802-.903-.514L13.163 26.254c-.492.284-.899.989-.897 1.554l.006 3.284c.002.565.41.799.903.514l23.662-13.66c.499-.289.899-.99.897-1.555l-.006-3.284zM13.174 31.19c-.298.172-.538.035-.54-.307l-.006-3.284c0-.343.238-.756.536-.928l19.764-11.41.01 4.518-19.764 11.41z" fill="#384e85" class="fill-384e85"></path><g><path d="m36.14 16.087.91.516-.424.735-.908-.519a2.085 2.085 0 0 1-.561.494c-.29.167-.58.208-.801.082-.443-.253-.445-1.08-.005-1.842.22-.38.51-.675.8-.843.29-.167.58-.208.802-.082.37.21.432.82.188 1.459zm-.426.243c.307-.53.305-1.105-.003-1.28-.155-.088-.357-.06-.558.056a1.601 1.601 0 0 0-.557.587c-.306.53-.305 1.105.004 1.28.154.089.356.06.558-.056.201-.117.403-.321.556-.587" fill="#f0f0e2" class="fill-ffffff"></path></g><g><path fill="#dbbb04" d="m17.911 39.049-.009-3.325-4.747 2.741.009 3.325z" class="fill-798ffe"></path><path fill="#384e85" d="m24.432 35.284-.01-3.324-4.747 2.74.01 3.325z" class="fill-384e85"></path></g></svg>